<?xml version="1.0" encoding="UTF-8"?>
<svg width="830px" height="400px" viewBox="0 0 830 400" version="1.1" xmlns="http://www.w3.org/2000/svg" xmlns:xlink="http://www.w3.org/1999/xlink">
    <!-- Generator: Sketch 46.2 (44496) - http://www.bohemiancoding.com/sketch -->
    <title>login_pic</title>
    <desc>Created with Sketch.</desc>
    <defs>
        <filter x="-3.9%" y="-43.5%" width="107.7%" height="216.1%" filterUnits="objectBoundingBox" id="filter-1">
            <feOffset dx="0" dy="5" in="SourceAlpha" result="shadowOffsetOuter1"></feOffset>
            <feGaussianBlur stdDeviation="5" in="shadowOffsetOuter1" result="shadowBlurOuter1"></feGaussianBlur>
            <feColorMatrix values="0 0 0 0 1   0 0 0 0 1   0 0 0 0 1  0 0 0 0.202275815 0" type="matrix" in="shadowBlurOuter1" result="shadowMatrixOuter1"></feColorMatrix>
            <feMerge>
                <feMergeNode in="shadowMatrixOuter1"></feMergeNode>
                <feMergeNode in="SourceGraphic"></feMergeNode>
            </feMerge>
        </filter>
        <linearGradient x1="94.9182965%" y1="55.7821333%" x2="-13.5132396%" y2="55.7821305%" id="linearGradient-2">
            <stop stop-color="#FFFFFF" stop-opacity="0" offset="0%"></stop>
            <stop stop-color="#FFFFFF" stop-opacity="0.2" offset="100%"></stop>
        </linearGradient>
    </defs>
    <g id="slice" stroke="none" stroke-width="1" fill="none" fill-rule="evenodd">
        <g id="login_pic">
            <g id="1" transform="translate(111.000000, 66.000000)">
                <g id="Group-8" opacity="0.470561594" fill="#FFFFFF">
                    <g id="Group" opacity="0.5546875">
                        <path d="M607.715087,150.989156 L606.212481,150.989156 C605.073259,150.989156 604.150211,150.067378 604.150211,148.93027 L604.150211,147.430452 C604.150211,146.98611 603.789037,146.625607 603.343428,146.625607 C602.89826,146.625607 602.537529,146.98611 602.537529,147.430452 L602.537529,148.93027 C602.537529,150.067378 601.614039,150.989156 600.475259,150.989156 L598.972211,150.989156 C598.527043,150.989156 598.16587,151.349218 598.16587,151.793559 C598.16587,152.237901 598.527043,152.597963 598.972211,152.597963 L600.475259,152.597963 C601.614039,152.597963 602.537529,153.51974 602.537529,154.65729 L602.537529,156.157108 C602.537529,156.60145 602.89826,156.961512 603.343428,156.961512 C603.789037,156.961512 604.150211,156.60145 604.150211,156.157108 L604.150211,154.65729 C604.150211,153.51974 605.073259,152.597963 606.212481,152.597963 L607.715087,152.597963 C608.160696,152.597963 608.521428,152.237901 608.521428,151.793559 C608.521428,151.349218 608.160696,150.989156 607.715087,150.989156" id="Fill-33"></path>
                        <path d="M9.56327508,161.96052 L8.06066922,161.96052 C6.92100523,161.96052 5.99795697,161.038743 5.99795697,159.901635 L5.99795697,158.401816 C5.99795697,157.957475 5.6367834,157.596971 5.19161597,157.596971 C4.74644854,157.596971 4.38571703,157.957475 4.38571703,158.401816 L4.38571703,159.901635 C4.38571703,161.038743 3.4622267,161.96052 2.32300478,161.96052 L0.820398926,161.96052 C0.375231495,161.96052 0.0140579189,162.320582 0.0140579189,162.764924 C0.0140579189,163.209266 0.375231495,163.569328 0.820398926,163.569328 L2.32300478,163.569328 C3.4622267,163.569328 4.38571703,164.491105 4.38571703,165.628655 L4.38571703,167.128473 C4.38571703,167.572815 4.74644854,167.932877 5.19161597,167.932877 C5.6367834,167.932877 5.99795697,167.572815 5.99795697,167.128473 L5.99795697,165.628655 C5.99795697,164.491105 6.92100523,163.569328 8.06066922,163.569328 L9.56327508,163.569328 C10.0084425,163.569328 10.369174,163.209266 10.369174,162.764924 C10.369174,162.320582 10.0084425,161.96052 9.56327508,161.96052" id="Fill-41"></path>
                        <path d="M252.549217,59.363549 L251.046611,59.363549 C249.907389,59.363549 248.984341,58.4417719 248.984341,57.3046634 L248.984341,55.8048451 C248.984341,55.3605035 248.623168,55 248.177558,55 C247.732391,55 247.371659,55.3605035 247.371659,55.8048451 L247.371659,57.3046634 C247.371659,58.4417719 246.448169,59.363549 245.309389,59.363549 L243.806341,59.363549 C243.361174,59.363549 243,59.7236113 243,60.1683942 C243,60.6127357 243.361174,60.972798 243.806341,60.972798 L245.309389,60.972798 C246.448169,60.972798 247.371659,61.8945752 247.371659,63.0316837 L247.371659,64.531502 C247.371659,64.9758435 247.732391,65.3363471 248.177558,65.3363471 C248.623168,65.3363471 248.984341,64.9758435 248.984341,64.531502 L248.984341,63.0316837 C248.984341,61.8945752 249.907389,60.972798 251.046611,60.972798 L252.549217,60.972798 C252.994827,60.972798 253.355558,60.6127357 253.355558,60.1683942 L253.355558,60.1679529 C253.355558,59.7236113 252.994827,59.363549 252.549217,59.363549" id="Fill-43"></path>
                        <path d="M103.396701,207.004092 L102.528469,207.004092 C101.870223,207.004092 101.336641,206.4715 101.336641,205.814916 L101.336641,204.947854 C101.336641,204.691045 101.127982,204.482774 100.870696,204.482774 C100.61341,204.482774 100.404751,204.691045 100.404751,204.947854 L100.404751,205.814916 C100.404751,206.4715 99.8711691,207.004092 99.2133646,207.004092 L98.3446914,207.004092 C98.0874049,207.004092 97.8791886,207.212364 97.8791886,207.469173 C97.8791886,207.725982 98.0874049,207.933812 98.3446914,207.933812 L99.2133646,207.933812 C99.8711691,207.933812 100.404751,208.466404 100.404751,209.123871 L100.404751,209.990491 C100.404751,210.247301 100.61341,210.455131 100.870696,210.455131 C101.127982,210.455131 101.336641,210.247301 101.336641,209.990491 L101.336641,209.123871 C101.336641,208.466404 101.870223,207.933812 102.528469,207.933812 L103.396701,207.933812 C103.653987,207.933812 103.862646,207.725982 103.862646,207.469173 C103.862646,207.212364 103.653987,207.004092 103.396701,207.004092" id="Fill-45"></path>
                        <path d="M435.768547,73.5498789 L434.545774,73.5498789 C433.619189,73.5498789 432.867665,72.8001903 432.867665,71.8753244 L432.867665,70.6543779 C432.867665,70.2929919 432.574129,70 432.212071,70 C431.850013,70 431.556477,70.2929919 431.556477,70.6543779 L431.556477,71.8753244 C431.556477,72.8001903 430.804953,73.5498789 429.878368,73.5498789 L428.655594,73.5498789 C428.293536,73.5498789 428,73.8428707 428,74.2042568 C428,74.5660841 428.293536,74.8590759 428.655594,74.8590759 L429.878368,74.8590759 C430.804953,74.8590759 431.556477,75.6087645 431.556477,76.5336304 L431.556477,77.7541356 C431.556477,78.1155217 431.850013,78.4089548 432.212071,78.4089548 C432.574129,78.4089548 432.867665,78.1155217 432.867665,77.7541356 L432.867665,76.5336304 C432.867665,75.6087645 433.619189,74.8590759 434.545774,74.8590759 L435.768547,74.8590759 C436.130605,74.8590759 436.424142,74.5660841 436.424142,74.2042568 C436.424142,73.8428707 436.130605,73.5498789 435.768547,73.5498789" id="Fill-47"></path>
                        <path d="M470.538261,4.45612378 L469.315488,4.45612378 C468.388903,4.45612378 467.637379,3.70643525 467.637379,2.78112811 L467.637379,1.56062284 C467.637379,1.19923678 467.343843,0.906244919 466.981785,0.906244919 C466.619727,0.906244919 466.326191,1.19923678 466.326191,1.56062284 L466.326191,2.78112811 C466.326191,3.70643525 465.574667,4.45612378 464.648524,4.45612378 L463.425308,4.45612378 C463.063692,4.45612378 462.769714,4.74911564 462.769714,5.1105017 C462.769714,5.472329 463.063692,5.76532087 463.425308,5.76532087 L464.648524,5.76532087 C465.574667,5.76532087 466.326191,6.51500939 466.326191,7.43987528 L466.326191,8.66038055 C466.326191,9.02176661 466.619727,9.31519972 466.981785,9.31519972 C467.343843,9.31519972 467.637379,9.02176661 467.637379,8.66038055 L467.637379,7.43987528 C467.637379,6.51500939 468.388903,5.76532087 469.315488,5.76532087 L470.538261,5.76532087 C470.900319,5.76532087 471.193856,5.472329 471.193856,5.1105017 C471.193856,4.74911564 470.900319,4.45612378 470.538261,4.45612378" id="Fill-49"></path>
                        <path d="M17.7455144,257.438357 L16.5227407,257.438357 C15.5961558,257.438357 14.8446319,256.688668 14.8446319,255.763361 L14.8446319,254.542856 C14.8446319,254.18147 14.5510954,253.888478 14.1890377,253.888478 C13.82698,253.888478 13.5334436,254.18147 13.5334436,254.542856 L13.5334436,255.763361 C13.5334436,256.688668 12.7819196,257.438357 11.8553348,257.438357 L10.6325611,257.438357 C10.2705033,257.438357 9.97696692,257.731349 9.97696692,258.092735 C9.97696692,258.454562 10.2705033,258.747554 10.6325611,258.747554 L11.8553348,258.747554 C12.7819196,258.747554 13.5334436,259.497242 13.5334436,260.422549 L13.5334436,261.642613 C13.5334436,262.004441 13.82698,262.297433 14.1890377,262.297433 C14.5510954,262.297433 14.8446319,262.004441 14.8446319,261.642613 L14.8446319,260.422549 C14.8446319,259.497242 15.5961558,258.747554 16.5227407,258.747554 L17.7455144,258.747554 C18.1075721,258.747554 18.4011085,258.454562 18.4011085,258.092735 C18.4011085,257.731349 18.1075721,257.438357 17.7455144,257.438357" id="Fill-57"></path>
                        <path d="M391.759054,264.120915 L390.536281,264.120915 C389.609696,264.120915 388.858172,263.371227 388.858172,262.44592 L388.858172,261.225414 C388.858172,260.864028 388.564636,260.571036 388.202578,260.571036 C387.84052,260.571036 387.546984,260.864028 387.546984,261.225414 L387.546984,262.44592 C387.546984,263.371227 386.79546,264.120915 385.868875,264.120915 L384.646101,264.120915 C384.284043,264.120915 383.990507,264.413907 383.990507,264.775293 C383.990507,265.13712 384.284043,265.430112 384.646101,265.430112 L385.868875,265.430112 C386.79546,265.430112 387.546984,266.179801 387.546984,267.105108 L387.546984,268.325172 C387.546984,268.686999 387.84052,268.979991 388.202578,268.979991 C388.564636,268.979991 388.858172,268.686999 388.858172,268.325172 L388.858172,267.105108 C388.858172,266.179801 389.609696,265.430112 390.536281,265.430112 L391.759054,265.430112 C392.121112,265.430112 392.414649,265.13712 392.414649,264.775293 C392.414649,264.413907 392.121112,264.120915 391.759054,264.120915" id="Fill-61"></path>
                        <path d="M454.533409,221.698349 L453.310635,221.698349 C452.384051,221.698349 451.632527,220.94866 451.632527,220.023353 L451.632527,218.802848 C451.632527,218.441462 451.33899,218.14847 450.976933,218.14847 C450.614875,218.14847 450.321338,218.441462 450.321338,218.802848 L450.321338,220.023353 C450.321338,220.94866 449.569814,221.698349 448.64323,221.698349 L447.420456,221.698349 C447.058398,221.698349 446.764862,221.991341 446.764862,222.352727 C446.764862,222.714554 447.058398,223.007546 447.420456,223.007546 L448.64323,223.007546 C449.569814,223.007546 450.321338,223.757234 450.321338,224.682542 L450.321338,225.902606 C450.321338,226.264433 450.614875,226.557425 450.976933,226.557425 C451.33899,226.557425 451.632527,226.264433 451.632527,225.902606 L451.632527,224.682542 C451.632527,223.757234 452.384051,223.007546 453.310635,223.007546 L454.533409,223.007546 C454.895467,223.007546 455.189003,222.714554 455.189003,222.352727 C455.189003,221.991341 454.895467,221.698349 454.533409,221.698349" id="Fill-63"></path>
                    </g>
                </g>
                <g id="Page-1" filter="url(#filter-1)" transform="translate(78.000000, 119.000000)">
                    <path d="M39.0274499,0 L11.9917581,0.0540248963 C3.99725271,0.0540248963 0,4.17792531 0,12.433444 L0,18.5691286 C0,26.8555187 3.99725271,31 11.9917581,31 L39.0274499,31 C40.989919,31 41.9848683,29.9683817 41.99983,27.9051452 C42.0147916,25.8419087 41.0422847,24.8128631 39.0773221,24.8128631 L12.0416303,24.8128631 C8.00946707,24.8128631 5.99463227,22.7290456 5.99463227,18.5691286 L5.99463227,12.433444 C5.99463227,8.30697095 7.99450543,6.20771784 11.9917581,6.13825726 L39.0274499,6.13825726 C40.9599957,6.13825726 41.9275154,5.11435685 41.9275154,3.06912863 C41.9275154,1.02390041 40.9599957,0 39.0274499,0" id="Fill-20" fill="#FFFFFF"></path>
                    <path d="M51,3.08741404 L51,27.9100174 C51,29.9725744 51.9921649,31 53.9764948,31 C55.9608247,31 56.9505155,29.9520259 56.9505155,27.8586461 L57,3.0899826 C56.9678351,1.02742564 55.9608247,0 53.9764948,0 C51.9921649,0 51,1.02742564 51,3.08741404" id="Fill-21" fill="#FFFFFF"></path>
                    <path d="M67,3.09742739 L67,27.9051452 C67,29.9683817 67.9905595,31 69.9691897,31 C71.9478198,31 72.9533124,29.98639 72.9856673,27.9540249 L72.9856673,9.17908714 L102.911515,29.6056432 C103.842342,30.5343568 105.089253,30.9897095 106.654735,30.9717012 C108.215239,30.9536929 108.999225,29.9143568 108.999225,27.8511203 L108.999225,3.04340249 C109.03158,1.01360996 108.050976,0 106.052435,0 C104.061361,0 103.043424,0.998174274 103.013558,2.99195021 L102.963781,21.6639834 L72.9856673,1.54871369 C71.9229314,0.514522822 70.6585991,0 69.1951595,0 C67.7317198,0 67,1.03419087 67,3.09742739" id="Fill-22" fill="#FFFFFF"></path>
                    <path d="M157.011716,24.8246603 L123.979045,24.8246603 L123.979045,20.6426914 L123.979045,18.644183 L123.979045,12.4097614 L123.979045,10.1261187 L123.979045,6.23185283 L157.011716,6.23185283 C159.003073,6.23185283 160.002481,5.19406695 159.999995,3.11592642 C159.999995,1.03778588 159.003073,0 157.011716,0 L120.990766,0 C118.996922,0 118.002486,1.02751077 118.002486,3.08766987 L118,27.9123301 C118,29.9724892 118.996922,31 120.990766,31 L157.011716,31 C159.003073,31 160.002481,29.9724892 159.999995,27.9123301 C159.999995,25.852171 159.003073,24.8246603 157.011716,24.8246603" id="Fill-23" fill="#FFFFFF"></path>
                    <path d="M174.99436,8.81347823 L187.028637,17.2247953 C188.127646,18.2208723 189.102051,18.7124762 189.94936,18.6944593 C190.796669,18.6764424 191.805963,18.1719693 192.969767,17.1707446 L205.006536,8.75942754 L205.056378,27.9551444 C205.056378,29.9524461 206.048228,30.9485232 208.029435,30.9485232 C210.00815,30.9485232 211,29.9524461 211,27.9551444 L211,3.03520197 C210.967603,1.96705736 210.459218,1.10482015 209.477336,0.453638014 C208.492963,-0.200117964 207.339128,-0.146067273 206.005862,0.60806856 L189.976773,11.7553801 L173.793175,0.60806856 C172.594482,-0.0431135758 171.497965,0.0160848002 170.496147,0.78823753 C169.499313,1.5629641 169.000896,2.3273953 169.000896,3.08153114 L169.000896,27.9036676 C168.966007,29.9678892 169.95038,31 171.944048,31 C173.9427,31 174.95947,29.9678892 174.99436,27.9036676 L174.99436,8.81347823 Z" id="Fill-24" fill="#FFFFFF"></path>
                    <path d="M231.301325,6.23082022 L252.353477,6.23082022 L253.895695,12.4077051 L229.905629,12.4077051 L231.301325,6.23082022 Z M229.955298,0 C227.96606,0 226.70447,1.02990886 226.173013,3.08715824 L221,27.9077051 C221,29.9700911 221.876656,31 223.634934,31 C225.393212,31 226.503311,29.9880696 226.967715,27.9590721 L228.860099,18.6410936 L254.640728,18.6410936 L256.977649,27.804971 C257.509106,29.9007457 258.646523,30.9460646 260.387417,30.9460646 C262.130795,30.9460646 263,29.9161558 263,27.856338 L257.479305,3.14366197 C257.111755,1.04531897 255.934603,0 253.942881,0 L229.955298,0 Z" id="Fill-25" fill="#FFFFFF"></path>
                    <path d="M283.04883,0 C281.117738,0 280.149697,0.984261804 280.149697,2.95528354 C280.149697,4.92380714 281.117738,5.92305771 283.04883,5.9605296 L312.948319,5.90806895 C315.014138,6.007994 316.039563,7.04221834 316.024593,9.01324007 C316.007128,10.9842618 314.981704,11.9685236 312.950814,11.9685236 L289.049186,11.9685236 C283.04883,11.9685236 280.032434,14.9712715 280,20.9817637 L280,26.9922558 C280,28.9932551 281.03291,30 283.098729,30 L318.998574,30 C320.99703,30 322,29.0132401 322,27.0447165 C322,25.0761929 320.99703,24.071946 318.998574,24.0394704 L286.097659,24.0394704 L286.097659,21.0342243 C286.065225,18.9957532 287.0657,17.9790157 289.099085,17.9790157 L312.950814,17.9790157 C318.98111,17.9790157 322,14.9887584 322,9.01324007 C322,3.03772171 318.98111,0.0499625281 312.950814,0.0499625281 L283.04883,0 Z" id="Fill-26" fill="#FFFFFF"></path>
                    <polygon id="Fill-27" fill="#FFFFFF" points="150 15.5 135 21 135 10"></polygon>
                    <path d="M339.962476,18.6494845 L363.987306,18.6494845 C365.990624,18.6159794 366.999777,19.6159794 367.017262,21.6469072 C367.03225,23.6804124 366.040582,24.6804124 364.037264,24.6443299 L340.012434,24.6958763 C338.006618,24.7319588 337.007457,23.7345361 337.007457,21.7010309 C337.007457,19.6675258 337.989132,18.6494845 339.962476,18.6494845 L339.962476,18.6494845 Z M340.012434,6.24742268 L364.08972,6.24742268 C366.023097,6.28350515 366.999777,7.31958763 367.017262,9.35309278 C367.03225,11.3840206 366.058067,12.3994845 364.08972,12.3994845 L340.012434,12.3994845 C338.006618,12.3994845 337.007457,11.3737113 337.007457,9.32474227 C337.007457,7.2757732 338.006618,6.24742268 340.012434,6.24742268 L340.012434,6.24742268 Z M339.962476,0 C333.984994,0 331,3.07989691 331,9.24742268 C331.099916,13.3453608 332.101575,15.4458763 334.002479,15.5515464 C332.034132,15.5876289 331.032473,17.6520619 331,21.7525773 C331,27.9201031 333.984994,31 339.962476,31 L364.08972,30.9484536 C370.062206,30.9484536 373.014727,27.9020619 372.947284,21.8041237 C372.914811,17.6340206 371.965608,15.4974227 370.094679,15.3943299 C371.995583,15.3943299 372.964769,13.3634021 372.99974,9.29896907 C373.032212,3.09793814 370.027235,0 363.987306,0 L339.962476,0 Z" id="Fill-28" fill="#FFFFFF"></path>
                    <g id="Group-11" transform="translate(366.000000, 0.000000)" fill="url(#linearGradient-2)">
                        <polygon id="Rectangle-11-Copy-2" points="1 28 87 28 87 30 0 30"></polygon>
                        <rect id="Rectangle-11-Copy" x="1" y="0" width="86" height="24"></rect>
                    </g>
                </g>
            </g>
        </g>
    </g>
</svg>