<?xml version="1.0" encoding="UTF-8"?>
<svg width="470px" height="52px" viewBox="0 0 470 52" version="1.1" xmlns="http://www.w3.org/2000/svg" xmlns:xlink="http://www.w3.org/1999/xlink">
    <!-- Generator: Sketch 46.2 (44496) - http://www.bohemiancoding.com/sketch -->
    <title>stop_logo</title>
    <desc>Created with Sketch.</desc>
    <defs>
        <filter x="-4.1%" y="-39.1%" width="107.9%" height="209.4%" filterUnits="objectBoundingBox" id="filter-1">
            <feOffset dx="0" dy="5" in="SourceAlpha" result="shadowOffsetOuter1"></feOffset>
            <feGaussianBlur stdDeviation="5" in="shadowOffsetOuter1" result="shadowBlurOuter1"></feGaussianBlur>
            <feColorMatrix values="0 0 0 0 1   0 0 0 0 1   0 0 0 0 1  0 0 0 0.202275815 0" type="matrix" in="shadowBlurOuter1" result="shadowMatrixOuter1"></feColorMatrix>
            <feMerge>
                <feMergeNode in="shadowMatrixOuter1"></feMergeNode>
                <feMergeNode in="SourceGraphic"></feMergeNode>
            </feMerge>
        </filter>
        <linearGradient x1="94.9182965%" y1="55.7821333%" x2="-13.5132396%" y2="55.7821305%" id="linearGradient-2">
            <stop stop-color="#FFFFFF" stop-opacity="0" offset="0%"></stop>
            <stop stop-color="#FFFFFF" stop-opacity="0.2" offset="100%"></stop>
        </linearGradient>
    </defs>
    <g id="slice" stroke="none" stroke-width="1" fill="none" fill-rule="evenodd">
        <g id="stop_logo">
            <g id="logo" filter="url(#filter-1)" transform="translate(10.000000, 10.000000)">
                <path d="M39.12725,1.24044615 L12.02225,1.29375385 C4.00725,1.29375385 -0.00025,5.36290769 -0.00025,13.5088308 L-0.00025,19.5630615 C-0.00025,27.7394462 4.00725,31.8289077 12.02225,31.8289077 L39.12725,31.8289077 C41.09475,31.8289077 42.09225,30.8109846 42.10725,28.7751385 C42.12225,26.7392923 41.14725,25.7239077 39.17725,25.7239077 L12.07225,25.7239077 C8.02975,25.7239077 6.00975,23.6677538 6.00975,19.5630615 L6.00975,13.5088308 C6.00975,9.43713846 8.01475,7.36575385 12.02225,7.29721538 L39.12725,7.29721538 C41.06475,7.29721538 42.03475,6.28690769 42.03475,4.26883077 C42.03475,2.25075385 41.06475,1.24044615 39.12725,1.24044615" id="Fill-20" fill="#FFFFFF"></path>
                <path d="M51.32575,4.24243077 L51.32575,28.7741231 C51.32575,30.8125077 52.32825,31.8278923 54.33325,31.8278923 C56.33825,31.8278923 57.33825,30.7922 57.33825,28.7233538 L57.38825,4.24496923 C57.35575,2.20658462 56.33825,1.1912 54.33325,1.1912 C52.32825,1.1912 51.32575,2.20658462 51.32575,4.24243077" id="Fill-21" fill="#FFFFFF"></path>
                <path d="M66.604,4.29700769 L66.604,28.7753923 C66.604,30.8112385 67.599,31.8291615 69.5865,31.8291615 C71.574,31.8291615 72.584,30.8290077 72.6165,28.8236231 L72.6165,10.2979308 L102.6765,30.4533154 C103.6115,31.3697 104.864,31.8190077 106.4365,31.8012385 C108.004,31.7834692 108.7915,30.7579308 108.7915,28.7220846 L108.7915,4.2437 C108.824,2.24085385 107.839,1.2407 105.8315,1.2407 C103.8315,1.2407 102.809,2.22562308 102.779,4.19293077 L102.729,22.6170846 L72.6165,2.76885385 C71.549,1.74839231 70.279,1.2407 68.809,1.2407 C67.339,1.2407 66.604,2.26116154 66.604,4.29700769" id="Fill-22" fill="#FFFFFF"></path>
                <path d="M157.23775,25.7226385 L124.02025,25.7226385 L124.02025,21.5900231 L124.02025,19.6151 L124.02025,13.4542538 L124.02025,11.1975615 L124.02025,7.34925385 L157.23775,7.34925385 C159.24025,7.34925385 160.24525,6.32371538 160.24275,4.2701 C160.24275,2.21648462 159.24025,1.19094615 157.23775,1.19094615 L121.01525,1.19094615 C119.01025,1.19094615 118.01025,2.20633077 118.01025,4.24217692 L118.00775,28.7738692 C118.00775,30.8097154 119.01025,31.8251 121.01525,31.8251 L157.23775,31.8251 C159.24025,31.8251 160.24525,30.8097154 160.24275,28.7738692 C160.24275,26.7380231 159.24025,25.7226385 157.23775,25.7226385" id="Fill-23" fill="#FFFFFF"></path>
                <path d="M175.47375,9.89456923 L187.54625,18.1902615 C188.64875,19.1726462 189.62625,19.6574923 190.47625,19.6397231 C191.32625,19.6219538 192.33875,19.1244154 193.50625,18.1369538 L205.58125,9.84126154 L205.63125,28.7731077 C205.63125,30.7429538 206.62625,31.7253385 208.61375,31.7253385 C210.59875,31.7253385 211.59375,30.7429538 211.59375,28.7731077 L211.59375,4.19572308 C211.56125,3.14226154 211.05125,2.29187692 210.06625,1.64964615 C209.07875,1.00487692 207.92125,1.05818462 206.58375,1.80195385 L190.50375,12.7960308 L174.26875,1.80195385 C173.06625,1.15972308 171.96625,1.21810769 170.96125,1.97964615 C169.96125,2.74372308 169.46125,3.49764615 169.46125,4.24141538 L169.46125,28.7223385 C169.42625,30.7581846 170.41375,31.7761077 172.41375,31.7761077 C174.41875,31.7761077 175.43875,30.7581846 175.47375,28.7223385 L175.47375,9.89456923 Z" id="Fill-24" fill="#FFFFFF"></path>
                <path d="M231.183,7.34874615 L252.3755,7.34874615 L253.928,13.4537462 L229.778,13.4537462 L231.183,7.34874615 Z M229.828,1.19043846 C227.8255,1.19043846 226.5555,2.20836154 226.0205,4.24166923 L220.813,28.7733615 C220.813,30.8117462 221.6955,31.8296692 223.4655,31.8296692 C225.2355,31.8296692 226.353,30.8295154 226.8205,28.8241308 L228.7255,19.6145923 L254.678,19.6145923 L257.0305,28.6718231 C257.5655,30.7432077 258.7105,31.7763615 260.463,31.7763615 C262.218,31.7763615 263.093,30.7584385 263.093,28.7225923 L257.5355,4.29751538 C257.1655,2.22359231 255.9805,1.19043846 253.9755,1.19043846 L229.828,1.19043846 Z" id="Fill-25" fill="#FFFFFF"></path>
                <path d="M282.5965,0.662946154 C280.6615,0.662946154 279.6915,1.6631 279.6915,3.66594615 C279.6915,5.66625385 280.6615,6.68163846 282.5965,6.71971538 L312.5565,6.66640769 C314.6265,6.76794615 315.654,7.81886923 315.639,9.82171538 C315.6215,11.8245615 314.594,12.8247154 312.559,12.8247154 L288.609,12.8247154 C282.5965,12.8247154 279.574,15.8759462 279.5415,21.9834846 L279.5415,28.0910231 C279.5415,30.1243308 280.5765,31.1473308 282.6465,31.1473308 L318.619,31.1473308 C320.6215,31.1473308 321.6265,30.1446385 321.6265,28.1443308 C321.6265,26.1440231 320.6215,25.1235615 318.619,25.0905615 L285.6515,25.0905615 L285.6515,22.0367923 C285.619,19.9654077 286.6215,18.9322538 288.659,18.9322538 L312.559,18.9322538 C318.6015,18.9322538 321.6265,15.8937154 321.6265,9.82171538 C321.6265,3.74971538 318.6015,0.713715385 312.559,0.713715385 L282.5965,0.662946154 Z" id="Fill-26" fill="#FFFFFF"></path>
                <polygon id="Fill-27" fill="#FFFFFF" points="149.9745 16.6918077 135.367 22.3246538 135.367 11.0589615"></polygon>
                <path d="M339.81325,19.0320154 L363.85825,19.0320154 C365.86325,18.9990154 366.87325,19.9839385 366.89075,21.9842462 C366.90575,23.9870923 365.91325,24.9720154 363.90825,24.9364769 L339.86325,24.9872462 C337.85575,25.0227846 336.85575,24.0404 336.85575,22.0375538 C336.85575,20.0347077 337.83825,19.0320154 339.81325,19.0320154 L339.81325,19.0320154 Z M339.86325,6.81693846 L363.96075,6.81693846 C365.89575,6.85247692 366.87325,7.87293846 366.89075,9.87578462 C366.90575,11.8760923 365.93075,12.8762462 363.96075,12.8762462 L339.86325,12.8762462 C337.85575,12.8762462 336.85575,11.8659385 336.85575,9.84786154 C336.85575,7.82978462 337.85575,6.81693846 339.86325,6.81693846 L339.86325,6.81693846 Z M339.81325,0.663707692 C333.83075,0.663707692 330.84325,3.69716923 330.84325,9.77170769 C330.94325,13.8078615 331.94575,15.8767077 333.84825,15.9807846 C331.87825,16.0163231 330.87575,18.0496308 330.84325,22.0883231 C330.84325,28.1628615 333.83075,31.1963231 339.81325,31.1963231 L363.96075,31.1455538 C369.93825,31.1455538 372.89325,28.1450923 372.82575,22.1390923 C372.79325,18.0318615 371.84325,15.9274769 369.97075,15.8259385 C371.87325,15.8259385 372.84325,13.8256308 372.87825,9.82247692 C372.91075,3.71493846 369.90325,0.663707692 363.85825,0.663707692 L339.81325,0.663707692 Z" id="Fill-28" fill="#FFFFFF"></path>
                <g id="Group-11" transform="translate(366.000000, 1.000000)" fill="url(#linearGradient-2)">
                    <polygon id="Rectangle-11-Copy-2" points="1 28 87 28 87 30 0 30"></polygon>
                    <rect id="Rectangle-11-Copy" x="1" y="0" width="86" height="24"></rect>
                </g>
            </g>
        </g>
    </g>
</svg>