<?xml version="1.0" encoding="UTF-8"?>
<svg width="830px" height="400px" viewBox="0 0 830 400" version="1.1" xmlns="http://www.w3.org/2000/svg" xmlns:xlink="http://www.w3.org/1999/xlink">
    <!-- Generator: Sketch 46.2 (44496) - http://www.bohemiancoding.com/sketch -->
    <title>stop_pic</title>
    <desc>Created with Sketch.</desc>
    <defs>
        <linearGradient x1="100%" y1="0%" x2="0%" y2="100%" id="linearGradient-1">
            <stop stop-color="#273142" offset="0%"></stop>
            <stop stop-color="#3C4061" offset="34.4965721%"></stop>
            <stop stop-color="#3C4062" offset="64.2496416%"></stop>
            <stop stop-color="#2C3449" offset="100%"></stop>
        </linearGradient>
        <rect id="path-2" x="0" y="0" width="830" height="400"></rect>
        <linearGradient x1="8.15701613%" y1="18.8454254%" x2="100%" y2="73.2774198%" id="linearGradient-4">
            <stop stop-color="#FFFFFF" stop-opacity="0" offset="0%"></stop>
            <stop stop-color="#FFFFFF" stop-opacity="0.490874418" offset="62.6434949%"></stop>
            <stop stop-color="#FFFFFF" offset="100%"></stop>
        </linearGradient>
        <path d="M148.522741,114.223792 C170.934968,75.4046773 160.355029,26.5910007 125.482933,0.251628673 C125.426846,0.209265921 125.287644,0.128293953 125.065326,0.00871276856 C120.255394,-0.0504701557 115.406107,-0.0504701557 110.517465,0.00871276855 C107.415314,0.0462680491 101.950731,0.0462680491 94.1469766,0.00871276855 L0.265682086,0.132927245 L0.0199503084,69.5482125 L0.0199503084,120.071097 C11.1946074,133.096111 20.6917996,141.865979 28.5115269,146.3807 C70.5315937,170.640997 124.262445,156.243859 148.522741,114.223792 Z" id="path-5"></path>
        <filter x="-61.5%" y="-61.0%" width="222.9%" height="224.5%" filterUnits="objectBoundingBox" id="filter-6">
            <feOffset dx="0" dy="2" in="SourceAlpha" result="shadowOffsetOuter1"></feOffset>
            <feGaussianBlur stdDeviation="32.5" in="shadowOffsetOuter1" result="shadowBlurOuter1"></feGaussianBlur>
            <feColorMatrix values="0 0 0 0 1   0 0 0 0 1   0 0 0 0 1  0 0 0 0.5 0" type="matrix" in="shadowBlurOuter1"></feColorMatrix>
        </filter>
        <linearGradient x1="93.524171%" y1="68.3118613%" x2="-7.47204227%" y2="0%" id="linearGradient-7">
            <stop stop-color="#FFFFFF" stop-opacity="0" offset="0%"></stop>
            <stop stop-color="#FFFFFF" stop-opacity="0.490874418" offset="51.4571783%"></stop>
            <stop stop-color="#FFFFFF" offset="100%"></stop>
        </linearGradient>
        <path d="M830,400 C830,356.369505 794.630495,321 751,321 C707.369505,321 672,356.369505 672,400 L830,400 Z" id="path-8"></path>
        <filter x="-62.3%" y="-122.2%" width="224.7%" height="349.4%" filterUnits="objectBoundingBox" id="filter-9">
            <feOffset dx="0" dy="2" in="SourceAlpha" result="shadowOffsetOuter1"></feOffset>
            <feGaussianBlur stdDeviation="32.5" in="shadowOffsetOuter1" result="shadowBlurOuter1"></feGaussianBlur>
            <feColorMatrix values="0 0 0 0 1   0 0 0 0 1   0 0 0 0 1  0 0 0 0.5 0" type="matrix" in="shadowBlurOuter1"></feColorMatrix>
        </filter>
    </defs>
    <g id="slice" stroke="none" stroke-width="1" fill="none" fill-rule="evenodd">
        <g id="stop_pic">
            <g id="1">
                <g id="Triangle-+-Triangle-Copy-2-+-Triangle-Copy-3-+-Triangle-Copy-Mask">
                    <mask id="mask-3" fill="white">
                        <use xlink:href="#path-2"></use>
                    </mask>
                    <use id="Mask" fill="url(#linearGradient-1)" xlink:href="#path-2"></use>
                    <g id="Oval-5" opacity="0.0746150362" mask="url(#mask-3)">
                        <use fill="black" fill-opacity="1" filter="url(#filter-6)" xlink:href="#path-5"></use>
                        <use fill="url(#linearGradient-4)" fill-rule="evenodd" xlink:href="#path-5"></use>
                    </g>
                    <g id="Oval-5" opacity="0.049999997" mask="url(#mask-3)" transform="translate(751.000000, 360.500000) rotate(-360.000000) translate(-751.000000, -360.500000) ">
                        <use fill="black" fill-opacity="1" filter="url(#filter-9)" xlink:href="#path-8"></use>
                        <use fill="url(#linearGradient-7)" fill-rule="evenodd" xlink:href="#path-8"></use>
                    </g>
                </g>
                <g id="Group-8" opacity="0.470561594" transform="translate(96.000000, 55.000000)" fill="#FFFFFF">
                    <g id="Group" opacity="0.5546875">
                        <path d="M607.715087,150.989156 L606.212481,150.989156 C605.073259,150.989156 604.150211,150.067378 604.150211,148.93027 L604.150211,147.430452 C604.150211,146.98611 603.789037,146.625607 603.343428,146.625607 C602.89826,146.625607 602.537529,146.98611 602.537529,147.430452 L602.537529,148.93027 C602.537529,150.067378 601.614039,150.989156 600.475259,150.989156 L598.972211,150.989156 C598.527043,150.989156 598.16587,151.349218 598.16587,151.793559 C598.16587,152.237901 598.527043,152.597963 598.972211,152.597963 L600.475259,152.597963 C601.614039,152.597963 602.537529,153.51974 602.537529,154.65729 L602.537529,156.157108 C602.537529,156.60145 602.89826,156.961512 603.343428,156.961512 C603.789037,156.961512 604.150211,156.60145 604.150211,156.157108 L604.150211,154.65729 C604.150211,153.51974 605.073259,152.597963 606.212481,152.597963 L607.715087,152.597963 C608.160696,152.597963 608.521428,152.237901 608.521428,151.793559 C608.521428,151.349218 608.160696,150.989156 607.715087,150.989156" id="Fill-33"></path>
                        <path d="M9.56327508,161.96052 L8.06066922,161.96052 C6.92100523,161.96052 5.99795697,161.038743 5.99795697,159.901635 L5.99795697,158.401816 C5.99795697,157.957475 5.6367834,157.596971 5.19161597,157.596971 C4.74644854,157.596971 4.38571703,157.957475 4.38571703,158.401816 L4.38571703,159.901635 C4.38571703,161.038743 3.4622267,161.96052 2.32300478,161.96052 L0.820398926,161.96052 C0.375231495,161.96052 0.0140579189,162.320582 0.0140579189,162.764924 C0.0140579189,163.209266 0.375231495,163.569328 0.820398926,163.569328 L2.32300478,163.569328 C3.4622267,163.569328 4.38571703,164.491105 4.38571703,165.628655 L4.38571703,167.128473 C4.38571703,167.572815 4.74644854,167.932877 5.19161597,167.932877 C5.6367834,167.932877 5.99795697,167.572815 5.99795697,167.128473 L5.99795697,165.628655 C5.99795697,164.491105 6.92100523,163.569328 8.06066922,163.569328 L9.56327508,163.569328 C10.0084425,163.569328 10.369174,163.209266 10.369174,162.764924 C10.369174,162.320582 10.0084425,161.96052 9.56327508,161.96052" id="Fill-41"></path>
                        <path d="M252.549217,59.363549 L251.046611,59.363549 C249.907389,59.363549 248.984341,58.4417719 248.984341,57.3046634 L248.984341,55.8048451 C248.984341,55.3605035 248.623168,55 248.177558,55 C247.732391,55 247.371659,55.3605035 247.371659,55.8048451 L247.371659,57.3046634 C247.371659,58.4417719 246.448169,59.363549 245.309389,59.363549 L243.806341,59.363549 C243.361174,59.363549 243,59.7236113 243,60.1683942 C243,60.6127357 243.361174,60.972798 243.806341,60.972798 L245.309389,60.972798 C246.448169,60.972798 247.371659,61.8945752 247.371659,63.0316837 L247.371659,64.531502 C247.371659,64.9758435 247.732391,65.3363471 248.177558,65.3363471 C248.623168,65.3363471 248.984341,64.9758435 248.984341,64.531502 L248.984341,63.0316837 C248.984341,61.8945752 249.907389,60.972798 251.046611,60.972798 L252.549217,60.972798 C252.994827,60.972798 253.355558,60.6127357 253.355558,60.1683942 L253.355558,60.1679529 C253.355558,59.7236113 252.994827,59.363549 252.549217,59.363549" id="Fill-43"></path>
                        <path d="M103.396701,207.004092 L102.528469,207.004092 C101.870223,207.004092 101.336641,206.4715 101.336641,205.814916 L101.336641,204.947854 C101.336641,204.691045 101.127982,204.482774 100.870696,204.482774 C100.61341,204.482774 100.404751,204.691045 100.404751,204.947854 L100.404751,205.814916 C100.404751,206.4715 99.8711691,207.004092 99.2133646,207.004092 L98.3446914,207.004092 C98.0874049,207.004092 97.8791886,207.212364 97.8791886,207.469173 C97.8791886,207.725982 98.0874049,207.933812 98.3446914,207.933812 L99.2133646,207.933812 C99.8711691,207.933812 100.404751,208.466404 100.404751,209.123871 L100.404751,209.990491 C100.404751,210.247301 100.61341,210.455131 100.870696,210.455131 C101.127982,210.455131 101.336641,210.247301 101.336641,209.990491 L101.336641,209.123871 C101.336641,208.466404 101.870223,207.933812 102.528469,207.933812 L103.396701,207.933812 C103.653987,207.933812 103.862646,207.725982 103.862646,207.469173 C103.862646,207.212364 103.653987,207.004092 103.396701,207.004092" id="Fill-45"></path>
                        <path d="M470.538261,4.45612378 L469.315488,4.45612378 C468.388903,4.45612378 467.637379,3.70643525 467.637379,2.78112811 L467.637379,1.56062284 C467.637379,1.19923678 467.343843,0.906244919 466.981785,0.906244919 C466.619727,0.906244919 466.326191,1.19923678 466.326191,1.56062284 L466.326191,2.78112811 C466.326191,3.70643525 465.574667,4.45612378 464.648524,4.45612378 L463.425308,4.45612378 C463.063692,4.45612378 462.769714,4.74911564 462.769714,5.1105017 C462.769714,5.472329 463.063692,5.76532087 463.425308,5.76532087 L464.648524,5.76532087 C465.574667,5.76532087 466.326191,6.51500939 466.326191,7.43987528 L466.326191,8.66038055 C466.326191,9.02176661 466.619727,9.31519972 466.981785,9.31519972 C467.343843,9.31519972 467.637379,9.02176661 467.637379,8.66038055 L467.637379,7.43987528 C467.637379,6.51500939 468.388903,5.76532087 469.315488,5.76532087 L470.538261,5.76532087 C470.900319,5.76532087 471.193856,5.472329 471.193856,5.1105017 C471.193856,4.74911564 470.900319,4.45612378 470.538261,4.45612378" id="Fill-49"></path>
                        <path d="M17.7455144,257.438357 L16.5227407,257.438357 C15.5961558,257.438357 14.8446319,256.688668 14.8446319,255.763361 L14.8446319,254.542856 C14.8446319,254.18147 14.5510954,253.888478 14.1890377,253.888478 C13.82698,253.888478 13.5334436,254.18147 13.5334436,254.542856 L13.5334436,255.763361 C13.5334436,256.688668 12.7819196,257.438357 11.8553348,257.438357 L10.6325611,257.438357 C10.2705033,257.438357 9.97696692,257.731349 9.97696692,258.092735 C9.97696692,258.454562 10.2705033,258.747554 10.6325611,258.747554 L11.8553348,258.747554 C12.7819196,258.747554 13.5334436,259.497242 13.5334436,260.422549 L13.5334436,261.642613 C13.5334436,262.004441 13.82698,262.297433 14.1890377,262.297433 C14.5510954,262.297433 14.8446319,262.004441 14.8446319,261.642613 L14.8446319,260.422549 C14.8446319,259.497242 15.5961558,258.747554 16.5227407,258.747554 L17.7455144,258.747554 C18.1075721,258.747554 18.4011085,258.454562 18.4011085,258.092735 C18.4011085,257.731349 18.1075721,257.438357 17.7455144,257.438357" id="Fill-57"></path>
                        <path d="M391.759054,264.120915 L390.536281,264.120915 C389.609696,264.120915 388.858172,263.371227 388.858172,262.44592 L388.858172,261.225414 C388.858172,260.864028 388.564636,260.571036 388.202578,260.571036 C387.84052,260.571036 387.546984,260.864028 387.546984,261.225414 L387.546984,262.44592 C387.546984,263.371227 386.79546,264.120915 385.868875,264.120915 L384.646101,264.120915 C384.284043,264.120915 383.990507,264.413907 383.990507,264.775293 C383.990507,265.13712 384.284043,265.430112 384.646101,265.430112 L385.868875,265.430112 C386.79546,265.430112 387.546984,266.179801 387.546984,267.105108 L387.546984,268.325172 C387.546984,268.686999 387.84052,268.979991 388.202578,268.979991 C388.564636,268.979991 388.858172,268.686999 388.858172,268.325172 L388.858172,267.105108 C388.858172,266.179801 389.609696,265.430112 390.536281,265.430112 L391.759054,265.430112 C392.121112,265.430112 392.414649,265.13712 392.414649,264.775293 C392.414649,264.413907 392.121112,264.120915 391.759054,264.120915" id="Fill-61"></path>
                        <path d="M454.533409,221.698349 L453.310635,221.698349 C452.384051,221.698349 451.632527,220.94866 451.632527,220.023353 L451.632527,218.802848 C451.632527,218.441462 451.33899,218.14847 450.976933,218.14847 C450.614875,218.14847 450.321338,218.441462 450.321338,218.802848 L450.321338,220.023353 C450.321338,220.94866 449.569814,221.698349 448.64323,221.698349 L447.420456,221.698349 C447.058398,221.698349 446.764862,221.991341 446.764862,222.352727 C446.764862,222.714554 447.058398,223.007546 447.420456,223.007546 L448.64323,223.007546 C449.569814,223.007546 450.321338,223.757234 450.321338,224.682542 L450.321338,225.902606 C450.321338,226.264433 450.614875,226.557425 450.976933,226.557425 C451.33899,226.557425 451.632527,226.264433 451.632527,225.902606 L451.632527,224.682542 C451.632527,223.757234 452.384051,223.007546 453.310635,223.007546 L454.533409,223.007546 C454.895467,223.007546 455.189003,222.714554 455.189003,222.352727 C455.189003,221.991341 454.895467,221.698349 454.533409,221.698349" id="Fill-63"></path>
                    </g>
                </g>
            </g>
        </g>
    </g>
</svg>