<?xml version="1.0" encoding="UTF-8"?>
<svg width="30px" height="30px" viewBox="0 0 30 30" version="1.1" xmlns="http://www.w3.org/2000/svg" xmlns:xlink="http://www.w3.org/1999/xlink">
    <!-- Generator: Sketch 46.2 (44496) - http://www.bohemiancoding.com/sketch -->
    <title>bluetooth_connection_1</title>
    <desc>Created with Sketch.</desc>
    <defs></defs>
    <g id="slice" stroke="none" stroke-width="1" fill="none" fill-rule="evenodd">
        <g id="bluetooth_connection_1" fill="#FFFFFF">
            <g id="Group-12">
                <g id="Group">
                    <g id="Group-3" opacity="0.5" transform="translate(8.500000, 4.000000)" fill-rule="nonzero">
                        <path d="M5.73360403,0.98755678 L5.73360403,20.8045477 C5.73360403,21.3336721 6.14715154,21.7626122 6.65728824,21.7626122 C7.16742494,21.7626122 7.58097245,21.3336721 7.58097245,20.8045477 L7.58097245,0.98755678 C7.58097245,0.458432359 7.16742494,0.0294922644 6.65728824,0.0294922644 C6.14715154,0.0294922644 5.73360403,0.458432359 5.73360403,0.98755678 Z" id="Path-6"></path>
                        <path d="M0.276609238,16.5878012 C-0.0874323792,16.9584726 -0.0928409742,17.5650595 0.264528802,17.9426511 C0.621898579,18.3202426 1.20671806,18.3258526 1.57075968,17.9551812 L12.5094988,6.81723062 C12.8811095,6.43885232 12.8778655,5.81681658 12.5023302,5.44263011 L7.30819908,0.267155198 C6.94031277,-0.0994097411 6.35558601,-0.0872381579 6.00217532,0.29434119 C5.64876462,0.675920538 5.66049943,1.28241131 6.02838574,1.64897625 L10.5365812,6.1409792 L0.276609238,16.5878012 Z" id="Path-5"></path>
                        <path d="M0.276609238,20.1361883 C-0.0874323792,20.5068597 -0.0928409742,21.1134466 0.264528802,21.4910382 C0.621898579,21.8686297 1.20671806,21.8742396 1.57075968,21.5035683 L12.5094988,10.3656177 C12.8811095,9.98723942 12.8778655,9.36520368 12.5023302,8.99101721 L7.30819908,3.81554229 C6.94031277,3.44897736 6.35558601,3.46114894 6.00217532,3.84272829 C5.64876462,4.22430763 5.66049943,4.83079841 6.02838574,5.19736335 L10.5365812,9.6893663 L0.276609238,20.1361883 Z" id="Path-5" transform="translate(6.393054, 12.663165) scale(1, -1) translate(-6.393054, -12.663165) "></path>
                    </g>
                    <g id="Group-2" transform="translate(2.500000, 14.000000)">
                        <circle id="Oval-Copy-3" opacity="0.5" cx="5" cy="1" r="1"></circle>
                        <circle id="Oval-Copy-3" opacity="0.299999982" cx="1" cy="1" r="1"></circle>
                    </g>
                    <g id="Group-2" transform="translate(21.500000, 14.000000)">
                        <circle id="Oval-Copy-3" opacity="0.3" cx="5" cy="1" r="1"></circle>
                        <circle id="Oval-Copy-3" opacity="0.5" cx="1" cy="1" r="1"></circle>
                    </g>
                </g>
            </g>
        </g>
    </g>
</svg>