<?xml version="1.0" encoding="UTF-8"?>
<svg width="120px" height="105px" viewBox="0 0 120 105" version="1.1" xmlns="http://www.w3.org/2000/svg" xmlns:xlink="http://www.w3.org/1999/xlink">
    <!-- Generator: Sketch 46.2 (44496) - http://www.bohemiancoding.com/sketch -->
    <title>pic_connectbluetooth_2</title>
    <desc>Created with Sketch.</desc>
    <defs>
        <linearGradient x1="53.7304074%" y1="0%" x2="4.96337139%" y2="97.1814566%" id="linearGradient-1">
            <stop stop-color="#855C9C" offset="0%"></stop>
            <stop stop-color="#865D9D" offset="100%"></stop>
        </linearGradient>
        <rect id="path-2" x="28.7149212" y="89.366237" width="7.35" height="12.6" rx="3.675"></rect>
        <filter x="-136.1%" y="-63.5%" width="372.1%" height="258.7%" filterUnits="objectBoundingBox" id="filter-3">
            <feOffset dx="0" dy="2" in="SourceAlpha" result="shadowOffsetOuter1"></feOffset>
            <feGaussianBlur stdDeviation="3" in="shadowOffsetOuter1" result="shadowBlurOuter1"></feGaussianBlur>
            <feColorMatrix values="0 0 0 0 0   0 0 0 0 0   0 0 0 0 0  0 0 0 0.5 0" type="matrix" in="shadowBlurOuter1"></feColorMatrix>
        </filter>
        <rect id="path-4" x="28.7149212" y="36.866237" width="7.35" height="12.6" rx="3.675"></rect>
        <filter x="-136.1%" y="-63.5%" width="372.1%" height="258.7%" filterUnits="objectBoundingBox" id="filter-5">
            <feOffset dx="0" dy="2" in="SourceAlpha" result="shadowOffsetOuter1"></feOffset>
            <feGaussianBlur stdDeviation="3" in="shadowOffsetOuter1" result="shadowBlurOuter1"></feGaussianBlur>
            <feColorMatrix values="0 0 0 0 0   0 0 0 0 0   0 0 0 0 0  0 0 0 0.5 0" type="matrix" in="shadowBlurOuter1"></feColorMatrix>
        </filter>
        <rect id="path-6" x="30.7110156" y="45.8394199" width="8.95263158" height="10.1958231" rx="4.47631579"></rect>
        <filter x="-111.7%" y="-78.5%" width="323.4%" height="296.2%" filterUnits="objectBoundingBox" id="filter-7">
            <feOffset dx="0" dy="2" in="SourceAlpha" result="shadowOffsetOuter1"></feOffset>
            <feGaussianBlur stdDeviation="3" in="shadowOffsetOuter1" result="shadowBlurOuter1"></feGaussianBlur>
            <feColorMatrix values="0 0 0 0 0   0 0 0 0 0   0 0 0 0 0  0 0 0 0.5 0" type="matrix" in="shadowBlurOuter1"></feColorMatrix>
        </filter>
        <linearGradient x1="50%" y1="4.00853836%" x2="50%" y2="94.949122%" id="linearGradient-8">
            <stop stop-color="#855C9C" offset="0%"></stop>
            <stop stop-color="#865D9D" offset="100%"></stop>
        </linearGradient>
        <rect id="path-9" x="31.2033901" y="1.27839014" width="6.3" height="13.65" rx="3.15"></rect>
        <filter x="-158.7%" y="-58.6%" width="417.5%" height="246.5%" filterUnits="objectBoundingBox" id="filter-10">
            <feOffset dx="0" dy="2" in="SourceAlpha" result="shadowOffsetOuter1"></feOffset>
            <feGaussianBlur stdDeviation="3" in="shadowOffsetOuter1" result="shadowBlurOuter1"></feGaussianBlur>
            <feColorMatrix values="0 0 0 0 0   0 0 0 0 0   0 0 0 0 0  0 0 0 0.5 0" type="matrix" in="shadowBlurOuter1"></feColorMatrix>
        </filter>
        <rect id="path-11" x="30.8149212" y="45.266237" width="8.95263158" height="13.65" rx="4.47631579"></rect>
        <filter x="-111.7%" y="-58.6%" width="323.4%" height="246.5%" filterUnits="objectBoundingBox" id="filter-12">
            <feOffset dx="0" dy="2" in="SourceAlpha" result="shadowOffsetOuter1"></feOffset>
            <feGaussianBlur stdDeviation="3" in="shadowOffsetOuter1" result="shadowBlurOuter1"></feGaussianBlur>
            <feColorMatrix values="0 0 0 0 0   0 0 0 0 0   0 0 0 0 0  0 0 0 0.5 0" type="matrix" in="shadowBlurOuter1"></feColorMatrix>
        </filter>
        <linearGradient x1="58.9908084%" y1="6.56907121%" x2="0%" y2="96.7690437%" id="linearGradient-13">
            <stop stop-color="#855C9C" offset="0%"></stop>
            <stop stop-color="#865D9D" offset="100%"></stop>
        </linearGradient>
    </defs>
    <g id="slice" stroke="none" stroke-width="1" fill="none" fill-rule="evenodd" opacity="0.900000036">
        <g id="pic_connectbluetooth_2">
            <g id="Group-4" transform="translate(24.000000, 11.000000)">
                <g id="Group-22">
                    <path d="M51.0618934,45.2815012 L1.34049092,95.9587077 C-0.423710761,97.756823 -0.449921644,100.699357 1.28194727,102.531042 C3.01381619,104.362727 5.84794138,104.38994 7.61214306,102.591825 L60.6229555,48.5619757 C62.4238381,46.7264744 62.4081176,43.7089985 60.5882156,41.8938316 L35.4166571,16.7877648 C33.6338234,15.0095697 30.8001476,15.0686137 29.087465,16.9196432 C27.3747824,18.7706727 27.4316511,21.7127404 29.2144847,23.4909355 L51.0618934,45.2815012 Z" id="Path-5" fill="url(#linearGradient-1)" fill-rule="nonzero" transform="translate(30.981723, 59.707306) scale(1, -1) translate(-30.981723, -59.707306) "></path>
                    <g id="Rectangle-23">
                        <use fill="black" fill-opacity="1" filter="url(#filter-3)" xlink:href="#path-2"></use>
                        <use fill="#855C9C" fill-rule="evenodd" xlink:href="#path-2"></use>
                    </g>
                    <g id="Rectangle-23">
                        <use fill="black" fill-opacity="1" filter="url(#filter-5)" xlink:href="#path-4"></use>
                        <use fill="#855C9C" fill-rule="evenodd" xlink:href="#path-4"></use>
                    </g>
                    <g id="Rectangle-23" transform="translate(35.187331, 50.937331) rotate(-45.000000) translate(-35.187331, -50.937331) ">
                        <use fill="black" fill-opacity="1" filter="url(#filter-7)" xlink:href="#path-6"></use>
                        <use fill="#855C9C" fill-rule="evenodd" xlink:href="#path-6"></use>
                    </g>
                    <path d="M27.8044922,4.64754098 L27.8044922,99.4957829 C27.8044922,102.062549 29.808607,104.143324 32.280808,104.143324 C34.7530089,104.143324 36.7571238,102.062549 36.7571238,99.4957829 L36.7571238,4.64754098 C36.7571238,2.08077497 34.7530089,0 32.280808,0 C29.808607,0 27.8044922,2.08077497 27.8044922,4.64754098 Z" id="Path-6" fill="url(#linearGradient-8)" fill-rule="nonzero"></path>
                    <g id="Rectangle-23" transform="translate(34.353390, 8.103390) rotate(-45.000000) translate(-34.353390, -8.103390) ">
                        <use fill="black" fill-opacity="1" filter="url(#filter-10)" xlink:href="#path-9"></use>
                        <use fill="#855C9C" fill-rule="evenodd" xlink:href="#path-9"></use>
                    </g>
                    <g id="Rectangle-23" transform="translate(35.291237, 52.091237) rotate(-315.000000) translate(-35.291237, -52.091237) ">
                        <use fill="black" fill-opacity="1" filter="url(#filter-12)" xlink:href="#path-11"></use>
                        <use fill="#855C9C" fill-rule="evenodd" xlink:href="#path-11"></use>
                    </g>
                    <path d="M51.0618934,29.7896979 L1.34049092,80.4669045 C-0.423710761,82.2650197 -0.449921644,85.2075541 1.28194727,87.0392389 C3.01381619,88.8709237 5.84794138,88.8981372 7.61214306,87.1000219 L60.6229555,33.0701724 C62.4238381,31.2346711 62.4081176,28.2171952 60.5882156,26.4020283 L35.4166571,1.29596151 C33.6338234,-0.482233543 30.8001476,-0.423189574 29.087465,1.4278399 C27.3747824,3.27886938 27.4316511,6.22093715 29.2144847,7.9991322 L51.0618934,29.7896979 Z" id="Path-5" fill="url(#linearGradient-13)" fill-rule="nonzero"></path>
                </g>
            </g>
        </g>
    </g>
</svg>