<?xml version="1.0" encoding="UTF-8"?>
<svg width="320px" height="105px" viewBox="0 0 320 105" version="1.1" xmlns="http://www.w3.org/2000/svg" xmlns:xlink="http://www.w3.org/1999/xlink">
    <!-- Generator: Sketch 46.1 (44463) - http://www.bohemiancoding.com/sketch -->
    <title>pic_connectbluetooth</title>
    <desc>Created with Sketch.</desc>
    <defs>
        <linearGradient x1="53.7304074%" y1="0%" x2="4.96337139%" y2="97.1814566%" id="linearGradient-1">
            <stop stop-color="#855C9C" offset="0%"></stop>
            <stop stop-color="#865D9D" offset="100%"></stop>
        </linearGradient>
        <rect id="path-2" x="28.7149212" y="89.366237" width="7.35" height="12.6" rx="3.675"></rect>
        <filter x="-136.1%" y="-63.5%" width="372.1%" height="258.7%" filterUnits="objectBoundingBox" id="filter-3">
            <feOffset dx="0" dy="2" in="SourceAlpha" result="shadowOffsetOuter1"></feOffset>
            <feGaussianBlur stdDeviation="3" in="shadowOffsetOuter1" result="shadowBlurOuter1"></feGaussianBlur>
            <feColorMatrix values="0 0 0 0 0   0 0 0 0 0   0 0 0 0 0  0 0 0 0.5 0" type="matrix" in="shadowBlurOuter1"></feColorMatrix>
        </filter>
        <rect id="path-4" x="28.7149212" y="36.866237" width="7.35" height="12.6" rx="3.675"></rect>
        <filter x="-136.1%" y="-63.5%" width="372.1%" height="258.7%" filterUnits="objectBoundingBox" id="filter-5">
            <feOffset dx="0" dy="2" in="SourceAlpha" result="shadowOffsetOuter1"></feOffset>
            <feGaussianBlur stdDeviation="3" in="shadowOffsetOuter1" result="shadowBlurOuter1"></feGaussianBlur>
            <feColorMatrix values="0 0 0 0 0   0 0 0 0 0   0 0 0 0 0  0 0 0 0.5 0" type="matrix" in="shadowBlurOuter1"></feColorMatrix>
        </filter>
        <rect id="path-6" x="30.7110156" y="45.8394199" width="8.95263158" height="10.1958231" rx="4.47631579"></rect>
        <filter x="-111.7%" y="-78.5%" width="323.4%" height="296.2%" filterUnits="objectBoundingBox" id="filter-7">
            <feOffset dx="0" dy="2" in="SourceAlpha" result="shadowOffsetOuter1"></feOffset>
            <feGaussianBlur stdDeviation="3" in="shadowOffsetOuter1" result="shadowBlurOuter1"></feGaussianBlur>
            <feColorMatrix values="0 0 0 0 0   0 0 0 0 0   0 0 0 0 0  0 0 0 0.5 0" type="matrix" in="shadowBlurOuter1"></feColorMatrix>
        </filter>
        <linearGradient x1="50%" y1="4.00853836%" x2="50%" y2="94.949122%" id="linearGradient-8">
            <stop stop-color="#855C9C" offset="0%"></stop>
            <stop stop-color="#865D9D" offset="100%"></stop>
        </linearGradient>
        <rect id="path-9" x="31.2033901" y="1.27839014" width="6.3" height="13.65" rx="3.15"></rect>
        <filter x="-158.7%" y="-58.6%" width="417.5%" height="246.5%" filterUnits="objectBoundingBox" id="filter-10">
            <feOffset dx="0" dy="2" in="SourceAlpha" result="shadowOffsetOuter1"></feOffset>
            <feGaussianBlur stdDeviation="3" in="shadowOffsetOuter1" result="shadowBlurOuter1"></feGaussianBlur>
            <feColorMatrix values="0 0 0 0 0   0 0 0 0 0   0 0 0 0 0  0 0 0 0.5 0" type="matrix" in="shadowBlurOuter1"></feColorMatrix>
        </filter>
        <rect id="path-11" x="30.8149212" y="45.266237" width="8.95263158" height="13.65" rx="4.47631579"></rect>
        <filter x="-111.7%" y="-58.6%" width="323.4%" height="246.5%" filterUnits="objectBoundingBox" id="filter-12">
            <feOffset dx="0" dy="2" in="SourceAlpha" result="shadowOffsetOuter1"></feOffset>
            <feGaussianBlur stdDeviation="3" in="shadowOffsetOuter1" result="shadowBlurOuter1"></feGaussianBlur>
            <feColorMatrix values="0 0 0 0 0   0 0 0 0 0   0 0 0 0 0  0 0 0 0.5 0" type="matrix" in="shadowBlurOuter1"></feColorMatrix>
        </filter>
        <linearGradient x1="58.9908084%" y1="6.56907121%" x2="0%" y2="96.7690437%" id="linearGradient-13">
            <stop stop-color="#855C9C" offset="0%"></stop>
            <stop stop-color="#865D9D" offset="100%"></stop>
        </linearGradient>
        <filter x="-106.2%" y="-85.0%" width="300.0%" height="280.0%" filterUnits="objectBoundingBox" id="filter-14">
            <feOffset dx="0" dy="1" in="SourceAlpha" result="shadowOffsetOuter1"></feOffset>
            <feGaussianBlur stdDeviation="2" in="shadowOffsetOuter1" result="shadowBlurOuter1"></feGaussianBlur>
            <feColorMatrix values="0 0 0 0 0   0 0 0 0 0   0 0 0 0 0  0 0 0 0.15 0" type="matrix" in="shadowBlurOuter1" result="shadowMatrixOuter1"></feColorMatrix>
            <feMerge>
                <feMergeNode in="shadowMatrixOuter1"></feMergeNode>
                <feMergeNode in="SourceGraphic"></feMergeNode>
            </feMerge>
        </filter>
        <linearGradient x1="50%" y1="100%" x2="50%" y2="2.38958865%" id="linearGradient-15">
            <stop stop-color="#575757" offset="0%"></stop>
            <stop stop-color="#7F7F7F" offset="100%"></stop>
        </linearGradient>
        <rect id="path-16" x="0" y="0.0676318994" width="7.23941724" height="9.86442689" rx="1.1"></rect>
        <linearGradient x1="59.5963538%" y1="12.6612766%" x2="59.5963538%" y2="104.095859%" id="linearGradient-18">
            <stop stop-color="#ACACAC" offset="0%"></stop>
            <stop stop-color="#727272" offset="100%"></stop>
        </linearGradient>
        <linearGradient x1="102.167316%" y1="50%" x2="2.08659118%" y2="50%" id="linearGradient-19">
            <stop stop-color="#FFFFFF" stop-opacity="0.2" offset="0%"></stop>
            <stop stop-color="#FFFFFF" stop-opacity="0.5" offset="100%"></stop>
        </linearGradient>
        <linearGradient x1="50%" y1="94.1701535%" x2="50%" y2="2.38958865%" id="linearGradient-20">
            <stop stop-color="#8B8B8B" offset="0%"></stop>
            <stop stop-color="#7F7F7F" offset="100%"></stop>
        </linearGradient>
        <path d="M2.2,1.49878753e-15 L10.7708832,1.49878753e-15 L10.7708832,-1.9095836e-14 C11.9859097,-1.71607113e-14 12.9708832,0.98497355 12.9708832,2.2 L12.9708832,16.2645584 L12.9708832,16.2645584 C12.9708832,19.8463689 10.0672521,22.75 6.48544161,22.75 L6.48544161,22.75 L6.48544161,22.75 C2.90363111,22.75 -4.18796027e-15,19.8463689 -6.21724894e-15,16.2645584 L3.75581035e-18,2.2 L-4.4408921e-16,2.2 C-5.92887035e-16,0.98497355 0.98497355,1.11137499e-15 2.2,8.8817842e-16 Z" id="path-21"></path>
        <linearGradient x1="42.5661677%" y1="4.81519577%" x2="100%" y2="100%" id="linearGradient-23">
            <stop stop-color="#727272" offset="0%"></stop>
            <stop stop-color="#4B4B4B" offset="100%"></stop>
        </linearGradient>
        <linearGradient x1="50%" y1="100%" x2="50%" y2="0%" id="linearGradient-24">
            <stop stop-color="#FFFFFF" stop-opacity="0.6" offset="0%"></stop>
            <stop stop-color="#FFFFFF" stop-opacity="0" offset="100%"></stop>
        </linearGradient>
        <linearGradient x1="53.7304074%" y1="0%" x2="4.96337139%" y2="97.1814566%" id="linearGradient-25">
            <stop stop-color="#FFFFFF" offset="0%"></stop>
            <stop stop-color="#FFFFFF" offset="100%"></stop>
        </linearGradient>
        <rect id="path-26" x="2.025744" y="6.53219563" width="1" height="1" rx="0.5"></rect>
        <filter x="-150.0%" y="-150.0%" width="400.0%" height="400.0%" filterUnits="objectBoundingBox" id="filter-27">
            <feOffset dx="0" dy="0" in="SourceAlpha" result="shadowOffsetOuter1"></feOffset>
            <feGaussianBlur stdDeviation="0.5" in="shadowOffsetOuter1" result="shadowBlurOuter1"></feGaussianBlur>
            <feColorMatrix values="0 0 0 0 0   0 0 0 0 0   0 0 0 0 0  0 0 0 0.5 0" type="matrix" in="shadowBlurOuter1"></feColorMatrix>
        </filter>
        <rect id="path-28" x="2.025744" y="3.28219563" width="1" height="1" rx="0.5"></rect>
        <filter x="-150.0%" y="-150.0%" width="400.0%" height="400.0%" filterUnits="objectBoundingBox" id="filter-29">
            <feOffset dx="0" dy="0" in="SourceAlpha" result="shadowOffsetOuter1"></feOffset>
            <feGaussianBlur stdDeviation="0.5" in="shadowOffsetOuter1" result="shadowBlurOuter1"></feGaussianBlur>
            <feColorMatrix values="0 0 0 0 0   0 0 0 0 0   0 0 0 0 0  0 0 0 0.5 0" type="matrix" in="shadowBlurOuter1"></feColorMatrix>
        </filter>
        <rect id="path-30" x="2.23860136" y="3.64276689" width="1" height="1" rx="0.5"></rect>
        <filter x="-300.0%" y="-300.0%" width="700.0%" height="700.0%" filterUnits="objectBoundingBox" id="filter-31">
            <feOffset dx="0" dy="0" in="SourceAlpha" result="shadowOffsetOuter1"></feOffset>
            <feGaussianBlur stdDeviation="1" in="shadowOffsetOuter1" result="shadowBlurOuter1"></feGaussianBlur>
            <feColorMatrix values="0 0 0 0 0   0 0 0 0 0   0 0 0 0 0  0 0 0 0.5 0" type="matrix" in="shadowBlurOuter1"></feColorMatrix>
        </filter>
        <linearGradient x1="50%" y1="4.00853836%" x2="50%" y2="94.949122%" id="linearGradient-32">
            <stop stop-color="#FFFFFF" offset="0%"></stop>
            <stop stop-color="#FFFFFF" offset="100%"></stop>
        </linearGradient>
        <rect id="path-33" x="2.17473891" y="0.860020663" width="1" height="1" rx="0.5"></rect>
        <filter x="-150.0%" y="-150.0%" width="400.0%" height="400.0%" filterUnits="objectBoundingBox" id="filter-34">
            <feOffset dx="0" dy="0" in="SourceAlpha" result="shadowOffsetOuter1"></feOffset>
            <feGaussianBlur stdDeviation="0.5" in="shadowOffsetOuter1" result="shadowBlurOuter1"></feGaussianBlur>
            <feColorMatrix values="0 0 0 0 0   0 0 0 0 0   0 0 0 0 0  0 0 0 0.5 0" type="matrix" in="shadowBlurOuter1"></feColorMatrix>
        </filter>
        <rect id="path-35" x="2.11326122" y="3.95492919" width="1" height="1" rx="0.5"></rect>
        <filter x="-150.0%" y="-150.0%" width="400.0%" height="400.0%" filterUnits="objectBoundingBox" id="filter-36">
            <feOffset dx="0" dy="0" in="SourceAlpha" result="shadowOffsetOuter1"></feOffset>
            <feGaussianBlur stdDeviation="0.5" in="shadowOffsetOuter1" result="shadowBlurOuter1"></feGaussianBlur>
            <feColorMatrix values="0 0 0 0 0   0 0 0 0 0   0 0 0 0 0  0 0 0 0.5 0" type="matrix" in="shadowBlurOuter1"></feColorMatrix>
        </filter>
        <linearGradient x1="58.9908084%" y1="6.56907121%" x2="0%" y2="96.7690437%" id="linearGradient-37">
            <stop stop-color="#FFFFFF" offset="0%"></stop>
            <stop stop-color="#FFFFFF" offset="100%"></stop>
        </linearGradient>
        <filter x="-24.3%" y="-21.4%" width="148.6%" height="148.6%" filterUnits="objectBoundingBox" id="filter-38">
            <feOffset dx="0" dy="1" in="SourceAlpha" result="shadowOffsetOuter1"></feOffset>
            <feGaussianBlur stdDeviation="2" in="shadowOffsetOuter1" result="shadowBlurOuter1"></feGaussianBlur>
            <feColorMatrix values="0 0 0 0 0   0 0 0 0 0   0 0 0 0 0  0 0 0 0.15 0" type="matrix" in="shadowBlurOuter1" result="shadowMatrixOuter1"></feColorMatrix>
            <feMerge>
                <feMergeNode in="shadowMatrixOuter1"></feMergeNode>
                <feMergeNode in="SourceGraphic"></feMergeNode>
            </feMerge>
        </filter>
        <rect id="path-39" x="0" y="0" width="35" height="35" rx="5.03999987"></rect>
        <linearGradient x1="59.5963538%" y1="12.6612766%" x2="59.5963538%" y2="104.095859%" id="linearGradient-41">
            <stop stop-color="#626262" offset="0%"></stop>
            <stop stop-color="#333333" offset="100%"></stop>
        </linearGradient>
        <linearGradient x1="59.5963538%" y1="12.6612766%" x2="59.5963538%" y2="104.095859%" id="linearGradient-42">
            <stop stop-color="#626262" offset="0%"></stop>
            <stop stop-color="#4C4C4C" offset="100%"></stop>
        </linearGradient>
        <linearGradient x1="76.5977012%" y1="0%" x2="0%" y2="103.128053%" id="linearGradient-43">
            <stop stop-color="#626262" offset="0%"></stop>
            <stop stop-color="#333333" offset="100%"></stop>
        </linearGradient>
    </defs>
    <g id="slice" stroke="none" stroke-width="1" fill="none" fill-rule="evenodd">
        <g id="pic_connectbluetooth">
            <g id="Group-4" transform="translate(69.000000, 11.000000)">
                <g id="Group-22" opacity="0.900000036" transform="translate(155.000000, 0.000000)">
                    <path d="M51.0618934,45.2815012 L1.34049092,95.9587077 C-0.423710761,97.756823 -0.449921644,100.699357 1.28194727,102.531042 C3.01381619,104.362727 5.84794138,104.38994 7.61214306,102.591825 L60.6229555,48.5619757 C62.4238381,46.7264744 62.4081176,43.7089985 60.5882156,41.8938316 L35.4166571,16.7877648 C33.6338234,15.0095697 30.8001476,15.0686137 29.087465,16.9196432 C27.3747824,18.7706727 27.4316511,21.7127404 29.2144847,23.4909355 L51.0618934,45.2815012 Z" id="Path-5" fill="url(#linearGradient-1)" fill-rule="nonzero" transform="translate(30.981723, 59.707306) scale(1, -1) translate(-30.981723, -59.707306) "></path>
                    <g id="Rectangle-23">
                        <use fill="black" fill-opacity="1" filter="url(#filter-3)" xlink:href="#path-2"></use>
                        <use fill="#855C9C" fill-rule="evenodd" xlink:href="#path-2"></use>
                    </g>
                    <g id="Rectangle-23">
                        <use fill="black" fill-opacity="1" filter="url(#filter-5)" xlink:href="#path-4"></use>
                        <use fill="#855C9C" fill-rule="evenodd" xlink:href="#path-4"></use>
                    </g>
                    <g id="Rectangle-23" transform="translate(35.187331, 50.937331) rotate(-45.000000) translate(-35.187331, -50.937331) ">
                        <use fill="black" fill-opacity="1" filter="url(#filter-7)" xlink:href="#path-6"></use>
                        <use fill="#855C9C" fill-rule="evenodd" xlink:href="#path-6"></use>
                    </g>
                    <path d="M27.8044922,4.64754098 L27.8044922,99.4957829 C27.8044922,102.062549 29.808607,104.143324 32.280808,104.143324 C34.7530089,104.143324 36.7571238,102.062549 36.7571238,99.4957829 L36.7571238,4.64754098 C36.7571238,2.08077497 34.7530089,0 32.280808,0 C29.808607,0 27.8044922,2.08077497 27.8044922,4.64754098 Z" id="Path-6" fill="url(#linearGradient-8)" fill-rule="nonzero"></path>
                    <g id="Rectangle-23" transform="translate(34.353390, 8.103390) rotate(-45.000000) translate(-34.353390, -8.103390) ">
                        <use fill="black" fill-opacity="1" filter="url(#filter-10)" xlink:href="#path-9"></use>
                        <use fill="#855C9C" fill-rule="evenodd" xlink:href="#path-9"></use>
                    </g>
                    <g id="Rectangle-23" transform="translate(35.291237, 52.091237) rotate(-315.000000) translate(-35.291237, -52.091237) ">
                        <use fill="black" fill-opacity="1" filter="url(#filter-12)" xlink:href="#path-11"></use>
                        <use fill="#855C9C" fill-rule="evenodd" xlink:href="#path-11"></use>
                    </g>
                    <path d="M51.0618934,29.7896979 L1.34049092,80.4669045 C-0.423710761,82.2650197 -0.449921644,85.2075541 1.28194727,87.0392389 C3.01381619,88.8709237 5.84794138,88.8981372 7.61214306,87.1000219 L60.6229555,33.0701724 C62.4238381,31.2346711 62.4081176,28.2171952 60.5882156,26.4020283 L35.4166571,1.29596151 C33.6338234,-0.482233543 30.8001476,-0.423189574 29.087465,1.4278399 C27.3747824,3.27886938 27.4316511,6.22093715 29.2144847,7.9991322 L51.0618934,29.7896979 Z" id="Path-5" fill="url(#linearGradient-13)" fill-rule="nonzero"></path>
                </g>
                <g id="Group-2" transform="translate(0.000000, 55.000000)">
                    <g id="3" filter="url(#filter-14)" transform="translate(23.867361, 7.898740) rotate(-270.000000) translate(-23.867361, -7.898740) translate(19.867361, 2.898740)">
                        <g id="Group" transform="translate(0.000000, -0.000000)">
                            <mask id="mask-17" fill="white">
                                <use xlink:href="#path-16"></use>
                            </mask>
                            <g id="Mask" stroke-linecap="round" stroke-linejoin="round">
                                <use fill="url(#linearGradient-15)" fill-rule="evenodd" xlink:href="#path-16"></use>
                                <rect stroke="#FFFFFF" stroke-width="1.1" x="-0.55" y="-0.482368101" width="8.33941724" height="10.9644269" rx="1.1"></rect>
                            </g>
                            <rect id="Rectangle-5" fill="url(#linearGradient-18)" mask="url(#mask-17)" x="0" y="-1.08333333" width="7.95146754" height="9.86442689"></rect>
                            <polygon id="Fill" fill="url(#linearGradient-19)" opacity="0.100000001" mask="url(#mask-17)" transform="translate(2.980802, 4.795925) rotate(-154.000000) translate(-2.980802, -4.795925) " points="-2.72301511 7.14420206 8.80222281 7.38960831 8.80222281 2.20224096 -2.84061958 2.20224096"></polygon>
                        </g>
                    </g>
                    <g id="Group" transform="translate(11.541667, 7.333333) rotate(-270.000000) translate(-11.541667, -7.333333) translate(5.041667, -4.166667)">
                        <mask id="mask-22" fill="white">
                            <use xlink:href="#path-21"></use>
                        </mask>
                        <g id="Mask" stroke-linecap="round" stroke-linejoin="round">
                            <use fill="url(#linearGradient-20)" fill-rule="evenodd" xlink:href="#path-21"></use>
                            <path stroke="#FFFFFF" stroke-width="1.1" d="M2.2,-0.55 L10.7708832,-0.55 C12.2896663,-0.55 13.5208832,0.681216938 13.5208832,2.2 L13.5208832,16.2645584 C13.5208832,20.1501255 10.3710087,23.3 6.48544161,23.3 C2.5998745,23.3 -0.55,20.1501255 -0.55,16.2645584 L-0.55,2.2 C-0.55,0.681216938 0.681216938,-0.55 2.2,-0.55 Z"></path>
                        </g>
                        <rect id="Rectangle-5" fill="url(#linearGradient-23)" mask="url(#mask-22)" x="0" y="0" width="12.9708832" height="22.75"></rect>
                        <polygon id="Fill" fill="url(#linearGradient-24)" opacity="0.3" mask="url(#mask-22)" points="-0.420288041 22.75 12.9708832 22.75 12.9708832 15 -0.420288041 15"></polygon>
                    </g>
                    <g id="Group-3" transform="translate(24.555556, 5.441673)" fill="#D8D8D8" opacity="0.292062953">
                        <rect id="Rectangle-22" x="0.9044359" y="0" width="1.88888894" height="1.08333333" rx="0.541666667"></rect>
                        <rect id="Rectangle-22" x="0.9044359" y="3.25" width="1.88888894" height="1.08333333" rx="0.541666667"></rect>
                    </g>
                    <g id="Group-22" transform="translate(11.111111, 3.250000)">
                        <path d="M3.60224997,3.80314055 L0.0945672607,6.94030096 C-0.0298914117,7.05161285 -0.031740504,7.23376974 0.0904371974,7.34715975 C0.212614899,7.46054977 0.412553184,7.46223441 0.537011856,7.35092251 L4.27675171,4.00621754 C4.4037981,3.89259127 4.40268907,3.70579514 4.27430093,3.59342767 L2.4985296,2.03924258 C2.3727565,1.92916384 2.17284992,1.93281894 2.05202575,2.04740648 C1.93120158,2.16199402 1.93521348,2.34412203 2.06098658,2.45420077 L3.60224997,3.80314055 Z" id="Path-5" fill="url(#linearGradient-25)" fill-rule="nonzero" transform="translate(2.185659, 4.696167) scale(1, -1) translate(-2.185659, -4.696167) "></path>
                        <g id="Rectangle-23">
                            <use fill="black" fill-opacity="1" filter="url(#filter-27)" xlink:href="#path-26"></use>
                            <use fill="#855C9C" fill-rule="evenodd" xlink:href="#path-26"></use>
                        </g>
                        <g id="Rectangle-23">
                            <use fill="black" fill-opacity="1" filter="url(#filter-29)" xlink:href="#path-28"></use>
                            <use fill="#855C9C" fill-rule="evenodd" xlink:href="#path-28"></use>
                        </g>
                        <g id="Rectangle-23" transform="translate(2.738601, 4.142767) rotate(-45.000000) translate(-2.738601, -4.142767) ">
                            <use fill="black" fill-opacity="1" filter="url(#filter-31)" xlink:href="#path-30"></use>
                            <use fill="#855C9C" fill-rule="evenodd" xlink:href="#path-30"></use>
                        </g>
                        <path d="M1.9615162,1.28770492 L1.9615162,7.15926275 C1.9615162,7.31815779 2.10289997,7.44696767 2.27730568,7.44696767 C2.45171139,7.44696767 2.59309515,7.31815779 2.59309515,7.15926275 L2.59309515,1.28770492 C2.59309515,1.12880988 2.45171139,1 2.27730568,1 C2.10289997,1 1.9615162,1.12880988 1.9615162,1.28770492 Z" id="Path-6" fill="url(#linearGradient-32)" fill-rule="nonzero"></path>
                        <g id="Rectangle-23" transform="translate(2.674739, 1.360021) rotate(-45.000000) translate(-2.674739, -1.360021) ">
                            <use fill="black" fill-opacity="1" filter="url(#filter-34)" xlink:href="#path-33"></use>
                            <use fill="#855C9C" fill-rule="evenodd" xlink:href="#path-33"></use>
                        </g>
                        <g id="Rectangle-23" transform="translate(2.613261, 4.454929) rotate(-315.000000) translate(-2.613261, -4.454929) ">
                            <use fill="black" fill-opacity="1" filter="url(#filter-36)" xlink:href="#path-35"></use>
                            <use fill="#855C9C" fill-rule="evenodd" xlink:href="#path-35"></use>
                        </g>
                        <path d="M3.60224997,2.84412416 L0.0945672607,5.98128456 C-0.0298914117,6.09259646 -0.031740504,6.27475335 0.0904371974,6.38814336 C0.212614899,6.50153337 0.412553184,6.50321802 0.537011856,6.39190612 L4.27675171,3.04720115 C4.4037981,2.93357488 4.40268907,2.74677875 4.27430093,2.63441128 L2.4985296,1.08022619 C2.3727565,0.970147447 2.17284992,0.97380255 2.05202575,1.08839009 C1.93120158,1.20297763 1.93521348,1.38510563 2.06098658,1.49518437 L3.60224997,2.84412416 Z" id="Path-5" fill="url(#linearGradient-37)" fill-rule="nonzero"></path>
                    </g>
                </g>
                <g id="3" filter="url(#filter-38)" transform="translate(83.000000, 44.000000)">
                    <g id="Group">
                        <mask id="mask-40" fill="white">
                            <use xlink:href="#path-39"></use>
                        </mask>
                        <g id="Mask" stroke-linecap="round" stroke-linejoin="round">
                            <use fill="url(#linearGradient-15)" fill-rule="evenodd" xlink:href="#path-39"></use>
                            <rect stroke="#FFFFFF" stroke-width="1.5" x="-0.75" y="-0.75" width="36.5" height="36.5" rx="5.03999987"></rect>
                        </g>
                        <rect id="Rectangle-5" fill="url(#linearGradient-41)" mask="url(#mask-40)" x="0" y="0" width="11.2" height="35"></rect>
                        <rect id="Rectangle-5" fill="url(#linearGradient-42)" mask="url(#mask-40)" transform="translate(17.500000, 2.800000) rotate(-270.000000) translate(-17.500000, -2.800000) " x="14" y="-14.7" width="7" height="35"></rect>
                        <path d="M13.4432177,26.036778 L32.4067823,26.036778 L32.4067823,26.036778 C32.9866813,26.036778 33.4567823,25.566677 33.4567823,24.986778 L33.4567823,24.986778 L33.4567823,24.986778 C33.4567823,24.4068791 32.9866813,23.936778 32.4067823,23.936778 L13.4432177,23.936778 L13.4432177,26.036778 Z" id="Fill" fill="url(#linearGradient-43)" mask="url(#mask-40)" transform="translate(23.450000, 24.986778) rotate(-90.000000) translate(-23.450000, -24.986778) "></path>
                        <path d="M17.5411765,24.5288278 L39.8588235,24.5288278 L39.8588235,24.5288278 C40.6320222,24.5288278 41.2588235,23.9020265 41.2588235,23.1288278 L41.2588235,23.1288278 L41.2588235,23.1288278 C41.2588235,22.3556292 40.6320222,21.7288278 39.8588235,21.7288278 L17.5411765,21.7288278 L17.5411765,24.5288278 Z" id="Fill" fill="url(#linearGradient-43)" mask="url(#mask-40)" transform="translate(29.400000, 23.128828) rotate(-90.000000) translate(-29.400000, -23.128828) "></path>
                        <polygon id="Fill" fill="url(#linearGradient-19)" opacity="0.100000001" mask="url(#mask-40)" transform="translate(15.225000, 20.125000) rotate(-135.000000) translate(-15.225000, -20.125000) " points="-7.32634945 24.8613831 38.2413257 25.3563579 38.2413257 14.8936421 -7.79132573 14.8936421"></polygon>
                        <path d="M7.0006782,11.2006782 C7.0006782,11.9744115 6.37317437,12.6006782 5.6,12.6006782 C4.82682563,12.6006782 4.1993218,11.9744115 4.1993218,11.2006782 C4.1993218,10.4278782 4.82589185,9.8006782 5.6,9.8006782 C6.37317437,9.8006782 7.0006782,10.4278782 7.0006782,11.2006782 Z" id="Fill" fill="#32D855" mask="url(#mask-40)" transform="translate(5.600000, 11.200678) rotate(-90.000000) translate(-5.600000, -11.200678) "></path>
                    </g>
                </g>
                <g id="Group-2" transform="translate(49.000000, 61.000000)" fill="#626262">
                    <circle id="Oval-Copy-3" opacity="0.5" cx="5" cy="1" r="1"></circle>
                    <circle id="Oval-Copy-3" opacity="0.299999982" cx="1" cy="1" r="1"></circle>
                    <circle id="Oval-Copy-3" opacity="0.797441123" cx="9" cy="1" r="1"></circle>
                    <circle id="Oval-Copy-3" cx="13" cy="1" r="1"></circle>
                </g>
            </g>
        </g>
    </g>
</svg>