<?xml version="1.0" encoding="UTF-8"?>
<svg width="25px" height="25px" viewBox="0 0 25 25" version="1.1" xmlns="http://www.w3.org/2000/svg" xmlns:xlink="http://www.w3.org/1999/xlink">
    <!-- Generator: Sketch 46.1 (44463) - http://www.bohemiancoding.com/sketch -->
    <title>pic_bluetooth_blue</title>
    <desc>Created with Sketch.</desc>
    <defs></defs>
    <g id="slice" stroke="none" stroke-width="1" fill="none" fill-rule="evenodd">
        <g id="pic_bluetooth_blue">
            <g id="Medal" fill="#374368">
                <circle id="Base" cx="12.5" cy="12.5" r="12.5"></circle>
            </g>
            <g id="bluetooth_enable" transform="translate(7.500000, 4.500000)" fill-rule="nonzero" fill="#FFFFFF">
                <g id="Group-3" transform="translate(0.666667, 0.666667)">
                    <path d="M3.82240269,0.658371187 L3.82240269,13.8696984 C3.82240269,14.2224481 4.09810102,14.5084081 4.43819216,14.5084081 C4.7782833,14.5084081 5.05398163,14.2224481 5.05398163,13.8696984 L5.05398163,0.658371187 C5.05398163,0.305621573 4.7782833,0.0196615096 4.43819216,0.0196615096 C4.09810102,0.0196615096 3.82240269,0.305621573 3.82240269,0.658371187 Z" id="Path-6"></path>
                    <path d="M0.184406158,11.0585341 C-0.0582882528,11.3056484 -0.0618939828,11.7100397 0.176352535,11.9617674 C0.414599053,12.2134951 0.804478709,12.217235 1.04717312,11.9701208 L8.33966584,4.54482041 C8.5874063,4.29256822 8.58524369,3.87787772 8.33488681,3.62842007 L4.87213272,0.178103465 C4.62687518,-0.0662731607 4.23705734,-0.0581587719 4.00145021,0.19622746 C3.76584308,0.450613692 3.77366629,0.854940876 4.01892383,1.0993175 L7.02438745,4.09398614 L0.184406158,11.0585341 Z" id="Path-5"></path>
                    <path d="M0.184406158,13.4241255 C-0.0582882528,13.6712398 -0.0618939828,14.0756311 0.176352535,14.3273588 C0.414599053,14.5790865 0.804478709,14.5828264 1.04717312,14.3357122 L8.33966584,6.91041181 C8.5874063,6.65815961 8.58524369,6.24346912 8.33488681,5.99401147 L4.87213272,2.54369486 C4.62687518,2.29931824 4.23705734,2.30743263 4.00145021,2.56181886 C3.76584308,2.81620509 3.77366629,3.22053227 4.01892383,3.4649089 L7.02438745,6.45957753 L0.184406158,13.4241255 Z" id="Path-5" transform="translate(4.262036, 8.442110) scale(1, -1) translate(-4.262036, -8.442110) "></path>
                </g>
            </g>
        </g>
    </g>
</svg>