<?xml version="1.0" encoding="UTF-8"?>
<svg width="28px" height="28px" viewBox="0 0 28 28" version="1.1" xmlns="http://www.w3.org/2000/svg" xmlns:xlink="http://www.w3.org/1999/xlink">
    <!-- Generator: Sketch 46.2 (44496) - http://www.bohemiancoding.com/sketch -->
    <title>device_photo</title>
    <desc>Created with Sketch.</desc>
    <defs>
        <linearGradient x1="50%" y1="0%" x2="50%" y2="100%" id="linearGradient-1">
            <stop stop-color="#2FBAF0" offset="0%"></stop>
            <stop stop-color="#348EF7" offset="100%"></stop>
        </linearGradient>
        <rect id="path-2" x="0" y="0" width="18" height="18" rx="3"></rect>
    </defs>
    <g id="slice" stroke="none" stroke-width="1" fill="none" fill-rule="evenodd">
        <g id="device_photo">
            <g id="Path-5" transform="translate(5.000000, 5.000000)">
                <mask id="mask-3" fill="white">
                    <use xlink:href="#path-2"></use>
                </mask>
                <use id="Mask" fill="url(#linearGradient-1)" xlink:href="#path-2"></use>
                <path d="M0.599999905,17.676801 L6.46304823,11.6209551 L6.46304823,11.6209551 C6.79763659,11.2753643 7.34903072,11.2664451 7.69462151,11.6010334 C7.70548885,11.6115548 7.71608026,11.6223574 7.72638496,11.6334304 L8.37625379,12.3317519 L8.37625379,12.3317519 C8.7039522,12.6838828 9.25506267,12.7036892 9.60719349,12.3759907 C9.61485268,12.368863 9.62238282,12.3615978 9.62978023,12.3541987 L12.2960515,9.68732132 L12.2960515,9.68732132 C12.6361469,9.3471486 13.1876132,9.34708593 13.5277859,9.68718133 C13.5290569,9.68845202 13.5303239,9.68972664 13.531587,9.69100518 L17.8598949,14.07224 L17.8598949,17.676801 L16.4512049,18.6553499 L2.32694688,18.6553499 L0.599999905,17.676801 Z" stroke="#FFFFFF" fill="#FFFFFF" stroke-linecap="round" stroke-linejoin="round" mask="url(#mask-3)"></path>
                <ellipse id="Oval-2" stroke="#FFFFFF" stroke-width="0.870967742" fill="#FFFFFF" mask="url(#mask-3)" cx="4.75249267" cy="4.75289105" rx="1.75249267" ry="1.75289105"></ellipse>
            </g>
        </g>
    </g>
</svg>