<svg id="圖層_1" data-name="圖層 1" xmlns="http://www.w3.org/2000/svg" xmlns:xlink="http://www.w3.org/1999/xlink" viewBox="0 0 615 175"><defs><style>.cls-1,.cls-3,.cls-30,.cls-31{fill:none;}.cls-2{fill:#3d3e44;}.cls-11,.cls-2,.cls-3,.cls-5,.cls-6,.cls-7{fill-rule:evenodd;}.cls-4,.cls-7{fill:#27272d;}.cls-5{fill:#bc8d40;}.cls-20,.cls-6{fill:#fff;}.cls-8{fill:#5b5b62;}.cls-9{fill:#52535a;}.cls-10{fill:#3a3c40;}.cls-11{fill:#376fb5;}.cls-12{fill:#2b66af;}.cls-13{fill:#727177;}.cls-14{fill:#919191;}.cls-15{fill:#b0b0b0;}.cls-16{fill:#7c7c7c;}.cls-17{fill:#565656;}.cls-18{clip-path:url(#clip-path);}.cls-19{fill:#3f3f3f;}.cls-21{fill:#635547;}.cls-22{clip-path:url(#clip-path-2);}.cls-23{fill:#3f372f;}.cls-24{fill:#b5a49a;}.cls-25{fill:#9e9088;}.cls-26{fill:#cec1bb;}.cls-27{fill:#736759;}.cls-28{clip-path:url(#clip-path-3);}.cls-29{fill:#54493e;}.cls-30,.cls-31{stroke:#376fb5;stroke-width:2px;}.cls-30,.cls-31,.cls-32{stroke-miterlimit:10;}.cls-31{stroke-dasharray:5.99 4.99;}.cls-32{fill:#bc79bf;stroke:#fff;stroke-width:6px;}</style><clipPath id="clip-path"><path class="cls-1" d="M104.12,110.79H115V89.17H103.79l-.31,0-.2,0h-18a5,5,0,0,0-5,5v11.71a5,5,0,0,0,5,5h18A4.93,4.93,0,0,0,104.12,110.79Z"/></clipPath><clipPath id="clip-path-2"><path class="cls-1" d="M529.13,76.16V13.92a3,3,0,0,0-3-3H493.28a3,3,0,0,0-3,3V76.16Z"/></clipPath><clipPath id="clip-path-3"><path class="cls-1" d="M498,104.14V25a3.8,3.8,0,0,0-3.79-3.79H452.47A3.8,3.8,0,0,0,448.68,25v79.13Z"/></clipPath></defs><title>no device</title><rect class="cls-1" x="0.87" width="613.26" height="175"/><path class="cls-2" d="M156.35,45.41h113a3,3,0,0,1,3,3V151.76a3,3,0,0,1-3,3h-113a3,3,0,0,1-3-3V48.45a3,3,0,0,1,3-3Z"/><polygon class="cls-3" points="188.56 45.41 268.78 45.41 268.78 149.33 188.56 149.33 188.56 45.41 188.56 45.41"/><polygon class="cls-3" points="268.78 45.41 268.78 81.87 188.56 81.87 268.78 45.41 268.78 45.41"/><path class="cls-4" d="M172.15,145.08H161.21a1.82,1.82,0,0,1-1.82-1.82V131.06a1.82,1.82,0,0,1,1.82-1.82h10.94a1.82,1.82,0,0,1,1.82,1.82v12.19a1.82,1.82,0,0,1-1.82,1.82Zm0-20.06H161.21a1.82,1.82,0,0,1-1.82-1.82v-7.9a1.82,1.82,0,0,1,1.82-1.82h10.94A1.82,1.82,0,0,1,174,115.3v7.9a1.82,1.82,0,0,1-1.82,1.82Z"/><path class="cls-4" d="M172.15,145.08H161.21a1.82,1.82,0,0,1-1.82-1.82V131.06a1.82,1.82,0,0,1,1.82-1.82h10.94a1.82,1.82,0,0,1,1.82,1.82v12.19a1.82,1.82,0,0,1-1.82,1.82Z"/><path class="cls-4" d="M172.15,125H161.21a1.82,1.82,0,0,1-1.82-1.82v-7.9a1.82,1.82,0,0,1,1.82-1.82h10.94A1.82,1.82,0,0,1,174,115.3v7.9a1.82,1.82,0,0,1-1.82,1.82Z"/><polygon class="cls-5" points="160.6 83.09 180.05 83.09 180.05 90.38 160.6 90.38 160.6 83.09 160.6 83.09"/><polygon class="cls-6" points="160.6 75.8 180.05 75.8 180.05 83.09 160.6 83.09 160.6 75.8 160.6 75.8"/><polygon class="cls-7" points="188.56 45.41 268.78 45.41 268.78 149.33 188.56 149.33 188.56 45.41 188.56 45.41"/><polygon class="cls-3" points="208.01 57.56 252.98 57.56 252.98 70.93 208.01 70.93 208.01 57.56 208.01 57.56"/><path class="cls-8" d="M172.15,144.57a1.32,1.32,0,0,0,1.32-1.32V131.06a1.32,1.32,0,0,0-1.32-1.32H161.21a1.32,1.32,0,0,0-1.32,1.32v12.19a1.32,1.32,0,0,0,1.32,1.32h10.94"/><path class="cls-8" d="M172.15,124.52a1.32,1.32,0,0,0,1.32-1.32v-7.9a1.32,1.32,0,0,0-1.32-1.32H161.21a1.32,1.32,0,0,0-1.32,1.32v7.9a1.32,1.32,0,0,0,1.32,1.32h10.94"/><polygon class="cls-9" points="190.99 146.9 190.99 84.3 208.01 84.3 208.01 146.9 190.99 146.9 190.99 146.9"/><polygon class="cls-9" points="210.44 146.9 210.44 84.3 227.46 84.3 227.46 146.9 210.44 146.9 210.44 146.9"/><polygon class="cls-9" points="229.89 146.9 229.89 84.3 246.9 84.3 246.9 146.9 229.89 146.9 229.89 146.9"/><polygon class="cls-9" points="249.33 146.9 249.33 84.3 266.35 84.3 266.35 146.9 249.33 146.9 249.33 146.9"/><polygon class="cls-10" points="190.99 96.46 190.99 89.17 208.01 89.17 208.01 96.46 190.99 96.46 190.99 96.46"/><polygon class="cls-10" points="210.44 96.46 210.44 89.17 227.46 89.17 227.46 96.46 210.44 96.46 210.44 96.46"/><polygon class="cls-10" points="229.89 96.46 229.89 89.17 246.9 89.17 246.9 96.46 229.89 96.46 229.89 96.46"/><polygon class="cls-10" points="249.33 96.46 249.33 89.17 266.35 89.17 266.35 96.46 249.33 96.46 249.33 96.46"/><polygon class="cls-10" points="190.99 139 190.99 131.71 208.01 131.71 208.01 139 190.99 139 190.99 139"/><polygon class="cls-10" points="210.44 139 210.44 131.71 227.46 131.71 227.46 139 210.44 139 210.44 139"/><polygon class="cls-10" points="229.89 139 229.89 131.71 246.9 131.71 246.9 139 229.89 139 229.89 139"/><polygon class="cls-10" points="249.33 139 249.33 131.71 266.35 131.71 266.35 139 249.33 139 249.33 139"/><polygon class="cls-11" points="215.18 70.93 252.98 70.93 252.98 57.56 244.59 57.56 215.18 70.93"/><polygon class="cls-4" points="208.01 57.56 244.59 57.56 270 46.02 189.78 46.02 189.78 82.48 215.18 70.93 208.01 70.93 208.01 57.56"/><polygon class="cls-11" points="208.01 57.56 208.01 70.93 215.18 70.93 244.59 57.56 208.01 57.56"/><polygon class="cls-12" points="208.01 57.56 208.01 70.93 215.18 70.93 244.59 57.56 208.01 57.56"/><rect class="cls-13" x="190.99" y="88.57" width="17.02" height="0.6"/><rect class="cls-13" x="210.44" y="88.57" width="17.02" height="0.6"/><rect class="cls-13" x="229.89" y="88.57" width="17.02" height="0.6"/><rect class="cls-13" x="249.33" y="88.57" width="17.02" height="0.6"/><rect class="cls-13" x="190.99" y="139" width="17.02" height="1.27"/><rect class="cls-13" x="210.44" y="139" width="17.02" height="1.27"/><rect class="cls-13" x="229.89" y="139" width="17.02" height="1.27"/><rect class="cls-13" x="249.33" y="139" width="17.02" height="1.27"/><path class="cls-14" d="M167.41,52.08a0,0,0,0,1-.06,0l0,0c-.19-.29-.91-1.28-1.14-1.59h0a.34.34,0,0,0-.24-.08H165a.34.34,0,0,0-.26.1.36.36,0,0,0-.09.26h0v2.55h1s0-1.35,0-1.75c0,0,0-.06.1-.05a.06.06,0,0,1,0,0c.2.32,1.53,1.78,1.53,1.78h1.09v-2.9h-1.06Zm-4.89.21a3.74,3.74,0,0,1,1.17,1.05h.8A2.62,2.62,0,0,0,162.52,52.29Zm14.19-1.76a.88.88,0,0,0-.52-.14h-2.1a1,1,0,0,0-.61.17.56.56,0,0,0-.22.45h0v2.27h1.11v-.76h1.79q.73,0,.73-.59V51A.59.59,0,0,0,176.71,50.54Zm-1,1.36h-1.41v-.75h1.41Zm-3.24-1.34a1,1,0,0,0-.61-.17H169.8a1,1,0,0,0-.61.17A.56.56,0,0,0,169,51v2.27h1.11v-.77h1.55v.77h1.11V51A.56.56,0,0,0,172.52,50.56ZM171.63,52h-1.55v-.84h1.55Zm-8.87.6h-1.12V51.05h1.54v1.28a3,3,0,0,1,1,.51.88.88,0,0,0,.05-.3V51.12q0-.73-.85-.77h-2q-1,0-1,.77v1.41q0,.77,1,.77h1.86l.25,0A3.42,3.42,0,0,0,162.76,52.59Z"/><path class="cls-15" d="M130.08,92.06H116.34v15.86h13.74Zm-6.86,6.31V95h2.73v3.37Zm0,6.91V101.9h2.73v3.37Z"/><rect class="cls-16" x="116.33" y="92.06" width="1" height="15.86"/><rect class="cls-16" x="129.08" y="92.06" width="1" height="15.86"/><rect class="cls-16" x="122.7" y="100.56" width="1" height="13.72" transform="translate(230.63 -15.78) rotate(90)"/><rect class="cls-16" x="122.7" y="85.7" width="1" height="13.72" transform="translate(215.76 -30.64) rotate(90)"/><path class="cls-17" d="M104.12,110.79H115V89.17H103.79l-.31,0-.2,0h-18a5,5,0,0,0-5,5v11.71a5,5,0,0,0,5,5h18A4.93,4.93,0,0,0,104.12,110.79Z"/><g class="cls-18"><path class="cls-19" d="M115,107.75s-21.69,1.75-25.94-.5-4-8.87-3.37-11.87,3.88-7.62,3.88-7.62l-8-2.87-8.75,9.88s7.25,16.87,7.5,17.62,25.88,3,25.88,3l11.25-4Z"/></g><path class="cls-20" d="M103.61,101.47,100.23,99l3.37-2.48a.51.51,0,0,0,0-.82L99.67,92.8a.51.51,0,0,0-.81.41V98l-2.08-1.53-.61.82L98.5,99l-2.33,1.71.61.82L98.85,100v4.77a.51.51,0,0,0,.81.41l3.94-2.89a.51.51,0,0,0,0-.82Zm-3.73-7.25,2.56,1.88L99.88,98Zm0,9.54V100l2.56,1.88Z"/><path class="cls-21" d="M529.13,76.16V13.92a3,3,0,0,0-3-3H493.28a3,3,0,0,0-3,3V76.16Z"/><g class="cls-22"><path class="cls-23" d="M488.35,70.06s33,5.66,36.59-8.39c2.9-11.25,1.79-43.29,1.79-43.29s.7-6.82-12.71-7.43-8.44-4.38-8.44-4.38L540,10.23l.6,37.14-.1,42.1-47.86-2.88L474.2,74.87Z"/></g><circle class="cls-24" cx="492.7" cy="13.46" r="1.12"/><circle class="cls-25" cx="526.43" cy="13.46" r="1.12"/><circle class="cls-25" cx="492.7" cy="73.85" r="1.12"/><circle class="cls-25" cx="526.43" cy="73.85" r="1.12"/><circle class="cls-24" cx="509.71" cy="29.02" r="9.9"/><circle class="cls-26" cx="509.71" cy="29.02" r="8.42"/><circle class="cls-27" cx="509.71" cy="29.02" r="4.39"/><circle class="cls-20" cx="507.75" cy="27.76" r="1.12"/><circle class="cls-24" cx="509.71" cy="55.83" r="9.9"/><circle class="cls-26" cx="509.71" cy="55.83" r="8.42"/><circle class="cls-27" cx="509.71" cy="55.83" r="4.39"/><circle class="cls-20" cx="507.75" cy="54.57" r="1.12"/><path class="cls-27" d="M498,104.14V25a3.8,3.8,0,0,0-3.79-3.79H452.47A3.8,3.8,0,0,0,448.68,25v79.13Z"/><g class="cls-28"><path class="cls-29" d="M446.2,96.38s41.91,7.2,46.52-10.67c3.69-14.3,2.27-55,2.27-55s.88-8.67-16.16-9.45-10.73-5.57-10.73-5.57l43.81,4.67.76,47.21-.13,53.53-60.85-3.66-23.48-14.9Z"/></g><circle class="cls-24" cx="451.72" cy="24.42" r="1.42"/><circle class="cls-25" cx="494.61" cy="24.42" r="1.42"/><circle class="cls-25" cx="451.72" cy="101.21" r="1.42"/><circle class="cls-25" cx="494.61" cy="101.21" r="1.42"/><circle class="cls-24" cx="473.36" cy="44.21" r="12.59"/><circle class="cls-26" cx="473.36" cy="44.21" r="10.7"/><circle class="cls-27" cx="473.36" cy="44.21" r="5.59"/><circle class="cls-20" cx="470.87" cy="42.6" r="1.42"/><circle class="cls-24" cx="473.36" cy="78.29" r="12.59"/><circle class="cls-26" cx="473.36" cy="78.29" r="10.7"/><circle class="cls-27" cx="473.36" cy="78.29" r="5.59"/><circle class="cls-20" cx="470.87" cy="76.68" r="1.42"/><path class="cls-30" d="M434.8,83.83a8.67,8.67,0,0,1-.48,2.95"/><path class="cls-31" d="M432.35,91.35c-4.45,8.21-16.93,23-51.81,43.76C361,146.77,314.88,143.8,299,142.37"/><path class="cls-30" d="M296.54,142.13c-1.91-.19-3-.32-3-.32"/><rect class="cls-32" x="360.51" y="108.39" width="32.83" height="43.68" rx="15" ry="15"/><path class="cls-20" d="M384.13,135.17l-6.72-4.94,6.72-4.94a1,1,0,0,0,0-1.64l-7.84-5.75a1,1,0,0,0-1.62.82v9.5l-4.15-3-1.21,1.64,4.65,3.42-4.65,3.42,1.21,1.64,4.15-3v9.5a1,1,0,0,0,1.62.82l7.84-5.76a1,1,0,0,0,0-1.64Zm-7.43-14.44,5.1,3.74-5.1,3.75Zm0,19v-7.49l5.1,3.75Z"/></svg>