<svg xmlns="http://www.w3.org/2000/svg" xmlns:xlink="http://www.w3.org/1999/xlink" viewBox="0 0 500 300"><defs><style>.cls-1,.cls-12,.cls-30,.cls-32{fill:none;}.cls-2{isolation:isolate;}.cls-3{opacity:0.8;fill:url(#未命名漸層_52);}.cls-4{fill:#bc7483;}.cls-5{fill:#b4b3b1;}.cls-6{fill:#999;}.cls-19,.cls-6{mix-blend-mode:multiply;}.cls-7{fill:#373332;}.cls-8{fill:#4f4e4c;}.cls-9{clip-path:url(#clip-path);}.cls-10{fill:#e0d8ca;}.cls-11{fill:#494748;}.cls-12{stroke:#070908;stroke-width:0.8px;}.cls-12,.cls-30{stroke-miterlimit:10;}.cls-13{fill:#bbd047;}.cls-14{fill:#4ba32f;}.cls-15{font-size:19.34px;}.cls-15,.cls-20,.cls-22,.cls-28,.cls-35{fill:#fff;}.cls-15,.cls-20,.cls-28{font-family:Calibri-Bold, Calibri;font-weight:700;}.cls-16{fill:#bc79bf;}.cls-17,.cls-19{fill:#2c2a2d;}.cls-18{clip-path:url(#clip-path-2);}.cls-20{font-size:12.76px;}.cls-21{letter-spacing:-0.02em;}.cls-23{fill:#95dbc6;}.cls-24{fill:#b0b0b0;}.cls-25{fill:#7c7c7c;}.cls-26{fill:#565656;}.cls-27{fill:#3f3f3f;}.cls-28{font-size:10.62px;}.cls-29{letter-spacing:-0.01em;}.cls-30{stroke:#376fb5;stroke-width:2px;stroke-dasharray:6 5;}.cls-31{fill:#3d3e44;}.cls-31,.cls-32,.cls-34,.cls-35,.cls-36,.cls-40{fill-rule:evenodd;}.cls-33,.cls-36{fill:#27272d;}.cls-34{fill:#bc8d40;}.cls-37{fill:#5b5b62;}.cls-38{fill:#52535a;}.cls-39{fill:#3a3c40;}.cls-40{fill:#376fb5;}.cls-41{fill:#2b66af;}.cls-42{fill:#727177;}.cls-43{fill:#919191;}</style><radialGradient id="未命名漸層_52" cx="362.66" cy="165.88" r="115.06" gradientUnits="userSpaceOnUse"><stop offset="0" stop-color="#74ecff" stop-opacity="0.7"/><stop offset="0.19" stop-color="#76ecff" stop-opacity="0.69"/><stop offset="0.34" stop-color="#7eedff" stop-opacity="0.65"/><stop offset="0.48" stop-color="#8befff" stop-opacity="0.58"/><stop offset="0.61" stop-color="#9ef2ff" stop-opacity="0.49"/><stop offset="0.73" stop-color="#b6f5ff" stop-opacity="0.37"/><stop offset="0.86" stop-color="#d3f9ff" stop-opacity="0.22"/><stop offset="0.97" stop-color="#f6feff" stop-opacity="0.05"/><stop offset="1" stop-color="#fff" stop-opacity="0"/></radialGradient><clipPath id="clip-path"><path class="cls-1" d="M195.34,117.61c0-.55-.38-.48-.38-.48a4.77,4.77,0,0,1-2.71-.62,3.86,3.86,0,0,1-1.36-2.62,62,62,0,0,1-.58-7.13v-.11l-11-.36h-.14l-10.56.36v.11a62,62,0,0,1-.58,7.13,3.86,3.86,0,0,1-1.36,2.62,4.77,4.77,0,0,1-2.71.62s-.35-.08-.38.48,0,1.78,0,1.78,5.36.47,15.66.38c10.3.1,16.07-.38,16.07-.38S195.37,118.16,195.34,117.61Z"/></clipPath><clipPath id="clip-path-2"><rect class="cls-1" x="62.69" y="147.9" width="55.75" height="55.75" rx="10" ry="10"/></clipPath></defs><title>no device</title><g class="cls-2"><g id="圖層_1" data-name="圖層 1"><circle class="cls-3" cx="362.66" cy="165.88" r="115.06"/><circle class="cls-4" cx="180.81" cy="79.51" r="69.67"/><path class="cls-5" d="M195.34,117.61c0-.55-.38-.48-.38-.48a4.77,4.77,0,0,1-2.71-.62,3.86,3.86,0,0,1-1.36-2.62,62,62,0,0,1-.58-7.13v-.11l-11-.36h-.14l-10.56.36v.11a62,62,0,0,1-.58,7.13,3.86,3.86,0,0,1-1.36,2.62,4.77,4.77,0,0,1-2.71.62s-.35-.08-.38.48,0,1.78,0,1.78,5.36.47,15.66.38c10.3.1,16.07-.38,16.07-.38S195.37,118.16,195.34,117.61Z"/><path class="cls-6" d="M228,41.92H136.32a2,2,0,0,0-2,2V107a2,2,0,0,0,2,2H228a2,2,0,0,0,2-2V43.92A2,2,0,0,0,228,41.92Z"/><path class="cls-7" d="M227.31,41.25a2,2,0,0,0-2-2H133.65a2,2,0,0,0-2,2V97.5h95.67Z"/><path class="cls-5" d="M133.65,106.59h91.66a2,2,0,0,0,2-2V97.5H131.64v7.08A2,2,0,0,0,133.65,106.59Z"/><circle class="cls-8" cx="179.48" cy="102.31" r="2.41"/><g class="cls-9"><polygon class="cls-10" points="162.92 118.01 195.79 118.01 195.79 118.91 162.67 118.91 162.92 118.01"/><polygon class="cls-8" points="162.92 117.14 195.79 117.14 195.79 118.04 162.67 118.04 162.92 117.14"/></g><rect class="cls-11" x="135.65" y="42.99" width="87.65" height="50.77"/><rect class="cls-12" x="135.65" y="42.99" width="87.65" height="50.77"/><rect class="cls-6" x="143.23" y="53.94" width="74.96" height="32.2"/><rect class="cls-13" x="141.76" y="52.34" width="74.96" height="32.2"/><path class="cls-14" d="M149.44,68c0-.34.07-.68.14-1a10.09,10.09,0,0,1,.41-1.39,1.26,1.26,0,0,1,1.22-.8c1.86,0,3.71,0,5.57,0a2.43,2.43,0,0,1,1.86,1,2.27,2.27,0,0,0,2.46.83,2.31,2.31,0,0,0,1.76-1.87,2.4,2.4,0,0,0-4.24-1.94,2.49,2.49,0,0,1-2,1h-4.73a.29.29,0,0,1-.1,0c-.11,0-.28-.08-.31-.16a.41.41,0,0,1,.08-.35,6.77,6.77,0,0,1,.7-.66,9,9,0,0,1,4.49-2,9.49,9.49,0,0,1,7.36,1.77,7.44,7.44,0,0,1,2.9,4.45c.1.45,0,.76-.36.87a.7.7,0,0,1-.22,0c-2.52,0-5,0-7.56,0a2.33,2.33,0,0,1-1.85-.94,2.4,2.4,0,0,0-4.23.81A2.4,2.4,0,0,0,157,69.74a2.45,2.45,0,0,1,2-.92c2.46,0,4.91,0,7.37,0,.51,0,.75.33.63.87a7.44,7.44,0,0,1-2.28,4,8.8,8.8,0,0,1-4.52,2.24,9.57,9.57,0,0,1-7.76-1.78,8.14,8.14,0,0,1-.87-.78.43.43,0,0,1-.12-.36.44.44,0,0,1,.34-.17c1.67,0,3.34,0,5,0a2.34,2.34,0,0,1,1.82,1,2.33,2.33,0,0,0,1.86.93,2.4,2.4,0,0,0,.53-4.76,2.3,2.3,0,0,0-2.33.83,2.64,2.64,0,0,1-2.14,1h-5.15a1.4,1.4,0,0,1-1.44-.92,5.71,5.71,0,0,1-.45-1.9,2.46,2.46,0,0,0-.05-.31Z"/><text class="cls-15" transform="translate(172.15 73.16)">dlna</text><circle class="cls-16" cx="78.36" cy="175.78" r="56.78"/><rect class="cls-17" x="62.69" y="147.9" width="55.75" height="55.75" rx="10" ry="10"/><g class="cls-18"><path class="cls-19" d="M105.9,146.17A10,10,0,0,1,112.1,155c.43,6.72,1,13.45,1,20.17,0,3.66-.22,7.38-.21,11,0,3.37,0,7.55-2.37,10.19-1.57,1.76-4.25,1.84-6.45,1.89-8.28.21-16.55.47-24.83.43-3.62,0-8.15.16-10.94-2.64C66,194,64,191.58,61.77,189.44c-2.54-2.46-4.49-2.49-4.71-6.1-.58-9.8,1.44,23.91,1.44,23.91l32.12,7.64,42.78-10.37,5.19-32.27-13.25-24.06Z"/></g><text class="cls-20" transform="translate(70.42 177.17)">Airpl<tspan class="cls-21" x="25.39" y="0">a</tspan><tspan x="31.46" y="0">y</tspan></text><rect class="cls-6" x="40.17" y="168.65" width="19" height="35" rx="3.5" ry="3.5"/><rect class="cls-22" x="38.29" y="167.03" width="19" height="35" rx="3.5" ry="3.5"/><path class="cls-11" d="M41.79,167a3.5,3.5,0,0,0-3.5,3.5v28a3.5,3.5,0,0,0,3.5,3.5h12a3.5,3.5,0,0,0,3.5-3.5v-28a3.5,3.5,0,0,0-3.5-3.5Zm6,3a6.5,6.5,0,1,1-6.53,6.5A6.51,6.51,0,0,1,47.82,170Zm0,1.5a.5.5,0,1,0,.5.5A.5.5,0,0,0,47.79,171.53Zm0,2.5a2.48,2.48,0,0,0-2.5,2.47,2.5,2.5,0,0,0,5,0A2.48,2.48,0,0,0,47.79,174Zm0,1a1.49,1.49,0,0,1,1.5,1.5,1.5,1.5,0,1,1-3,0A1.49,1.49,0,0,1,47.79,175Zm-4.5,1a.5.5,0,1,0,.5.5A.5.5,0,0,0,43.29,176Zm9,0a.5.5,0,1,0,.5.5A.5.5,0,0,0,52.29,176Zm-4.5,4.5a.5.5,0,1,0,.5.5A.5.5,0,0,0,47.79,180.53Zm-4,4.5a3.5,3.5,0,1,1-3.5,3.5A3.51,3.51,0,0,1,43.79,185Zm8,0a3.48,3.48,0,1,1-3.47,3.47A3.48,3.48,0,0,1,51.79,185ZM42.67,187a.52.52,0,0,0-.37.5v2a.53.53,0,0,0,.72.44l2-1a.53.53,0,0,0,0-.87l-2-1a.5.5,0,0,0-.34-.06Zm7.63.06v1h3v-1Zm0,2v1h3v-1Z"/><circle class="cls-23" cx="169.21" cy="244.97" r="40.28"/><path class="cls-24" d="M200.33,238.26H188.87v14h11.46Z"/><rect class="cls-25" x="188.86" y="238.26" width="1.18" height="13.96"/><rect class="cls-25" x="199.16" y="238.26" width="1.18" height="13.96"/><rect class="cls-25" x="194.01" y="245.91" width="1.18" height="11.45" transform="translate(446.23 57.04) rotate(90)"/><rect class="cls-25" x="194.01" y="233.13" width="1.18" height="11.45" transform="translate(433.45 44.25) rotate(90)"/><path class="cls-26" d="M177.28,254.61h12.78V235.56H176.9l-.36,0-.24,0H155.12c-3.24,0-5.88,2-5.88,4.41v10.32c0,2.42,2.65,4.41,5.88,4.41H176.3A7.69,7.69,0,0,0,177.28,254.61Z"/><polygon class="cls-27" points="190.04 252.23 169.88 252.23 165.41 251.44 168.22 254.68 190.06 254.68 190.04 252.23"/><circle class="cls-26" cx="154.72" cy="244.97" r="16.63"/><path class="cls-27" d="M140.94,242.22a16.55,16.55,0,0,1,3.71-10.46,16.61,16.61,0,1,0,23,23.66,16.6,16.6,0,0,1-26.7-13.21Z"/><text class="cls-28" transform="translate(149.32 246.53)">ch<tspan class="cls-29" x="10.14" y="0">r</tspan><tspan x="13.78" y="0">ome</tspan></text><rect class="cls-1" width="500" height="300"/><path class="cls-26" d="M280.14,181.94a.84.84,0,0,1-.84-.84V169.28a.84.84,0,1,1,1.69,0v11.81A.84.84,0,0,1,280.14,181.94Z"/><path class="cls-26" d="M286.89,180.25H254.83a4.22,4.22,0,0,0-4.22,4.22v3.37a4.22,4.22,0,0,0,4.22,4.22h32.06a4.22,4.22,0,0,0,4.22-4.22v-3.37A4.22,4.22,0,0,0,286.89,180.25ZM256.52,187a.84.84,0,1,1,.84-.84A.84.84,0,0,1,256.52,187Zm5.06,0a.84.84,0,1,1,.84-.84A.84.84,0,0,1,261.58,187Zm5.06,0a.84.84,0,1,1,.84-.84A.84.84,0,0,1,266.64,187Zm5.06,0a.84.84,0,1,1,.84-.84A.84.84,0,0,1,271.7,187Zm13.5,0h-8.44a.84.84,0,0,1,0-1.69h8.44a.84.84,0,1,1,0,1.69Z"/><path class="cls-26" d="M277.75,172.51a.85.85,0,0,1-.6-.25,4.22,4.22,0,0,1,0-6,.84.84,0,0,1,1.19,1.19,2.53,2.53,0,0,0,0,3.58.84.84,0,0,1,0,1.19A.83.83,0,0,1,277.75,172.51Z"/><path class="cls-26" d="M282.53,172.51a.84.84,0,0,1-.6-1.44,2.53,2.53,0,0,0,0-3.58.84.84,0,1,1,1.19-1.19,4.22,4.22,0,0,1,0,6A.84.84,0,0,1,282.53,172.51Z"/><path class="cls-26" d="M275.37,174.9a.85.85,0,0,1-.6-.25,7.6,7.6,0,0,1,0-10.74.84.84,0,0,1,1.19,1.19,5.91,5.91,0,0,0,0,8.35.84.84,0,0,1-.6,1.44Z"/><path class="cls-26" d="M284.91,174.9a.84.84,0,0,1-.6-1.44,5.91,5.91,0,0,0,0-8.35.84.84,0,0,1,1.19-1.19,7.6,7.6,0,0,1,0,10.74A.84.84,0,0,1,284.91,174.9Z"/><path class="cls-26" d="M273,177.29a.85.85,0,0,1-.6-.25,11,11,0,0,1,0-15.51.84.84,0,1,1,1.19,1.19,9.29,9.29,0,0,0,0,13.12.84.84,0,0,1-.6,1.44Z"/><path class="cls-26" d="M287.3,177.29a.84.84,0,0,1-.6-1.44,9.29,9.29,0,0,0,0-13.12.84.84,0,1,1,1.19-1.19,11,11,0,0,1,0,15.51A.84.84,0,0,1,287.3,177.29Z"/><path class="cls-30" d="M226.26,142.5s18.75,7.19,24.5,25"/><line class="cls-30" x1="144.26" y1="180" x2="240.26" y2="180"/><path class="cls-30" d="M215.76,239.5s31-15.5,41-41"/><line class="cls-30" x1="298.76" y1="185" x2="328.26" y2="185"/><path class="cls-31" d="M326.06,124h92.88a2.5,2.5,0,0,1,2.5,2.5v84.89a2.5,2.5,0,0,1-2.5,2.5H326.06a2.5,2.5,0,0,1-2.5-2.5V126.52a2.5,2.5,0,0,1,2.5-2.5Z"/><polygon class="cls-32" points="352.52 124.03 418.44 124.03 418.44 209.42 352.52 209.42 352.52 124.03 352.52 124.03"/><polygon class="cls-32" points="418.44 124.03 418.44 153.99 352.52 153.99 418.44 124.03 418.44 124.03"/><path class="cls-33" d="M339,205.92h-9a1.5,1.5,0,0,1-1.5-1.5v-10a1.5,1.5,0,0,1,1.5-1.5h9a1.5,1.5,0,0,1,1.5,1.5v10a1.5,1.5,0,0,1-1.5,1.5Zm0-16.48h-9a1.5,1.5,0,0,1-1.5-1.5v-6.49a1.5,1.5,0,0,1,1.5-1.5h9a1.5,1.5,0,0,1,1.5,1.5v6.49a1.5,1.5,0,0,1-1.5,1.5Z"/><path class="cls-33" d="M339,205.92h-9a1.5,1.5,0,0,1-1.5-1.5v-10a1.5,1.5,0,0,1,1.5-1.5h9a1.5,1.5,0,0,1,1.5,1.5v10a1.5,1.5,0,0,1-1.5,1.5Z"/><path class="cls-33" d="M339,189.44h-9a1.5,1.5,0,0,1-1.5-1.5v-6.49a1.5,1.5,0,0,1,1.5-1.5h9a1.5,1.5,0,0,1,1.5,1.5v6.49a1.5,1.5,0,0,1-1.5,1.5Z"/><polygon class="cls-34" points="329.55 154.99 345.53 154.99 345.53 160.98 329.55 160.98 329.55 154.99 329.55 154.99"/><polygon class="cls-35" points="329.55 149 345.53 149 345.53 154.99 329.55 154.99 329.55 149 329.55 149"/><polygon class="cls-36" points="352.52 124.03 418.44 124.03 418.44 209.42 352.52 209.42 352.52 124.03 352.52 124.03"/><polygon class="cls-32" points="368.5 134.01 405.45 134.01 405.45 145 368.5 145 368.5 134.01 368.5 134.01"/><path class="cls-37" d="M339,205.5a1.08,1.08,0,0,0,1.08-1.08v-10a1.08,1.08,0,0,0-1.08-1.08h-9A1.08,1.08,0,0,0,329,194.4v10a1.08,1.08,0,0,0,1.08,1.08h9"/><path class="cls-37" d="M339,189a1.08,1.08,0,0,0,1.08-1.08v-6.49a1.08,1.08,0,0,0-1.08-1.08h-9a1.08,1.08,0,0,0-1.08,1.08v6.49a1.08,1.08,0,0,0,1.08,1.08h9"/><polygon class="cls-38" points="354.52 207.42 354.52 155.99 368.5 155.99 368.5 207.42 354.52 207.42 354.52 207.42"/><polygon class="cls-38" points="370.5 207.42 370.5 155.99 384.48 155.99 384.48 207.42 370.5 207.42 370.5 207.42"/><polygon class="cls-38" points="386.48 207.42 386.48 155.99 400.46 155.99 400.46 207.42 386.48 207.42 386.48 207.42"/><polygon class="cls-38" points="402.46 207.42 402.46 155.99 416.44 155.99 416.44 207.42 402.46 207.42 402.46 207.42"/><polygon class="cls-39" points="354.52 165.97 354.52 159.98 368.5 159.98 368.5 165.97 354.52 165.97 354.52 165.97"/><polygon class="cls-39" points="370.5 165.97 370.5 159.98 384.48 159.98 384.48 165.97 370.5 165.97 370.5 165.97"/><polygon class="cls-39" points="386.48 165.97 386.48 159.98 400.46 159.98 400.46 165.97 386.48 165.97 386.48 165.97"/><polygon class="cls-39" points="402.46 165.97 402.46 159.98 416.44 159.98 416.44 165.97 402.46 165.97 402.46 165.97"/><polygon class="cls-39" points="354.52 200.93 354.52 194.94 368.5 194.94 368.5 200.93 354.52 200.93 354.52 200.93"/><polygon class="cls-39" points="370.5 200.93 370.5 194.94 384.48 194.94 384.48 200.93 370.5 200.93 370.5 200.93"/><polygon class="cls-39" points="386.48 200.93 386.48 194.94 400.46 194.94 400.46 200.93 386.48 200.93 386.48 200.93"/><polygon class="cls-39" points="402.46 200.93 402.46 194.94 416.44 194.94 416.44 200.93 402.46 200.93 402.46 200.93"/><polygon class="cls-40" points="374.39 145 405.45 145 405.45 134.01 398.56 134.01 374.39 145"/><polygon class="cls-33" points="368.5 134.01 398.56 134.01 419.43 124.53 353.52 124.53 353.52 154.49 374.39 145 368.5 145 368.5 134.01"/><polygon class="cls-40" points="368.5 134.01 368.5 145 374.39 145 398.56 134.01 368.5 134.01"/><polygon class="cls-41" points="368.5 134.01 368.5 145 374.39 145 398.56 134.01 368.5 134.01"/><rect class="cls-42" x="354.52" y="159.49" width="13.98" height="0.49"/><rect class="cls-42" x="370.5" y="159.49" width="13.98" height="0.49"/><rect class="cls-42" x="386.48" y="159.49" width="13.98" height="0.49"/><rect class="cls-42" x="402.46" y="159.49" width="13.98" height="0.49"/><rect class="cls-42" x="354.52" y="200.93" width="13.98" height="1.05"/><rect class="cls-42" x="370.5" y="200.93" width="13.98" height="1.05"/><rect class="cls-42" x="386.48" y="200.93" width="13.98" height="1.05"/><rect class="cls-42" x="402.46" y="200.93" width="13.98" height="1.05"/><path class="cls-43" d="M335.14,129.51a0,0,0,0,1,0,0l0,0c-.15-.24-.75-1.05-.94-1.31h0a.28.28,0,0,0-.2-.06h-.74a.28.28,0,0,0-.21.08.3.3,0,0,0-.08.21h0v2.1h.86s0-1.11,0-1.43c0,0,0-.05.09,0a.05.05,0,0,1,0,0c.17.27,1.25,1.46,1.25,1.46H336v-2.39h-.87Zm-4,.18a3.07,3.07,0,0,1,1,.86h.65A2.15,2.15,0,0,0,331.13,129.69Zm11.66-1.44a.72.72,0,0,0-.42-.12h-1.73a.81.81,0,0,0-.5.14.46.46,0,0,0-.18.37h0v1.87h.91v-.62h1.47q.6,0,.6-.48v-.77A.48.48,0,0,0,342.78,128.24Zm-.78,1.12h-1.16v-.62H342Zm-2.66-1.1a.8.8,0,0,0-.5-.14h-1.73a.8.8,0,0,0-.5.14.46.46,0,0,0-.18.38v1.87h.91v-.64h1.28v.64h.91v-1.87A.46.46,0,0,0,339.34,128.26Zm-.73,1.17h-1.28v-.69h1.28Zm-7.29.49h-.92v-1.26h1.27v1.05a2.47,2.47,0,0,1,.83.42.72.72,0,0,0,0-.25v-1.16q0-.6-.7-.63h-1.61q-.78,0-.78.63v1.16q0,.63.78.63H332A2.81,2.81,0,0,0,331.32,129.92Z"/></g></g></svg>