<svg id="圖層_1" data-name="圖層 1" xmlns="http://www.w3.org/2000/svg" xmlns:xlink="http://www.w3.org/1999/xlink" viewBox="0 0 615 175"><defs><style>.cls-1,.cls-25,.cls-3{fill:none;}.cls-2{fill:#3d3e44;}.cls-11,.cls-2,.cls-3,.cls-5,.cls-6,.cls-7{fill-rule:evenodd;}.cls-4,.cls-7{fill:#27272d;}.cls-5{fill:#bc8d40;}.cls-33,.cls-6{fill:#fff;}.cls-8{fill:#5b5b62;}.cls-9{fill:#52535a;}.cls-10{fill:#3a3c40;}.cls-11{fill:#376fb5;}.cls-12{fill:#2b66af;}.cls-13{fill:#727177;}.cls-14{fill:#919191;}.cls-15{fill:#bc7483;}.cls-16{fill:#bc79bf;}.cls-17{fill:#fefef6;}.cls-18{fill:#f9f5ec;}.cls-19{fill:#645e60;}.cls-20{clip-path:url(#clip-path);}.cls-21{fill:#d8d2c5;}.cls-22{clip-path:url(#clip-path-2);}.cls-23{clip-path:url(#clip-path-3);}.cls-24{fill:#484244;}.cls-25{stroke:#7a7a7a;stroke-miterlimit:10;stroke-width:2.99px;}.cls-26{fill:#635547;}.cls-27{clip-path:url(#clip-path-4);}.cls-28{fill:#3f372f;}.cls-29{fill:#b5a49a;}.cls-30{fill:#9e9088;}.cls-31{fill:#cec1bb;}.cls-32{fill:#736759;}.cls-34{clip-path:url(#clip-path-5);}.cls-35{fill:#54493e;}.cls-36{fill:#efefef;}.cls-37{fill:#b0b0b0;}.cls-38{fill:#7c7c7c;}.cls-39{clip-path:url(#clip-path-6);}.cls-40{fill:#dbdbdb;}</style><clipPath id="clip-path"><path class="cls-1" d="M128.8,119.14a4,4,0,0,0-3.41,3.92v1.36a1.62,1.62,0,0,0-1.62,1.62v5.2a1.62,1.62,0,0,0,1.62,1.62v.77a3.85,3.85,0,0,0,3.16,3.84l5.12,1.11a3.73,3.73,0,0,0,2.56-.34l-1.71-19.87h-.6l-4.52.68Z"/></clipPath><clipPath id="clip-path-2"><path class="cls-1" d="M199.84,119.22a4,4,0,0,1,3.41,3.92v1.36a1.62,1.62,0,0,1,1.62,1.62v5.2a1.62,1.62,0,0,1-1.62,1.62v.77a3.85,3.85,0,0,1-3.16,3.84L195,138.67a3.73,3.73,0,0,1-2.56-.34l1.71-19.87h.6l4.52.68Z"/></clipPath><clipPath id="clip-path-3"><path class="cls-1" d="M188.16,85.79a5.72,5.72,0,0,0-4.52-5.37,113.36,113.36,0,0,0-37.19,0,5.76,5.76,0,0,0-4.38,4.28c0,.19-.06.38-.09.56a4.63,4.63,0,0,0-.05.53v.43l-.07,0c-.3,3.35.66,4.89,1,5.34a3.78,3.78,0,0,0,3.57,1.19,113.36,113.36,0,0,1,37.19,0,3.73,3.73,0,0,0,3.88-1.57,30.7,30.7,0,0,0,.64-5Z"/></clipPath><clipPath id="clip-path-4"><path class="cls-1" d="M312.6,67.84V21.37a2.23,2.23,0,0,0-2.22-2.22H285.84a2.23,2.23,0,0,0-2.22,2.22V67.84Z"/></clipPath><clipPath id="clip-path-5"><path class="cls-1" d="M289.4,88.73V29.65a2.84,2.84,0,0,0-2.83-2.83h-31.2a2.84,2.84,0,0,0-2.83,2.83V88.73Z"/></clipPath><clipPath id="clip-path-6"><path class="cls-1" d="M327.39,133.76H319c-2.07,0-8.25,2.6-8.31,2.63l-3.28,1v8.85l3.44,1.06v0c1,.41,6.26,2.56,8.15,2.56h8.35Z"/></clipPath></defs><title>no device</title><path class="cls-2" d="M361.74,71.78h96.47a2.59,2.59,0,0,1,2.59,2.59v88.17a2.59,2.59,0,0,1-2.59,2.59H361.74a2.59,2.59,0,0,1-2.59-2.59V74.38a2.59,2.59,0,0,1,2.59-2.59Z"/><polygon class="cls-3" points="389.23 71.78 457.7 71.78 457.7 160.48 389.23 160.48 389.23 71.78 389.23 71.78"/><polygon class="cls-3" points="457.7 71.78 457.7 102.9 389.23 102.9 457.7 71.78 457.7 71.78"/><path class="cls-4" d="M375.23,156.85h-9.34a1.56,1.56,0,0,1-1.56-1.56V144.88a1.56,1.56,0,0,1,1.56-1.56h9.34a1.56,1.56,0,0,1,1.56,1.56v10.41a1.56,1.56,0,0,1-1.56,1.56Zm0-17.12h-9.34a1.56,1.56,0,0,1-1.56-1.56v-6.74a1.56,1.56,0,0,1,1.56-1.56h9.34a1.56,1.56,0,0,1,1.56,1.56v6.74a1.56,1.56,0,0,1-1.56,1.56Z"/><path class="cls-4" d="M375.23,156.85h-9.34a1.56,1.56,0,0,1-1.56-1.56V144.88a1.56,1.56,0,0,1,1.56-1.56h9.34a1.56,1.56,0,0,1,1.56,1.56v10.41a1.56,1.56,0,0,1-1.56,1.56Z"/><path class="cls-4" d="M375.23,139.73h-9.34a1.56,1.56,0,0,1-1.56-1.56v-6.74a1.56,1.56,0,0,1,1.56-1.56h9.34a1.56,1.56,0,0,1,1.56,1.56v6.74a1.56,1.56,0,0,1-1.56,1.56Z"/><polygon class="cls-5" points="365.37 103.94 381.97 103.94 381.97 110.17 365.37 110.17 365.37 103.94 365.37 103.94"/><polygon class="cls-6" points="365.37 97.72 381.97 97.72 381.97 103.94 365.37 103.94 365.37 97.72 365.37 97.72"/><polygon class="cls-7" points="389.23 71.78 457.7 71.78 457.7 160.48 389.23 160.48 389.23 71.78 389.23 71.78"/><polygon class="cls-3" points="405.83 82.16 444.21 82.16 444.21 93.57 405.83 93.57 405.83 82.16 405.83 82.16"/><path class="cls-8" d="M375.23,156.41a1.12,1.12,0,0,0,1.12-1.12V144.88a1.12,1.12,0,0,0-1.12-1.12h-9.34a1.12,1.12,0,0,0-1.12,1.12v10.41a1.12,1.12,0,0,0,1.12,1.12h9.34"/><path class="cls-8" d="M375.23,139.3a1.12,1.12,0,0,0,1.12-1.12v-6.74a1.12,1.12,0,0,0-1.12-1.12h-9.34a1.12,1.12,0,0,0-1.12,1.12v6.74a1.12,1.12,0,0,0,1.12,1.12h9.34"/><polygon class="cls-9" points="391.31 158.4 391.31 104.98 405.83 104.98 405.83 158.4 391.31 158.4 391.31 158.4"/><polygon class="cls-9" points="407.9 158.4 407.9 104.98 422.43 104.98 422.43 158.4 407.9 158.4 407.9 158.4"/><polygon class="cls-9" points="424.5 158.4 424.5 104.98 439.02 104.98 439.02 158.4 424.5 158.4 424.5 158.4"/><polygon class="cls-9" points="441.1 158.4 441.1 104.98 455.62 104.98 455.62 158.4 441.1 158.4 441.1 158.4"/><polygon class="cls-10" points="391.31 115.35 391.31 109.13 405.83 109.13 405.83 115.35 391.31 115.35 391.31 115.35"/><polygon class="cls-10" points="407.9 115.35 407.9 109.13 422.43 109.13 422.43 115.35 407.9 115.35 407.9 115.35"/><polygon class="cls-10" points="424.5 115.35 424.5 109.13 439.02 109.13 439.02 115.35 424.5 115.35 424.5 115.35"/><polygon class="cls-10" points="441.1 115.35 441.1 109.13 455.62 109.13 455.62 115.35 441.1 115.35 441.1 115.35"/><polygon class="cls-10" points="391.31 151.66 391.31 145.44 405.83 145.44 405.83 151.66 391.31 151.66 391.31 151.66"/><polygon class="cls-10" points="407.9 151.66 407.9 145.44 422.43 145.44 422.43 151.66 407.9 151.66 407.9 151.66"/><polygon class="cls-10" points="424.5 151.66 424.5 145.44 439.02 145.44 439.02 151.66 424.5 151.66 424.5 151.66"/><polygon class="cls-10" points="441.1 151.66 441.1 145.44 455.62 145.44 455.62 151.66 441.1 151.66 441.1 151.66"/><polygon class="cls-11" points="411.95 93.57 444.21 93.57 444.21 82.16 437.05 82.16 411.95 93.57"/><polygon class="cls-4" points="405.83 82.16 437.05 82.16 458.74 72.3 390.27 72.3 390.27 103.42 411.95 93.57 405.83 93.57 405.83 82.16"/><polygon class="cls-11" points="405.83 82.16 405.83 93.57 411.95 93.57 437.05 82.16 405.83 82.16"/><polygon class="cls-12" points="405.83 82.16 405.83 93.57 411.95 93.57 437.05 82.16 405.83 82.16"/><rect class="cls-13" x="391.31" y="108.62" width="14.52" height="0.51"/><rect class="cls-13" x="407.9" y="108.62" width="14.52" height="0.51"/><rect class="cls-13" x="424.5" y="108.62" width="14.52" height="0.51"/><rect class="cls-13" x="441.1" y="108.62" width="14.52" height="0.51"/><rect class="cls-13" x="391.31" y="151.66" width="14.52" height="1.09"/><rect class="cls-13" x="407.9" y="151.66" width="14.52" height="1.09"/><rect class="cls-13" x="424.5" y="151.66" width="14.52" height="1.09"/><rect class="cls-13" x="441.1" y="151.66" width="14.52" height="1.09"/><path class="cls-14" d="M371.18,77.48a0,0,0,0,1,0,0l0,0c-.16-.25-.77-1.09-1-1.36h0a.29.29,0,0,0-.2-.07h-.76a.29.29,0,0,0-.22.08.31.31,0,0,0-.08.22h0v2.18h.89s0-1.15,0-1.49c0,0,0-.05.09,0a.05.05,0,0,1,0,0c.17.28,1.3,1.52,1.3,1.52h.93V76h-.91Zm-4.17.18a3.19,3.19,0,0,1,1,.9h.68A2.24,2.24,0,0,0,367,77.66Zm12.11-1.5a.75.75,0,0,0-.44-.12h-1.8a.84.84,0,0,0-.52.14.48.48,0,0,0-.19.38h0v1.94h.95v-.65h1.53q.62,0,.62-.5v-.79A.5.5,0,0,0,379.12,76.16Zm-.81,1.16h-1.2v-.64h1.2Zm-2.76-1.14A.83.83,0,0,0,375,76h-1.8a.83.83,0,0,0-.52.14.48.48,0,0,0-.19.4v1.94h.95v-.66h1.32v.66h.95V76.57A.47.47,0,0,0,375.54,76.18Zm-.76,1.22h-1.32v-.72h1.32Zm-7.57.51h-1V76.6h1.32v1.09a2.56,2.56,0,0,1,.86.43.75.75,0,0,0,0-.26V76.66q0-.62-.73-.65h-1.68q-.81,0-.82.66v1.21q0,.65.82.65h1.8A2.92,2.92,0,0,0,367.21,77.91Z"/><circle class="cls-15" cx="283.65" cy="56.33" r="52.01"/><circle class="cls-16" cx="164.32" cy="114.56" r="52.01"/><path class="cls-17" d="M183.55,142.93a5.51,5.51,0,0,0,5-.17,4.16,4.16,0,0,0,2.13-3.07l2.22-21.41a4.13,4.13,0,0,0-1.11-3.16,5.4,5.4,0,0,0-4.18-1.62,4.61,4.61,0,0,0-4.44,3.67L181,138.58a4.14,4.14,0,0,0,2.56,4.35l-.26.43h0Z"/><path class="cls-17" d="M138.09,139.69a4.33,4.33,0,0,0,3.41,3.67,5.51,5.51,0,0,0,4.86-1.11,3.94,3.94,0,0,0,1.45-3.41l-1.88-21.49a3.72,3.72,0,0,0-1.71-2.81,5.37,5.37,0,0,0-4.44-.77,4.48,4.48,0,0,0-3.67,4.44Z"/><path class="cls-18" d="M128.8,119.14a4,4,0,0,0-3.41,3.92v1.36a1.62,1.62,0,0,0-1.62,1.62v5.2a1.62,1.62,0,0,0,1.62,1.62v.77a3.85,3.85,0,0,0,3.16,3.84l5.12,1.11a3.73,3.73,0,0,0,2.56-.34l-1.71-19.87h-.6l-4.52.68Z"/><path class="cls-18" d="M203.17,124.43v-1.36a4,4,0,0,0-2.81-3.79l-4.81-.71h0l-.83-.11-2,20a4.21,4.21,0,0,0,2.3.26l5.12-1.11a4,4,0,0,0,3.16-3.84V133a1.62,1.62,0,0,0,1.62-1.62v-5.2A1.77,1.77,0,0,0,203.17,124.43Z"/><path class="cls-19" d="M188.16,85.79a5.72,5.72,0,0,0-4.52-5.37,113.36,113.36,0,0,0-37.19,0,5.76,5.76,0,0,0-4.38,4.28c0,.19-.06.38-.09.56a4.63,4.63,0,0,0-.05.53v.43l-.07,0c-.3,3.35.66,4.89,1,5.34a3.78,3.78,0,0,0,3.57,1.19,113.36,113.36,0,0,1,37.19,0,3.73,3.73,0,0,0,3.88-1.57,30.7,30.7,0,0,0,.64-5Z"/><path class="cls-18" d="M195.55,118.57l4.81.71a3.84,3.84,0,0,0-.61-.14c.08-2.17.13-4.29.13-6.34,0-9.21-1.15-17.08-6.53-22.66-.21-.22-.44-.42-.66-.63a23.09,23.09,0,0,0-4.54-3.29,30.7,30.7,0,0,1-.64,5,3.68,3.68,0,0,0,.38-.74,14.46,14.46,0,0,1,2.72,2.29h0c4,4.14,5.17,10.12,5.42,17.25.09,2.71,0,5.58,0,8.59Z"/><path class="cls-18" d="M141.86,86.26a23.49,23.49,0,0,0-3.19,2,22,22,0,0,0-2.37,2c-4.84,5-6.43,11.7-6.83,19.54-.15,2.93-.15,6-.08,9.2l4.52-.68-.68.09c0-2.54,0-5,.05-7.33.29-7.15,1.47-13.23,5.2-17.56.2-.24.41-.47.63-.7a17,17,0,0,1,3.07-2.47,3.61,3.61,0,0,0,.54,1C142.31,90.73,141.61,89.18,141.86,86.26Z"/><path class="cls-18" d="M142.72,91.37l.16.22C142.82,91.52,142.78,91.44,142.72,91.37Z"/><path d="M142.07,84.7a4.87,4.87,0,0,0-.09.56C142,85.08,142,84.89,142.07,84.7Z"/><g class="cls-20"><path class="cls-21" d="M132.91,117.76s1.21,20.65-3.73,19.85l-.18,1.61,7,.36.92-3.34-1.71-19.51Z"/></g><g class="cls-22"><path class="cls-21" d="M195.73,117.85s-1.21,20.65,3.73,19.85l.18,1.61-7,.36-.92-3.34,1.71-19.51Z"/></g><g class="cls-23"><path class="cls-24" d="M143.15,81.59s-1.49,7.46,2.35,8.39,6.25-2.2,19.4-1.28,14.57,1.49,16.63,1.42,6-.46,5.06-8,6,3.15,6,3.15l-4.05,11-27.15-.07-20.19-1.49-5.4-8.17Z"/></g><path class="cls-25" d="M294.26,141.85c-8.58-.44-24.1-2.71-32.7-1.46-6.33.92-12.56,3.64-16.94,8.39-4.66,5-8.12,10.73-13.74,14.85a37.68,37.68,0,0,1-18.3,7.5c-9.85,1-20.28-3.67-25-12.59-2.47-4.65-2.48-10-1.66-15.1"/><path class="cls-26" d="M312.6,67.84V21.37a2.23,2.23,0,0,0-2.22-2.22H285.84a2.23,2.23,0,0,0-2.22,2.22V67.84Z"/><g class="cls-27"><path class="cls-28" d="M282.16,63.28s24.61,4.23,27.32-6.26c2.17-8.4,1.33-32.32,1.33-32.32s.52-5.09-9.49-5.55-6.3-3.27-6.3-3.27l25.72,2.74.44,27.73-.07,31.43-35.73-2.15-13.79-8.75Z"/></g><circle class="cls-29" cx="285.4" cy="21.03" r="0.83"/><circle class="cls-30" cx="310.59" cy="21.03" r="0.83"/><circle class="cls-30" cx="285.4" cy="66.12" r="0.83"/><circle class="cls-30" cx="310.59" cy="66.12" r="0.83"/><circle class="cls-29" cx="298.11" cy="32.65" r="7.39"/><circle class="cls-31" cx="298.11" cy="32.65" r="6.28"/><circle class="cls-32" cx="298.11" cy="32.65" r="3.28"/><circle class="cls-33" cx="296.64" cy="31.7" r="0.83"/><circle class="cls-29" cx="298.11" cy="52.66" r="7.39"/><circle class="cls-31" cx="298.11" cy="52.66" r="6.28"/><circle class="cls-32" cx="298.11" cy="52.66" r="3.28"/><circle class="cls-33" cx="296.64" cy="51.72" r="0.83"/><path class="cls-25" d="M263.46,81.38c-11.78,5.08-25.35,24.84-14.56,39a16.34,16.34,0,0,0,14.1,6.28c3.84-.32,7.41-2,11.09-3.14,14.51-4.5,14.48,7.63,10.66,17.74"/><path class="cls-32" d="M289.4,88.73V29.65a2.84,2.84,0,0,0-2.83-2.83h-31.2a2.84,2.84,0,0,0-2.83,2.83V88.73Z"/><g class="cls-34"><path class="cls-35" d="M250.69,82.93S282,88.3,285.42,75c2.75-10.67,1.7-41.09,1.7-41.09s.66-6.48-12.06-7.05-8-4.16-8-4.16l32.7,3.49.57,35.25-.09,40-45.43-2.73L237.26,87.5Z"/></g><circle class="cls-29" cx="254.81" cy="29.21" r="1.06"/><circle class="cls-30" cx="286.83" cy="29.21" r="1.06"/><circle class="cls-30" cx="254.81" cy="86.54" r="1.06"/><circle class="cls-30" cx="286.83" cy="86.54" r="1.06"/><circle class="cls-29" cx="270.97" cy="43.98" r="9.4"/><circle class="cls-31" cx="270.97" cy="43.98" r="7.99"/><circle class="cls-32" cx="270.97" cy="43.98" r="4.17"/><circle class="cls-33" cx="269.11" cy="42.78" r="1.06"/><circle class="cls-29" cx="270.97" cy="69.43" r="9.4"/><circle class="cls-31" cx="270.97" cy="69.43" r="7.99"/><circle class="cls-32" cx="270.97" cy="69.43" r="4.17"/><circle class="cls-33" cx="269.11" cy="68.23" r="1.06"/><rect class="cls-36" x="291.94" y="138.59" width="11.07" height="6.5"/><rect class="cls-37" x="302.4" y="137.7" width="0.81" height="8.24"/><path class="cls-36" d="M327.39,133.76H319c-2.07,0-8.25,2.6-8.31,2.63l-3.28,1v8.85l3.44,1.06v0c1,.41,6.26,2.56,8.15,2.56h8.35Z"/><path class="cls-37" d="M319.78,144.45V144a6.68,6.68,0,0,1-1.26,0,1.45,1.45,0,0,1-.77-.52c-.29-.32-.62-.66-.94-1s-.32-.42-.64-.44-.4,0-.61,0h-1.82a1.18,1.18,0,0,1-.4.64,1.07,1.07,0,0,1-.8.23,1.11,1.11,0,0,1-1-1.09,1.1,1.1,0,0,1,1.79-.86,1.12,1.12,0,0,1,.39.64c.29,0,.53,0,.81,0a.68.68,0,0,0,.34-.14,3.37,3.37,0,0,0,.32-.33l.93-1a1.45,1.45,0,0,1,.78-.5,7.81,7.81,0,0,1,1.26,0,.66.66,0,1,1,0,.44c-.49,0-1.18-.11-1.49.14a2,2,0,0,0-.17.17l-1.15,1.22h6.71v-.53s.05,0,.08,0l1.24.71c-.2.14-.43.26-.66.39s-.44.27-.66.37V142c-1.68,0-3.38,0-5.07,0,0,0,0,.05.07.08l.93,1a2.66,2.66,0,0,0,.34.35,3.56,3.56,0,0,0,1.42.12v-.44h1.32v1.32Z"/><polygon class="cls-37" points="305.86 146.47 305.86 145.61 306.99 145.61 306.99 138.06 305.86 138.06 305.86 137.17 304.34 137.17 304.34 138.06 303.79 138.06 303.79 145.61 304.34 145.61 304.34 146.47 305.86 146.47"/><path class="cls-37" d="M338.19,135.92H327.94v11.84h10.26Zm-5.12,4.71v-2.51h2v2.51Zm0,5.16v-2.51h2v2.51Z"/><rect class="cls-38" x="327.93" y="135.92" width="0.75" height="11.84"/><rect class="cls-38" x="337.45" y="135.92" width="0.75" height="11.84"/><rect class="cls-38" x="332.69" y="142.27" width="0.75" height="10.25" transform="translate(480.45 -185.67) rotate(90)"/><rect class="cls-38" x="332.69" y="131.17" width="0.75" height="10.25" transform="translate(469.35 -196.77) rotate(90)"/><g class="cls-39"><path class="cls-40" d="M308.69,136.6s0,7.08,2.15,8.65a19,19,0,0,0,8.34,2.92c5,.53,6.16-1.47,8.21-2.18l1.19,4.67-3.69,1.59-15.82-3.55L307,145.61l.22-9.42Z"/></g><rect class="cls-40" x="305.08" y="137.17" width="0.78" height="9.3"/><rect class="cls-40" x="303.54" y="138.06" width="0.78" height="7.55"/><rect class="cls-1" x="0.42" width="614.16" height="175"/></svg>