<svg id="圖層_1" data-name="圖層 1" xmlns="http://www.w3.org/2000/svg" xmlns:xlink="http://www.w3.org/1999/xlink" viewBox="0 0 500 300"><defs><style>.cls-1,.cls-3,.cls-30,.cls-31{fill:none;}.cls-2{fill:#3d3e44;}.cls-11,.cls-2,.cls-3,.cls-5,.cls-6,.cls-7{fill-rule:evenodd;}.cls-4,.cls-7{fill:#27272d;}.cls-5{fill:#bc8d40;}.cls-20,.cls-6{fill:#fff;}.cls-8{fill:#5b5b62;}.cls-9{fill:#52535a;}.cls-10{fill:#3a3c40;}.cls-11{fill:#376fb5;}.cls-12{fill:#2b66af;}.cls-13{fill:#727177;}.cls-14{fill:#919191;}.cls-15{fill:#b0b0b0;}.cls-16{fill:#7c7c7c;}.cls-17{fill:#565656;}.cls-18{clip-path:url(#clip-path);}.cls-19{fill:#3f3f3f;}.cls-21{fill:#635547;}.cls-22{clip-path:url(#clip-path-2);}.cls-23{fill:#3f372f;}.cls-24{fill:#b5a49a;}.cls-25{fill:#9e9088;}.cls-26{fill:#cec1bb;}.cls-27{fill:#736759;}.cls-28{clip-path:url(#clip-path-3);}.cls-29{fill:#54493e;}.cls-30,.cls-31{stroke:#376fb5;stroke-width:2px;}.cls-30,.cls-31,.cls-32{stroke-miterlimit:10;}.cls-31{stroke-dasharray:5.93 4.94;}.cls-32{fill:#bc79bf;stroke:#fff;stroke-width:6px;}</style><clipPath id="clip-path"><path class="cls-1" d="M68.92,235.53H79.78V213.91H68.6l-.31,0-.2,0h-18a5,5,0,0,0-5,5v11.71a5,5,0,0,0,5,5h18A4.93,4.93,0,0,0,68.92,235.53Z"/></clipPath><clipPath id="clip-path-2"><path class="cls-1" d="M464.73,120V57.8a3,3,0,0,0-3-3H428.88a3,3,0,0,0-3,3V120Z"/></clipPath><clipPath id="clip-path-3"><path class="cls-1" d="M433.65,148V68.89a3.8,3.8,0,0,0-3.79-3.79H388.07a3.8,3.8,0,0,0-3.79,3.79V148Z"/></clipPath></defs><title>no device</title><path class="cls-2" d="M121.15,170.15h113a3,3,0,0,1,3,3V276.5a3,3,0,0,1-3,3h-113a3,3,0,0,1-3-3V173.19a3,3,0,0,1,3-3Z"/><polygon class="cls-3" points="153.36 170.15 233.58 170.15 233.58 274.07 153.36 274.07 153.36 170.15 153.36 170.15"/><polygon class="cls-3" points="233.58 170.15 233.58 206.61 153.36 206.61 233.58 170.15 233.58 170.15"/><path class="cls-4" d="M137,269.82H126a1.82,1.82,0,0,1-1.82-1.82V255.8A1.82,1.82,0,0,1,126,254H137a1.82,1.82,0,0,1,1.82,1.82V268a1.82,1.82,0,0,1-1.82,1.82Zm0-20.06H126a1.82,1.82,0,0,1-1.82-1.82V240a1.82,1.82,0,0,1,1.82-1.82H137a1.82,1.82,0,0,1,1.82,1.82v7.9a1.82,1.82,0,0,1-1.82,1.82Z"/><path class="cls-4" d="M137,269.82H126a1.82,1.82,0,0,1-1.82-1.82V255.8A1.82,1.82,0,0,1,126,254H137a1.82,1.82,0,0,1,1.82,1.82V268a1.82,1.82,0,0,1-1.82,1.82Z"/><path class="cls-4" d="M137,249.76H126a1.82,1.82,0,0,1-1.82-1.82V240a1.82,1.82,0,0,1,1.82-1.82H137a1.82,1.82,0,0,1,1.82,1.82v7.9a1.82,1.82,0,0,1-1.82,1.82Z"/><polygon class="cls-5" points="125.41 207.83 144.85 207.83 144.85 215.12 125.41 215.12 125.41 207.83 125.41 207.83"/><polygon class="cls-6" points="125.41 200.54 144.85 200.54 144.85 207.83 125.41 207.83 125.41 200.54 125.41 200.54"/><polygon class="cls-7" points="153.36 170.15 233.58 170.15 233.58 274.07 153.36 274.07 153.36 170.15 153.36 170.15"/><polygon class="cls-3" points="172.81 182.3 217.78 182.3 217.78 195.67 172.81 195.67 172.81 182.3 172.81 182.3"/><path class="cls-8" d="M137,269.31a1.32,1.32,0,0,0,1.32-1.32V255.8a1.32,1.32,0,0,0-1.32-1.32H126a1.32,1.32,0,0,0-1.32,1.32V268a1.32,1.32,0,0,0,1.32,1.32H137"/><path class="cls-8" d="M137,249.26a1.32,1.32,0,0,0,1.32-1.32V240a1.32,1.32,0,0,0-1.32-1.32H126A1.32,1.32,0,0,0,124.7,240v7.9a1.32,1.32,0,0,0,1.32,1.32H137"/><polygon class="cls-9" points="155.79 271.64 155.79 209.04 172.81 209.04 172.81 271.64 155.79 271.64 155.79 271.64"/><polygon class="cls-9" points="175.24 271.64 175.24 209.04 192.26 209.04 192.26 271.64 175.24 271.64 175.24 271.64"/><polygon class="cls-9" points="194.69 271.64 194.69 209.04 211.71 209.04 211.71 271.64 194.69 271.64 194.69 271.64"/><polygon class="cls-9" points="214.14 271.64 214.14 209.04 231.15 209.04 231.15 271.64 214.14 271.64 214.14 271.64"/><polygon class="cls-10" points="155.79 221.2 155.79 213.91 172.81 213.91 172.81 221.2 155.79 221.2 155.79 221.2"/><polygon class="cls-10" points="175.24 221.2 175.24 213.91 192.26 213.91 192.26 221.2 175.24 221.2 175.24 221.2"/><polygon class="cls-10" points="194.69 221.2 194.69 213.91 211.71 213.91 211.71 221.2 194.69 221.2 194.69 221.2"/><polygon class="cls-10" points="214.14 221.2 214.14 213.91 231.15 213.91 231.15 221.2 214.14 221.2 214.14 221.2"/><polygon class="cls-10" points="155.79 263.74 155.79 256.45 172.81 256.45 172.81 263.74 155.79 263.74 155.79 263.74"/><polygon class="cls-10" points="175.24 263.74 175.24 256.45 192.26 256.45 192.26 263.74 175.24 263.74 175.24 263.74"/><polygon class="cls-10" points="194.69 263.74 194.69 256.45 211.71 256.45 211.71 263.74 194.69 263.74 194.69 263.74"/><polygon class="cls-10" points="214.14 263.74 214.14 256.45 231.15 256.45 231.15 263.74 214.14 263.74 214.14 263.74"/><polygon class="cls-11" points="179.98 195.67 217.78 195.67 217.78 182.3 209.4 182.3 179.98 195.67"/><polygon class="cls-4" points="172.81 182.3 209.4 182.3 234.8 170.76 154.58 170.76 154.58 207.22 179.98 195.67 172.81 195.67 172.81 182.3"/><polygon class="cls-11" points="172.81 182.3 172.81 195.67 179.98 195.67 209.4 182.3 172.81 182.3"/><polygon class="cls-12" points="172.81 182.3 172.81 195.67 179.98 195.67 209.4 182.3 172.81 182.3"/><rect class="cls-13" x="155.79" y="213.31" width="17.02" height="0.6"/><rect class="cls-13" x="175.24" y="213.31" width="17.02" height="0.6"/><rect class="cls-13" x="194.69" y="213.31" width="17.02" height="0.6"/><rect class="cls-13" x="214.14" y="213.31" width="17.02" height="0.6"/><rect class="cls-13" x="155.79" y="263.74" width="17.02" height="1.27"/><rect class="cls-13" x="175.24" y="263.74" width="17.02" height="1.27"/><rect class="cls-13" x="194.69" y="263.74" width="17.02" height="1.27"/><rect class="cls-13" x="214.14" y="263.74" width="17.02" height="1.27"/><path class="cls-14" d="M132.21,176.82a0,0,0,0,1-.06,0l0,0c-.19-.29-.91-1.28-1.14-1.59h0a.34.34,0,0,0-.24-.08h-.89a.34.34,0,0,0-.26.1.36.36,0,0,0-.09.26h0V178h1s0-1.35,0-1.75c0,0,0-.06.1-.05a.06.06,0,0,1,0,0c.2.32,1.53,1.78,1.53,1.78h1.09v-2.9h-1.06Zm-4.89.21a3.74,3.74,0,0,1,1.17,1.05h.8A2.62,2.62,0,0,0,127.33,177Zm14.19-1.76a.88.88,0,0,0-.52-.14h-2.1a1,1,0,0,0-.61.17.56.56,0,0,0-.22.45h0V178h1.11v-.76H141q.73,0,.73-.59v-.93A.59.59,0,0,0,141.51,175.28Zm-1,1.36h-1.41v-.75h1.41Zm-3.24-1.34a1,1,0,0,0-.61-.17H134.6a1,1,0,0,0-.61.17.56.56,0,0,0-.22.46V178h1.11v-.77h1.55V178h1.11v-2.27A.56.56,0,0,0,137.32,175.3Zm-.89,1.43h-1.55v-.84h1.55Zm-8.87.6h-1.12V175.8H128v1.28a3,3,0,0,1,1,.51.88.88,0,0,0,.05-.3v-1.41q0-.73-.85-.77h-2q-1,0-1,.77v1.41q0,.77,1,.77h1.86l.25,0A3.42,3.42,0,0,0,127.56,177.33Z"/><path class="cls-15" d="M94.88,216.8H81.14v15.86H94.88ZM88,223.11v-3.37h2.73v3.37ZM88,230v-3.37h2.73V230Z"/><rect class="cls-16" x="81.13" y="216.8" width="1" height="15.86"/><rect class="cls-16" x="93.88" y="216.8" width="1" height="15.86"/><rect class="cls-16" x="87.5" y="225.3" width="1" height="13.72" transform="translate(320.17 144.16) rotate(90)"/><rect class="cls-16" x="87.5" y="210.44" width="1" height="13.72" transform="translate(305.3 129.3) rotate(90)"/><path class="cls-17" d="M68.92,235.53H79.78V213.91H68.6l-.31,0-.2,0h-18a5,5,0,0,0-5,5v11.71a5,5,0,0,0,5,5h18A4.93,4.93,0,0,0,68.92,235.53Z"/><g class="cls-18"><path class="cls-19" d="M79.78,232.49s-21.69,1.75-25.94-.5-4-8.87-3.37-11.87,3.88-7.62,3.88-7.62l-8-2.87-8.75,9.88s7.25,16.88,7.5,17.63,25.88,3,25.88,3l11.25-4Z"/></g><path class="cls-20" d="M68.41,226.21,65,223.73l3.37-2.48a.51.51,0,0,0,0-.82l-3.94-2.89a.51.51,0,0,0-.81.41v4.77l-2.08-1.53L61,222l2.33,1.71L61,225.45l.61.82,2.08-1.53v4.77a.51.51,0,0,0,.81.41L68.41,227a.51.51,0,0,0,0-.82ZM64.68,219l2.56,1.88-2.56,1.88Zm0,9.54v-3.76l2.56,1.88Z"/><path class="cls-21" d="M464.73,120V57.8a3,3,0,0,0-3-3H428.88a3,3,0,0,0-3,3V120Z"/><g class="cls-22"><path class="cls-23" d="M424,113.94s33,5.66,36.59-8.39c2.9-11.25,1.79-43.29,1.79-43.29s.7-6.82-12.71-7.43-8.44-4.38-8.44-4.38l34.46,3.67.6,37.14-.1,42.1-47.86-2.88L409.8,118.76Z"/></g><circle class="cls-24" cx="428.3" cy="57.34" r="1.12"/><circle class="cls-25" cx="462.03" cy="57.34" r="1.12"/><circle class="cls-25" cx="428.3" cy="117.74" r="1.12"/><circle class="cls-25" cx="462.03" cy="117.74" r="1.12"/><circle class="cls-24" cx="445.32" cy="72.91" r="9.9"/><circle class="cls-26" cx="445.32" cy="72.91" r="8.42"/><circle class="cls-27" cx="445.32" cy="72.91" r="4.39"/><circle class="cls-20" cx="443.35" cy="71.64" r="1.12"/><circle class="cls-24" cx="445.32" cy="99.72" r="9.9"/><circle class="cls-26" cx="445.32" cy="99.72" r="8.42"/><circle class="cls-27" cx="445.32" cy="99.72" r="4.39"/><circle class="cls-20" cx="443.35" cy="98.45" r="1.12"/><path class="cls-27" d="M433.65,148V68.89a3.8,3.8,0,0,0-3.79-3.79H388.07a3.8,3.8,0,0,0-3.79,3.79V148Z"/><g class="cls-28"><path class="cls-29" d="M381.8,140.26s41.91,7.2,46.52-10.67c3.69-14.3,2.27-55,2.27-55s.88-8.67-16.16-9.45-10.73-5.57-10.73-5.57l43.81,4.67.76,47.21-.13,53.53-60.85-3.66-23.48-14.9Z"/></g><circle class="cls-24" cx="387.33" cy="68.3" r="1.42"/><circle class="cls-25" cx="430.22" cy="68.3" r="1.42"/><circle class="cls-25" cx="387.33" cy="145.09" r="1.42"/><circle class="cls-25" cx="430.22" cy="145.09" r="1.42"/><circle class="cls-24" cx="408.96" cy="88.09" r="12.59"/><circle class="cls-26" cx="408.96" cy="88.09" r="10.7"/><circle class="cls-27" cx="408.96" cy="88.09" r="5.59"/><circle class="cls-20" cx="406.47" cy="86.48" r="1.42"/><circle class="cls-24" cx="408.96" cy="122.18" r="12.59"/><circle class="cls-26" cx="408.96" cy="122.18" r="10.7"/><circle class="cls-27" cx="408.96" cy="122.18" r="5.59"/><circle class="cls-20" cx="406.47" cy="120.57" r="1.42"/><path class="cls-30" d="M404.69,161.31a16.59,16.59,0,0,1,.06,3"/><path class="cls-31" d="M404.11,169.19c-2.29,11.23-12,33-50.76,56.12-19.58,11.65-65.69,8.68-81.53,7.25"/><path class="cls-30" d="M269.35,232.33c-1.91-.19-3-.32-3-.32"/><rect class="cls-32" x="341.99" y="198.58" width="32.83" height="43.68" rx="15" ry="15"/><path class="cls-20" d="M365.61,225.36l-6.72-4.94,6.72-4.94a1,1,0,0,0,0-1.64l-7.84-5.75a1,1,0,0,0-1.62.82v9.5l-4.15-3L350.79,217l4.65,3.42-4.65,3.42,1.21,1.64,4.15-3v9.5a1,1,0,0,0,1.62.82l7.84-5.76a1,1,0,0,0,0-1.64Zm-7.43-14.44,5.1,3.74-5.1,3.75Zm0,19v-7.49l5.1,3.75Z"/><rect class="cls-1" width="500" height="300"/></svg>