<svg xmlns="http://www.w3.org/2000/svg" xmlns:xlink="http://www.w3.org/1999/xlink" viewBox="0 0 615 175"><defs><style>.cls-1,.cls-12,.cls-30,.cls-32{fill:none;}.cls-2{isolation:isolate;}.cls-3{opacity:0.8;fill:url(#未命名漸層_52);}.cls-4{fill:#bc7483;}.cls-5{fill:#b4b3b1;}.cls-6{fill:#999;}.cls-19,.cls-6{mix-blend-mode:multiply;}.cls-7{fill:#373332;}.cls-8{fill:#4f4e4c;}.cls-9{clip-path:url(#clip-path);}.cls-10{fill:#e0d8ca;}.cls-11{fill:#494748;}.cls-12{stroke:#070908;stroke-width:0.49px;}.cls-12,.cls-30{stroke-miterlimit:10;}.cls-13{fill:#bbd047;}.cls-14{fill:#4ba32f;}.cls-15{font-size:11.92px;}.cls-15,.cls-20,.cls-22,.cls-28,.cls-35{fill:#fff;}.cls-15,.cls-20,.cls-28{font-family:Calibri-Bold, Calibri;font-weight:700;}.cls-16{fill:#bc79bf;}.cls-17,.cls-19{fill:#2c2a2d;}.cls-18{clip-path:url(#clip-path-2);}.cls-20{font-size:9.78px;}.cls-21{letter-spacing:-0.02em;}.cls-23{fill:#95dbc6;}.cls-24{fill:#b0b0b0;}.cls-25{fill:#7c7c7c;}.cls-26{fill:#565656;}.cls-27{fill:#3f3f3f;}.cls-28{font-size:8.02px;}.cls-29{letter-spacing:-0.01em;}.cls-30{stroke:#376fb5;stroke-width:2px;stroke-dasharray:6 5;}.cls-31{fill:#3d3e44;}.cls-31,.cls-32,.cls-34,.cls-35,.cls-36,.cls-40{fill-rule:evenodd;}.cls-33,.cls-36{fill:#27272d;}.cls-34{fill:#bc8d40;}.cls-37{fill:#5b5b62;}.cls-38{fill:#52535a;}.cls-39{fill:#3a3c40;}.cls-40{fill:#376fb5;}.cls-41{fill:#2b66af;}.cls-42{fill:#727177;}.cls-43{fill:#919191;}</style><radialGradient id="未命名漸層_52" cx="426.92" cy="87.5" r="87.92" gradientUnits="userSpaceOnUse"><stop offset="0" stop-color="#74ecff" stop-opacity="0.7"/><stop offset="0.19" stop-color="#76ecff" stop-opacity="0.69"/><stop offset="0.34" stop-color="#7eedff" stop-opacity="0.65"/><stop offset="0.48" stop-color="#8befff" stop-opacity="0.58"/><stop offset="0.61" stop-color="#9ef2ff" stop-opacity="0.49"/><stop offset="0.73" stop-color="#b6f5ff" stop-opacity="0.37"/><stop offset="0.86" stop-color="#d3f9ff" stop-opacity="0.22"/><stop offset="0.97" stop-color="#f6feff" stop-opacity="0.05"/><stop offset="1" stop-color="#fff" stop-opacity="0"/></radialGradient><clipPath id="clip-path"><path class="cls-1" d="M219.75,67.46c0-.34-.23-.29-.23-.29a2.94,2.94,0,0,1-1.67-.38,2.38,2.38,0,0,1-.84-1.62,38.18,38.18,0,0,1-.36-4.39v-.07l-6.75-.22h-.08l-6.51.22v.07a38.16,38.16,0,0,1-.36,4.39,2.38,2.38,0,0,1-.84,1.62,2.94,2.94,0,0,1-1.67.38s-.22,0-.23.29,0,1.1,0,1.1,3.3.29,9.65.23,9.9-.23,9.9-.23S219.76,67.8,219.75,67.46Z"/></clipPath><clipPath id="clip-path-2"><rect class="cls-1" x="97.32" y="69.73" width="42.7" height="42.7" rx="10" ry="10"/></clipPath></defs><title>no device</title><g class="cls-2"><g id="圖層_1" data-name="圖層 1"><rect class="cls-1" x="0.87" y="0.25" width="613.26" height="175"/><circle class="cls-3" cx="426.92" cy="87.5" r="87.92"/><circle class="cls-4" cx="210.8" cy="43.99" r="42.91"/><path class="cls-5" d="M219.75,67.46c0-.34-.23-.29-.23-.29a2.94,2.94,0,0,1-1.67-.38,2.38,2.38,0,0,1-.84-1.62,38.18,38.18,0,0,1-.36-4.39v-.07l-6.75-.22h-.08l-6.51.22v.07a38.16,38.16,0,0,1-.36,4.39,2.38,2.38,0,0,1-.84,1.62,2.94,2.94,0,0,1-1.67.38s-.22,0-.23.29,0,1.1,0,1.1,3.3.29,9.65.23,9.9-.23,9.9-.23S219.76,67.8,219.75,67.46Z"/><path class="cls-6" d="M239.85,20.84H183.39a1.24,1.24,0,0,0-1.23,1.23V60.92a1.24,1.24,0,0,0,1.23,1.23h56.46a1.24,1.24,0,0,0,1.23-1.23V22.07A1.24,1.24,0,0,0,239.85,20.84Z"/><path class="cls-7" d="M239.44,20.42a1.24,1.24,0,0,0-1.23-1.23H181.74a1.24,1.24,0,0,0-1.23,1.23V55.07h58.93Z"/><path class="cls-5" d="M181.74,60.67H238.2a1.24,1.24,0,0,0,1.23-1.23V55.07H180.51v4.36A1.24,1.24,0,0,0,181.74,60.67Z"/><circle class="cls-8" cx="209.97" cy="58.04" r="1.48"/><g class="cls-9"><polygon class="cls-10" points="199.78 67.71 220.02 67.71 220.02 68.26 199.62 68.26 199.78 67.71"/><polygon class="cls-8" points="199.78 67.17 220.02 67.17 220.02 67.73 199.62 67.73 199.78 67.17"/></g><rect class="cls-11" x="182.98" y="21.49" width="53.99" height="31.27"/><rect class="cls-12" x="182.98" y="21.49" width="53.99" height="31.27"/><rect class="cls-6" x="187.65" y="28.24" width="46.17" height="19.83"/><rect class="cls-13" x="186.74" y="27.26" width="46.17" height="19.83"/><path class="cls-14" d="M191.47,36.93c0-.21,0-.42.09-.62a6.21,6.21,0,0,1,.25-.86.78.78,0,0,1,.75-.49c1.14,0,2.29,0,3.43,0a1.49,1.49,0,0,1,1.14.61,1.4,1.4,0,0,0,1.52.51,1.42,1.42,0,0,0,1.09-1.15,1.48,1.48,0,0,0-2.61-1.19,1.53,1.53,0,0,1-1.25.61h-3c-.07,0-.17,0-.19-.1a.25.25,0,0,1,.05-.22,4.17,4.17,0,0,1,.43-.41A5.55,5.55,0,0,1,196,32.4a5.85,5.85,0,0,1,4.54,1.09,4.58,4.58,0,0,1,1.79,2.74c.06.28,0,.47-.22.54l-.14,0h-4.65a1.43,1.43,0,0,1-1.14-.58,1.48,1.48,0,0,0-2.61.5A1.48,1.48,0,0,0,196.15,38a1.51,1.51,0,0,1,1.22-.57h4.54c.31,0,.46.2.39.53a4.58,4.58,0,0,1-1.41,2.44,5.42,5.42,0,0,1-2.79,1.38,5.9,5.9,0,0,1-4.78-1.09,5,5,0,0,1-.53-.48.26.26,0,0,1-.07-.22.27.27,0,0,1,.21-.1c1,0,2.05,0,3.08,0a1.44,1.44,0,0,1,1.12.6,1.44,1.44,0,0,0,1.14.57,1.48,1.48,0,0,0,.32-2.93,1.41,1.41,0,0,0-1.44.51,1.62,1.62,0,0,1-1.32.63h-3.17a.86.86,0,0,1-.89-.57,3.51,3.51,0,0,1-.28-1.17,1.52,1.52,0,0,0,0-.19Z"/><text class="cls-15" transform="translate(205.46 40.08)">dlna</text><circle class="cls-16" cx="109.33" cy="91.08" r="43.49"/><rect class="cls-17" x="97.32" y="69.73" width="42.7" height="42.7" rx="10" ry="10"/><g class="cls-18"><path class="cls-19" d="M130.42,68.41a7.66,7.66,0,0,1,4.74,6.73c.33,5.15.8,10.3.74,15.45,0,2.81-.17,5.65-.16,8.46,0,2.58,0,5.78-1.81,7.81-1.2,1.35-3.26,1.41-4.94,1.45-6.34.16-12.68.36-19,.33-2.77,0-6.24.12-8.38-2-1.75-1.58-3.26-3.42-5-5.06-1.95-1.88-3.44-1.91-3.6-4.67-.44-7.5,1.1,18.31,1.1,18.31l24.6,5.85,32.77-7.94,4-24.71L145.32,70Z"/></g><text class="cls-20" transform="translate(103.25 92.15)">Airpl<tspan class="cls-21" x="19.45" y="0">a</tspan><tspan x="24.09" y="0">y</tspan></text><rect class="cls-6" x="80.08" y="85.63" width="14.55" height="26.81" rx="2.68" ry="2.68"/><rect class="cls-22" x="78.64" y="84.38" width="14.55" height="26.81" rx="2.68" ry="2.68"/><path class="cls-11" d="M81.32,84.38a2.68,2.68,0,0,0-2.68,2.68v21.44a2.68,2.68,0,0,0,2.68,2.68h9.19a2.68,2.68,0,0,0,2.68-2.68V87.06a2.68,2.68,0,0,0-2.68-2.68Zm4.62,2.3a5,5,0,1,1-5,5A5,5,0,0,1,85.94,86.68Zm0,1.15a.38.38,0,1,0,.38.38A.38.38,0,0,0,85.92,87.83Zm0,1.91A1.9,1.9,0,0,0,84,91.63a1.91,1.91,0,1,0,3.83,0A1.9,1.9,0,0,0,85.92,89.74Zm0,.74a1.14,1.14,0,0,1,1.15,1.15,1.15,1.15,0,1,1-2.3,0A1.14,1.14,0,0,1,85.92,90.48Zm-3.45.79a.38.38,0,1,0,.38.38A.38.38,0,0,0,82.47,91.27Zm6.89,0a.38.38,0,1,0,.38.38A.38.38,0,0,0,89.36,91.27Zm-3.45,3.45a.38.38,0,1,0,.38.38A.38.38,0,0,0,85.92,94.72Zm-3.06,3.45a2.68,2.68,0,1,1-2.68,2.68A2.69,2.69,0,0,1,82.85,98.17Zm6.13,0a2.67,2.67,0,1,1-2.66,2.66A2.67,2.67,0,0,1,89,98.17Zm-7,1.48a.39.39,0,0,0-.29.38v1.53a.4.4,0,0,0,.55.34l1.53-.77a.4.4,0,0,0,0-.67l-1.53-.77a.39.39,0,0,0-.26,0Zm5.84,0v.77h2.3V99.7Zm0,1.51V102h2.3v-.77Z"/><circle class="cls-23" cx="188.64" cy="141.82" r="30.42"/><path class="cls-24" d="M212.14,136.75h-8.66V147.3h8.66Z"/><rect class="cls-25" x="203.47" y="136.75" width="0.89" height="10.55"/><rect class="cls-25" x="211.25" y="136.75" width="0.89" height="10.55"/><rect class="cls-25" x="207.36" y="142.53" width="0.89" height="8.65" transform="translate(354.66 -60.96) rotate(90)"/><rect class="cls-25" x="207.36" y="132.87" width="0.89" height="8.65" transform="translate(345 -70.61) rotate(90)"/><path class="cls-26" d="M194.73,149.09h9.65V134.7H178c-2.44,0-4.44,1.5-4.44,3.33v7.79c0,1.83,2,3.33,4.44,3.33h16A5.81,5.81,0,0,0,194.73,149.09Z"/><polygon class="cls-27" points="204.36 147.3 189.14 147.3 185.76 146.71 187.88 149.15 204.38 149.15 204.36 147.3"/><circle class="cls-26" cx="177.69" cy="141.82" r="12.56"/><path class="cls-27" d="M167.28,139.74a12.5,12.5,0,0,1,2.8-7.9,12.55,12.55,0,1,0,17.36,17.87,12.54,12.54,0,0,1-20.16-10Z"/><text class="cls-28" transform="translate(173.61 143)">ch<tspan class="cls-29" x="7.66" y="0">r</tspan><tspan x="10.41" y="0">ome</tspan></text><path class="cls-26" d="M352,98.52a.84.84,0,0,1-.84-.84V85.87a.84.84,0,0,1,1.69,0V97.68A.84.84,0,0,1,352,98.52Z"/><path class="cls-26" d="M358.75,96.83H326.7a4.22,4.22,0,0,0-4.22,4.22v3.37a4.22,4.22,0,0,0,4.22,4.22h32.06a4.22,4.22,0,0,0,4.22-4.22v-3.37A4.22,4.22,0,0,0,358.75,96.83Zm-30.37,6.75a.84.84,0,1,1,.84-.84A.84.84,0,0,1,328.38,103.58Zm5.06,0a.84.84,0,1,1,.84-.84A.84.84,0,0,1,333.44,103.58Zm5.06,0a.84.84,0,1,1,.84-.84A.84.84,0,0,1,338.51,103.58Zm5.06,0a.84.84,0,1,1,.84-.84A.84.84,0,0,1,343.57,103.58Zm13.5,0h-8.44a.84.84,0,0,1,0-1.69h8.44a.84.84,0,0,1,0,1.69Z"/><path class="cls-26" d="M349.62,89.1a.85.85,0,0,1-.6-.25,4.22,4.22,0,0,1,0-6,.84.84,0,0,1,1.19,1.19,2.53,2.53,0,0,0,0,3.58.84.84,0,0,1,0,1.19A.83.83,0,0,1,349.62,89.1Z"/><path class="cls-26" d="M354.39,89.1a.84.84,0,0,1-.6-1.44,2.53,2.53,0,0,0,0-3.58A.84.84,0,0,1,355,82.88a4.22,4.22,0,0,1,0,6A.84.84,0,0,1,354.39,89.1Z"/><path class="cls-26" d="M347.23,91.48a.85.85,0,0,1-.6-.25,7.6,7.6,0,0,1,0-10.74.84.84,0,0,1,1.19,1.19,5.91,5.91,0,0,0,0,8.35.84.84,0,0,1-.6,1.44Z"/><path class="cls-26" d="M356.78,91.48a.84.84,0,0,1-.6-1.44,5.91,5.91,0,0,0,0-8.35.84.84,0,0,1,1.19-1.19,7.6,7.6,0,0,1,0,10.74A.84.84,0,0,1,356.78,91.48Z"/><path class="cls-26" d="M344.85,93.87a.85.85,0,0,1-.6-.25,11,11,0,0,1,0-15.51.84.84,0,0,1,1.19,1.19,9.29,9.29,0,0,0,0,13.12.84.84,0,0,1-.6,1.44Z"/><path class="cls-26" d="M359.16,93.87a.84.84,0,0,1-.6-1.44,9.29,9.29,0,0,0,0-13.12.84.84,0,1,1,1.19-1.19,11,11,0,0,1,0,15.51A.84.84,0,0,1,359.16,93.87Z"/><path class="cls-30" d="M260.63,52.08s45.5-8,62,32"/><line class="cls-30" x1="160.63" y1="100.58" x2="312.63" y2="100.58"/><path class="cls-30" d="M225.63,144.58s67.5,20,97.5-29.5"/><line class="cls-30" x1="368.63" y1="102.08" x2="408.63" y2="102.08"/><path class="cls-31" d="M407.69,53.35h92.88a2.5,2.5,0,0,1,2.5,2.5v84.89a2.5,2.5,0,0,1-2.5,2.5H407.69a2.5,2.5,0,0,1-2.5-2.5V55.85a2.5,2.5,0,0,1,2.5-2.5Z"/><polygon class="cls-32" points="434.15 53.35 500.07 53.35 500.07 138.74 434.15 138.74 434.15 53.35 434.15 53.35"/><polygon class="cls-32" points="500.07 53.35 500.07 83.31 434.15 83.31 500.07 53.35 500.07 53.35"/><path class="cls-33" d="M420.67,135.24h-9a1.5,1.5,0,0,1-1.5-1.5v-10a1.5,1.5,0,0,1,1.5-1.5h9a1.5,1.5,0,0,1,1.5,1.5v10a1.5,1.5,0,0,1-1.5,1.5Zm0-16.48h-9a1.5,1.5,0,0,1-1.5-1.5v-6.49a1.5,1.5,0,0,1,1.5-1.5h9a1.5,1.5,0,0,1,1.5,1.5v6.49a1.5,1.5,0,0,1-1.5,1.5Z"/><path class="cls-33" d="M420.67,135.24h-9a1.5,1.5,0,0,1-1.5-1.5v-10a1.5,1.5,0,0,1,1.5-1.5h9a1.5,1.5,0,0,1,1.5,1.5v10a1.5,1.5,0,0,1-1.5,1.5Z"/><path class="cls-33" d="M420.67,118.77h-9a1.5,1.5,0,0,1-1.5-1.5v-6.49a1.5,1.5,0,0,1,1.5-1.5h9a1.5,1.5,0,0,1,1.5,1.5v6.49a1.5,1.5,0,0,1-1.5,1.5Z"/><polygon class="cls-34" points="411.18 84.31 427.16 84.31 427.16 90.3 411.18 90.3 411.18 84.31 411.18 84.31"/><polygon class="cls-35" points="411.18 78.32 427.16 78.32 427.16 84.31 411.18 84.31 411.18 78.32 411.18 78.32"/><polygon class="cls-36" points="434.15 53.35 500.07 53.35 500.07 138.74 434.15 138.74 434.15 53.35 434.15 53.35"/><polygon class="cls-32" points="450.13 63.34 487.08 63.34 487.08 74.32 450.13 74.32 450.13 63.34 450.13 63.34"/><path class="cls-37" d="M420.67,134.83a1.08,1.08,0,0,0,1.08-1.08v-10a1.08,1.08,0,0,0-1.08-1.08h-9a1.08,1.08,0,0,0-1.08,1.08v10a1.08,1.08,0,0,0,1.08,1.08h9"/><path class="cls-37" d="M420.67,118.35a1.08,1.08,0,0,0,1.08-1.08v-6.49a1.08,1.08,0,0,0-1.08-1.08h-9a1.08,1.08,0,0,0-1.08,1.08v6.49a1.08,1.08,0,0,0,1.08,1.08h9"/><polygon class="cls-38" points="436.15 136.74 436.15 85.31 450.13 85.31 450.13 136.74 436.15 136.74 436.15 136.74"/><polygon class="cls-38" points="452.13 136.74 452.13 85.31 466.11 85.31 466.11 136.74 452.13 136.74 452.13 136.74"/><polygon class="cls-38" points="468.11 136.74 468.11 85.31 482.09 85.31 482.09 136.74 468.11 136.74 468.11 136.74"/><polygon class="cls-38" points="484.09 136.74 484.09 85.31 498.07 85.31 498.07 136.74 484.09 136.74 484.09 136.74"/><polygon class="cls-39" points="436.15 95.3 436.15 89.3 450.13 89.3 450.13 95.3 436.15 95.3 436.15 95.3"/><polygon class="cls-39" points="452.13 95.3 452.13 89.3 466.11 89.3 466.11 95.3 452.13 95.3 452.13 95.3"/><polygon class="cls-39" points="468.11 95.3 468.11 89.3 482.09 89.3 482.09 95.3 468.11 95.3 468.11 95.3"/><polygon class="cls-39" points="484.09 95.3 484.09 89.3 498.07 89.3 498.07 95.3 484.09 95.3 484.09 95.3"/><polygon class="cls-39" points="436.15 130.25 436.15 124.26 450.13 124.26 450.13 130.25 436.15 130.25 436.15 130.25"/><polygon class="cls-39" points="452.13 130.25 452.13 124.26 466.11 124.26 466.11 130.25 452.13 130.25 452.13 130.25"/><polygon class="cls-39" points="468.11 130.25 468.11 124.26 482.09 124.26 482.09 130.25 468.11 130.25 468.11 130.25"/><polygon class="cls-39" points="484.09 130.25 484.09 124.26 498.07 124.26 498.07 130.25 484.09 130.25 484.09 130.25"/><polygon class="cls-40" points="456.02 74.32 487.08 74.32 487.08 63.34 480.19 63.34 456.02 74.32"/><polygon class="cls-33" points="450.13 63.34 480.19 63.34 501.07 53.85 435.15 53.85 435.15 83.81 456.02 74.32 450.13 74.32 450.13 63.34"/><polygon class="cls-40" points="450.13 63.34 450.13 74.32 456.02 74.32 480.19 63.34 450.13 63.34"/><polygon class="cls-41" points="450.13 63.34 450.13 74.32 456.02 74.32 480.19 63.34 450.13 63.34"/><rect class="cls-42" x="436.15" y="88.81" width="13.98" height="0.49"/><rect class="cls-42" x="452.13" y="88.81" width="13.98" height="0.49"/><rect class="cls-42" x="468.11" y="88.81" width="13.98" height="0.49"/><rect class="cls-42" x="484.09" y="88.81" width="13.98" height="0.49"/><rect class="cls-42" x="436.15" y="130.25" width="13.98" height="1.05"/><rect class="cls-42" x="452.13" y="130.25" width="13.98" height="1.05"/><rect class="cls-42" x="468.11" y="130.25" width="13.98" height="1.05"/><rect class="cls-42" x="484.09" y="130.25" width="13.98" height="1.05"/><path class="cls-43" d="M416.78,58.83a0,0,0,0,1,0,0l0,0c-.15-.24-.75-1.05-.94-1.31h0a.28.28,0,0,0-.2-.06h-.74a.28.28,0,0,0-.21.08.3.3,0,0,0-.08.21h0v2.1h.86s0-1.11,0-1.43c0,0,0-.05.09,0a.05.05,0,0,1,0,0c.17.27,1.25,1.46,1.25,1.46h.89V57.45h-.87Zm-4,.18a3.07,3.07,0,0,1,1,.86h.65A2.15,2.15,0,0,0,412.76,59Zm11.66-1.44a.72.72,0,0,0-.42-.12h-1.73a.81.81,0,0,0-.5.14.46.46,0,0,0-.18.37h0v1.87h.91v-.62H424q.6,0,.6-.48V58A.48.48,0,0,0,424.42,57.56Zm-.78,1.12h-1.16v-.62h1.16ZM421,57.58a.8.8,0,0,0-.5-.14h-1.73a.8.8,0,0,0-.5.14.46.46,0,0,0-.18.38v1.87H419v-.64h1.28v.64h.91V58A.46.46,0,0,0,421,57.58Zm-.73,1.17H419v-.69h1.28Zm-7.29.49H412V58h1.27V59a2.47,2.47,0,0,1,.83.42.72.72,0,0,0,0-.25V58q0-.6-.7-.63h-1.61q-.78,0-.78.63v1.16q0,.63.78.63h1.74A2.81,2.81,0,0,0,413,59.25Z"/></g></g></svg>