<svg id="圖層_1" data-name="圖層 1" xmlns="http://www.w3.org/2000/svg" xmlns:xlink="http://www.w3.org/1999/xlink" viewBox="0 0 500 300"><defs><style>.cls-1,.cls-25,.cls-3{fill:none;}.cls-2{fill:#3d3e44;}.cls-11,.cls-2,.cls-3,.cls-5,.cls-6,.cls-7{fill-rule:evenodd;}.cls-4,.cls-7{fill:#27272d;}.cls-5{fill:#bc8d40;}.cls-33,.cls-6{fill:#fff;}.cls-8{fill:#5b5b62;}.cls-9{fill:#52535a;}.cls-10{fill:#3a3c40;}.cls-11{fill:#376fb5;}.cls-12{fill:#2b66af;}.cls-13{fill:#727177;}.cls-14{fill:#919191;}.cls-15{fill:#bc7483;}.cls-16{fill:#bc79bf;}.cls-17{fill:#fefef6;}.cls-18{fill:#f9f5ec;}.cls-19{fill:#645e60;}.cls-20{clip-path:url(#clip-path);}.cls-21{fill:#d8d2c5;}.cls-22{clip-path:url(#clip-path-2);}.cls-23{clip-path:url(#clip-path-3);}.cls-24{fill:#484244;}.cls-25{stroke:#7a7a7a;stroke-miterlimit:10;stroke-width:4px;}.cls-26{fill:#635547;}.cls-27{clip-path:url(#clip-path-4);}.cls-28{fill:#3f372f;}.cls-29{fill:#b5a49a;}.cls-30{fill:#9e9088;}.cls-31{fill:#cec1bb;}.cls-32{fill:#736759;}.cls-34{clip-path:url(#clip-path-5);}.cls-35{fill:#54493e;}.cls-36{fill:#efefef;}.cls-37{fill:#b0b0b0;}.cls-38{fill:#7c7c7c;}.cls-39{clip-path:url(#clip-path-6);}.cls-40{fill:#dbdbdb;}</style><clipPath id="clip-path"><path class="cls-1" d="M59.81,184.57a5.3,5.3,0,0,0-4.57,5.26v1.83a2.17,2.17,0,0,0-2.17,2.17v7A2.17,2.17,0,0,0,55.24,203v1a5.16,5.16,0,0,0,4.23,5.14l6.85,1.49a5,5,0,0,0,3.43-.46l-2.28-26.62h-.8l-6.05.91Z"/></clipPath><clipPath id="clip-path-2"><path class="cls-1" d="M155,184.69a5.3,5.3,0,0,1,4.57,5.26v1.83a2.17,2.17,0,0,1,2.17,2.17v7a2.17,2.17,0,0,1-2.17,2.17v1a5.16,5.16,0,0,1-4.23,5.14l-6.85,1.49a5,5,0,0,1-3.43-.46l2.28-26.62h.8l6.05.91Z"/></clipPath><clipPath id="clip-path-3"><path class="cls-1" d="M139.32,139.91a7.66,7.66,0,0,0-6.05-7.2,151.83,151.83,0,0,0-49.81,0,7.71,7.71,0,0,0-5.86,5.74c0,.26-.08.51-.12.75a6.2,6.2,0,0,0-.07.71v.57l-.09.05c-.4,4.48.89,6.55,1.37,7.15a5.06,5.06,0,0,0,4.78,1.6,151.83,151.83,0,0,1,49.81,0,5,5,0,0,0,5.2-2.1,41.12,41.12,0,0,0,.85-6.7Z"/></clipPath><clipPath id="clip-path-4"><path class="cls-1" d="M306,115.87V53.62a3,3,0,0,0-3-3H270.16a3,3,0,0,0-3,3v62.24Z"/></clipPath><clipPath id="clip-path-5"><path class="cls-1" d="M274.92,143.84V64.71a3.8,3.8,0,0,0-3.79-3.79H229.34a3.8,3.8,0,0,0-3.79,3.79v79.13Z"/></clipPath><clipPath id="clip-path-6"><path class="cls-1" d="M325.81,204.16H314.63c-2.78,0-11,3.48-11.13,3.52L299.1,209v11.85l4.61,1.42v.06c1.33.55,8.39,3.43,10.91,3.43h11.18Z"/></clipPath></defs><title>no device</title><path class="cls-2" d="M353.49,165.53h113a3,3,0,0,1,3,3V271.88a3,3,0,0,1-3,3h-113a3,3,0,0,1-3-3V168.57a3,3,0,0,1,3-3Z"/><polygon class="cls-3" points="385.69 165.53 465.92 165.53 465.92 269.45 385.69 269.45 385.69 165.53 385.69 165.53"/><polygon class="cls-3" points="465.92 165.53 465.92 201.99 385.69 201.99 465.92 165.53 465.92 165.53"/><path class="cls-4" d="M369.29,265.2H358.35a1.82,1.82,0,0,1-1.82-1.82V251.18a1.82,1.82,0,0,1,1.82-1.82h10.94a1.82,1.82,0,0,1,1.82,1.82v12.19a1.82,1.82,0,0,1-1.82,1.82Zm0-20.06H358.35a1.82,1.82,0,0,1-1.82-1.82v-7.9a1.82,1.82,0,0,1,1.82-1.82h10.94a1.82,1.82,0,0,1,1.82,1.82v7.9a1.82,1.82,0,0,1-1.82,1.82Z"/><path class="cls-4" d="M369.29,265.2H358.35a1.82,1.82,0,0,1-1.82-1.82V251.18a1.82,1.82,0,0,1,1.82-1.82h10.94a1.82,1.82,0,0,1,1.82,1.82v12.19a1.82,1.82,0,0,1-1.82,1.82Z"/><path class="cls-4" d="M369.29,245.14H358.35a1.82,1.82,0,0,1-1.82-1.82v-7.9a1.82,1.82,0,0,1,1.82-1.82h10.94a1.82,1.82,0,0,1,1.82,1.82v7.9a1.82,1.82,0,0,1-1.82,1.82Z"/><polygon class="cls-5" points="357.74 203.21 377.19 203.21 377.19 210.5 357.74 210.5 357.74 203.21 357.74 203.21"/><polygon class="cls-6" points="357.74 195.91 377.19 195.91 377.19 203.21 357.74 203.21 357.74 195.91 357.74 195.91"/><polygon class="cls-7" points="385.69 165.53 465.92 165.53 465.92 269.45 385.69 269.45 385.69 165.53 385.69 165.53"/><polygon class="cls-3" points="405.14 177.68 450.12 177.68 450.12 191.05 405.14 191.05 405.14 177.68 405.14 177.68"/><path class="cls-8" d="M369.29,264.69a1.32,1.32,0,0,0,1.32-1.32V251.18a1.32,1.32,0,0,0-1.32-1.32H358.35a1.32,1.32,0,0,0-1.32,1.32v12.19a1.32,1.32,0,0,0,1.32,1.32h10.94"/><path class="cls-8" d="M369.29,244.64a1.32,1.32,0,0,0,1.32-1.32v-7.9a1.32,1.32,0,0,0-1.32-1.32H358.35a1.32,1.32,0,0,0-1.32,1.32v7.9a1.32,1.32,0,0,0,1.32,1.32h10.94"/><polygon class="cls-9" points="388.13 267.02 388.13 204.42 405.14 204.42 405.14 267.02 388.13 267.02 388.13 267.02"/><polygon class="cls-9" points="407.57 267.02 407.57 204.42 424.59 204.42 424.59 267.02 407.57 267.02 407.57 267.02"/><polygon class="cls-9" points="427.02 267.02 427.02 204.42 444.04 204.42 444.04 267.02 427.02 267.02 427.02 267.02"/><polygon class="cls-9" points="446.47 267.02 446.47 204.42 463.49 204.42 463.49 267.02 446.47 267.02 446.47 267.02"/><polygon class="cls-10" points="388.13 216.58 388.13 209.28 405.14 209.28 405.14 216.58 388.13 216.58 388.13 216.58"/><polygon class="cls-10" points="407.57 216.58 407.57 209.28 424.59 209.28 424.59 216.58 407.57 216.58 407.57 216.58"/><polygon class="cls-10" points="427.02 216.58 427.02 209.28 444.04 209.28 444.04 216.58 427.02 216.58 427.02 216.58"/><polygon class="cls-10" points="446.47 216.58 446.47 209.28 463.49 209.28 463.49 216.58 446.47 216.58 446.47 216.58"/><polygon class="cls-10" points="388.13 259.12 388.13 251.83 405.14 251.83 405.14 259.12 388.13 259.12 388.13 259.12"/><polygon class="cls-10" points="407.57 259.12 407.57 251.83 424.59 251.83 424.59 259.12 407.57 259.12 407.57 259.12"/><polygon class="cls-10" points="427.02 259.12 427.02 251.83 444.04 251.83 444.04 259.12 427.02 259.12 427.02 259.12"/><polygon class="cls-10" points="446.47 259.12 446.47 251.83 463.49 251.83 463.49 259.12 446.47 259.12 446.47 259.12"/><polygon class="cls-11" points="412.31 191.05 450.12 191.05 450.12 177.68 441.73 177.68 412.31 191.05"/><polygon class="cls-4" points="405.14 177.68 441.73 177.68 467.13 166.14 386.91 166.14 386.91 202.6 412.31 191.05 405.14 191.05 405.14 177.68"/><polygon class="cls-11" points="405.14 177.68 405.14 191.05 412.31 191.05 441.73 177.68 405.14 177.68"/><polygon class="cls-12" points="405.14 177.68 405.14 191.05 412.31 191.05 441.73 177.68 405.14 177.68"/><rect class="cls-13" x="388.13" y="208.69" width="17.02" height="0.6"/><rect class="cls-13" x="407.57" y="208.69" width="17.02" height="0.6"/><rect class="cls-13" x="427.02" y="208.69" width="17.02" height="0.6"/><rect class="cls-13" x="446.47" y="208.69" width="17.02" height="0.6"/><rect class="cls-13" x="388.13" y="259.12" width="17.02" height="1.27"/><rect class="cls-13" x="407.57" y="259.12" width="17.02" height="1.27"/><rect class="cls-13" x="427.02" y="259.12" width="17.02" height="1.27"/><rect class="cls-13" x="446.47" y="259.12" width="17.02" height="1.27"/><path class="cls-14" d="M364.54,172.2a0,0,0,0,1-.06,0l0,0c-.19-.29-.91-1.28-1.14-1.59h0a.34.34,0,0,0-.24-.08h-.89a.34.34,0,0,0-.26.1.36.36,0,0,0-.09.26h0v2.55h1s0-1.35,0-1.75c0,0,0-.06.1-.05a.06.06,0,0,1,0,0c.2.32,1.53,1.78,1.53,1.78h1.09v-2.9h-1.06Zm-4.89.21a3.74,3.74,0,0,1,1.17,1.05h.8A2.62,2.62,0,0,0,359.66,172.42Zm14.19-1.76a.88.88,0,0,0-.52-.14h-2.1a1,1,0,0,0-.61.17.56.56,0,0,0-.22.45h0v2.27h1.11v-.76h1.79q.73,0,.73-.59v-.93A.59.59,0,0,0,373.85,170.66Zm-1,1.36h-1.41v-.75h1.41Zm-3.24-1.34a1,1,0,0,0-.61-.17h-2.11a1,1,0,0,0-.61.17.56.56,0,0,0-.22.46v2.27h1.11v-.77h1.55v.77h1.11v-2.27A.56.56,0,0,0,369.66,170.68Zm-.89,1.43h-1.55v-.84h1.55Zm-8.87.6h-1.12v-1.53h1.54v1.28a3,3,0,0,1,1,.51.88.88,0,0,0,.05-.3v-1.41q0-.73-.85-.77h-2q-1,0-1,.77v1.41q0,.77,1,.77h1.86l.25,0A3.42,3.42,0,0,0,359.9,172.71Z"/><circle class="cls-15" cx="267.23" cy="100.45" r="69.67"/><circle class="cls-16" cx="107.39" cy="178.45" r="69.67"/><path class="cls-17" d="M133.15,216.45a7.38,7.38,0,0,0,6.74-.23,5.58,5.58,0,0,0,2.86-4.11l3-28.67a5.54,5.54,0,0,0-1.49-4.23,7.24,7.24,0,0,0-5.6-2.17c-3.08.23-5.6,2.28-5.94,4.91l-3,28.67a5.55,5.55,0,0,0,3.43,5.83l-.34.57h0Z"/><path class="cls-17" d="M72.26,212.11A5.79,5.79,0,0,0,76.83,217a7.37,7.37,0,0,0,6.51-1.49A5.28,5.28,0,0,0,85.29,211l-2.51-28.79a5,5,0,0,0-2.28-3.77,7.19,7.19,0,0,0-5.94-1c-3.08.8-5.14,3.31-4.91,5.94Z"/><path class="cls-18" d="M59.81,184.57a5.3,5.3,0,0,0-4.57,5.26v1.83a2.17,2.17,0,0,0-2.17,2.17v7A2.17,2.17,0,0,0,55.24,203v1a5.16,5.16,0,0,0,4.23,5.14l6.85,1.49a5,5,0,0,0,3.43-.46l-2.28-26.62h-.8l-6.05.91Z"/><path class="cls-18" d="M159.43,191.66v-1.83a5.3,5.3,0,0,0-3.76-5.07l-6.44-1h0l-1.11-.15-2.74,26.73a5.64,5.64,0,0,0,3.08.34l6.85-1.49a5.36,5.36,0,0,0,4.23-5.14v-1a2.17,2.17,0,0,0,2.17-2.17v-7A2.36,2.36,0,0,0,159.43,191.66Z"/><path class="cls-19" d="M139.32,139.91a7.66,7.66,0,0,0-6.05-7.2,151.83,151.83,0,0,0-49.81,0,7.71,7.71,0,0,0-5.86,5.74c0,.26-.08.51-.12.75a6.2,6.2,0,0,0-.07.71v.57l-.09.05c-.4,4.48.89,6.55,1.37,7.15a5.06,5.06,0,0,0,4.78,1.6,151.83,151.83,0,0,1,49.81,0,5,5,0,0,0,5.2-2.1,41.12,41.12,0,0,0,.85-6.7Z"/><path class="cls-18" d="M149.23,183.81l6.44,1a5.14,5.14,0,0,0-.81-.18c.1-2.91.18-5.74.17-8.49,0-12.34-1.55-22.88-8.74-30.35-.28-.3-.59-.57-.88-.85a30.93,30.93,0,0,0-6.09-4.41,41.12,41.12,0,0,1-.85,6.7,4.93,4.93,0,0,0,.51-1,19.37,19.37,0,0,1,3.64,3.07l0,0c5.3,5.54,6.93,13.56,7.26,23.1.12,3.63.07,7.48-.06,11.51Z"/><path class="cls-18" d="M77.31,140.53a31.46,31.46,0,0,0-4.28,2.7A29.44,29.44,0,0,0,69.86,146c-6.49,6.65-8.61,15.68-9.15,26.17-.2,3.92-.19,8-.1,12.33l6.05-.91-.91.11c-.05-3.4-.05-6.68.07-9.81.38-9.58,2-17.72,7-23.52.27-.32.55-.63.84-.93a22.74,22.74,0,0,1,4.11-3.31,4.84,4.84,0,0,0,.72,1.31C77.91,146.53,77,144.45,77.31,140.53Z"/><path class="cls-18" d="M78.47,147.38c.08.12.15.22.21.3C78.6,147.59,78.54,147.48,78.47,147.38Z"/><path d="M77.59,138.45a6.53,6.53,0,0,0-.12.75C77.51,139,77.55,138.71,77.59,138.45Z"/><g class="cls-20"><path class="cls-21" d="M65.32,182.73s1.62,27.66-5,26.59l-.24,2.16,9.42.48,1.24-4.47-2.28-26.13Z"/></g><g class="cls-22"><path class="cls-21" d="M149.46,182.85s-1.62,27.66,5,26.59l.24,2.16-9.42.48L144,207.6l2.28-26.13Z"/></g><g class="cls-23"><path class="cls-24" d="M79,134.28s-2,10,3.14,11.23,8.38-3,26-1.71,19.52,2,22.28,1.9,8-.62,6.77-10.78,8.08,4.21,8.08,4.21l-5.43,14.76-36.37-.1-27-2-7.24-10.95Z"/></g><path class="cls-25" d="M281.44,215c-11.5-.59-32.28-3.64-43.8-2-8.47,1.24-16.82,4.88-22.69,11.24-6.24,6.76-10.88,14.37-18.41,19.89-7.18,5.27-15.58,9.16-24.51,10-13.19,1.31-27.17-4.92-33.52-16.86-3.31-6.22-3.32-13.42-2.22-20.22"/><path class="cls-26" d="M306,115.87V53.62a3,3,0,0,0-3-3H270.16a3,3,0,0,0-3,3v62.24Z"/><g class="cls-27"><path class="cls-28" d="M265.23,109.76s33,5.66,36.59-8.39c2.9-11.25,1.79-43.29,1.79-43.29s.7-6.82-12.71-7.43-8.44-4.38-8.44-4.38l34.46,3.67.6,37.14-.1,42.1-47.86-2.88-18.47-11.72Z"/></g><circle class="cls-29" cx="269.57" cy="53.16" r="1.12"/><circle class="cls-30" cx="303.31" cy="53.16" r="1.12"/><circle class="cls-30" cx="269.57" cy="113.56" r="1.12"/><circle class="cls-30" cx="303.31" cy="113.56" r="1.12"/><circle class="cls-29" cx="286.59" cy="68.72" r="9.9"/><circle class="cls-31" cx="286.59" cy="68.72" r="8.42"/><circle class="cls-32" cx="286.59" cy="68.72" r="4.39"/><circle class="cls-33" cx="284.63" cy="67.46" r="1.12"/><circle class="cls-29" cx="286.59" cy="95.53" r="9.9"/><circle class="cls-31" cx="286.59" cy="95.53" r="8.42"/><circle class="cls-32" cx="286.59" cy="95.53" r="4.39"/><circle class="cls-33" cx="284.63" cy="94.27" r="1.12"/><path class="cls-25" d="M240.19,134c-15.77,6.81-34,33.26-19.5,52.3a21.89,21.89,0,0,0,18.89,8.42c5.14-.43,9.92-2.67,14.85-4.2,19.43-6,19.4,10.23,14.28,23.77"/><path class="cls-32" d="M274.92,143.84V64.71a3.8,3.8,0,0,0-3.79-3.79H229.34a3.8,3.8,0,0,0-3.79,3.79v79.13Z"/><g class="cls-34"><path class="cls-35" d="M223.08,136.08s41.91,7.2,46.52-10.67c3.69-14.3,2.27-55,2.27-55s.88-8.67-16.16-9.45S245,55.35,245,55.35L288.79,60l.76,47.21-.13,53.53-60.85-3.66-23.48-14.9Z"/></g><circle class="cls-29" cx="228.6" cy="64.12" r="1.42"/><circle class="cls-30" cx="271.49" cy="64.12" r="1.42"/><circle class="cls-30" cx="228.6" cy="140.91" r="1.42"/><circle class="cls-30" cx="271.49" cy="140.91" r="1.42"/><circle class="cls-29" cx="250.24" cy="83.91" r="12.59"/><circle class="cls-31" cx="250.24" cy="83.91" r="10.7"/><circle class="cls-32" cx="250.24" cy="83.91" r="5.59"/><circle class="cls-33" cx="247.75" cy="82.3" r="1.42"/><circle class="cls-29" cx="250.24" cy="118" r="12.59"/><circle class="cls-31" cx="250.24" cy="118" r="10.7"/><circle class="cls-32" cx="250.24" cy="118" r="5.59"/><circle class="cls-33" cx="247.75" cy="116.39" r="1.42"/><rect class="cls-36" x="278.33" y="210.62" width="14.83" height="8.7"/><rect class="cls-37" x="292.35" y="209.43" width="1.09" height="11.04"/><path class="cls-36" d="M325.81,204.16H314.63c-2.78,0-11,3.48-11.13,3.52L299.1,209v11.85l4.61,1.42v.06c1.33.55,8.39,3.43,10.91,3.43h11.18Z"/><path class="cls-37" d="M315.62,218.48v-.58a9,9,0,0,1-1.68,0,1.94,1.94,0,0,1-1-.69c-.39-.43-.84-.89-1.26-1.32-.24-.25-.42-.56-.86-.59-.26,0-.54,0-.82,0h-2.43a1.58,1.58,0,0,1-.54.86,1.44,1.44,0,0,1-1.07.31,1.48,1.48,0,0,1-1.32-1.46,1.48,1.48,0,0,1,2.39-1.15,1.5,1.5,0,0,1,.53.86c.39,0,.71,0,1.08,0a.91.91,0,0,0,.45-.18,4.51,4.51,0,0,0,.43-.44l1.25-1.33a2,2,0,0,1,1-.67,10.46,10.46,0,0,1,1.69,0,.89.89,0,1,1,0,.58c-.65,0-1.58-.15-2,.18a2.73,2.73,0,0,0-.23.23c-.51.54-1,1.1-1.54,1.64h9V214s.07,0,.1,0l1.66.95c-.27.19-.58.35-.88.52s-.59.36-.88.5v-.71c-2.24,0-4.53,0-6.78,0,0,0,.06.07.09.11.4.44.82.88,1.25,1.32a3.56,3.56,0,0,0,.46.47,4.76,4.76,0,0,0,1.9.16v-.59h1.76v1.76Z"/><polygon class="cls-37" points="296.98 221.18 296.98 220.03 298.48 220.03 298.48 209.91 296.98 209.91 296.98 208.72 294.94 208.72 294.94 209.91 294.21 209.91 294.21 220.03 294.94 220.03 294.94 221.18 296.98 221.18"/><path class="cls-37" d="M340.28,207.05H326.55v15.86h13.74Zm-6.86,6.31V210h2.73v3.37Zm0,6.91V216.9h2.73v3.37Z"/><rect class="cls-38" x="326.53" y="207.05" width="1" height="15.86"/><rect class="cls-38" x="339.28" y="207.05" width="1" height="15.86"/><rect class="cls-38" x="332.91" y="215.55" width="1" height="13.72" transform="translate(555.82 -110.99) rotate(90)"/><rect class="cls-38" x="332.91" y="200.69" width="1" height="13.72" transform="translate(540.96 -125.86) rotate(90)"/><g class="cls-39"><path class="cls-40" d="M300.77,208s0,9.48,2.88,11.58a25.41,25.41,0,0,0,11.17,3.92c6.71.71,8.26-2,11-2.92l1.59,6.25-4.94,2.13-21.19-4.75L298.48,220l.29-12.62Z"/></g><rect class="cls-40" x="295.93" y="208.72" width="1.05" height="12.45"/><rect class="cls-40" x="293.87" y="209.91" width="1.05" height="10.12"/><rect class="cls-1" width="500" height="300"/></svg>