<?xml version="1.0" encoding="UTF-8"?>
<svg width="35px" height="35px" viewBox="0 0 35 35" version="1.1" xmlns="http://www.w3.org/2000/svg" xmlns:xlink="http://www.w3.org/1999/xlink">
    <!-- Generator: Sketch 45.2 (43514) - http://www.bohemiancoding.com/sketch -->
    <title>bt_play_2</title>
    <desc>Created with Sketch.</desc>
    <defs>
        <path d="M35,17.5 C35,27.166087 27.1645652,35 17.5,35 C7.83391304,35 0,27.166087 0,17.5 C0,7.83391304 7.83391304,0 17.5,0 C27.1645652,0 35,7.83391304 35,17.5 L35,17.5 Z" id="path-1"></path>
    </defs>
    <g id="slice" stroke="none" stroke-width="1" fill="none" fill-rule="evenodd" opacity="0.5">
        <g id="bt_play_2">
            <g id="play">
                <g id="Stroke-5577">
                    <use fill-opacity="0" fill="#FFFFFF" fill-rule="evenodd" xlink:href="#path-1"></use>
                    <path stroke="#FFFFFF" stroke-width="1.5" d="M34.25,17.5 C34.25,8.24866225 26.7508873,0.75 17.5,0.75 C8.24812661,0.75 0.75,8.24812661 0.75,17.5 C0.75,26.7518734 8.24812661,34.25 17.5,34.25 C26.7508873,34.25 34.25,26.7513378 34.25,17.5 Z"></path>
                </g>
                <path d="M15.2558065,12.3158871 L22.7788543,16.7043316 L22.7788543,16.7043316 C23.4944321,17.1217521 23.7361365,18.0402287 23.3187161,18.7558065 C23.1883379,18.979312 23.0023597,19.1652902 22.7788543,19.2956684 L15.2558065,23.6841129 L15.2558065,23.6841129 C14.5402287,24.1015333 13.6217521,23.8598289 13.2043316,23.144251 C13.0705126,22.914847 13,22.6540265 13,22.3884445 L13,13.6115555 L13,13.6115555 C13,12.7831284 13.6715729,12.1115555 14.5,12.1115555 C14.765582,12.1115555 15.0264024,12.1820681 15.2558065,12.3158871 Z" id="Stroke-5578" fill="#FFFFFF"></path>
            </g>
        </g>
    </g>
</svg>