<?xml version="1.0" encoding="UTF-8"?>
<svg width="35px" height="35px" viewBox="0 0 35 35" version="1.1" xmlns="http://www.w3.org/2000/svg" xmlns:xlink="http://www.w3.org/1999/xlink">
    <!-- Generator: Sketch 45.2 (43514) - http://www.bohemiancoding.com/sketch -->
    <title>bt_pause_1</title>
    <desc>Created with Sketch.</desc>
    <defs>
        <path d="M35,17.5 C35,27.166087 27.1645652,35 17.5,35 C7.83391304,35 0,27.166087 0,17.5 C0,7.83391304 7.83391304,0 17.5,0 C27.1645652,0 35,7.83391304 35,17.5 L35,17.5 Z" id="path-1"></path>
        <path d="M13.5195,24.75 L13.5195,24.75 L13.5195,24.75 C12.2768593,24.75 11.2695,23.7426407 11.2695,22.5 L11.2695,13.5 L11.2695,13.5 C11.2695,12.2573593 12.2768593,11.25 13.5195,11.25 L13.5195,11.25 L13.5195,11.25 C14.7621407,11.25 15.7695,12.2573593 15.7695,13.5 L15.7695,22.5 L15.7695,22.5 C15.7695,23.7426407 14.7621407,24.75 13.5195,24.75 Z" id="path-2"></path>
        <path d="M22.5195,24.75 L22.5195,24.75 L22.5195,24.75 C23.7621407,24.75 24.7695,23.7426407 24.7695,22.5 L24.7695,13.5 L24.7695,13.5 C24.7695,12.2573593 23.7621407,11.25 22.5195,11.25 L22.5195,11.25 L22.5195,11.25 C21.2768593,11.25 20.2695,12.2573593 20.2695,13.5 L20.2695,22.5 L20.2695,22.5 C20.2695,23.7426407 21.2768593,24.75 22.5195,24.75 Z" id="path-3"></path>
    </defs>
    <g id="slice" stroke="none" stroke-width="1" fill="none" fill-rule="evenodd">
        <g id="bt_pause_1">
            <g id="pause">
                <g id="Stroke-5577">
                    <use fill-opacity="0" fill="#FFFFFF" fill-rule="evenodd" xlink:href="#path-1"></use>
                    <path stroke="#FFFFFF" stroke-width="1.5" d="M34.25,17.5 C34.25,8.24866225 26.7508873,0.75 17.5,0.75 C8.24812661,0.75 0.75,8.24812661 0.75,17.5 C0.75,26.7518734 8.24812661,34.25 17.5,34.25 C26.7508873,34.25 34.25,26.7513378 34.25,17.5 Z"></path>
                </g>
                <g id="Stroke-5582">
                    <use fill="#FFFFFF" fill-rule="evenodd" xlink:href="#path-2"></use>
                    <path stroke="#FFFFFF" stroke-width="1.5" d="M13.5195,24 C14.3479271,24 15.0195,23.3284271 15.0195,22.5 L15.0195,13.5 C15.0195,12.6715729 14.3479271,12 13.5195,12 C12.6910729,12 12.0195,12.6715729 12.0195,13.5 L12.0195,22.5 C12.0195,23.3284271 12.6910729,24 13.5195,24 Z"></path>
                </g>
                <g id="Stroke-5583">
                    <use fill="#FFFFFF" fill-rule="evenodd" xlink:href="#path-3"></use>
                    <path stroke="#FFFFFF" stroke-width="1.5" d="M22.5195,24 C23.3479271,24 24.0195,23.3284271 24.0195,22.5 L24.0195,13.5 C24.0195,12.6715729 23.3479271,12 22.5195,12 C21.6910729,12 21.0195,12.6715729 21.0195,13.5 L21.0195,22.5 C21.0195,23.3284271 21.6910729,24 22.5195,24 Z"></path>
                </g>
            </g>
        </g>
    </g>
</svg>