<?xml version="1.0" encoding="UTF-8"?>
<svg width="140px" height="70px" viewBox="0 0 140 70" version="1.1" xmlns="http://www.w3.org/2000/svg" xmlns:xlink="http://www.w3.org/1999/xlink">
    <!-- Generator: Sketch 46.2 (44496) - http://www.bohemiancoding.com/sketch -->
    <title>device_occupy</title>
    <desc>Created with Sketch.</desc>
    <defs></defs>
    <g id="slice" stroke="none" stroke-width="1" fill="none" fill-rule="evenodd" opacity="0.300000012">
        <g id="device_occupy">
            <g id="Group-4" transform="translate(10.000000, 9.000000)">
                <path d="M78.353677,42.1821134 L26.4967468,42.1821134 C24.5255212,42.1821134 22.9269874,40.6039691 22.9269874,38.6578866 L22.9269874,3.87997423 C22.9269874,1.935 24.5255212,0.357963918 26.4967468,0.357963918 L78.353677,0.357963918 C80.3249026,0.357963918 81.9234364,1.935 81.9234364,3.87997423 L81.9234364,38.6578866 C81.9234364,40.6039691 80.3249026,42.1821134 78.353677,42.1821134 Z" id="Stroke-56" stroke="#FFFFFF" stroke-width="2.5" stroke-linecap="round" stroke-linejoin="round"></path>
                <path d="M53.1387148,37.0283196 C53.1387148,37.4173144 52.8187835,37.7331649 52.4258855,37.7331649 C52.0318648,37.7331649 51.7119336,37.4173144 51.7119336,37.0283196 C51.7119336,36.6393247 52.0318648,36.3234742 52.4258855,36.3234742 C52.8187835,36.3234742 53.1387148,36.6393247 53.1387148,37.0283196 Z" id="Stroke-57" stroke="#FFFFFF" stroke-width="2.5" fill="#FFFFFF" stroke-linecap="round" stroke-linejoin="round"></path>
                <polygon id="Stroke-58" stroke="#FFFFFF" stroke-width="2.5" stroke-linecap="round" stroke-linejoin="round" points="60.0034296 50.9084536 44.8476678 50.9084536 46.4619175 42.2940464 58.3891798 42.2940464"></polygon>
                <path d="M40.8247423,51 L62.9269416,51" id="Stroke-59" stroke="#FFFFFF" stroke-width="2.5" stroke-linecap="round" stroke-linejoin="round"></path>
                <path d="M22.9275487,30 L81.9228751,30" id="Stroke-60" stroke="#FFFFFF" stroke-width="2.5" stroke-linecap="round" stroke-linejoin="round"></path>
                <g id="Group-2" transform="translate(102.365577, 33.060978)" fill-rule="nonzero" fill="#FFFFFF">
                    <path d="M10.087849,2.15880676 L11.2496081,2.15880676 C11.8591407,2.15880676 12.3532646,1.6755414 12.3532646,1.07940338 C12.3532646,0.483265353 11.8591407,0 11.2496081,0 L10.087849,0 C9.4783163,0 8.98419244,0.483265353 8.98419244,1.07940338 C8.98419244,1.6755414 9.4783163,2.15880676 10.087849,2.15880676 Z" id="Stroke-21"></path>
                    <path d="M1.1868435,2.15880676 L2.34860259,2.15880676 C2.95813527,2.15880676 3.45225913,1.6755414 3.45225913,1.07940338 C3.45225913,0.483265353 2.95813527,0 2.34860259,0 L1.1868435,0 C0.57731083,0 0.083186967,0.483265353 0.083186967,1.07940338 C0.083186967,1.6755414 0.57731083,2.15880676 1.1868435,2.15880676 Z" id="Stroke-23"></path>
                </g>
                <g id="Group-2-Copy" transform="translate(108.121284, 34.465175) rotate(-270.000000) translate(-108.121284, -34.465175) translate(101.619858, 32.964846)" fill-rule="nonzero" fill="#FFFFFF">
                    <path d="M10.087849,2.15880676 L11.2496081,2.15880676 C11.8591407,2.15880676 12.3532646,1.6755414 12.3532646,1.07940338 C12.3532646,0.483265353 11.8591407,0 11.2496081,0 L10.087849,0 C9.4783163,0 8.98419244,0.483265353 8.98419244,1.07940338 C8.98419244,1.6755414 9.4783163,2.15880676 10.087849,2.15880676 Z" id="Stroke-21"></path>
                    <path d="M1.1868435,2.15880676 L2.34860259,2.15880676 C2.95813527,2.15880676 3.45225913,1.6755414 3.45225913,1.07940338 C3.45225913,0.483265353 2.95813527,0 2.34860259,0 L1.1868435,0 C0.57731083,0 0.083186967,0.483265353 0.083186967,1.07940338 C0.083186967,1.6755414 0.57731083,2.15880676 1.1868435,2.15880676 Z" id="Stroke-23"></path>
                </g>
                <path d="M88.2430719,35.219785 L96.0938136,35.219785 C96.7169219,35.219785 97.222051,34.7365197 97.222051,34.1403817 C97.222051,33.5442436 96.7169219,33.0609783 96.0938136,33.0609783 L88.2430719,33.0609783 C87.6199636,33.0609783 87.1148345,33.5442436 87.1148345,34.1403817 C87.1148345,34.7365197 87.6199636,35.219785 88.2430719,35.219785 Z" id="Stroke-17" fill="#FFFFFF" fill-rule="nonzero"></path>
                <path d="M90.9057834,30.4860899 L90.9057834,38.0369885 C90.9057834,38.6344865 91.4085784,39.1188544 92.0288075,39.1188544 C92.6490365,39.1188544 93.1518315,38.6344865 93.1518315,38.0369885 L93.1518315,30.4860899 C93.1518315,29.8885919 92.6490365,29.404224 92.0288075,29.404224 C91.4085784,29.404224 90.9057834,29.8885919 90.9057834,30.4860899 Z" id="Stroke-19" fill="#FFFFFF" fill-rule="nonzero"></path>
                <path d="M89.0705832,23.663084 L109.175126,23.663084 C115.153539,23.663084 120,28.5095451 120,34.4879579 C120,40.4663706 115.153539,45.3128318 109.175126,45.3128318 L89.0721649,45.3128318" id="Rectangle-9" stroke="#FFFFFF" stroke-width="2.5" stroke-linecap="round" stroke-linejoin="round"></path>
                <path d="M104.999407,22.8934308 C105.228558,17.9154844 103.242148,15.5211828 99.0401766,15.7105262 L96.2285106,15.7105262 C91.1287119,15.7105262 90.3092784,13.6925511 90.3092784,8.65979381" id="Rectangle-21" stroke="#FFFFFF" stroke-width="2.5" stroke-linecap="round" stroke-linejoin="round"></path>
                <path d="M28.3627515,49.4845361 L17.6801959,49.4845361 L6.27642371,49.4845361 C2.80942333,49.4845361 0,46.6756435 0,43.2081124 L0,21.1217845 C0,17.6547842 2.8088926,14.8453608 6.27642371,14.8453608 L6.27642371,14.8453608 L17.0738902,14.8453608" id="Rectangle-17" stroke="#FFFFFF" stroke-width="2.5" stroke-linecap="round" stroke-linejoin="round" fill-rule="nonzero"></path>
            </g>
        </g>
    </g>
</svg>