<?xml version="1.0" encoding="UTF-8"?>
<svg width="44px" height="44px" viewBox="0 0 44 44" version="1.1" xmlns="http://www.w3.org/2000/svg" xmlns:xlink="http://www.w3.org/1999/xlink">
    <!-- Generator: Sketch 45.2 (43514) - http://www.bohemiancoding.com/sketch -->
    <title>hand</title>
    <desc>Created with Sketch.</desc>
    <defs></defs>
    <g id="slice" stroke="none" stroke-width="1" fill="none" fill-rule="evenodd">
        <g id="hand">
            <g id="Page-1" transform="translate(5.000000, 4.000000)">
                <path d="M24.2821818,8.64923345 C23.4120909,8.92384883 22.7985455,9.61191294 22.5806364,10.4220283 C22.0026364,9.36781037 20.7338182,8.83078473 19.5345455,9.20914371 C18.6567273,9.48528473 18.0416364,10.1825027 17.8268182,11.0017719 C17.1669091,10.3686309 16.1917273,10.0970668 15.2551818,10.3930411 C14.4561818,10.6447719 14.0651818,11.3252078 13.8055455,12.0498873 L13.4377273,11.413695 C13.2800909,10.8858232 13.0915455,10.304554 12.8844545,9.69734883 L11.0793636,4.1104514 C10.6466364,2.77246422 9.19545455,2.03405396 7.84009091,2.45970781 C6.48318182,2.88841294 5.73672727,4.31946422 6.16945455,5.6574514 L11.1365455,21.0328617 L5.83409091,16.8053104 C4.71363636,15.9387463 3.09245455,16.1340283 2.21618182,17.2401181 C1.33836364,18.3477334 1.53618182,19.9450796 2.65663636,20.8101181 C2.65663636,20.8101181 7.14618182,24.4075796 7.17090909,24.4274129 C9.61118182,26.4504129 12.1488182,28.4551052 14.7575455,30.2629899 C17.7340909,32.3287078 21.5498182,34.5652976 25.3191818,33.3783488 C29.8628182,31.9488232 32.4823636,27.4649642 31.5566364,23.0894258 C31.5272727,22.8239642 31.4747273,22.5417206 31.3742727,22.2304899 L28.6264545,13.7235155 L27.7903636,11.1360283 L27.5199091,10.299977 C27.0871818,8.96198986 25.6375455,8.2235796 24.2821818,8.64923345" id="Fill-1"></path>
                <g id="Group-5" transform="translate(0.000000, 0.265836)" fill="#636363">
                    <path d="M8.62394545,0.427332051 L8.62394545,0.427332051 C8.18658182,0.427332051 7.75230909,0.494460256 7.33349091,0.625665385 C6.25321818,0.967408974 5.37230909,1.70124231 4.85149091,2.69596026 C4.33221818,3.69067821 4.2364,4.82422949 4.57949091,5.89065256 L7.85894545,16.037691 L6.88221818,15.2596141 C6.11876364,14.669191 5.18994545,14.3518577 4.24721818,14.3518577 C2.93049091,14.3518577 1.71267273,14.9377038 0.902854545,15.961409 C0.204309091,16.8417038 -0.104781818,17.9401654 0.0312181818,19.0493064 C0.168763636,20.1599731 0.735945455,21.1516397 1.63076364,21.8412295 C1.63076364,21.8412295 5.99976364,25.3441013 6.11258182,25.4356397 C9.04276364,27.861409 11.4892182,29.74405 13.7996727,31.3459731 C16.4686727,33.1965756 19.6677636,35.0898962 23.1404,35.0898962 C24.0630364,35.0898962 24.9671273,34.9525885 25.8264,34.6810244 C31.1134,33.01655 34.2738545,27.818691 33.2044,22.565909 C33.1595818,22.1936526 33.0807636,21.8336013 32.9648545,21.4704987 L30.2154909,12.9558962 L29.3794,10.3714603 L29.1089455,9.53388333 C28.5448545,7.78855 26.9205818,6.61685769 25.0660364,6.61685769 C24.6286727,6.61685769 24.1944,6.6839859 23.7755818,6.81519103 C23.2130364,6.99216538 22.7045818,7.2789859 22.2749455,7.64819103 C21.6814909,7.34306282 21.0123091,7.17524231 20.3153091,7.17524231 C19.8794909,7.17524231 19.4452182,7.24237051 19.0279455,7.37357564 C18.3139455,7.59937051 17.6880364,7.99756282 17.1996727,8.52390897 C16.8225818,8.41558846 16.4284909,8.36066538 16.0282182,8.36066538 C15.5939455,8.36066538 15.1643091,8.42779359 14.7485818,8.55747308 C14.6249455,8.59713974 14.5059455,8.64138333 14.3946727,8.69020385 L12.6668545,3.34435769 C12.1027636,1.60055 10.4784909,0.427332051 8.62394545,0.427332051 M8.62394545,2.07349872 C9.71503636,2.07349872 10.7288545,2.7646141 11.0781273,3.84476795 L12.8832182,9.43166538 C13.0918545,10.0388705 13.2804,10.6201397 13.4380364,11.1464859 L13.8058545,11.7826782 C14.0654909,11.0595244 14.4549455,10.3775628 15.2554909,10.1258321 C15.5120364,10.0449731 15.7716727,10.0068321 16.0282182,10.0068321 C16.7035818,10.0068321 17.3480364,10.2768705 17.8271273,10.7345628 C18.0419455,9.91681923 18.6570364,9.21960128 19.5348545,8.94346026 C19.7944909,8.86107564 20.0572182,8.82140897 20.3153091,8.82140897 C21.2503091,8.82140897 22.1281273,9.32944744 22.5809455,10.1548192 C22.7988545,9.34622949 23.4124,8.65816538 24.2824909,8.38355 C24.5421273,8.30116538 24.8064,8.26302436 25.0660364,8.26302436 C26.1571273,8.26302436 27.1709455,8.9526141 27.5202182,10.0342936 L27.7906727,10.8703449 L28.6252182,13.4578321 L31.3745818,21.9648064 C31.4750364,22.2760372 31.5275818,22.5567551 31.5554,22.8237423 C32.4826727,27.1992808 29.8631273,31.6831397 25.3194909,33.1126654 C24.5931273,33.3415115 23.8652182,33.4437295 23.1404,33.4437295 C20.1097636,33.4437295 17.1594909,31.6648321 14.7578545,29.9973064 C12.1491273,28.1894218 9.61149091,26.1847295 7.17121818,24.1617295 C7.14649091,24.1418962 2.65694545,20.5444346 2.65694545,20.5444346 C1.53494545,19.6793962 1.33867273,18.08205 2.21649091,16.9744346 C2.72494545,16.3336654 3.48067273,15.9980244 4.24721818,15.9980244 C4.80203636,15.9980244 5.36303636,16.1749987 5.8344,16.5396269 L11.1368545,20.7671782 L6.16976364,5.39024231 C5.73703636,4.05225513 6.48349091,2.62120385 7.8404,2.19402436 C8.10158182,2.11163974 8.36430909,2.07349872 8.62394545,2.07349872" id="Fill-3"></path>
                </g>
                <g id="Group-8" transform="translate(0.000000, 0.265836)" fill="#FFFFFF">
                    <path d="M8.62394545,0.427332051 L8.62394545,0.427332051 C8.18658182,0.427332051 7.75230909,0.494460256 7.33349091,0.625665385 C6.25321818,0.967408974 5.37230909,1.70124231 4.85149091,2.69596026 C4.33221818,3.69067821 4.2364,4.82422949 4.57949091,5.89065256 L7.85894545,16.037691 L6.88221818,15.2596141 C6.11876364,14.669191 5.18994545,14.3518577 4.24721818,14.3518577 C2.93049091,14.3518577 1.71267273,14.9377038 0.902854545,15.961409 C0.204309091,16.8417038 -0.104781818,17.9401654 0.0312181818,19.0493064 C0.168763636,20.1599731 0.735945455,21.1516397 1.63076364,21.8412295 C1.63076364,21.8412295 5.99976364,25.3441013 6.11258182,25.4356397 C9.04276364,27.861409 11.4892182,29.74405 13.7996727,31.3459731 C16.4686727,33.1965756 19.6677636,35.0898962 23.1404,35.0898962 C24.0630364,35.0898962 24.9671273,34.9525885 25.8264,34.6810244 C31.1134,33.01655 34.2738545,27.818691 33.2044,22.565909 C33.1595818,22.1936526 33.0807636,21.8336013 32.9648545,21.4704987 L30.2154909,12.9558962 L29.3794,10.3714603 L29.1089455,9.53388333 C28.5448545,7.78855 26.9205818,6.61685769 25.0660364,6.61685769 C24.6286727,6.61685769 24.1944,6.6839859 23.7755818,6.81519103 C23.2130364,6.99216538 22.7045818,7.2789859 22.2749455,7.64819103 C21.6814909,7.34306282 21.0123091,7.17524231 20.3153091,7.17524231 C19.8794909,7.17524231 19.4452182,7.24237051 19.0279455,7.37357564 C18.3139455,7.59937051 17.6880364,7.99756282 17.1996727,8.52390897 C16.8225818,8.41558846 16.4284909,8.36066538 16.0282182,8.36066538 C15.5939455,8.36066538 15.1643091,8.42779359 14.7485818,8.55747308 C14.6249455,8.59713974 14.5059455,8.64138333 14.3946727,8.69020385 L12.6668545,3.34435769 C12.1027636,1.60055 10.4784909,0.427332051 8.62394545,0.427332051 M8.62394545,2.07349872 C9.71503636,2.07349872 10.7288545,2.7646141 11.0781273,3.84476795 L12.8832182,9.43166538 C13.0918545,10.0388705 13.2804,10.6201397 13.4380364,11.1464859 L13.8058545,11.7826782 C14.0654909,11.0595244 14.4549455,10.3775628 15.2554909,10.1258321 C15.5120364,10.0449731 15.7716727,10.0068321 16.0282182,10.0068321 C16.7035818,10.0068321 17.3480364,10.2768705 17.8271273,10.7345628 C18.0419455,9.91681923 18.6570364,9.21960128 19.5348545,8.94346026 C19.7944909,8.86107564 20.0572182,8.82140897 20.3153091,8.82140897 C21.2503091,8.82140897 22.1281273,9.32944744 22.5809455,10.1548192 C22.7988545,9.34622949 23.4124,8.65816538 24.2824909,8.38355 C24.5421273,8.30116538 24.8064,8.26302436 25.0660364,8.26302436 C26.1571273,8.26302436 27.1709455,8.9526141 27.5202182,10.0342936 L27.7906727,10.8703449 L28.6252182,13.4578321 L31.3745818,21.9648064 C31.4750364,22.2760372 31.5275818,22.5567551 31.5554,22.8237423 C32.4826727,27.1992808 29.8631273,31.6831397 25.3194909,33.1126654 C24.5931273,33.3415115 23.8652182,33.4437295 23.1404,33.4437295 C20.1097636,33.4437295 17.1594909,31.6648321 14.7578545,29.9973064 C12.1491273,28.1894218 9.61149091,26.1847295 7.17121818,24.1617295 C7.14649091,24.1418962 2.65694545,20.5444346 2.65694545,20.5444346 C1.53494545,19.6793962 1.33867273,18.08205 2.21649091,16.9744346 C2.72494545,16.3336654 3.48067273,15.9980244 4.24721818,15.9980244 C4.80203636,15.9980244 5.36303636,16.1749987 5.8344,16.5396269 L11.1368545,20.7671782 L6.16976364,5.39024231 C5.73703636,4.05225513 6.48349091,2.62120385 7.8404,2.19402436 C8.10158182,2.11163974 8.36430909,2.07349872 8.62394545,2.07349872" id="Fill-6"></path>
                </g>
                <polygon id="Fill-9" fill="#FFFFFF" points="14.5748727 14.9133629 13.2025091 10.6705552 14.7912364 10.170145 16.1620545 14.4129527"></polygon>
                <polygon id="Fill-11" fill="#FFFFFF" points="18.5644636 14.2295706 17.1936455 9.9852373 18.7808273 9.48482704 20.1516455 13.7291604"></polygon>
                <polygon id="Fill-13" fill="#FFFFFF" points="23.2808818 13.3982488 21.9100636 9.1539155 23.4972455 8.65350524 24.8680636 12.8978386"></polygon>
            </g>
        </g>
    </g>
</svg>