<?xml version="1.0" encoding="UTF-8"?>
<svg width="22px" height="22px" viewBox="0 0 22 22" version="1.1" xmlns="http://www.w3.org/2000/svg" xmlns:xlink="http://www.w3.org/1999/xlink">
    <!-- Generator: Sketch 45.2 (43514) - http://www.bohemiancoding.com/sketch -->
    <title>loop_2</title>
    <desc>Created with Sketch.</desc>
    <defs></defs>
    <g id="slice" stroke="none" stroke-width="1" fill="none" fill-rule="evenodd" stroke-linecap="round" opacity="0.5" stroke-linejoin="round">
        <g id="loop_2" stroke="#FFFFFF" stroke-width="1.3">
            <g id="Group-4" transform="translate(1.500000, 3.000000)">
                <g id="Group-14" transform="translate(5.000000, 7.000000)">
                    <path d="M13.101591,0.700195312 C13.101591,3.73776144 10.6391571,6.20019531 7.60159102,6.20019531 L1,6.20019531 L2.60159102,6.20019531" id="Rectangle-6"></path>
                    <polyline id="Rectangle-7" transform="translate(2.189340, 6.189340) rotate(-315.000000) translate(-2.189340, -6.189340) " points="3.73743687 7.73743687 0.641242789 7.73743687 0.641242789 4.64124279 0.641242789 4.64124279"></polyline>
                </g>
                <g id="Group-14-Copy-4" transform="translate(7.000000, 4.500000) rotate(-180.000000) translate(-7.000000, -4.500000) ">
                    <path d="M13.101591,0.700195312 C13.101591,3.73776144 10.6391571,6.20019531 7.60159102,6.20019531 L1,6.20019531 L2.60159102,6.20019531" id="Rectangle-6"></path>
                    <polyline id="Rectangle-7" transform="translate(2.189340, 6.189340) rotate(-315.000000) translate(-2.189340, -6.189340) " points="3.73743687 7.73743687 0.641242789 7.73743687 0.641242789 4.64124279 0.641242789 4.64124279"></polyline>
                </g>
            </g>
        </g>
    </g>
</svg>