<?xml version="1.0" encoding="UTF-8"?>
<svg width="22px" height="22px" viewBox="0 0 22 22" version="1.1" xmlns="http://www.w3.org/2000/svg" xmlns:xlink="http://www.w3.org/1999/xlink">
    <!-- Generator: Sketch 46 (44423) - http://www.bohemiancoding.com/sketch -->
    <title>loop1_2</title>
    <desc>Created with Sketch.</desc>
    <defs></defs>
    <g id="slice" stroke="none" stroke-width="1" fill="none" fill-rule="evenodd" opacity="0.5">
        <g id="loop1_2">
            <g id="Group-14" transform="translate(6.500000, 10.000000)" stroke="#FFFFFF" stroke-width="1.3" stroke-linecap="round" stroke-linejoin="round">
                <path d="M13.101591,0.700195312 C13.101591,3.73776144 10.6391571,6.20019531 7.60159102,6.20019531 L1,6.20019531 L2.60159102,6.20019531" id="Rectangle-6"></path>
                <polyline id="Rectangle-7" transform="translate(2.189340, 6.189340) rotate(-315.000000) translate(-2.189340, -6.189340) " points="3.73743687 7.73743687 0.641242789 7.73743687 0.641242789 4.64124279 0.641242789 4.64124279"></polyline>
            </g>
            <path d="M12.090541,5.14980469 C12.4803111,3.34907917 14.0826084,2 16,2 C18.209139,2 20,3.790861 20,6 C20,8.209139 18.209139,10 16,10 C13.942927,10 12.2485297,8.44720119 12.025009,6.44980469 L8.39840898,6.44980469 C5.71982795,6.44980469 3.54840898,8.62122365 3.54840898,11.2998047 C3.54840898,11.6587898 3.25739407,11.9498047 2.89840898,11.9498047 C2.53942389,11.9498047 2.24840898,11.6587898 2.24840898,11.2998047 C2.24840898,7.90325348 5.00185777,5.14980469 8.39840898,5.14980469 L12.090541,5.14980469 Z M15.8669233,4.63999999 L15.8669233,8.11846148 C15.8669233,8.34499994 16.0569233,8.53499994 16.2834617,8.53499994 C16.5100002,8.53499994 16.7000002,8.34499994 16.7000002,8.11846148 L16.7000002,3.91653846 C16.7000002,3.69 16.5100002,3.5 16.2834617,3.5 C16.1738463,3.5 16.1080771,3.53653846 16.0276925,3.58769231 L14.9753848,4.26730768 C14.8730771,4.33307691 14.8000002,4.45730768 14.8000002,4.60346152 C14.8000002,4.82269229 14.9826925,5.0053846 15.2019233,5.0053846 C15.2969233,5.0053846 15.3773079,4.97615383 15.4430771,4.92499998 L15.8669233,4.63999999 Z" id="Combined-Shape" fill="#FFFFFF" fill-rule="nonzero"></path>
        </g>
    </g>
</svg>