<?xml version="1.0" encoding="UTF-8"?>
<svg width="14px" height="14px" viewBox="0 0 14 14" version="1.1" xmlns="http://www.w3.org/2000/svg" xmlns:xlink="http://www.w3.org/1999/xlink">
    <!-- Generator: Sketch 45.2 (43514) - http://www.bohemiancoding.com/sketch -->
    <title>trash_0</title>
    <desc>Created with Sketch.</desc>
    <defs></defs>
    <g id="slice" stroke="none" stroke-width="1" fill="none" fill-rule="evenodd">
        <g id="trash_0" fill-rule="nonzero" fill="#FFFFFF">
            <path d="M5.64720002,5.60013119 L5.64887455,10.1001309 C5.64894705,10.2949769 5.80695976,10.4528721 6.00180581,10.4527996 C6.19665185,10.4527271 6.354547,10.2947144 6.3544745,10.0998683 L6.35279998,5.59986862 C6.35272747,5.40502258 6.19471476,5.24712742 5.99986872,5.24719993 C5.80502267,5.24727243 5.64712752,5.40528514 5.64720002,5.60013119 Z" id="Stroke"></path>
            <path d="M7.74728746,5.59216181 L7.64728708,10.0921618 C7.64295822,10.2869598 7.79736394,10.448384 7.99216191,10.4527128 C8.18695987,10.4570417 8.34838406,10.302636 8.35271292,10.107838 L8.4527133,5.607838 C8.45704216,5.41304003 8.30263644,5.25161584 8.10783848,5.24728698 C7.91304051,5.24295812 7.75161632,5.39736384 7.74728746,5.59216181 Z" id="Stroke"></path>
            <path d="M3.12410838,4.35 L3.58456166,11.2573174 C3.61145548,11.5129035 3.8260763,11.7065056 4.08195,11.7065056 L9.91805,11.7065056 C10.1739237,11.7065056 10.3885445,11.5129035 10.4142926,11.2706515 L10.8758785,4.35 L3.12410838,4.35 Z M4.0500001,3.65 L4.0500001,2.5678152 C4.0500001,2.05912089 4.46934901,1.65 4.98201068,1.65 L9.05608475,1.65 C9.56874642,1.65 9.98809533,2.05912089 9.98809533,2.5678152 L9.98809533,3.65 L12.5,3.65 C12.6932997,3.65 12.85,3.80670034 12.85,4 C12.85,4.19329966 12.6932997,4.35 12.5,4.35 L11.5774222,4.35 L11.111595,11.3305699 C11.0472433,11.9421374 10.5324603,12.4065056 9.91805,12.4065056 L4.08195,12.4065056 C3.46753969,12.4065056 2.95275668,11.9421374 2.88725923,11.3172358 L2.42256629,4.35 L1.5,4.35 C1.30670034,4.35 1.15,4.19329966 1.15,4 C1.15,3.80670034 1.30670034,3.65 1.5,3.65 L4.0500001,3.65 Z M4.7500001,3.65 L9.28809533,3.65 L9.28809533,2.5678152 C9.28809533,2.44964153 9.18596276,2.35 9.05608475,2.35 L4.98201068,2.35 C4.85213267,2.35 4.7500001,2.44964153 4.7500001,2.5678152 L4.7500001,3.65 Z" id="Combined-Shape"></path>
        </g>
    </g>
</svg>