<?xml version="1.0" encoding="UTF-8"?>
<svg width="22px" height="22px" viewBox="0 0 22 22" version="1.1" xmlns="http://www.w3.org/2000/svg" xmlns:xlink="http://www.w3.org/1999/xlink">
    <!-- Generator: Sketch 45.2 (43514) - http://www.bohemiancoding.com/sketch -->
    <title>voice_0_small</title>
    <desc>Created with Sketch.</desc>
    <defs></defs>
    <g id="slice" stroke="none" stroke-width="1" fill="none" fill-rule="evenodd" opacity="0.5">
        <g id="voice_0_small" stroke="#FFFFFF">
            <g id="Group" transform="translate(2.000000, 3.000000)">
                <path d="M1.91773318,5.42857143 C1.12880136,5.42857143 0.488508869,6.06300621 0.488508869,6.8447205 L0.488508869,9.67701863 C0.488508869,10.4587329 1.12880136,11.0931677 1.91773318,11.0931677 L5.2525899,11.0931677 L9.67322132,15.473357 L9.67322132,15.473357 C10.1910767,15.9864749 11.0268457,15.9826343 11.5399635,15.4647789 C11.7848923,15.2175887 11.9223033,14.8836812 11.9223033,14.5356969 L11.9223033,1.98604227 L11.9223033,1.98604227 C11.9223033,1.2570264 11.3313192,0.666042272 10.6023033,0.666042272 C10.254319,0.666042272 9.92041153,0.803453305 9.67322132,1.04838209 L5.2525899,5.42857143 L1.91773318,5.42857143 Z" id="Stroke-5597" stroke-width="1.29999995"></path>
                <path d="M13.6918191,4.95652174 C14.7637374,5.72879503 15.5974516,6.8466087 15.5974516,8.26086957 C15.5974516,9.67513043 14.7646902,10.7929441 13.6918191,11.5652174" id="Stroke-5600" stroke-width="1.3" stroke-linecap="round" stroke-linejoin="round"></path>
            </g>
        </g>
    </g>
</svg>