<?xml version="1.0" encoding="UTF-8"?>
<svg width="14px" height="14px" viewBox="0 0 14 14" version="1.1" xmlns="http://www.w3.org/2000/svg" xmlns:xlink="http://www.w3.org/1999/xlink">
    <!-- Generator: Sketch 43.1 (39012) - http://www.bohemiancoding.com/sketch -->
    <title>toolbar_simple_mode_1</title>
    <desc>Created with Sketch.</desc>
    <defs></defs>
    <g id="Page-1" stroke="none" stroke-width="1" fill="none" fill-rule="evenodd">
        <g id="toolbar_simple_mode_1" fill="#2A8BAB">
            <path d="M11,3 L13,3 L13,-0.001 L11,-0.001 L11,3 Z M6,3 L8,3 L8,-0.001 L6,-0.001 L6,3 Z M1,3 L3,3 L3,-0.001 L1,-0.001 L1,3 Z M11,14 L13,14 L13,5 L11,5 L11,14 Z M6,14 L8,14 L8,5 L6,5 L6,14 Z M1,14 L3,14 L3,5 L1,5 L1,14 Z" id="Page-1"></path>
        </g>
    </g>
</svg>