<?xml version="1.0" encoding="UTF-8"?>
<svg width="28px" height="28px" viewBox="0 0 28 28" version="1.1" xmlns="http://www.w3.org/2000/svg" xmlns:xlink="http://www.w3.org/1999/xlink">
    <!-- Generator: Sketch 46.2 (44496) - http://www.bohemiancoding.com/sketch -->
    <title>device_samba</title>
    <desc>Created with Sketch.</desc>
    <defs>
        <rect id="path-1" x="8" y="23" width="12" height="1.5" rx="0.75"></rect>
        <rect id="path-2" x="11.9049997" y="21.25" width="4" height="1.5"></rect>
    </defs>
    <g id="slice" stroke="none" stroke-width="1" fill="none" fill-rule="evenodd">
        <g id="device_samba">
            <g id="Group" transform="translate(6.000000, 4.000000)" stroke="#FFFFFF" stroke-width="1.5">
                <path d="M0,13 L2.17095472,0.956518603 L2.17095472,0.956518603 C2.27076506,0.402815635 2.75268428,1.03352894e-16 3.31531123,0 L3.31531123,0 L12.7868896,0 L12.7868896,2.22044605e-16 C13.3531311,1.18027727e-16 13.8370462,0.40787987 13.9329058,0.965948302 L16,13" id="Rectangle-5" stroke-linecap="round" stroke-linejoin="round"></path>
                <rect id="Rectangle" x="0" y="11" width="16" height="5" rx="2.5"></rect>
            </g>
            <g id="Rectangle-24">
                <use fill="#FFFFFF" fill-rule="evenodd" xlink:href="#path-1"></use>
                <rect stroke="#FFFFFF" stroke-width="1" x="8.5" y="23.5" width="11" height="1" rx="0.5"></rect>
            </g>
            <g id="Rectangle-24" transform="translate(13.905000, 22.000000) rotate(-270.000000) translate(-13.905000, -22.000000) ">
                <use fill="#FFFFFF" fill-rule="evenodd" xlink:href="#path-2"></use>
                <rect stroke="#FFFFFF" stroke-width="1" x="12.4049997" y="21.75" width="3" height="1"></rect>
            </g>
        </g>
    </g>
</svg>