<?xml version="1.0" encoding="UTF-8"?>
<svg width="28px" height="28px" viewBox="0 0 28 28" version="1.1" xmlns="http://www.w3.org/2000/svg" xmlns:xlink="http://www.w3.org/1999/xlink">
    <!-- Generator: Sketch 47.1 (45422) - http://www.bohemiancoding.com/sketch -->
    <title>ic/device/iso</title>
    <desc>Created with Sketch.</desc>
    <defs></defs>
    <g id="Symbols" stroke="none" stroke-width="1" fill="none" fill-rule="evenodd">
        <g id="ic/device/iso">
            <g id="Group" transform="translate(4.000000, 4.000000)" stroke-width="1.5" stroke="#FFFFFF">
                <circle id="Combined-Shape" cx="10" cy="10" r="9.25"></circle>
            </g>
            <path d="M8.56422018,11.5477889 C8.56422018,11.2738944 8.32568807,11.0513552 8.03211009,11.0513552 C7.73853211,11.0513552 7.5,11.2738944 7.5,11.5477889 L7.5,16.4522111 C7.5,16.7261056 7.73853211,16.9486448 8.03211009,16.9486448 C8.32568807,16.9486448 8.56422018,16.7261056 8.56422018,16.4522111 L8.56422018,11.5477889 Z M13.059633,12.3437946 C13.1972477,12.4636234 13.3256881,12.532097 13.4541284,12.532097 C13.7293578,12.532097 13.9495413,12.3266762 13.9495413,12.0784593 C13.9495413,11.9757489 13.912844,11.8815977 13.8577982,11.8045649 C13.4908257,11.3166904 12.6926606,11 11.7752294,11 C10.3165138,11 9.66513761,11.7189729 9.66513761,12.5663338 C9.66513761,14.6291013 13.0137615,14.0556348 13.0137615,15.3052782 C13.0137615,15.8359486 12.6100917,16.0927247 11.7752294,16.0927247 C11.1422018,16.0927247 10.6559633,15.8017118 10.2706422,15.4422254 C10.1788991,15.3566334 10.0688073,15.253923 9.86697248,15.253923 C9.60091743,15.253923 9.38073394,15.4593438 9.38073394,15.7161198 C9.38073394,15.8017118 9.40825688,15.8873039 9.45412844,15.9557775 C9.81192661,16.4950071 10.6834862,17 11.7752294,17 C13.2889908,17 14.0779817,16.3495007 14.0779817,15.3052782 C14.0779817,13.1654779 10.7293578,13.6875892 10.7293578,12.5663338 C10.7293578,12.2239658 11.0137615,11.8901569 11.7752294,11.8901569 C12.2981651,11.8901569 12.7752294,12.0870185 13.059633,12.3437946 Z M17.5917431,17 C15.7385321,17 14.6834862,16.0071327 14.6834862,14.0042796 C14.6834862,11.9757489 15.7385321,11 17.5917431,11 C19.4449541,11 20.5,11.9757489 20.5,14.0042796 C20.5,16.0071327 19.4449541,17 17.5917431,17 Z M17.5917431,11.8901569 C16.3807339,11.8901569 15.7844037,12.5834522 15.7844037,14.0042796 C15.7844037,15.4165478 16.3807339,16.1098431 17.5917431,16.1098431 C18.8027523,16.1098431 19.3990826,15.4165478 19.3990826,14.0042796 C19.3990826,12.5834522 18.8027523,11.8901569 17.5917431,11.8901569 Z" id="ISO" fill="#FFFFFF"></path>
        </g>
    </g>
</svg>