<?xml version="1.0" encoding="UTF-8"?>
<svg width="28px" height="28px" viewBox="0 0 28 28" version="1.1" xmlns="http://www.w3.org/2000/svg" xmlns:xlink="http://www.w3.org/1999/xlink">
    <!-- Generator: Sketch 46.2 (44496) - http://www.bohemiancoding.com/sketch -->
    <title>device_home</title>
    <desc>Created with Sketch.</desc>
    <defs></defs>
    <g id="slice" stroke="none" stroke-width="1" fill="none" fill-rule="evenodd">
        <g id="device_home" stroke="#FFFFFF" stroke-width="1.5">
            <g id="Group" transform="translate(4.000000, 4.000000)">
                <path d="M18,8 L18,17 C18,18.6568542 17.6568542,20 16,20 L4,20 C2.34314575,20 2,18.6568542 2,17 L2,8" id="Checkbox"></path>
                <path d="M3,3 L13.5997466,3.5638466 L13.5997466,3.5638466 C15.1312378,3.64531328 16.3546867,4.86876216 16.4361534,6.40025339 L17,17" id="Rectangle-25" stroke-linecap="round" stroke-linejoin="round" transform="translate(10.000000, 10.000000) rotate(-45.000000) translate(-10.000000, -10.000000) "></path>
                <path d="M7,20 L7,16 C7,14.3431458 8.34314575,13 10,13 C11.6568542,13 13,14.3431458 13,16 L13,20" id="Rectangle-26"></path>
            </g>
        </g>
    </g>
</svg>