<?xml version="1.0" encoding="UTF-8"?>
<svg width="30px" height="30px" viewBox="0 0 30 30" version="1.1" xmlns="http://www.w3.org/2000/svg" xmlns:xlink="http://www.w3.org/1999/xlink">
    <!-- Generator: Sketch 46.2 (44496) - http://www.bohemiancoding.com/sketch -->
    <title>dropdown_loading</title>
    <desc>Created with Sketch.</desc>
    <defs></defs>
    <g id="slice" stroke="none" stroke-width="1" fill="none" fill-rule="evenodd">
        <g id="dropdown_loading">
            <g id="Group-5" transform="translate(2.500000, 2.500000)">
                <circle id="Oval-11" fill="#FFFFFF" opacity="0.3" cx="12.5" cy="12.5" r="12.5"></circle>
                <g id="Page-1" transform="translate(5.416667, 5.179993)" stroke="#FFFFFF" stroke-width="1.5" stroke-linecap="round" stroke-linejoin="round">
                    <polyline id="Stroke-1" points="8.69318182 4.82954545 13.2007576 4.82954545 13.2007576 0.321969697"></polyline>
                    <path d="M13.7667803,8.75693182 C13.7500379,8.86833333 13.7300758,8.97973485 13.7075379,9.08984848 C13.6843561,9.19996212 13.6592424,9.30878788 13.631553,9.4169697 C13.6038636,9.52515152 13.5735985,9.63204545 13.5407576,9.73765152 C13.5079167,9.84390152 13.4725,9.9482197 13.4345076,10.0518939 C13.3965152,10.1555682 13.355947,10.2579545 13.313447,10.359053 C13.270303,10.4601515 13.2252273,10.5599621 13.1782197,10.6584848 C13.1305682,10.7570076 13.0803409,10.8542424 13.0288258,10.9501894 C12.9766667,11.0454924 12.9219318,11.1407955 12.8659091,11.2328788 C12.8092424,11.32625 12.7506439,11.4176894 12.6901136,11.507197 C12.6289394,11.5979924 12.5664773,11.6855682 12.5014394,11.7725 C12.4364015,11.8594318 12.3694318,11.9444318 12.3011742,12.0281439 C12.2316288,12.1118561 12.1607955,12.1936364 12.0880303,12.2734848 C12.0152652,12.3539773 11.9405682,12.4318939 11.8645833,12.5085227 C11.7879545,12.5845076 11.7093939,12.6592045 11.6295455,12.7319697 C11.549697,12.8053788 11.4679167,12.8755682 11.3842045,12.9451136 C11.3004924,13.0133712 11.2154924,13.0803409 11.1285606,13.1453788 C11.0416288,13.2104167 10.9534091,13.2728788 10.8639015,13.334053 C10.77375,13.3945833 10.6823106,13.4538258 10.5895833,13.5092045 C10.4962121,13.5658712 10.402197,13.6206061 10.30625,13.6721212 C10.210303,13.7242803 10.1130682,13.7745076 10.0145455,13.8221591 C9.91602273,13.8691667 9.81621212,13.9142424 9.71511364,13.9573864 C9.61401515,13.9998864 9.51162879,14.0404545 9.40795455,14.078447 C9.3042803,14.1164394 9.19996212,14.1518561 9.09435606,14.184697 C8.98810606,14.2175379 8.88121212,14.247803 8.7730303,14.2754924 C8.66549242,14.3038258 8.55602273,14.3289394 8.44590909,14.3514773 C8.33579545,14.3733712 8.22503788,14.3939773 8.11299242,14.4107197 C8.00094697,14.4274621 7.88825758,14.4422727 7.77492424,14.4532197 C7.66094697,14.4654545 7.54632576,14.4744697 7.43170455,14.4796212 C7.31579545,14.4854167 7.19988636,14.4886364 7.08333333,14.4886364 C6.9667803,14.4886364 6.85087121,14.4854167 6.73496212,14.4796212 C6.62034091,14.4744697 6.5057197,14.4654545 6.39174242,14.4532197 C6.27840909,14.4422727 6.1657197,14.4274621 6.05367424,14.4107197 C5.94162879,14.3939773 5.83087121,14.3733712 5.72075758,14.3514773 C5.61064394,14.3289394 5.50117424,14.3038258 5.39363636,14.2754924 C5.28545455,14.247803 5.17856061,14.2175379 5.07231061,14.184697 C4.96670455,14.1518561 4.86238636,14.1164394 4.75871212,14.078447 C4.65503788,14.0404545 4.55265152,13.9998864 4.45155303,13.9573864 C4.35045455,13.9142424 4.25064394,13.8691667 4.15212121,13.8221591 C4.05359848,13.7745076 3.95636364,13.7242803 3.86041667,13.6721212 C3.7644697,13.6206061 3.67045455,13.5658712 3.57708333,13.5092045 C3.48435606,13.4538258 3.39291667,13.3945833 3.30276515,13.334053 C3.21325758,13.2728788 3.12503788,13.2104167 3.03810606,13.1453788 C2.95117424,13.0803409 2.86617424,13.0133712 2.78246212,12.9451136 C2.69875,12.8755682 2.6169697,12.8053788 2.53712121,12.7319697 C2.45727273,12.6592045 2.37871212,12.5845076 2.30208333,12.5085227 C2.22609848,12.4318939 2.15140152,12.3539773 2.07863636,12.2734848 C2.00587121,12.1936364 1.93503788,12.1118561 1.86549242,12.0281439 C1.79723485,11.9444318 1.73026515,11.8594318 1.66522727,11.7725 C1.60018939,11.6855682 1.53772727,11.5979924 1.47655303,11.507197 C1.41602273,11.4176894 1.35742424,11.32625 1.30075758,11.2328788 C1.24473485,11.1407955 1.19,11.0454924 1.13784091,10.9501894 C1.08632576,10.8542424 1.03609848,10.7570076 0.98844697,10.6584848 C0.941439394,10.5599621 0.896363636,10.4601515 0.853219697,10.359053 C0.810719697,10.2579545 0.770151515,10.1555682 0.732159091,10.0518939 C0.694166667,9.9482197 0.65875,9.84390152 0.625909091,9.73765152 C0.593068182,9.63204545 0.56280303,9.52515152 0.535113636,9.4169697 C0.507424242,9.30878788 0.482310606,9.19996212 0.459128788,9.08984848 C0.436590909,8.97973485 0.416628788,8.86833333 0.399886364,8.75693182 C0.3825,8.6455303 0.368333333,8.53219697 0.356742424,8.4182197 C0.345151515,8.30488636 0.336136364,8.19090909 0.330984848,8.075 C0.324545455,7.95973485 0.321969697,7.8444697 0.321969697,7.72727273 C0.321969697,7.6107197 0.324545455,7.49481061 0.330984848,7.37890152 C0.336136364,7.2642803 0.345151515,7.14965909 0.356742424,7.03568182 C0.368333333,6.92234848 0.3825,6.80965909 0.399886364,6.69761364 C0.416628788,6.58556818 0.436590909,6.47481061 0.459128788,6.36469697 C0.482310606,6.25458333 0.507424242,6.14511364 0.535113636,6.03757576 C0.56280303,5.92939394 0.593068182,5.8225 0.625909091,5.71625 C0.65875,5.61064394 0.694166667,5.50632576 0.732159091,5.40265152 C0.770151515,5.29897727 0.810719697,5.19659091 0.853219697,5.09549242 C0.896363636,4.99439394 0.941439394,4.89458333 0.98844697,4.79606061 C1.03609848,4.69753788 1.08632576,4.60030303 1.13784091,4.50435606 C1.19,4.40840909 1.24473485,4.31439394 1.30075758,4.22102273 C1.35742424,4.12829545 1.41602273,4.03685606 1.47655303,3.94670455 C1.53772727,3.85719697 1.60018939,3.76897727 1.66522727,3.68204545 C1.73026515,3.59511364 1.79723485,3.51011364 1.86549242,3.42640152 C1.93503788,3.34268939 2.00587121,3.26090909 2.07863636,3.18106061 C2.15140152,3.10121212 2.22609848,3.02265152 2.30208333,2.94602273 C2.37871212,2.87003788 2.45727273,2.79534091 2.53712121,2.72257576 C2.6169697,2.64981061 2.69875,2.57897727 2.78246212,2.50943182 C2.86617424,2.44117424 2.95117424,2.37420455 3.03810606,2.30916667 C3.12503788,2.24412879 3.21325758,2.18166667 3.30276515,2.12049242 C3.39291667,2.05996212 3.48435606,2.00136364 3.57708333,1.94469697 C3.67045455,1.88867424 3.7644697,1.83393939 3.86041667,1.7817803 C3.95636364,1.73026515 4.05359848,1.68003788 4.15212121,1.63238636 C4.25064394,1.58537879 4.35045455,1.54030303 4.45155303,1.49715909 C4.55265152,1.45465909 4.65503788,1.41409091 4.75871212,1.37609848 C4.86238636,1.33810606 4.96670455,1.30268939 5.07231061,1.26984848 C5.17856061,1.23700758 5.28545455,1.20674242 5.39363636,1.17905303 C5.50117424,1.15136364 5.61064394,1.12625 5.72075758,1.10306818 C5.83087121,1.0805303 5.94162879,1.06056818 6.05367424,1.04382576 C6.1657197,1.02643939 6.27840909,1.01227273 6.39174242,1.00068182 C6.5057197,0.989090909 6.62034091,0.980075758 6.73496212,0.974924242 C6.85087121,0.968484848 6.9667803,0.965909091 7.08333333,0.965909091 C7.19988636,0.965909091 7.31579545,0.968484848 7.43170455,0.974924242 C7.54632576,0.980075758 7.66094697,0.989090909 7.77492424,1.00068182 C7.88825758,1.01227273 8.00094697,1.02643939 8.11299242,1.04382576 C8.22503788,1.06056818 8.33579545,1.0805303 8.44590909,1.10306818 C8.55602273,1.12625 8.66549242,1.15136364 8.7730303,1.17905303 C8.88121212,1.20674242 8.98810606,1.23700758 9.09435606,1.26984848 C9.19996212,1.30268939 9.3042803,1.33810606 9.40795455,1.37609848 C9.51162879,1.41409091 9.61401515,1.45465909 9.71511364,1.49715909 C9.81621212,1.54030303 9.91602273,1.58537879 10.0145455,1.63238636 C10.1130682,1.68003788 10.210303,1.73026515 10.30625,1.7817803 C10.402197,1.83393939 10.4962121,1.88867424 10.5895833,1.94469697 C10.6823106,2.00136364 10.77375,2.05996212 10.8639015,2.12049242 C10.9534091,2.18166667 11.0416288,2.24412879 11.1285606,2.30916667 C11.2154924,2.37420455 11.3004924,2.44117424 11.3842045,2.50943182 C11.4679167,2.57897727 11.549697,2.64981061 11.6295455,2.72257576 C11.7093939,2.79534091 11.7879545,2.87003788 11.8645833,2.94602273 C11.9405682,3.02265152 12.0152652,3.10121212 12.0880303,3.18106061 C12.1607955,3.26090909 12.2316288,3.34268939 12.3011742,3.42640152 C12.3694318,3.51011364 12.4364015,3.59511364 12.5014394,3.68204545 C12.5664773,3.76897727 12.6289394,3.85719697 12.6901136,3.94670455 C12.7506439,4.03685606 12.8092424,4.12829545 12.8659091,4.22102273 C12.9219318,4.31439394 12.9766667,4.40840909 13.0288258,4.50435606 C13.0803409,4.60030303 13.1305682,4.69753788 13.1782197,4.79606061" id="Stroke-3"></path>
                </g>
            </g>
        </g>
    </g>
</svg>