<?xml version="1.0" encoding="UTF-8"?>
<svg width="100px" height="70px" viewBox="0 0 100 70" version="1.1" xmlns="http://www.w3.org/2000/svg" xmlns:xlink="http://www.w3.org/1999/xlink">
    <!-- Generator: Sketch 46.2 (44496) - http://www.bohemiancoding.com/sketch -->
    <title>empty_pic</title>
    <desc>Created with Sketch.</desc>
    <defs>
        <linearGradient x1="100%" y1="50%" x2="0%" y2="50%" id="linearGradient-1">
            <stop stop-color="#FFFFFF" stop-opacity="0" offset="0%"></stop>
            <stop stop-color="#FFFFFF" stop-opacity="0.8" offset="100%"></stop>
        </linearGradient>
        <linearGradient x1="50%" y1="50%" x2="100%" y2="50%" id="linearGradient-2">
            <stop stop-color="#FFFFFF" stop-opacity="0" offset="0%"></stop>
            <stop stop-color="#FFFFFF" stop-opacity="0.5" offset="100%"></stop>
        </linearGradient>
    </defs>
    <g id="slice" stroke="none" stroke-width="1" fill="none" fill-rule="evenodd" opacity="0.300000012">
        <g id="empty_pic">
            <g id="Group-9" transform="translate(0.000000, 3.000000)">
                <polygon id="Fill-3" fill="url(#linearGradient-1)" transform="translate(18.489985, 61.192642) rotate(-180.000000) translate(-18.489985, -61.192642) " points="0 64.3344357 36.9799692 64.3344357 36.9799692 58.0508475 0 58.0508475"></polygon>
                <g id="Group-3" transform="translate(77.119279, 32.213145) rotate(-345.000000) translate(-77.119279, -32.213145) translate(60.170127, 9.755517)">
                    <path d="M4.33817595,0.867826108 L26.8377724,0.867826108 L26.8377724,0.867826108 C30.7037656,0.867826108 33.8377724,4.00183286 33.8377724,7.86782611 L33.8377724,37.2493947 L33.8377724,37.2493947 C33.8377724,41.1153879 30.7037656,44.2493947 26.8377724,44.2493947 L4.33817595,44.2493947 L4.33817595,0.867826108 Z" id="Rectangle-4" fill="url(#linearGradient-2)"></path>
                    <rect id="Rectangle-8" stroke="#FFFFFF" stroke-width="2.5" stroke-linecap="round" stroke-linejoin="round" x="0" y="0" width="33.8022592" height="44.5575235" rx="6"></rect>
                </g>
                <path d="M31.3559322,11.0997188 L31.3559322,6.77966102 L31.3559322,6.77966102 C31.3559322,3.03535763 34.3912898,6.87817374e-16 38.1355932,0 L38.1355932,0 L72.2962066,0 L72.2962066,0 C76.04051,-6.87817374e-16 79.0758676,3.03535763 79.0758676,6.77966102 L79.0758676,56.5577078 L79.0758676,56.5577078 C79.0758676,60.3020112 76.04051,63.3373688 72.2962066,63.3373688 L38.1355932,63.3373688 L38.1355932,63.3373688 C34.3912898,63.3373688 31.3559322,60.3020112 31.3559322,56.5577078 L31.3559322,23.6590784" id="Rectangle-8" stroke="#FFFFFF" stroke-width="2.5" fill="#1A202D" stroke-linecap="round" stroke-linejoin="round"></path>
                <path d="M31.3559322,16.1016949 L31.3559322,18.6440678" id="Path-3" stroke="#FFFFFF" stroke-width="2.5" stroke-linecap="round" stroke-linejoin="round"></path>
                <g id="Group-4" transform="translate(44.067797, 31.355932)" fill="#FFFFFF">
                    <rect id="Rectangle" x="0" y="5.93220339" width="22.8813559" height="2.11864407" rx="1.05932203"></rect>
                    <rect id="Rectangle" x="0" y="11.8644068" width="16.9491525" height="2.11864407" rx="1.05932203"></rect>
                    <rect id="Rectangle" x="0" y="0.423728814" width="16.9491525" height="2.11864407" rx="1.05932203"></rect>
                </g>
            </g>
        </g>
    </g>
</svg>