<?xml version="1.0" encoding="UTF-8"?>
<svg width="70px" height="60px" viewBox="0 0 70 60" version="1.1" xmlns="http://www.w3.org/2000/svg" xmlns:xlink="http://www.w3.org/1999/xlink">
    <!-- Generator: Sketch 45.2 (43514) - http://www.bohemiancoding.com/sketch -->
    <title>afu_d</title>
    <desc>Created with Sketch.</desc>
    <defs></defs>
    <g id="slice" stroke="none" stroke-width="1" fill="none" fill-rule="evenodd" opacity="0.300000012">
        <g id="afu_d">
            <g id="Group-2" transform="translate(16.000000, 7.000000)">
                <path d="M7.96190476,26.6449303 L30.0380952,26.6449303 L30.0380952,26.6449303 C31.5292641,26.6449303 32.7380952,25.4360992 32.7380952,23.9449303 L32.7380952,13.9374226 L32.7380952,13.9374226 C32.7380952,12.4462538 31.5292641,11.2374226 30.0380952,11.2374226 L7.96190476,11.2374226 L7.96190476,11.2374226 C6.47073594,11.2374226 5.26190476,12.4462538 5.26190476,13.9374226 L5.26190476,23.9449303 L5.26190476,23.9449303 C5.26190476,25.4360992 6.47073594,26.6449303 7.96190476,26.6449303 Z" id="Stroke-132" stroke="#FFFFFF" stroke-width="2"></path>
                <path d="M4.5,31.5686275 L33.5,31.5686275 L33.5,31.5686275 C35.9852814,31.5686275 38,29.5539088 38,27.0686275 L38,10.8137255 L38,10.8137255 C38,8.32844412 35.9852814,6.31372549 33.5,6.31372549 L4.5,6.31372549 L4.5,6.31372549 C2.01471863,6.31372549 -3.04359188e-16,8.32844412 0,10.8137255 L0,27.0686275 L0,27.0686275 C3.04359188e-16,29.5539088 2.01471863,31.5686275 4.5,31.5686275 Z" id="Stroke-132" stroke="#FFFFFF" stroke-width="2"></path>
                <path d="M22.7007523,6.24426189 C22.9447048,5.73046939 23.0813057,5.15689339 23.0813057,4.55212228 C23.0813057,2.36071685 21.2873677,0.574529908 19.0864528,0.574529908 C16.885538,0.574529908 15.0916,2.36071685 15.0916,4.55212228 C15.0916,5.15560899 15.2276307,5.72863463 15.4703961,6.24202986" id="Stroke-134" stroke="#FFFFFF" stroke-width="2"></path>
                <path d="M8.60471172,40 L29.5671069,40" id="Stroke-135" stroke="#FFFFFF" stroke-width="2"></path>
                <path d="M11.1522601,45.5309804 L26.7657438,45.5309804 L26.7657438,45.5309804 C27.5781649,45.5309804 28.3098633,45.0395303 28.6171562,44.2874672 C29.3891499,42.3981034 29.7751467,40.8598627 29.7751467,39.6727451 C29.7751467,36.454098 28.3850819,33.5615098 26.1783709,31.5686275 L11.7382741,31.5686275 C9.53020436,33.5615098 8.14285714,36.454098 8.14285714,39.6727451 C8.14285714,40.8598627 8.52885399,42.3981034 9.30084769,44.2874672 L9.3008477,44.2874672 C9.60814058,45.0395303 10.339839,45.5309804 11.1522601,45.5309804 Z" id="Stroke-137" stroke="#FFFFFF" stroke-width="2" stroke-linecap="round" stroke-linejoin="round"></path>
                <path d="M19.0391328,36.9230951 C19.7535598,36.9230951 20.335544,36.3157298 20.335544,35.5701539 C20.335544,34.8258461 19.7535598,34.2172127 19.0391328,34.2172127 C18.3247058,34.2172127 17.7414481,34.8258461 17.7414481,35.5701539 C17.7414481,36.3157298 18.3247058,36.9230951 19.0391328,36.9230951" id="Fill-138"></path>
            </g>
        </g>
    </g>
</svg>