<?xml version="1.0" encoding="UTF-8"?>
<svg width="70px" height="60px" viewBox="0 0 70 60" version="1.1" xmlns="http://www.w3.org/2000/svg" xmlns:xlink="http://www.w3.org/1999/xlink">
    <!-- Generator: Sketch 45.2 (43514) - http://www.bohemiancoding.com/sketch -->
    <title>appletv_d</title>
    <desc>Created with Sketch.</desc>
    <defs></defs>
    <g id="slice" stroke="none" stroke-width="1" fill="none" fill-rule="evenodd" opacity="0.300000012">
        <g id="appletv_d">
            <g id="Mac-mini" transform="translate(13.000000, 8.000000)">
                <path d="M8.39610854,0.664285714 L35.6038915,0.664285714 C39.874832,0.664285714 43.3357143,4.12451417 43.3357143,8.39610854 L43.3357143,35.6038915 C43.3357143,39.874832 39.8754858,43.3357143 35.6038915,43.3357143 L8.39610854,43.3357143 C4.12516797,43.3357143 0.664285714,39.8754858 0.664285714,35.6038915 L0.664285714,8.39610854 C0.664285714,4.12516797 4.12451417,0.664285714 8.39610854,0.664285714 Z" id="Rectangle-17" stroke="#FFFFFF" stroke-width="2" fill-rule="nonzero"></path>
                <path d="M18.1241883,18.7575621 C18.5113809,18.2922926 18.7712367,17.6457779 18.700165,17 C18.1445474,17.0217347 17.4689963,17.369858 17.0714391,17.8332856 C16.7146001,18.2462445 16.4018107,18.9038108 16.4847276,19.5352217 C17.1051241,19.5831116 17.7388466,19.2220949 18.1241883,18.7575621 M20.2337585,26.6321478 C19.7743838,27.3029758 19.2953903,27.9715936 18.5417344,27.9848554 C17.8028851,27.9992224 17.564869,27.5486882 16.7186719,27.5486882 C15.8728449,27.5486882 15.6085471,27.9715936 14.908195,27.9992224 C14.1804506,28.027588 13.6285347,27.2746102 13.1632373,26.6070976 C12.2130238,25.2414965 11.4889811,22.7471655 12.4614045,21.0651222 C12.9463206,20.2288896 13.8099155,19.7006263 14.7486539,19.6862593 C15.4638126,19.674471 16.1367725,20.1640539 16.573197,20.1640539 C17.0099917,20.1640539 17.8276862,19.5720601 18.6890601,19.6589988 C19.0481201,19.6752078 20.0601511,19.8037739 20.7109012,20.7501535 C20.6572272,20.7840449 19.5030528,21.4515575 19.5156384,22.8436823 C19.5300749,24.5080431 20.9829724,25.0620933 21,25.0687242 C20.9863039,25.1062995 20.7671662,25.8581721 20.2337585,26.6321478 Z" id="apple_logo" fill="#FFFFFF"></path>
                <path d="M23.884,20.781 L23.585,20.781 C23.26,20.781 23,21.041 23,21.366 C23,21.691 23.26,21.951 23.585,21.951 L23.884,21.951 L23.884,25.019 C23.884,26.046 24.599,26.787 25.756,26.787 C26.094,26.787 26.367,26.514 26.367,26.176 C26.367,25.838 26.094,25.565 25.756,25.565 C25.522,25.565 25.262,25.396 25.262,25.097 L25.262,21.951 L25.847,21.951 C26.172,21.951 26.432,21.691 26.432,21.366 C26.432,21.041 26.172,20.781 25.847,20.781 L25.262,20.781 L25.262,19.689 C25.262,19.312 24.95,19 24.573,19 C24.196,19 23.884,19.312 23.884,19.689 L23.884,20.781 Z M30.195,26.787 C30.494,26.787 30.728,26.618 30.845,26.358 L32.925,21.652 C32.951,21.587 32.977,21.496 32.977,21.379 C32.977,20.989 32.665,20.677 32.275,20.677 C31.885,20.677 31.69,20.95 31.625,21.119 L30.195,24.733 L28.765,21.119 C28.7,20.95 28.505,20.677 28.115,20.677 C27.725,20.677 27.413,20.989 27.413,21.379 C27.413,21.496 27.439,21.587 27.465,21.652 L29.545,26.358 C29.662,26.618 29.896,26.787 30.195,26.787 Z" id="tv" fill="#FFFFFF"></path>
            </g>
        </g>
    </g>
</svg>