<?xml version="1.0" encoding="UTF-8"?>
<svg width="70px" height="60px" viewBox="0 0 70 60" version="1.1" xmlns="http://www.w3.org/2000/svg" xmlns:xlink="http://www.w3.org/1999/xlink">
    <!-- Generator: Sketch 45.2 (43514) - http://www.bohemiancoding.com/sketch -->
    <title>chromecast_l</title>
    <desc>Created with Sketch.</desc>
    <defs></defs>
    <g id="slice" stroke="none" stroke-width="1" fill="none" fill-rule="evenodd" stroke-linecap="round" stroke-linejoin="round">
        <g id="chromecast_l" stroke="#FFFFFF" stroke-width="2">
            <g id="Group-6" transform="translate(16.000000, 11.000000)">
                <path d="M11.009349,12.6382097 L15.3055556,19.2169471" id="Stroke-38"></path>
                <path d="M29.8562775,18.8580298 C29.8562775,24.7102924 25.1844548,29.4565016 19.4219589,29.4565016 C13.6578777,29.4565016 8.98605506,24.7102924 8.98605506,18.8580298 C8.98605506,13.0057672 13.6578777,8.25955805 19.4219589,8.25955805 C25.1844548,8.25955805 29.8562775,13.0057672 29.8562775,18.8580298 Z" id="Stroke-40"></path>
                <path d="M37.8724087,18.909871 C37.8724087,29.2587965 29.6115101,37.6483813 19.4213248,37.6483813 C9.23113948,37.6483813 0.970240959,29.2587965 0.970240959,18.909871 C0.970240959,8.56094555 9.23113948,0.171360817 19.4213248,0.171360817 C29.6115101,0.171360817 37.8724087,8.56094555 37.8724087,18.909871 Z" id="Stroke-42"></path>
                <path d="M23.5382992,18.8580298 C23.5382992,21.1667353 21.6946175,23.0391374 19.4213248,23.0391374 C17.1480321,23.0391374 15.3043504,21.1667353 15.3043504,18.8580298 C15.3043504,16.5477143 17.1480321,14.6769222 19.4213248,14.6769222 C21.6946175,14.6769222 23.5382992,16.5477143 23.5382992,18.8580298 Z" id="Stroke-32"></path>
                <path d="M20.6441543,14.8162413 L29.0352605,14.8162413 L20.6441543,14.8162413 Z" id="Stroke-34"></path>
                <path d="M21.6388889,22.436899 L18.4722222,28.8768029" id="Stroke-36"></path>
            </g>
        </g>
    </g>
</svg>