<?xml version="1.0" encoding="UTF-8"?>
<svg width="70px" height="60px" viewBox="0 0 70 60" version="1.1" xmlns="http://www.w3.org/2000/svg" xmlns:xlink="http://www.w3.org/1999/xlink">
    <!-- Generator: Sketch 45.2 (43514) - http://www.bohemiancoding.com/sketch -->
    <title>joystick_d</title>
    <desc>Created with Sketch.</desc>
    <defs></defs>
    <g id="slice" stroke="none" stroke-width="1" fill="none" fill-rule="evenodd" opacity="0.300000012">
        <g id="joystick_d">
            <g id="Group-4" transform="translate(12.000000, 11.000000)">
                <rect id="Rectangle-9" stroke="#FFFFFF" stroke-width="2" x="0" y="15" width="47" height="21.645" rx="10.8225"></rect>
                <g id="Group-5" transform="translate(6.000000, 19.000000)" fill-rule="nonzero" fill="#FFFFFF">
                    <g id="Group" transform="translate(23.369444, 0.000000)">
                        <g id="Group-2" transform="translate(0.000000, 5.395833)">
                            <path d="M10.0856367,2.15833333 L11.247141,2.15833333 C11.8565401,2.15833333 12.3505556,1.67517396 12.3505556,1.07916667 C12.3505556,0.483159374 11.8565401,0 11.247141,0 L10.0856367,0 C9.47623772,0 8.98222222,0.483159374 8.98222222,1.07916667 C8.98222222,1.67517396 9.47623772,2.15833333 10.0856367,2.15833333 Z" id="Stroke-21"></path>
                            <path d="M1.18658323,2.15833333 L2.34808755,2.15833333 C2.95748656,2.15833333 3.45150206,1.67517396 3.45150206,1.07916667 C3.45150206,0.483159374 2.95748656,0 2.34808755,0 L1.18658323,0 C0.577184226,0 0.0831687243,0.483159374 0.0831687243,1.07916667 C0.0831687243,1.67517396 0.577184226,2.15833333 1.18658323,2.15833333 Z" id="Stroke-23"></path>
                        </g>
                        <g id="Group-2-Copy" transform="translate(6.175278, 6.475000) rotate(-270.000000) translate(-6.175278, -6.475000) translate(0.000000, 5.395833)">
                            <path d="M10.0856367,2.15833333 L11.247141,2.15833333 C11.8565401,2.15833333 12.3505556,1.67517396 12.3505556,1.07916667 C12.3505556,0.483159374 11.8565401,0 11.247141,0 L10.0856367,0 C9.47623772,0 8.98222222,0.483159374 8.98222222,1.07916667 C8.98222222,1.67517396 9.47623772,2.15833333 10.0856367,2.15833333 Z" id="Stroke-21"></path>
                            <path d="M1.18658323,2.15833333 L2.34808755,2.15833333 C2.95748656,2.15833333 3.45150206,1.67517396 3.45150206,1.07916667 C3.45150206,0.483159374 2.95748656,0 2.34808755,0 L1.18658323,0 C0.577184226,0 0.0831687243,0.483159374 0.0831687243,1.07916667 C0.0831687243,1.67517396 0.577184226,2.15833333 1.18658323,2.15833333 Z" id="Stroke-23"></path>
                        </g>
                    </g>
                    <g id="Group-3" transform="translate(0.000000, 1.079167)">
                        <path d="M1.82898354,6.475 L9.67800353,6.475 C10.3009752,6.475 10.8059935,5.99184063 10.8059935,5.39583333 C10.8059935,4.79982604 10.3009752,4.31666667 9.67800353,4.31666667 L1.82898354,4.31666667 C1.20601186,4.31666667 0.700993533,4.79982604 0.700993533,5.39583333 C0.700993533,5.99184063 1.20601186,6.475 1.82898354,6.475 Z" id="Stroke-17"></path>
                        <path d="M4.49111111,1.74234295 L4.49111111,9.29158563 C4.49111111,9.88895264 4.99379584,10.3732143 5.61388889,10.3732143 C6.23398193,10.3732143 6.73666667,9.88895264 6.73666667,9.29158563 L6.73666667,1.74234295 C6.73666667,1.14497593 6.23398193,0.660714286 5.61388889,0.660714286 C4.99379584,0.660714286 4.49111111,1.14497593 4.49111111,1.74234295 Z" id="Stroke-19"></path>
                    </g>
                </g>
                <path d="M23.5313172,14.2305156 C23.7604182,9.2536608 21.7744438,6.85988433 17.5733941,7.04918614 L8.57813412,7.04918614 C3.47945382,7.04918614 2.66019993,5.03165357 2.66019993,0" id="Rectangle-21" stroke="#FFFFFF" stroke-width="2" stroke-linecap="round" stroke-linejoin="round"></path>
            </g>
        </g>
    </g>
</svg>