<?xml version="1.0" encoding="UTF-8"?>
<svg width="70px" height="60px" viewBox="0 0 70 60" version="1.1" xmlns="http://www.w3.org/2000/svg" xmlns:xlink="http://www.w3.org/1999/xlink">
    <!-- Generator: Sketch 45.2 (43514) - http://www.bohemiancoding.com/sketch -->
    <title>speaker_bluetooth_d</title>
    <desc>Created with Sketch.</desc>
    <defs></defs>
    <g id="slice" stroke="none" stroke-width="1" fill="none" fill-rule="evenodd">
        <g id="speaker_bluetooth_d" stroke="#FFFFFF">
            <path d="M36.1455984,37.0004443 L38.9596287,34.54499 L34.7610118,31 L34.6613295,31 L34.6613295,35.9304599 L31.8114136,33.3305932 L31,34.0682071 L34.4285714,37.0004443 L31,39.9326816 L31.8114136,40.6698511 L34.6613295,38.0695401 L34.6613295,43 L34.8427512,43 L39,39.4456787 L36.1455984,37.0004443 L36.1455984,37.0004443 Z M37.5865055,34.54499 L35.6900505,36.2046212 L35.6900505,33.0595423 L37.5865055,34.54499 L37.5865055,34.54499 Z M35.6900505,41.0164408 L35.6900505,37.7376139 L37.5032708,39.4558987 L35.6900505,41.0164408 L35.6900505,41.0164408 Z" id="Blutooth" stroke-width="0.2" fill="#FFFFFF" opacity="0.300000012"></path>
            <g id="Group-15-Copy" transform="translate(20.000000, 8.000000)" stroke-width="2" stroke-linecap="round" opacity="0.299999982" stroke-linejoin="round">
                <path d="M24.9073784,42.8236364 L5.09168283,42.8236364 C2.28018024,42.8236364 0,40.6154545 0,37.8927273 L1.66752316e-15,4.93090909 C1.66752316e-15,2.20727273 2.28018024,0 5.09168283,0 L24.9073784,0 C27.7198198,0 30,2.20727273 30,4.93090909 L30,37.8927273 C30,40.6154545 27.7198198,42.8236364 24.9073784,42.8236364 Z" id="Stroke-3"></path>
                <path d="M24.2327273,28.7365455 C24.2327273,33.7910909 20.1354545,37.8883636 15.0809091,37.8883636 C10.0272727,37.8883636 5.92909091,33.7910909 5.92909091,28.7365455 C5.92909091,23.682 10.0272727,19.5856364 15.0809091,19.5856364 C20.1354545,19.5856364 24.2327273,23.682 24.2327273,28.7365455 Z" id="Stroke-5"></path>
                <path d="M19.6690909,9.82463636 C19.6690909,12.3582727 17.6145455,14.4128182 15.0809091,14.4128182 C12.5472727,14.4128182 10.4927273,12.3582727 10.4927273,9.82463636 C10.4927273,7.291 12.5472727,5.23645455 15.0809091,5.23645455 C17.6145455,5.23645455 19.6690909,7.291 19.6690909,9.82463636 Z" id="Stroke-9"></path>
                <path d="M15.6585455,9.82463636 C15.6585455,10.1446364 15.4003636,10.4028182 15.0812727,10.4028182 C14.7621818,10.4028182 14.5030909,10.1446364 14.5030909,9.82463636 C14.5030909,9.50554545 14.7621818,9.24736364 15.0812727,9.24736364 C15.4003636,9.24736364 15.6585455,9.50554545 15.6585455,9.82463636 Z" id="Stroke-1" fill="#FFFFFF"></path>
            </g>
        </g>
    </g>
</svg>