<?xml version="1.0" encoding="UTF-8"?>
<svg width="70px" height="60px" viewBox="0 0 70 60" version="1.1" xmlns="http://www.w3.org/2000/svg" xmlns:xlink="http://www.w3.org/1999/xlink">
    <!-- Generator: Sketch 45.2 (43514) - http://www.bohemiancoding.com/sketch -->
    <title>speaker_1_l</title>
    <desc>Created with Sketch.</desc>
    <defs></defs>
    <g id="slice" stroke="none" stroke-width="1" fill="none" fill-rule="evenodd" stroke-linecap="round" stroke-linejoin="round">
        <g id="speaker_1_l" stroke="#FFFFFF" stroke-width="2">
            <g id="Group-15-Copy" transform="translate(20.000000, 8.000000)">
                <path d="M24.9073784,42.8236364 L5.09168283,42.8236364 C2.28018024,42.8236364 0,40.6154545 0,37.8927273 L1.66752316e-15,4.93090909 C1.66752316e-15,2.20727273 2.28018024,0 5.09168283,0 L24.9073784,0 C27.7198198,0 30,2.20727273 30,4.93090909 L30,37.8927273 C30,40.6154545 27.7198198,42.8236364 24.9073784,42.8236364 Z" id="Stroke-3"></path>
                <path d="M24.2327273,28.7365455 C24.2327273,33.7910909 20.1354545,37.8883636 15.0809091,37.8883636 C10.0272727,37.8883636 5.92909091,33.7910909 5.92909091,28.7365455 C5.92909091,23.682 10.0272727,19.5856364 15.0809091,19.5856364 C20.1354545,19.5856364 24.2327273,23.682 24.2327273,28.7365455 Z" id="Stroke-5"></path>
                <path d="M17.9143636,28.7365455 C17.9143636,30.302 16.6452727,31.5701818 15.0807273,31.5701818 C13.5161818,31.5701818 12.248,30.302 12.248,28.7365455 C12.248,27.172 13.5161818,25.9038182 15.0807273,25.9038182 C16.6452727,25.9038182 17.9143636,27.172 17.9143636,28.7365455 Z" id="Stroke-7"></path>
                <path d="M19.6690909,9.82463636 C19.6690909,12.3582727 17.6145455,14.4128182 15.0809091,14.4128182 C12.5472727,14.4128182 10.4927273,12.3582727 10.4927273,9.82463636 C10.4927273,7.291 12.5472727,5.23645455 15.0809091,5.23645455 C17.6145455,5.23645455 19.6690909,7.291 19.6690909,9.82463636 Z" id="Stroke-9"></path>
                <path d="M15.6585455,9.82463636 C15.6585455,10.1446364 15.4003636,10.4028182 15.0812727,10.4028182 C14.7621818,10.4028182 14.5030909,10.1446364 14.5030909,9.82463636 C14.5030909,9.50554545 14.7621818,9.24736364 15.0812727,9.24736364 C15.4003636,9.24736364 15.6585455,9.50554545 15.6585455,9.82463636 Z" id="Stroke-1" fill="#FFFFFF"></path>
            </g>
        </g>
    </g>
</svg>