<?xml version="1.0" encoding="UTF-8"?>
<svg width="70px" height="60px" viewBox="0 0 70 60" version="1.1" xmlns="http://www.w3.org/2000/svg" xmlns:xlink="http://www.w3.org/1999/xlink">
    <!-- Generator: Sketch 45.2 (43514) - http://www.bohemiancoding.com/sketch -->
    <title>tv_d</title>
    <desc>Created with Sketch.</desc>
    <defs></defs>
    <g id="slice" stroke="none" stroke-width="1" fill="none" fill-rule="evenodd">
        <g id="tv_d">
            <path d="M56.1561222,45.1999998 C57.1791978,45.1999998 58,44.3974385 58,43.419322 L58,15.9789288 C58,15.0018677 57.1793723,14.1999998 56.1561222,14.1999998 L14.8438778,14.1999998 C13.8206277,14.1999998 13,15.0018677 13,15.9789288 L13,43.419322 C13,44.3974385 13.8208022,45.1999998 14.8438778,45.1999998 L56.1561222,45.1999998 Z M45.5,47.1999998 L25.5,47.1999998 L25.5,48.7450718 C25.5,50.6780684 23.9329966,52.2450718 22,52.2450718 C20.0670034,52.2450718 18.5,50.6780684 18.5,48.7450718 L18.5,47.1999998 L14.8438778,47.1999998 C12.7261677,47.1999998 11,45.5121931 11,43.419322 L11,15.9789288 C11,13.8868141 12.7262776,12.1999998 14.8438778,12.1999998 L31.2857862,12.1999998 L27.7928932,8.70710678 C27.4023689,8.31658249 27.4023689,7.68341751 27.7928932,7.29289322 C28.1834175,6.90236893 28.8165825,6.90236893 29.2071068,7.29289322 L34.0631068,12.1488932 C34.0797159,12.1655023 34.0956186,12.1825503 34.1108149,12.1999998 L37.745185,12.1999998 C37.7604036,12.1825247 37.7763306,12.1654524 37.792966,12.1488204 L42.649966,7.29282042 C43.0405305,6.90233634 43.6736955,6.90240153 44.0641796,7.29296602 C44.4546637,7.68353052 44.4545985,8.31669549 44.064034,8.70717958 L40.5704945,12.1999998 L56.1561222,12.1999998 C58.2737224,12.1999998 60,13.8868141 60,15.9789288 L60,43.419322 C60,45.5121931 58.2738323,47.1999998 56.1561222,47.1999998 L52.5,47.1999998 L52.5,48.7450718 C52.5,50.6780684 50.9329966,52.2450718 49,52.2450718 C47.0670034,52.2450718 45.5,50.6780684 45.5,48.7450718 L45.5,47.1999998 Z M47.5,47.1999998 L47.5,48.7450718 C47.5,49.5734989 48.1715729,50.2450718 49,50.2450718 C49.8284271,50.2450718 50.5,49.5734989 50.5,48.7450718 L50.5,47.1999998 L47.5,47.1999998 Z M23.5,47.1999998 L20.5,47.1999998 L20.5,48.7450718 C20.5,49.5734989 21.1715729,50.2450718 22,50.2450718 C22.8284271,50.2450718 23.5,49.5734989 23.5,48.7450718 L23.5,47.1999998 Z" id="Combined-Shape" fill="#FFFFFF" fill-rule="nonzero" opacity="0.299999982"></path>
            <path d="M51.7612025,41.1999998 L19.2387975,41.1999998 C18.0025307,41.1999998 17,40.3321443 17,39.2619516 L17,20.1368291 C17,19.0672459 18.0025307,18.1999998 19.2387975,18.1999998 L51.7612025,18.1999998 C52.9974693,18.1999998 54,19.0672459 54,20.1368291 L54,39.2619516 C54,40.3321443 52.9974693,41.1999998 51.7612025,41.1999998 Z" id="Stroke-56" stroke="#FFFFFF" stroke-width="2" opacity="0.300000012" stroke-linecap="round" stroke-linejoin="round"></path>
        </g>
    </g>
</svg>