<?xml version="1.0" encoding="UTF-8"?>
<svg width="30px" height="30px" viewBox="0 0 30 30" version="1.1" xmlns="http://www.w3.org/2000/svg" xmlns:xlink="http://www.w3.org/1999/xlink">
    <!-- Generator: Sketch 45.2 (43514) - http://www.bohemiancoding.com/sketch -->
    <title>analog</title>
    <desc>Created with Sketch.</desc>
    <defs></defs>
    <g id="slice" stroke="none" stroke-width="1" fill="none" fill-rule="evenodd">
        <g id="analog" fill="#FFFFFF">
            <g id="Page-1" transform="translate(4.000000, 4.000000)">
                <g id="Group-3">
                    <path d="M10.9902,18.8701 C6.6472,18.8641 3.1302,15.3431 3.1302,11.0001 C3.1282,6.6551 6.6492,3.1321 10.9942,3.1301 L11.0102,3.1301 C15.3562,3.1361 18.8762,6.6631 18.8702,11.0101 C18.8642,15.3561 15.3372,18.8751 10.9902,18.8701 L10.9902,18.8701 Z M21.9402,2.9571 C21.8582,1.3651 20.5912,0.0911 19.0002,0.0001 L3.0002,0.0001 C1.3962,0.1221 0.1232,1.3961 0.0002,3.0001 L0.0002,19.0001 C0.1232,20.6031 1.3962,21.8771 3.0002,22.0001 L19.0002,22.0001 C20.6032,21.8771 21.8772,20.6031 22.0002,19.0001 L21.9402,2.9571 Z" id="Fill-1"></path>
                </g>
                <path d="M10.9912,15.21 C8.6692,15.205 6.7892,13.321 6.7892,10.999 C6.7912,8.671 8.6782,6.786 11.0062,6.788 L11.0092,6.788 C13.3352,6.793 15.2162,8.682 15.2112,11.008 C15.2062,13.334 13.3162,15.215 10.9912,15.21 M11.0092,4.669 L11.0072,4.669 C7.5092,4.667 4.6712,7.501 4.6692,10.999 C4.6692,14.492 7.4982,17.326 10.9912,17.331 C14.4872,17.336 17.3262,14.505 17.3312,11.009 C17.3362,7.512 14.5062,4.674 11.0092,4.669" id="Fill-4"></path>
            </g>
        </g>
    </g>
</svg>