<?xml version="1.0" encoding="UTF-8"?>
<svg width="30px" height="30px" viewBox="0 0 30 30" version="1.1" xmlns="http://www.w3.org/2000/svg" xmlns:xlink="http://www.w3.org/1999/xlink">
    <!-- Generator: Sketch 45.2 (43514) - http://www.bohemiancoding.com/sketch -->
    <title>chromecast</title>
    <desc>Created with Sketch.</desc>
    <defs></defs>
    <g id="slice" stroke="none" stroke-width="1" fill="none" fill-rule="evenodd">
        <g id="chromecast" fill="#FFFFFF">
            <g id="Page-1" transform="translate(4.500000, 6.500000)">
                <path d="M19.1441982,0 L1.9217982,0 C0.8537982,0 -1.79999995e-06,0.842598398 -1.79999995e-06,1.89658656 L-1.79999995e-06,4.70623476 L1.9217982,4.70623476 L1.9217982,1.89658656 L19.0733982,1.89658656 L19.0733982,15.0305817 L12.3833982,15.0305817 L12.3833982,16.9271682 L19.0733982,16.9271682 C20.1407982,16.9271682 20.9951982,16.0845698 20.9951982,15.0305817 L20.9951982,1.89658656 C20.9945982,0.842598398 20.1407982,0 19.1441982,0 L19.1441982,0 Z M0.0713982,6.60222919 L0.0713982,8.49881574 C4.8395982,8.49881574 8.6825982,12.2913967 8.6825982,16.9970394 L10.5329982,16.9970394 C10.5329982,11.2374086 5.8355982,6.60222919 0.0713982,6.60222919 L0.0713982,6.60222919 Z M17.2229982,3.79258098 L3.8429982,3.79258098 L3.8429982,5.33803553 C7.6151982,6.53176594 10.6037982,9.48174852 11.8139982,13.2044584 L17.1515982,13.2044584 L17.1515982,3.79258098 L17.2229982,3.79258098 Z M0.0713982,10.3948102 L0.0713982,12.2913967 C2.7047982,12.2913967 4.8395982,14.3981888 4.8395982,16.9970394 L6.7613982,16.9970394 C6.6899982,13.3447928 3.7007982,10.3948102 0.0713982,10.3948102 L0.0713982,10.3948102 Z M0.0713982,14.1169279 L0.0713982,16.9265761 L2.9183982,16.9265761 C2.9177982,15.3811216 1.6367982,14.1169279 0.0713982,14.1169279 L0.0713982,14.1169279 Z" id="Fill-1"></path>
            </g>
        </g>
    </g>
</svg>