<?xml version="1.0" encoding="UTF-8"?>
<svg width="30px" height="30px" viewBox="0 0 30 30" version="1.1" xmlns="http://www.w3.org/2000/svg" xmlns:xlink="http://www.w3.org/1999/xlink">
    <!-- Generator: Sketch 45.2 (43514) - http://www.bohemiancoding.com/sketch -->
    <title>dlna</title>
    <desc>Created with Sketch.</desc>
    <defs></defs>
    <g id="slice" stroke="none" stroke-width="1" fill="none" fill-rule="evenodd">
        <g id="dlna" fill="#FFFFFF">
            <g id="Page-1" transform="translate(4.000000, 5.000000)">
                <path d="M10.9967517,0 C16.308349,0 20.7399463,3.42353846 21.7680403,7.97553846 C21.8635705,8.39815385 21.9285369,8.82553846 21.7435302,9.11215385 C21.4821879,9.51692308 20.883906,9.44015385 20.4713691,9.44015385 L12.6172215,9.44015385 C11.8235973,9.44015385 11.2482013,9.45138462 10.4994631,9.05892308 C9.9217047,8.75615385 9.72075168,8.50184615 9.32785235,8.02384615 C8.79438926,7.37538462 8.01080537,6.96569231 7.13730201,6.96569231 C5.52997315,6.96569231 4.22695302,8.35246154 4.22695302,10.0629231 C4.22695302,11.7735385 5.52997315,13.1601538 7.13730201,13.1601538 C7.8314094,13.1601538 8.46896644,12.9013846 8.9690604,12.4695385 C9.23025503,12.2443077 9.57191946,11.8235385 9.81332886,11.5556923 C10.4045235,10.9001538 11.3314765,10.6909231 12.385557,10.7333846 L20.7759732,10.7333846 C21.6664564,10.7104615 21.9911409,10.8966154 21.8223758,11.7598462 C20.9062013,16.44 16.4081611,19.9935385 10.9967517,19.9935385 C7.72465772,19.9935385 4.78669799,18.694 2.7725906,16.632 C2.52955705,16.3832308 2.43077852,16.0641538 2.77480537,15.8610769 C2.90208054,15.7856923 3.09092617,15.7435385 3.35226846,15.7429231 L8.99179866,15.7429231 C9.59583893,15.7789231 10.1337315,15.9449231 10.613302,16.2421538 C11.173047,16.5889231 11.2740403,16.8286154 11.6724027,17.2686154 C12.2018792,17.8533846 12.9451544,18.2172308 13.7684564,18.2172308 C15.3757852,18.2172308 16.6788054,16.8306154 16.6788054,15.12 C16.6788054,13.4095385 15.3757852,12.0227692 13.7684564,12.0227692 C13.0742013,12.0227692 12.4367919,12.2815385 11.936698,12.7133846 C11.6755034,12.9386154 11.3338389,13.3593846 11.0924295,13.6272308 C10.1898389,14.6281538 8.69472483,14.4493846 7.50022819,14.4493846 L3.24005369,14.4493846 C2.57783893,14.4493846 1.84283221,14.522 1.26891275,14.1210769 C0.907315436,13.8681538 0.657637584,13.4624615 0.463919463,12.8767692 C0.162416107,11.9647692 0,10.998 0,9.99661538 C0,9.152 0.115758389,8.332 0.332805369,7.54846154 C0.653798658,6.41353846 1.18608054,5.51523077 2.75546309,5.56092308 L8.58885906,5.56092308 C9.44021477,5.52661538 10.2087383,5.65661538 10.7842819,6.05307692 C11.0995168,6.27046154 11.2222148,6.47015385 11.4656913,6.752 C11.6452349,6.95984615 11.8402819,7.16692308 12.0055034,7.29707692 C12.5234631,7.70538462 13.1430067,7.98769231 13.8372617,7.98769231 C15.4445906,7.98769231 16.7474631,6.60107692 16.7474631,4.89046154 C16.7474631,3.17984615 15.4445906,1.79323077 13.8372617,1.79323077 C12.9494362,1.79323077 12.1543356,2.21646154 11.6205772,2.88353846 C11.1042416,3.52876923 10.5691544,3.93784615 9.87445638,4.13553846 C9.39975839,4.27061538 9.0121745,4.26769231 8.53216107,4.26769231 L3.42092617,4.26769231 C2.4121745,4.26461538 2.45336913,3.65323077 3.05416107,3.08323077 C5.05557047,1.18323077 7.87422819,0 10.9967517,0" id="Fill-1"></path>
            </g>
        </g>
    </g>
</svg>