<?xml version="1.0" encoding="UTF-8"?>
<svg width="60px" height="60px" viewBox="0 0 60 60" version="1.1" xmlns="http://www.w3.org/2000/svg" xmlns:xlink="http://www.w3.org/1999/xlink">
    <!-- Generator: Sketch 47.1 (45422) - http://www.bohemiancoding.com/sketch -->
    <title>type/hdmi_60</title>
    <desc>Created with Sketch.</desc>
    <defs></defs>
    <g id="Symbols" stroke="none" stroke-width="1" fill="none" fill-rule="evenodd">
        <g id="type/hdmi_60">
            <g id="Group-2" fill="#D8D8D8" opacity="0">
                <rect id="Rectangle-18" x="0" y="0" width="60" height="60"></rect>
            </g>
            <g id="Group-2" transform="translate(0.000000, 18.000000)">
                <rect id="Rectangle-4" fill="#FFFFFF" x="0" y="0" width="60" height="25.7142857"></rect>
                <g id="Group" transform="translate(2.000000, 8.000000)" fill="#000000">
                    <polygon id="Fill-1" points="10.5919475 0.0301403509 10.5919475 3.67983333 3.86131267 3.67983333 3.86131267 0.0301403509 0.000170094387 0.0301403509 0.000170094387 8.95914912 3.86131267 8.95914912 3.86131267 5.75929825 10.5919475 5.75929825 10.5919475 8.95914912 14.5163652 8.95914912 14.5163652 0.0301403509"></polygon>
                    <path d="M26.9385624,2.25390526 L16.1304249,2.25390526 L16.1457334,0.0300105263 L28.0809163,0.0300105263 C28.7891893,0.0300105263 29.4005085,0.259150877 29.9080702,0.717107018 C30.4186935,1.17538772 30.6741753,1.73071228 30.6741753,2.38048421 L30.6741753,6.6137386 C30.6741753,7.26837895 30.4186935,7.82240526 29.9080702,8.27711579 C29.4005085,8.73507193 28.7891893,8.95934386 28.0809163,8.95934386 L16.1457334,8.95934386 L16.1304249,3.68002807 L19.8677387,3.68002807 L19.8813463,6.74064211 L26.9385624,6.74064211 L26.9385624,2.25390526" id="Fill-2"></path>
                    <path d="M49.7875114,0.720482456 C50.291331,1.17519298 50.545452,1.73084211 50.545452,2.38061404 L50.545452,8.9627193 L46.807798,8.9627193 L46.807798,2.26052632 L43.2511243,2.26052632 L43.2511243,8.9627193 L39.5325209,8.9627193 L39.5325209,2.26052632 L35.9727855,2.26052632 L35.9727855,8.9627193 L32.2334305,8.9627193 L32.2334305,0.0301403509 L47.9658005,0.0301403509 C48.6771353,0.0301403509 49.2836918,0.259280702 49.7875114,0.720482456" id="Fill-5"></path>
                    <polygon id="Fill-7" points="55.9816686 5.75926579 55.9816686 8.95911667 52.1252887 8.95911667 52.1252887 0.0301078947 55.9816686 0.0301078947 55.9816686 3.68012544 55.969762 4.88230088"></polygon>
                </g>
            </g>
        </g>
    </g>
</svg>