<?xml version="1.0" encoding="UTF-8"?>
<svg width="30px" height="30px" viewBox="0 0 30 30" version="1.1" xmlns="http://www.w3.org/2000/svg" xmlns:xlink="http://www.w3.org/1999/xlink">
    <!-- Generator: Sketch 45.2 (43514) - http://www.bohemiancoding.com/sketch -->
    <title>usb</title>
    <desc>Created with Sketch.</desc>
    <defs></defs>
    <g id="slice" stroke="none" stroke-width="1" fill="none" fill-rule="evenodd">
        <g id="usb" fill="#FFFFFF">
            <g id="Page-1" transform="translate(3.000000, 6.000000)">
                <path d="M17.0905846,12.1096615 L12.5952,12.1096615 L12.5952,13.2976615 L10.3419692,13.2976615 L10.3419692,9.73550769 L19.3419692,9.73550769 L19.3419692,12.1096615 L23.8465846,8.54843077 L19.3419692,4.98627692 L19.3419692,7.36135385 L10.3419692,7.36135385 L10.3419692,3.7992 L12.7059692,3.7992 C13.0798154,4.6512 13.9170462,5.20689231 14.8465846,5.22350769 C16.2902769,5.14227692 17.3933538,3.9072 17.3112,2.46443077 C17.2364308,1.1352 16.1758154,0.0745846154 14.8465846,-0.000184615385 C13.9170462,0.0164307692 13.0798154,0.572123077 12.7059692,1.42412308 L10.3419692,1.42412308 C9.06904615,1.46473846 8.06750769,2.52535385 8.09981538,3.7992 L8.09981538,7.36135385 L4.60966154,7.36135385 C4.21181538,6.52966154 3.38935385,5.98227692 2.46812308,5.93612308 C1.02627692,6.01735385 -0.0777230769,7.25335385 0.00443076923,8.6952 C0.0792,10.0244308 1.13981538,11.0850462 2.46812308,11.1598154 C3.40873846,11.1745846 4.26073846,10.6087385 4.60966154,9.73550769 L8.09981538,9.73550769 L8.09981538,13.2976615 C8.06750769,14.5715077 9.06904615,15.6321231 10.3419692,15.6718154 L12.5952,15.6718154 L12.5952,16.8588923 L17.0905846,16.8588923 L17.0905846,12.1096615 Z" id="Fill-1"></path>
            </g>
        </g>
    </g>
</svg>