<?xml version="1.0" encoding="UTF-8"?>
<svg width="30px" height="30px" viewBox="0 0 30 30" version="1.1" xmlns="http://www.w3.org/2000/svg" xmlns:xlink="http://www.w3.org/1999/xlink">
    <!-- Generator: Sketch 45.2 (43514) - http://www.bohemiancoding.com/sketch -->
    <title>wifi</title>
    <desc>Created with Sketch.</desc>
    <defs></defs>
    <g id="slice" stroke="none" stroke-width="1" fill="none" fill-rule="evenodd">
        <g id="wifi" fill="#FFFFFF">
            <path d="M13.7108852,23.5074857 C13.7856187,24.1727065 14.3844097,24.6515547 15.0496305,24.5768212 C15.7148513,24.5030103 16.1927769,23.9032967 16.118966,23.2380759 C16.0506909,22.6272906 15.5349372,22.1641272 14.9204614,22.1613593 C14.2155672,22.2028779 13.675825,22.8044368 13.7108852,23.509331 L13.7108852,23.5074857 Z M21.4794831,7.48221527 C23.5203546,8.45559659 25.3425614,9.82940209 26.8400002,11.5224398 L25.1340456,13.4267611 C20.355712,7.78576262 11.909899,7.08640428 6.26982316,11.8638152 C5.70609236,12.3408182 5.1838802,12.863953 4.70595458,13.4267611 L3,11.5215171 C4.49743876,9.82847945 6.31964552,8.45559659 8.35959445,7.48221527 C12.5096127,5.50592824 17.3303875,5.50592824 21.4794831,7.48221527 L21.4794831,7.48221527 Z M6.40360542,15.3310825 C10.390317,10.6284052 17.435568,10.0471443 22.139168,14.0338559 C22.606022,14.4305895 23.0396611,14.8642285 23.4354721,15.3310825 L21.7285949,17.2363266 C18.5436543,13.4756609 12.9137274,13.0097295 9.15398433,16.1937475 C8.7775487,16.512057 8.42879217,16.8608136 8.11140527,17.2363266 L6.40360542,15.3310825 Z M14.9204614,16.7740858 C16.8819862,16.7953064 18.7401758,17.6579714 20.0226403,19.1434159 L18.3240668,21.0468146 C16.7334418,19.1664818 13.9212462,18.9321321 12.0399908,20.5218345 C11.8508503,20.6823733 11.6755494,20.8576742 11.5150107,21.0468146 L9.81735985,19.1434159 C11.0979791,17.6570487 12.9580139,16.7934611 14.9204614,16.7740858 L14.9204614,16.7740858 Z" id="Fill-1"></path>
        </g>
    </g>
</svg>