<?xml version="1.0" encoding="UTF-8"?>
<svg width="100px" height="50px" viewBox="0 0 100 50" version="1.1" xmlns="http://www.w3.org/2000/svg" xmlns:xlink="http://www.w3.org/1999/xlink">
    <!-- Generator: Sketch 46.2 (44496) - http://www.bohemiancoding.com/sketch -->
    <title>beta</title>
    <desc>Created with Sketch.</desc>
    <defs>
        <polygon id="path-1" points="18.297 0.664 18.297 14.668 0.5864 14.668 0.5864 0.664 18.297 0.664"></polygon>
    </defs>
    <g id="slice" stroke="none" stroke-width="1" fill="none" fill-rule="evenodd">
        <g id="beta">
            <g id="Page-1" transform="translate(19.500000, 10.500000)">
                <path d="M6.4082,12.4561 C7.8242,12.4081 9.1502,12.2551 10.3862,11.9951 C11.6222,11.7351 12.7982,11.3451 13.9142,10.8241 C15.0302,10.3051 15.9122,9.5841 16.5602,8.6611 C17.2082,7.7391 17.5322,6.6641 17.5322,5.4351 C17.5322,2.3151 15.5042,0.7561 11.4482,0.7561 C11.1362,0.7561 10.9082,0.7681 10.7642,0.7921 C9.3472,3.5261 7.8962,7.4151 6.4082,12.4561 M0.0002,26.1651 C0.0002,26.0981 0.0592,26.0631 0.1792,26.0631 C0.2272,26.0631 0.3712,26.0941 0.6112,26.1531 C0.8502,26.2131 1.2222,26.2731 1.7242,26.3341 C2.2272,26.3941 2.8382,26.4241 3.5562,26.4241 C7.5812,26.4241 10.9702,25.5611 13.7242,23.8361 C16.4782,22.1101 17.8562,20.1131 17.8562,17.8451 C17.8562,14.8041 14.8602,13.2831 8.8672,13.2831 C8.5342,13.2831 8.0702,13.2901 7.4762,13.3021 C6.8822,13.3141 6.4532,13.3191 6.1922,13.3191 L2.9332,24.9781 C2.2262,24.9781 1.6462,24.8071 1.1952,24.4641 C0.7442,24.1211 0.5192,23.7041 0.5192,23.2141 C0.5192,22.9931 0.6862,22.2941 1.0232,21.1171 C1.4352,19.8361 1.9672,18.1821 2.6172,16.1571 C3.2682,14.1321 4.2032,11.5601 5.4232,8.4391 C6.6422,5.3191 7.7412,2.8421 8.7172,1.0081 C7.8142,1.1791 6.9782,1.4301 6.2102,1.7591 C5.4422,2.0901 4.8502,2.3771 4.4352,2.6211 C4.0202,2.8651 3.7642,2.9871 3.6672,2.9871 C3.4742,2.9871 3.2342,2.8631 2.9462,2.6141 C2.6582,2.3661 2.5142,2.1541 2.5142,1.9791 C3.5752,1.5481 4.4232,1.2181 5.0572,0.9891 C5.6912,0.7621 6.5702,0.5401 7.6922,0.3231 C8.8142,0.1071 9.9722,0.0001 11.1682,0.0001 C12.1432,0.0001 13.0582,0.0711 13.9122,0.2161 C14.7652,0.3591 15.6562,0.6111 16.5832,0.9711 C17.5102,1.3301 18.2472,1.9181 18.7972,2.7321 C19.3462,3.5491 19.6202,4.5441 19.6202,5.7181 C19.6202,9.4351 16.8712,11.7441 11.3762,12.6431 C16.8482,12.9831 19.5842,14.9341 19.5842,18.4971 C19.5842,20.1321 19.0322,21.6361 17.9282,23.0101 C16.8242,24.3831 15.4442,25.4781 13.7882,26.2961 C12.1322,27.1121 10.4402,27.7471 8.7122,28.1961 C6.9842,28.6461 5.4122,28.8721 3.9962,28.8721 C1.3322,28.8721 0.0002,27.9701 0.0002,26.1651" id="Fill-1" fill="#FFFFFF"></path>
                <path d="M23.4341,21.4561 C25.1061,20.8561 26.7121,19.9561 28.2531,18.7561 C29.7931,17.5561 30.5641,16.2711 30.5641,14.9031 C30.5641,14.3521 30.3131,14.0751 29.8111,14.0751 C28.6881,14.0751 27.4711,14.8621 26.1571,16.4341 C24.8431,18.0061 23.9361,19.6801 23.4341,21.4561 M20.7721,23.3281 C20.7721,21.1201 21.7801,18.8401 23.7971,16.4871 C25.8131,14.1361 27.8541,12.9601 29.9191,12.9601 C31.4051,12.9601 32.1481,13.6921 32.1481,15.1551 C32.1481,16.9081 31.2151,18.4561 29.3511,19.8001 C27.4861,21.1441 25.4551,21.9241 23.2551,22.1401 C23.1601,22.5481 23.1121,22.9801 23.1121,23.4351 C23.1121,25.4521 24.0551,26.4601 25.9421,26.4601 C27.4061,26.4601 28.8821,25.8481 30.3711,24.6241 C31.8581,23.3991 33.0711,21.8881 34.0061,20.0881 L34.4381,20.4121 C33.4781,22.5371 32.1461,24.2441 30.4421,25.5341 C28.7381,26.8221 26.9871,27.4681 25.1901,27.4681 C23.7661,27.4681 22.6731,27.0811 21.9131,26.3081 C21.1521,25.5351 20.7721,24.5421 20.7721,23.3281" id="Fill-3" fill="#FFFFFF"></path>
                <path d="M33.1196,24.0117 C33.1196,21.9487 33.8146,19.0557 35.2076,15.3357 C34.6316,15.2407 34.1996,15.1437 33.9106,15.0477 L33.9106,14.3997 C34.7756,14.4957 35.3036,14.5437 35.4946,14.5437 C36.5516,11.8077 37.6846,9.4377 38.8966,7.4337 C40.1086,5.4297 41.0626,4.4277 41.7596,4.4277 C41.9516,4.4277 42.1256,4.4997 42.2816,4.6437 C42.4366,4.7877 42.5156,4.9807 42.5156,5.2197 C42.5156,5.5797 42.2816,6.2037 41.8126,7.0917 C41.3456,7.9797 40.6836,9.1677 39.8326,10.6557 C38.9806,12.1447 38.2786,13.4757 37.7266,14.6517 L39.0586,14.6517 C41.0516,14.6517 42.7666,14.5797 44.2076,14.4357 L44.2076,15.0837 C41.6626,15.3717 39.6106,15.5157 38.0516,15.5157 L37.8716,15.5157 L37.3306,15.5157 C36.0116,18.5157 35.3506,21.1197 35.3506,23.3277 C35.3506,24.4077 35.5066,25.1637 35.8186,25.5957 C36.1316,26.0277 36.6466,26.2437 37.3676,26.2437 C38.5916,26.2437 39.8036,25.6987 41.0036,24.6057 C42.2036,23.5137 43.2706,22.0077 44.2076,20.0877 L44.6756,20.4477 C43.7876,22.5357 42.5876,24.2457 41.0746,25.5777 C39.5626,26.9097 37.9786,27.5747 36.3226,27.5747 C34.1866,27.5747 33.1196,26.3877 33.1196,24.0117" id="Fill-5" fill="#FFFFFF"></path>
                <g id="Group-9" transform="translate(42.000000, 12.872100)">
                    <mask id="mask-2" fill="white">
                        <use xlink:href="#path-1"></use>
                    </mask>
                    <g id="Clip-8"></g>
                    <path d="M0.5864,11.752 C0.5864,10.331 1.0834,8.754 2.0764,7.021 C3.0684,5.287 4.3554,3.794 5.9344,2.542 C7.5144,1.29 9.0454,0.664 10.5294,0.664 C11.4734,0.664 12.2604,0.919 12.8914,1.43 C13.5204,1.94 13.8344,2.598 13.8344,3.399 C13.8344,4.432 13.2464,4.947 12.0704,4.947 C12.1904,4.516 12.2504,4.096 12.2504,3.688 C12.2504,2.344 11.6524,1.672 10.4584,1.672 C9.4064,1.672 8.2884,2.278 7.1054,3.489 C5.9224,4.702 4.9534,6.106 4.2004,7.701 C3.4474,9.298 3.0704,10.684 3.0704,11.859 C3.0704,12.796 3.3954,13.264 4.0434,13.264 C4.4734,13.264 4.9764,13.06 5.5514,12.651 C6.1254,12.244 6.6524,11.788 7.1314,11.283 C7.6094,10.779 8.1794,10.102 8.8364,9.25 C9.4944,8.398 9.9804,7.744 10.2914,7.288 L11.5844,5.416 C12.5574,5.584 13.0434,5.884 13.0434,6.315 C13.0434,6.508 12.6884,7.228 11.9814,8.476 C11.2734,9.724 10.9184,10.672 10.9184,11.319 C10.9184,11.728 11.0244,12.094 11.2324,12.418 C11.4424,12.741 11.7564,12.903 12.1764,12.903 C12.8724,12.903 13.7484,12.406 14.8054,11.409 C15.8594,10.414 16.9044,9.016 17.9364,7.216 L18.2974,7.575 C17.5534,9.483 16.5024,11.045 15.1474,12.262 C13.7904,13.478 12.4554,14.085 11.1414,14.085 C10.3114,14.085 9.6764,13.844 9.2364,13.359 C8.7984,12.876 8.5784,12.292 8.5784,11.607 C8.5784,11.319 8.6144,10.972 8.6874,10.564 C7.6074,11.979 6.6414,13.017 5.7894,13.677 C4.9364,14.338 4.0904,14.668 3.2504,14.668 C2.4594,14.668 1.8164,14.421 1.3244,13.93 C0.8334,13.438 0.5864,12.712 0.5864,11.752" id="Fill-7" fill="#FFFFFF" mask="url(#mask-2)"></path>
                </g>
            </g>
        </g>
    </g>
</svg>