<?xml version="1.0" encoding="UTF-8"?>
<svg width="241px" height="26px" viewBox="0 0 241 26" version="1.1" xmlns="http://www.w3.org/2000/svg" xmlns:xlink="http://www.w3.org/1999/xlink">
    <!-- Generator: Sketch 45.2 (43514) - http://www.bohemiancoding.com/sketch -->
    <title>logo_text_en_ch</title>
    <desc>Created with Sketch.</desc>
    <defs>
        <polygon id="path-1" points="0 25.5485 240.262 25.5485 240.262 0.0005 0 0.0005"></polygon>
    </defs>
    <g id="slice" stroke="none" stroke-width="1" fill="none" fill-rule="evenodd">
        <g id="logo_text_en_ch">
            <g id="Page-1">
                <path d="M218.6499,2.8885 L222.9669,2.8885 C224.1119,2.8885 225.0479,3.6955 225.0479,4.6815 L225.0479,19.9325 C225.0479,20.9175 224.1119,21.7245 222.9669,21.7245 L218.6499,21.7245 C217.5039,21.7245 216.5679,20.9175 216.5679,19.9325 L216.5679,4.6815 C216.5679,3.6965 217.5049,2.8885 218.6499,2.8885 Z M219.6729,20.0455 C219.6729,20.3255 219.9249,20.5545 220.2329,20.5545 L221.3829,20.5545 C221.6909,20.5545 221.9429,20.3255 221.9429,20.0455 L221.9429,4.6755 C221.9429,4.3965 221.6919,4.1665 221.3829,4.1665 L220.2329,4.1665 C219.9249,4.1665 219.6729,4.3955 219.6729,4.6755 L219.6729,20.0455 Z" id="Fill-1" fill="#FFFFFF"></path>
                <path d="M239.6919,12.2312 L239.6919,8.5852 L239.6919,3.9122 C239.6919,2.9252 238.7359,2.1192 237.5689,2.1192 L228.4899,2.1192 C227.3229,2.1192 226.3679,2.9262 226.3679,3.9122 L226.3679,23.1662 C226.3679,24.1512 227.3229,24.9592 228.4899,24.9592 L237.2389,24.9592 C237.2389,24.9592 240.2539,24.9052 240.2609,20.2442 C240.2659,19.4932 239.6629,18.8732 238.9049,18.8732 C238.1549,18.8732 237.5469,19.4782 237.5469,20.2252 C237.5469,23.7952 235.7429,23.7892 235.7429,23.7892 L230.1039,23.7892 C229.7919,23.7892 229.5339,23.5592 229.5339,23.2802 L229.5339,14.0232 L234.4319,14.0232 L234.4319,14.0242 L237.5689,14.0242 L237.5779,14.0232 L238.0049,14.0232 C238.1749,14.0232 238.3299,13.9622 238.4439,13.8632 C239.1779,13.5812 239.6919,12.9542 239.6919,12.2312 L239.6919,12.2312 Z M229.5339,12.8532 L229.5339,3.9052 C229.5339,3.6262 229.7909,3.3972 230.1039,3.3972 L235.9559,3.3972 C236.2689,3.3972 236.5249,3.6262 236.5249,3.9052 L236.5249,8.5852 L236.5249,12.3452 C236.5249,12.6242 236.2679,12.8532 235.9559,12.8532 L234.4319,12.8532 L229.5339,12.8532 Z" id="Fill-3" fill="#FFFFFF"></path>
                <path d="M163.9439,3.7869 C164.7089,3.7869 165.3329,3.1649 165.3329,2.4029 C165.3329,1.6409 164.7089,1.0179 163.9439,1.0179 C163.1789,1.0179 162.5549,1.6409 162.5549,2.4029 C162.5549,3.1649 163.1789,3.7869 163.9439,3.7869" id="Fill-5" fill="#FFFFFF"></path>
                <mask id="mask-2" fill="white">
                    <use xlink:href="#path-1"></use>
                </mask>
                <g id="Clip-8"></g>
                <polygon id="Fill-7" fill="#FFFFFF" mask="url(#mask-2)" points="158.989 6.0685 159.533 6.0685 159.533 5.0215 158.989 5.0215"></polygon>
                <path d="M156.023,23.7996 C156.017,23.8106 156.01,23.8206 156.003,23.8306 C155.95,23.9176 155.919,24.0216 155.919,24.1316 C155.919,24.4486 156.177,24.7076 156.497,24.7076 C156.692,24.7076 156.865,24.6116 156.969,24.4626 C159.184,21.9836 159.979,17.1146 160.248,14.6256 L170.139,14.6256 C170.492,14.6256 170.777,14.3416 170.777,13.9896 C170.777,13.6396 170.492,13.3556 170.139,13.3556 L160.361,13.3556 C160.373,13.1786 160.377,13.0806 160.377,13.0806 L160.377,6.4046 C160.377,6.2886 160.363,6.1766 160.335,6.0686 L162.56,6.0686 C162.561,6.8266 162.563,7.5856 162.564,8.3446 L161.165,8.4776 C160.815,8.5106 160.558,8.8196 160.591,9.1676 C160.625,9.5156 160.935,9.7716 161.285,9.7386 L162.566,9.6166 L162.566,10.8156 C162.566,11.5996 163.18,12.2406 163.954,12.2886 C163.985,12.2906 164.016,12.2916 164.047,12.2916 L165.333,12.2916 L168.503,12.2916 C168.637,12.2916 168.766,12.2736 168.89,12.2396 C169.312,12.1266 169.66,11.8316 169.842,11.4446 C169.854,11.4196 169.866,11.3956 169.876,11.3696 C169.92,11.2566 169.945,11.1326 169.945,11.0026 C169.945,10.4456 169.492,9.9936 168.932,9.9936 C168.605,9.9936 168.314,10.1496 168.129,10.3896 C168.091,10.4666 168.049,10.5356 168.005,10.5986 C167.63,11.1316 167.07,11.1876 167.07,11.1876 L165.333,11.1876 L165.333,9.3556 L167.793,9.1226 C168.142,9.0896 168.399,8.7796 168.366,8.4326 C168.333,8.0836 168.023,7.8276 167.673,7.8616 L165.333,8.0826 L165.333,6.0686 L168.174,6.0686 L168.304,6.0686 C168.304,6.5656 168.294,7.0616 168.294,7.5586 C168.294,7.5586 168.294,7.2006 168.294,7.5586 C168.294,8.3226 168.915,8.9436 169.682,8.9436 C170.449,8.9436 171.07,8.3226 171.07,7.5586 L171.07,6.4046 C171.07,5.6416 170.448,5.0216 169.681,5.0216 L169.558,5.0216 L165.333,5.0216 L165.333,3.9216 L169.163,3.9216 C169.514,3.9216 169.8,3.6376 169.8,3.2866 C169.8,2.9356 169.514,2.6516 169.163,2.6516 L165.333,2.6516 L165.333,2.4036 C165.333,1.6386 164.711,1.0196 163.944,1.0196 C163.177,1.0196 162.555,1.6386 162.555,2.4036 C162.555,3.2756 162.556,4.1486 162.558,5.0216 L158.989,5.0216 C158.222,5.0216 157.6,5.6416 157.6,6.4046 L157.601,6.4486 L157.601,6.4516 L157.601,6.4526 L157.601,6.4556 L157.601,6.4586 C157.614,7.4056 157.759,21.1076 156.023,23.7996" id="Fill-9" fill="#FFFFFF" mask="url(#mask-2)"></path>
                <path d="M162.233,20.324 C162.163,20.287 162.084,20.266 161.999,20.266 C161.72,20.266 161.494,20.492 161.494,20.77 C161.494,20.836 161.506,20.899 161.53,20.957 C161.53,20.957 161.552,20.988 161.598,21.077 C161.695,21.263 161.893,21.7 162.196,22.623 C162.248,22.782 162.305,22.915 162.367,23.022 L160.384,23.223 C159.894,23.273 159.512,23.686 159.512,24.187 C159.512,24.722 159.947,25.156 160.484,25.156 C160.544,25.156 160.602,25.151 160.659,25.14 L160.673,25.137 L169.814,23.409 L169.815,23.409 L169.822,23.408 C170.087,23.357 170.288,23.125 170.288,22.847 C170.288,22.532 170.031,22.276 169.714,22.276 L167.692,22.481 C168.144,22.13 168.562,21.717 168.766,21.445 C169.161,20.92 168.749,20.496 168.399,20.143 C168.338,20.082 168.279,20.023 168.226,19.966 C167.872,19.581 167.174,19.581 167.008,19.889 C167.008,19.889 166.961,19.988 166.887,20.151 C166.641,20.695 166.101,21.954 166.044,22.648 L163.711,22.886 C163.86,22.713 164.009,22.506 164.155,22.276 C164.856,21.168 162.233,20.324 162.233,20.324" id="Fill-10" fill="#FFFFFF" mask="url(#mask-2)"></path>
                <path d="M163.7886,16.9471 L166.8656,16.9471 C167.1316,16.9471 167.3486,17.1761 167.3486,17.4551 L167.3486,18.4721 C167.3486,18.7521 167.1316,18.9801 166.8656,18.9801 L163.7886,18.9801 C163.5226,18.9801 163.3056,18.7521 163.3056,18.4721 L163.3056,17.4551 C163.3056,17.1761 163.5226,16.9471 163.7886,16.9471 L163.7886,16.9471 Z M160.6226,18.3581 C160.6226,19.3441 161.4316,20.1511 162.4206,20.1511 L168.2326,20.1511 C169.2226,20.1511 170.0316,19.3441 170.0316,18.3581 L170.0316,17.4621 C170.0316,16.4761 169.2226,15.6701 168.2326,15.6701 L162.4206,15.6701 C161.4316,15.6701 160.6226,16.4761 160.6226,17.4621 L160.6226,18.3581 Z" id="Fill-11" fill="#FFFFFF" mask="url(#mask-2)"></path>
                <path d="M176.3179,20.0086 C178.5809,17.0306 179.5809,14.1776 179.8869,13.1656 C179.8789,13.1856 180.0099,12.7846 180.0099,12.5716 C180.0099,11.7466 179.3399,11.0796 178.5139,11.0796 C177.6879,11.0796 177.1489,11.7466 177.0179,12.5716 C177.0179,12.5716 176.6369,14.2176 175.5889,16.4436 L175.5699,16.3056 C175.3279,14.4416 175.1769,12.3166 175.0849,10.2836 L179.6439,9.8526 C179.9929,9.8196 180.2499,9.5106 180.2159,9.1616 C180.1829,8.8136 179.8739,8.5586 179.5239,8.5906 L175.0329,9.0166 C174.9509,6.6746 174.9529,4.3446 174.9529,2.0026 C174.9529,1.9936 174.9529,2.0116 174.9529,2.0026 C174.9529,1.4306 174.3099,0.9656 173.5179,0.9656 C172.7259,0.9656 172.0839,1.4306 172.0839,2.0026 L172.0839,7.7836 C172.0839,7.7836 172.0799,8.3586 172.0989,9.2936 L170.6339,9.4326 C170.2859,9.4646 170.0289,9.7746 170.0619,10.1226 C170.0949,10.4706 170.4049,10.7266 170.7549,10.6946 L172.1349,10.5636 C172.2319,13.2266 172.5019,17.2806 173.2559,20.3316 C172.2759,21.7096 171.0709,23.0736 169.6029,24.2536 C169.3709,24.3626 169.2099,24.5976 169.2099,24.8686 C169.2099,25.2436 169.5139,25.5486 169.8889,25.5486 C170.0079,25.5486 170.1209,25.5186 170.2169,25.4646 C170.2299,25.4576 170.2419,25.4496 170.2549,25.4436 L170.2559,25.4426 C171.7009,24.5886 172.9449,23.6186 174.0119,22.6076 C174.2849,23.2036 174.5959,23.6876 174.9519,24.0166 C177.9129,26.7576 180.4729,24.6026 180.8129,20.8746 C181.1219,18.9956 178.9309,18.1796 178.5299,20.5356 C178.1289,22.8926 176.9259,21.3056 176.9259,21.3056 C176.7019,21.0026 176.5029,20.5686 176.3269,20.0326 L176.3179,20.0086 Z" id="Fill-12" fill="#FFFFFF" mask="url(#mask-2)"></path>
                <path d="M200.0708,23.9891 C200.0708,24.7541 199.3218,25.3731 198.3968,25.3731 C197.4738,25.3731 196.7238,24.7541 196.7238,23.9891 L196.7238,19.0051 C193.8528,22.7211 188.9678,24.2551 187.6888,24.6041 C187.4868,24.6591 187.3748,24.6841 187.3748,24.6841 C187.0168,24.6841 186.7268,24.3951 186.7268,24.0391 C186.7268,23.6821 187.0168,23.3931 187.3758,23.3931 C187.3758,23.3931 192.1538,21.0421 194.0998,17.6561 L186.9978,17.6561 L186.9818,17.6561 L186.9658,17.6561 L186.9488,17.6551 L186.9328,17.6531 L186.9168,17.6511 L186.9008,17.6491 L186.8848,17.6471 L186.8698,17.6431 L186.8538,17.6401 L186.8398,17.6361 L186.8388,17.6361 L186.8238,17.6331 L186.8088,17.6281 L186.7948,17.6241 L186.7938,17.6241 L186.7788,17.6181 L186.7638,17.6131 L186.7508,17.6061 L186.7498,17.6061 L186.7358,17.6001 L186.7218,17.5931 L186.7088,17.5881 L186.7078,17.5881 L186.6938,17.5801 L186.6808,17.5731 L186.6678,17.5641 L186.6548,17.5561 L186.6408,17.5481 L186.6298,17.5401 L186.6168,17.5301 L186.6048,17.5211 L186.5918,17.5111 L186.5818,17.5021 L186.5698,17.4921 L186.5578,17.4811 L186.5478,17.4701 L186.5368,17.4601 L186.5258,17.4481 L186.5158,17.4371 L186.5068,17.4261 L186.4968,17.4141 L186.4868,17.4011 L186.4778,17.3891 L186.4688,17.3771 L186.4618,17.3641 L186.4608,17.3641 L186.4528,17.3501 L186.4448,17.3381 L186.4378,17.3241 L186.4368,17.3241 L186.4298,17.3101 L186.4238,17.2971 L186.4168,17.2831 L186.4108,17.2681 L186.4048,17.2541 L186.3988,17.2401 L186.3938,17.2241 L186.3888,17.2101 L186.3848,17.1951 L186.3838,17.1951 L186.3808,17.1791 L186.3778,17.1651 L186.3768,17.1651 L186.3738,17.1491 L186.3708,17.1341 L186.3678,17.1181 L186.3658,17.1021 L186.3638,17.0861 L186.3628,17.0701 L186.3618,17.0701 L186.3618,17.0531 L186.3608,17.0531 L186.3608,17.0371 L186.3608,17.0211 L186.3608,17.0051 L186.3608,16.9881 L186.3618,16.9881 L186.3618,16.9721 L186.3628,16.9721 L186.3638,16.9561 L186.3658,16.9401 L186.3678,16.9241 L186.3708,16.9091 L186.3738,16.8921 L186.3768,16.8781 L186.3778,16.8781 L186.3808,16.8621 L186.3838,16.8471 L186.3848,16.8471 L186.3888,16.8321 L186.3938,16.8171 L186.3988,16.8021 L186.4048,16.7881 L186.4108,16.7731 L186.4168,16.7601 L186.4238,16.7461 L186.4298,16.7321 L186.4368,16.7181 L186.4378,16.7181 L186.4448,16.7051 L186.4528,16.6911 L186.4608,16.6781 L186.4618,16.6781 L186.4688,16.6661 L186.4778,16.6531 L186.4868,16.6401 L186.4968,16.6291 L186.5068,16.6171 L186.5158,16.6051 L186.5258,16.5931 L186.5368,16.5831 L186.5478,16.5711 L186.5578,16.5611 L186.5698,16.5511 L186.5818,16.5411 L186.5918,16.5311 L186.6048,16.5211 L186.6168,16.5111 L186.6298,16.5031 L186.6408,16.4941 L186.6548,16.4851 L186.6678,16.4771 L186.6808,16.4691 L186.6938,16.4621 L186.7078,16.4551 L186.7088,16.4551 L186.7218,16.4481 L186.7358,16.4411 L186.7498,16.4351 L186.7508,16.4351 L186.7638,16.4291 L186.7788,16.4241 L186.7938,16.4191 L186.7948,16.4191 L186.8088,16.4141 L186.8238,16.4091 L186.8388,16.4051 L186.8398,16.4051 L186.8538,16.4011 L186.8698,16.3981 L186.8848,16.3951 L186.9008,16.3921 L186.9168,16.3901 L186.9328,16.3881 L186.9488,16.3871 L186.9658,16.3861 L186.9818,16.3851 L186.9978,16.3851 L196.7238,16.3851 L196.7238,15.3431 C196.7238,14.5801 197.4738,13.9601 198.3968,13.9601 C199.3218,13.9601 200.0708,14.5801 200.0708,15.3431 L200.0708,16.3851 L209.7958,16.3851 L209.8108,16.3851 L209.8118,16.3851 L209.8278,16.3861 L209.8438,16.3871 L209.8598,16.3881 L209.8768,16.3901 L209.8918,16.3921 L209.9078,16.3951 L209.9238,16.3981 L209.9388,16.4011 L209.9548,16.4051 L209.9688,16.4091 L209.9848,16.4141 L209.9998,16.4191 L210.0138,16.4241 L210.0288,16.4291 L210.0438,16.4351 L210.0568,16.4411 L210.0718,16.4481 L210.0858,16.4551 L210.0988,16.4621 L210.1128,16.4691 L210.1258,16.4771 L210.1378,16.4851 L210.1518,16.4941 L210.1638,16.5031 L210.1648,16.5031 L210.1758,16.5111 L210.1878,16.5211 L210.1888,16.5211 L210.2008,16.5311 L210.2128,16.5411 L210.2238,16.5511 L210.2348,16.5611 L210.2458,16.5711 L210.2568,16.5831 L210.2578,16.5831 L210.2668,16.5931 L210.2768,16.6051 L210.2868,16.6171 L210.2878,16.6171 L210.2968,16.6291 L210.3058,16.6401 L210.3148,16.6531 L210.3238,16.6661 L210.3328,16.6781 L210.3408,16.6911 L210.3478,16.7051 L210.3558,16.7181 L210.3628,16.7321 L210.3698,16.7461 L210.3768,16.7601 L210.3828,16.7731 L210.3878,16.7881 L210.3938,16.8021 L210.3988,16.8171 L210.4038,16.8321 L210.4078,16.8471 L210.4088,16.8471 L210.4128,16.8621 L210.4168,16.8781 L210.4198,16.8921 L210.4228,16.9091 L210.4248,16.9241 L210.4268,16.9401 L210.4278,16.9401 L210.4288,16.9561 L210.4298,16.9721 L210.4308,16.9721 L210.4318,16.9881 L210.4318,17.0051 L210.4328,17.0051 L210.4328,17.0211 L210.4328,17.0371 L210.4318,17.0371 L210.4318,17.0531 L210.4308,17.0701 L210.4298,17.0701 L210.4288,17.0861 L210.4278,17.1021 L210.4268,17.1021 L210.4248,17.1181 L210.4228,17.1341 L210.4198,17.1491 L210.4168,17.1651 L210.4128,17.1791 L210.4088,17.1951 L210.4078,17.1951 L210.4038,17.2101 L210.3988,17.2241 L210.3938,17.2401 L210.3878,17.2541 L210.3828,17.2681 L210.3768,17.2831 L210.3698,17.2971 L210.3628,17.3101 L210.3558,17.3241 L210.3478,17.3381 L210.3408,17.3501 L210.3328,17.3641 L210.3238,17.3771 L210.3148,17.3891 L210.3058,17.4011 L210.2968,17.4141 L210.2878,17.4261 L210.2868,17.4261 L210.2768,17.4371 L210.2668,17.4481 L210.2578,17.4601 L210.2568,17.4601 L210.2458,17.4701 L210.2348,17.4811 L210.2238,17.4921 L210.2128,17.5021 L210.2008,17.5111 L210.1888,17.5211 L210.1878,17.5211 L210.1758,17.5301 L210.1648,17.5401 L210.1638,17.5401 L210.1518,17.5481 L210.1378,17.5561 L210.1258,17.5641 L210.1128,17.5731 L210.0988,17.5801 L210.0858,17.5881 L210.0718,17.5931 L210.0568,17.6001 L210.0438,17.6061 L210.0288,17.6131 L210.0138,17.6181 L209.9998,17.6241 L209.9848,17.6281 L209.9688,17.6331 L209.9548,17.6361 L209.9388,17.6401 L209.9238,17.6431 L209.9078,17.6471 L209.8918,17.6491 L209.8768,17.6511 L209.8598,17.6531 L209.8438,17.6551 L209.8278,17.6561 L209.8118,17.6561 L209.8108,17.6561 L209.7958,17.6561 L202.6928,17.6561 C204.6388,21.0421 209.4188,23.3931 209.4188,23.3931 C209.7758,23.3931 210.0658,23.6821 210.0658,24.0391 C210.0658,24.3951 209.7758,24.6841 209.4188,24.6841 C209.4188,24.6841 209.3058,24.6591 209.1038,24.6041 C207.8258,24.2551 202.9418,22.7221 200.0708,19.0071 L200.0708,23.9891 Z" id="Fill-13" fill="#FFFFFF" mask="url(#mask-2)"></path>
                <path d="M188.8042,2.1043 C188.6192,3.2443 187.6052,5.2633 187.6052,5.2633 C187.3412,5.1153 187.0912,4.9993 186.8752,4.9373 C186.7852,4.8763 186.6782,4.8423 186.5622,4.8423 C186.2512,4.8423 185.9992,5.0933 185.9992,5.4033 C185.9992,5.5673 186.0702,5.7143 186.1822,5.8173 C188.3532,8.6713 187.5332,7.6413 188.3532,8.6713 C188.4892,8.8493 188.6732,8.9873 188.8862,9.0653 C188.0602,10.3533 187.2682,11.5553 187.1492,11.7363 C187.1392,11.7513 187.1332,11.7593 187.1332,11.7593 C187.0752,11.7503 187.0162,11.7463 186.9552,11.7463 L186.9522,11.7463 C186.3312,11.7463 185.8272,12.2483 185.8272,12.8683 C185.8272,13.4873 186.3312,13.9903 186.9522,13.9903 C186.9522,13.9903 188.4262,14.2003 192.0232,12.7033 C192.0782,12.9533 192.1252,13.1893 192.1542,13.3913 C192.1702,13.5133 192.1822,13.6233 192.1852,13.7163 C192.2382,13.9333 192.3512,14.1343 192.5152,14.2923 C192.6132,14.3843 192.7282,14.4623 192.8582,14.5193 C193.4542,14.7813 194.1512,14.5083 194.4112,13.9153 C194.5442,13.6123 194.5392,13.2843 194.4242,13.0003 C194.1962,12.4193 193.8372,11.8193 193.5232,11.2873 C193.3782,11.0383 192.8712,10.2953 192.8712,10.2953 C192.6902,10.0553 192.5082,9.8483 192.3342,9.7053 C192.2772,9.6143 192.1932,9.5393 192.0862,9.4933 C191.8022,9.3693 191.4692,9.4983 191.3452,9.7823 C191.2792,9.9313 191.2842,10.0953 191.3452,10.2343 C191.3452,10.2343 191.5282,10.8113 191.7232,11.5183 L189.0132,11.6473 C189.8722,11.0583 192.6992,7.6003 193.1382,7.2633 C193.6012,6.9093 194.0482,5.4933 193.0612,4.8153 C192.0742,4.1363 191.1642,5.0303 190.9022,5.7393 C190.8312,5.9293 190.5252,6.4553 190.1162,7.1193 C190.0972,7.1013 190.0772,7.0833 190.0572,7.0673 C190.0572,7.0673 189.3862,6.4763 188.6002,5.9113 C189.5222,5.1573 190.4912,3.9803 191.2562,2.9823 C192.2132,1.7353 191.0562,1.2723 190.4862,1.0423 C189.9142,0.8103 188.9902,0.9643 188.8042,2.1043" id="Fill-14" fill="#FFFFFF" mask="url(#mask-2)"></path>
                <path d="M205.2613,2.1043 C205.0753,3.2443 204.0613,5.2633 204.0613,5.2633 C203.7983,5.1153 203.5483,4.9993 203.3323,4.9373 C203.2423,4.8763 203.1353,4.8423 203.0193,4.8423 C202.7073,4.8423 202.4563,5.0933 202.4563,5.4033 C202.4563,5.5673 202.5273,5.7143 202.6393,5.8173 C204.8103,8.6713 203.9903,7.6413 204.8103,8.6713 C204.9453,8.8493 205.1293,8.9873 205.3433,9.0653 C204.5163,10.3533 203.7253,11.5553 203.6063,11.7363 C203.5953,11.7513 203.5903,11.7593 203.5903,11.7593 C203.5323,11.7503 203.4723,11.7463 203.4113,11.7463 L203.4093,11.7463 C202.7883,11.7463 202.2833,12.2483 202.2833,12.8683 C202.2833,13.4873 202.7883,13.9903 203.4093,13.9903 C203.4093,13.9903 204.8833,14.2003 208.4803,12.7033 C208.5353,12.9533 208.5813,13.1893 208.6113,13.3913 C208.6273,13.5133 208.6383,13.6233 208.6413,13.7163 C208.6943,13.9333 208.8073,14.1343 208.9713,14.2923 C209.0693,14.3843 209.1843,14.4623 209.3153,14.5193 C209.9113,14.7813 210.6073,14.5083 210.8683,13.9153 C211.0013,13.6123 210.9963,13.2843 210.8803,13.0003 C210.6523,12.4193 210.2933,11.8193 209.9793,11.2873 C209.8353,11.0383 209.3283,10.2953 209.3283,10.2953 C209.1473,10.0553 208.9643,9.8483 208.7913,9.7053 C208.7343,9.6143 208.6503,9.5393 208.5433,9.4933 C208.2583,9.3693 207.9263,9.4983 207.8013,9.7823 C207.7353,9.9313 207.7403,10.0953 207.8013,10.2343 C207.8013,10.2343 207.9853,10.8113 208.1803,11.5183 L205.4703,11.6473 C206.3283,11.0583 209.1553,7.6003 209.5953,7.2633 C210.0583,6.9093 210.5053,5.4933 209.5183,4.8153 C208.5313,4.1363 207.6203,5.0303 207.3593,5.7393 C207.2873,5.9293 206.9823,6.4553 206.5733,7.1193 C206.5533,7.1013 206.5343,7.0833 206.5143,7.0673 C206.5143,7.0673 205.8423,6.4763 205.0573,5.9113 C205.9783,5.1573 206.9483,3.9803 207.7133,2.9823 C208.6693,1.7353 207.5133,1.2723 206.9423,1.0423 C206.3713,0.8103 205.4463,0.9643 205.2613,2.1043" id="Fill-15" fill="#FFFFFF" mask="url(#mask-2)"></path>
                <polygon id="Fill-16" fill="#FFFFFF" mask="url(#mask-2)" points="200.0191 2.0037 198.2781 3.0057 196.5381 4.0077 196.5381 2.0037 196.5381 -0.0003 198.2781 1.0017"></polygon>
                <polygon id="Fill-17" fill="#FFFFFF" mask="url(#mask-2)" points="235.104 8.1736 233.363 9.1756 231.623 10.1776 231.623 8.1736 231.623 6.1696 233.363 7.1716"></polygon>
                <polygon id="Fill-18" fill="#FFFFFF" mask="url(#mask-2)" points="180.5435 3.9451 178.8025 4.9471 177.0615 5.9491 177.0615 3.9451 177.0615 1.9411 178.8025 2.9431"></polygon>
                <path d="M196.9878,8.2342 L196.9878,6.4782 C196.9878,6.1992 197.2118,5.9702 197.4848,5.9702 L199.3098,5.9702 C199.5838,5.9702 199.8078,6.2002 199.8078,6.4782 L199.8078,8.2342 L199.8078,8.4542 L196.9878,8.4542 L196.9878,8.2342 Z M202.0698,9.1472 C202.3858,8.8312 202.5698,8.3762 202.5698,7.8562 L202.5698,6.4852 C202.5698,5.4992 201.7348,4.6922 200.7178,4.6922 L196.0768,4.6922 C195.0588,4.6922 194.2258,5.5002 194.2258,6.4852 L194.2258,7.8562 C194.2258,8.3762 194.4078,8.8312 194.7248,9.1472 C194.4078,9.4632 194.2258,9.9192 194.2258,10.4382 L194.2258,11.8092 C194.2258,12.7952 195.0578,13.6022 196.0768,13.6022 L200.7178,13.6022 C201.3798,13.6022 201.9628,13.2622 202.2898,12.7542 C202.3118,12.5322 202.3998,12.3292 202.5328,12.1642 C202.5558,12.0492 202.5698,11.9302 202.5698,11.8092 L202.5698,10.4382 C202.5698,9.9192 202.3858,9.4632 202.0698,9.1472 L202.0698,9.1472 Z M196.9878,9.7322 L199.8078,9.7322 L199.8078,11.9232 C199.8078,12.2022 199.5828,12.4312 199.3098,12.4312 L197.4848,12.4312 C197.2128,12.4312 196.9878,12.2032 196.9878,11.9232 L196.9878,9.7322 Z" id="Fill-19" fill="#FFFFFF" mask="url(#mask-2)"></path>
                <path d="M15.6509,7.8826 L4.8089,7.9036 C1.6029,7.9036 -0.0001,9.5066 -0.0001,12.7156 L-0.0001,15.1006 C-0.0001,18.3216 1.6029,19.9326 4.8089,19.9326 L15.6509,19.9326 C16.4379,19.9326 16.8369,19.5316 16.8429,18.7296 C16.8489,17.9276 16.4589,17.5276 15.6709,17.5276 L4.8289,17.5276 C3.2119,17.5276 2.4039,16.7176 2.4039,15.1006 L2.4039,12.7156 C2.4039,11.1116 3.2059,10.2956 4.8089,10.2686 L15.6509,10.2686 C16.4259,10.2686 16.8139,9.8706 16.8139,9.0756 C16.8139,8.2806 16.4259,7.8826 15.6509,7.8826" id="Fill-20" fill="#FFFFFF" mask="url(#mask-2)"></path>
                <path d="M20.5303,9.0652 L20.5303,18.7292 C20.5303,19.5322 20.9313,19.9322 21.7333,19.9322 C22.5353,19.9322 22.9353,19.5242 22.9353,18.7092 L22.9553,9.0662 C22.9423,8.2632 22.5353,7.8632 21.7333,7.8632 C20.9313,7.8632 20.5303,8.2632 20.5303,9.0652" id="Fill-21" fill="#FFFFFF" mask="url(#mask-2)"></path>
                <path d="M26.6416,9.0867 L26.6416,18.7297 C26.6416,19.5317 27.0396,19.9327 27.8346,19.9327 C28.6296,19.9327 29.0336,19.5387 29.0466,18.7487 L29.0466,11.4507 L41.0706,19.3907 C41.4446,19.7517 41.9456,19.9287 42.5746,19.9217 C43.2016,19.9147 43.5166,19.5107 43.5166,18.7087 L43.5166,9.0657 C43.5296,8.2767 43.1356,7.8827 42.3326,7.8827 C41.5326,7.8827 41.1236,8.2707 41.1116,9.0457 L41.0916,16.3037 L29.0466,8.4847 C28.6196,8.0827 28.1116,7.8827 27.5236,7.8827 C26.9356,7.8827 26.6416,8.2847 26.6416,9.0867" id="Fill-22" fill="#FFFFFF" mask="url(#mask-2)"></path>
                <path d="M62.8951,17.5271 L49.6081,17.5271 L49.6081,15.8991 L49.6081,15.1211 L49.6081,12.6941 L49.6081,11.8051 L49.6081,10.2891 L62.8951,10.2891 C63.6961,10.2891 64.0981,9.8851 64.0971,9.0761 C64.0971,8.2671 63.6961,7.8631 62.8951,7.8631 L48.4061,7.8631 C47.6041,7.8631 47.2041,8.2631 47.2041,9.0651 L47.2031,18.7291 C47.2031,19.5311 47.6041,19.9311 48.4061,19.9311 L62.8951,19.9311 C63.6961,19.9311 64.0981,19.5311 64.0971,18.7291 C64.0971,17.9271 63.6961,17.5271 62.8951,17.5271" id="Fill-23" fill="#FFFFFF" mask="url(#mask-2)"></path>
                <path d="M70.1895,11.2918 L75.0185,14.5598 C75.4595,14.9468 75.8505,15.1378 76.1905,15.1308 C76.5305,15.1238 76.9355,14.9278 77.4025,14.5388 L82.2325,11.2708 L82.2525,18.7288 C82.2525,19.5048 82.6505,19.8918 83.4455,19.8918 C84.2395,19.8918 84.6375,19.5048 84.6375,18.7288 L84.6375,9.0468 C84.6245,8.6318 84.4205,8.2968 84.0265,8.0438 C83.6315,7.7898 83.1685,7.8108 82.6335,8.1038 L76.2015,12.4348 L69.7075,8.1038 C69.2265,7.8508 68.7865,7.8738 68.3845,8.1738 C67.9845,8.4748 67.7845,8.7718 67.7845,9.0648 L67.7845,18.7088 C67.7705,19.5108 68.1655,19.9118 68.9655,19.9118 C69.7675,19.9118 70.1755,19.5108 70.1895,18.7088 L70.1895,11.2918 Z" id="Fill-24" fill="#FFFFFF" mask="url(#mask-2)"></path>
                <path d="M92.4732,10.2889 L100.9502,10.2889 L101.5712,12.6939 L91.9112,12.6939 L92.4732,10.2889 Z M91.9312,7.8629 C91.1302,7.8629 90.6222,8.2639 90.4082,9.0649 L88.3252,18.7289 C88.3252,19.5319 88.6782,19.9329 89.3862,19.9329 C90.0942,19.9329 90.5412,19.5389 90.7282,18.7489 L91.4902,15.1209 L101.8712,15.1209 L102.8122,18.6889 C103.0262,19.5049 103.4842,19.9119 104.1852,19.9119 C104.8872,19.9119 105.2372,19.5109 105.2372,18.7089 L103.0142,9.0869 C102.8662,8.2699 102.3922,7.8629 101.5902,7.8629 L91.9312,7.8629 Z" id="Fill-25" fill="#FFFFFF" mask="url(#mask-2)"></path>
                <path d="M113.0386,7.6551 C112.2646,7.6551 111.8766,8.0491 111.8766,8.8381 C111.8766,9.6261 112.2646,10.0261 113.0386,10.0411 L125.0226,10.0201 C125.8506,10.0601 126.2616,10.4741 126.2556,11.2631 C126.2486,12.0521 125.8376,12.4461 125.0236,12.4461 L115.4436,12.4461 C113.0386,12.4461 111.8296,13.6481 111.8166,16.0541 L111.8166,18.4601 C111.8166,19.2611 112.2306,19.6641 113.0586,19.6641 L127.4476,19.6641 C128.2486,19.6641 128.6506,19.2691 128.6506,18.4811 C128.6506,17.6931 128.2486,17.2911 127.4476,17.2781 L114.2606,17.2781 L114.2606,16.0751 C114.2476,15.2591 114.6486,14.8521 115.4636,14.8521 L125.0236,14.8521 C127.4406,14.8521 128.6506,13.6551 128.6506,11.2631 C128.6506,8.8711 127.4406,7.6751 125.0236,7.6751 L113.0386,7.6551 Z" id="Fill-26" fill="#FFFFFF" mask="url(#mask-2)"></path>
                <polygon id="Fill-27" fill="#FFFFFF" mask="url(#mask-2)" points="59.9898 13.9695 54.1468 16.1885 54.1468 11.7505"></polygon>
                <path d="M135.9253,14.8914 L145.5433,14.8914 C146.3453,14.8784 146.7493,15.2664 146.7563,16.0544 C146.7623,16.8434 146.3653,17.2314 145.5633,17.2174 L135.9453,17.2374 C135.1423,17.2514 134.7423,16.8644 134.7423,16.0754 C134.7423,15.2864 135.1353,14.8914 135.9253,14.8914 L135.9253,14.8914 Z M135.9453,10.0794 L145.5843,10.0794 C146.3583,10.0934 146.7493,10.4954 146.7563,11.2844 C146.7623,12.0724 146.3723,12.4664 145.5843,12.4664 L135.9453,12.4664 C135.1423,12.4664 134.7423,12.0684 134.7423,11.2734 C134.7423,10.4784 135.1423,10.0794 135.9453,10.0794 L135.9453,10.0794 Z M135.9253,7.6554 C133.5323,7.6554 132.3373,8.8504 132.3373,11.2434 C132.3773,12.8334 132.7783,13.6484 133.5393,13.6894 C132.7513,13.7034 132.3503,14.5044 132.3373,16.0954 C132.3373,18.4884 133.5323,19.6834 135.9253,19.6834 L145.5843,19.6634 C147.9753,19.6634 149.1573,18.4814 149.1303,16.1154 C149.1173,14.4974 148.7373,13.6684 147.9883,13.6284 C148.7493,13.6284 149.1373,12.8404 149.1513,11.2634 C149.1643,8.8574 147.9613,7.6554 145.5433,7.6554 L135.9253,7.6554 Z" id="Fill-28" fill="#FFFFFF" mask="url(#mask-2)"></path>
            </g>
        </g>
    </g>
</svg>