<?xml version="1.0" encoding="UTF-8"?>
<svg width="150px" height="26px" viewBox="0 0 150 26" version="1.1" xmlns="http://www.w3.org/2000/svg" xmlns:xlink="http://www.w3.org/1999/xlink">
    <!-- Generator: Sketch 46.2 (44496) - http://www.bohemiancoding.com/sketch -->
    <title>logo_text_en</title>
    <desc>Created with Sketch.</desc>
    <defs></defs>
    <g id="slice" stroke="none" stroke-width="1" fill="none" fill-rule="evenodd">
        <g id="logo_text_en" fill="#FFFFFF">
            <g id="Page-1" transform="translate(0.000000, 7.000000)">
                <path d="M15.6509,0.8826 L4.8089,0.9036 C1.6029,0.9036 -0.0001,2.5066 -0.0001,5.7156 L-0.0001,8.1006 C-0.0001,11.3216 1.6029,12.9326 4.8089,12.9326 L15.6509,12.9326 C16.4379,12.9326 16.8369,12.5316 16.8429,11.7296 C16.8489,10.9276 16.4589,10.5276 15.6709,10.5276 L4.8289,10.5276 C3.2119,10.5276 2.4039,9.7176 2.4039,8.1006 L2.4039,5.7156 C2.4039,4.1116 3.2059,3.2956 4.8089,3.2686 L15.6509,3.2686 C16.4259,3.2686 16.8139,2.8706 16.8139,2.0756 C16.8139,1.2806 16.4259,0.8826 15.6509,0.8826" id="Fill-20"></path>
                <path d="M20.5303,2.0652 L20.5303,11.7292 C20.5303,12.5322 20.9313,12.9322 21.7333,12.9322 C22.5353,12.9322 22.9353,12.5242 22.9353,11.7092 L22.9553,2.0662 C22.9423,1.2632 22.5353,0.8632 21.7333,0.8632 C20.9313,0.8632 20.5303,1.2632 20.5303,2.0652" id="Fill-21"></path>
                <path d="M26.6416,2.0867 L26.6416,11.7297 C26.6416,12.5317 27.0396,12.9327 27.8346,12.9327 C28.6296,12.9327 29.0336,12.5387 29.0466,11.7487 L29.0466,4.4507 L41.0706,12.3907 C41.4446,12.7517 41.9456,12.9287 42.5746,12.9217 C43.2016,12.9147 43.5166,12.5107 43.5166,11.7087 L43.5166,2.0657 C43.5296,1.2767 43.1356,0.8827 42.3326,0.8827 C41.5326,0.8827 41.1236,1.2707 41.1116,2.0457 L41.0916,9.3037 L29.0466,1.4847 C28.6196,1.0827 28.1116,0.8827 27.5236,0.8827 C26.9356,0.8827 26.6416,1.2847 26.6416,2.0867" id="Fill-22"></path>
                <path d="M62.8951,10.5271 L49.6081,10.5271 L49.6081,8.8991 L49.6081,8.1211 L49.6081,5.6941 L49.6081,4.8051 L49.6081,3.2891 L62.8951,3.2891 C63.6961,3.2891 64.0981,2.8851 64.0971,2.0761 C64.0971,1.2671 63.6961,0.8631 62.8951,0.8631 L48.4061,0.8631 C47.6041,0.8631 47.2041,1.2631 47.2041,2.0651 L47.2031,11.7291 C47.2031,12.5311 47.6041,12.9311 48.4061,12.9311 L62.8951,12.9311 C63.6961,12.9311 64.0981,12.5311 64.0971,11.7291 C64.0971,10.9271 63.6961,10.5271 62.8951,10.5271" id="Fill-23"></path>
                <path d="M70.1895,4.2918 L75.0185,7.5598 C75.4595,7.9468 75.8505,8.1378 76.1905,8.1308 C76.5305,8.1238 76.9355,7.9278 77.4025,7.5388 L82.2325,4.2708 L82.2525,11.7288 C82.2525,12.5048 82.6505,12.8918 83.4455,12.8918 C84.2395,12.8918 84.6375,12.5048 84.6375,11.7288 L84.6375,2.0468 C84.6245,1.6318 84.4205,1.2968 84.0265,1.0438 C83.6315,0.7898 83.1685,0.8108 82.6335,1.1038 L76.2015,5.4348 L69.7075,1.1038 C69.2265,0.8508 68.7865,0.8738 68.3845,1.1738 C67.9845,1.4748 67.7845,1.7718 67.7845,2.0648 L67.7845,11.7088 C67.7705,12.5108 68.1655,12.9118 68.9655,12.9118 C69.7675,12.9118 70.1755,12.5108 70.1895,11.7088 L70.1895,4.2918 Z" id="Fill-24"></path>
                <path d="M92.4732,3.2889 L100.9502,3.2889 L101.5712,5.6939 L91.9112,5.6939 L92.4732,3.2889 Z M91.9312,0.8629 C91.1302,0.8629 90.6222,1.2639 90.4082,2.0649 L88.3252,11.7289 C88.3252,12.5319 88.6782,12.9329 89.3862,12.9329 C90.0942,12.9329 90.5412,12.5389 90.7282,11.7489 L91.4902,8.1209 L101.8712,8.1209 L102.8122,11.6889 C103.0262,12.5049 103.4842,12.9119 104.1852,12.9119 C104.8872,12.9119 105.2372,12.5109 105.2372,11.7089 L103.0142,2.0869 C102.8662,1.2699 102.3922,0.8629 101.5902,0.8629 L91.9312,0.8629 Z" id="Fill-25"></path>
                <path d="M113.0386,0.6551 C112.2646,0.6551 111.8766,1.0491 111.8766,1.8381 C111.8766,2.6261 112.2646,3.0261 113.0386,3.0411 L125.0226,3.0201 C125.8506,3.0601 126.2616,3.4741 126.2556,4.2631 C126.2486,5.0521 125.8376,5.4461 125.0236,5.4461 L115.4436,5.4461 C113.0386,5.4461 111.8296,6.6481 111.8166,9.0541 L111.8166,11.4601 C111.8166,12.2611 112.2306,12.6641 113.0586,12.6641 L127.4476,12.6641 C128.2486,12.6641 128.6506,12.2691 128.6506,11.4811 C128.6506,10.6931 128.2486,10.2911 127.4476,10.2781 L114.2606,10.2781 L114.2606,9.0751 C114.2476,8.2591 114.6486,7.8521 115.4636,7.8521 L125.0236,7.8521 C127.4406,7.8521 128.6506,6.6551 128.6506,4.2631 C128.6506,1.8711 127.4406,0.6751 125.0236,0.6751 L113.0386,0.6551 Z" id="Fill-26"></path>
                <polygon id="Fill-27" points="59.9898 6.9695 54.1468 9.1885 54.1468 4.7505"></polygon>
                <path d="M135.9253,7.8914 L145.5433,7.8914 C146.3453,7.8784 146.7493,8.2664 146.7563,9.0544 C146.7623,9.8434 146.3653,10.2314 145.5633,10.2174 L135.9453,10.2374 C135.1423,10.2514 134.7423,9.8644 134.7423,9.0754 C134.7423,8.2864 135.1353,7.8914 135.9253,7.8914 L135.9253,7.8914 Z M135.9453,3.0794 L145.5843,3.0794 C146.3583,3.0934 146.7493,3.4954 146.7563,4.2844 C146.7623,5.0724 146.3723,5.4664 145.5843,5.4664 L135.9453,5.4664 C135.1423,5.4664 134.7423,5.0684 134.7423,4.2734 C134.7423,3.4784 135.1423,3.0794 135.9453,3.0794 L135.9453,3.0794 Z M135.9253,0.6554 C133.5323,0.6554 132.3373,1.8504 132.3373,4.2434 C132.3773,5.8334 132.7783,6.6484 133.5393,6.6894 C132.7513,6.7034 132.3503,7.5044 132.3373,9.0954 C132.3373,11.4884 133.5323,12.6834 135.9253,12.6834 L145.5843,12.6634 C147.9753,12.6634 149.1573,11.4814 149.1303,9.1154 C149.1173,7.4974 148.7373,6.6684 147.9883,6.6284 C148.7493,6.6284 149.1373,5.8404 149.1513,4.2634 C149.1643,1.8574 147.9613,0.6554 145.5433,0.6554 L135.9253,0.6554 Z" id="Fill-28"></path>
            </g>
        </g>
    </g>
</svg>