<?xml version="1.0" encoding="UTF-8"?>
<svg width="140px" height="120px" viewBox="0 0 140 120" version="1.1" xmlns="http://www.w3.org/2000/svg" xmlns:xlink="http://www.w3.org/1999/xlink">
    <!-- Generator: Sketch 41.2 (35397) - http://www.bohemiancoding.com/sketch -->
    <title>device_occupy</title>
    <desc>Created with Sketch.</desc>
    <defs></defs>
    <g id="Page-1" stroke="none" stroke-width="1" fill="none" fill-rule="evenodd">
        <g id="device_occupy">
            <g id="Page-1" transform="translate(10.000000, 34.000000)">
                <path d="M32.90848,-0.000110416667 L79.08428,-0.000110416667 C80.10508,-0.000110416667 80.94108,0.83905625 80.94108,1.86372292 L80.94108,35.4204521 C80.94108,36.4462229 80.10508,37.2853896 79.08428,37.2853896 L32.90848,37.2853896 C31.88658,37.2853896 31.05168,36.4462229 31.05168,35.4204521 L31.05168,1.86372292 C31.05168,0.83905625 31.88658,-0.000110416667 32.90848,-0.000110416667 Z" id="Stroke-1" stroke="#29E1FA" stroke-width="2.5"></path>
                <path d="M31.05124,27 L80.94064,27" id="Stroke-3" stroke="#29E1FA" stroke-width="2.5"></path>
                <path d="M62.77183,37.2849479 L67.70203,47.0071354 C67.95833,47.5084271 67.95723,48.0814896 67.70313,48.5816771 C67.45013,49.0818646 67.01343,49.3689479 66.50633,49.3689479 L55.99583,49.3689479 L45.48753,49.3678437 C44.97823,49.3689479 44.54373,49.0829687 44.28743,48.5816771 C44.03553,48.0814896 44.03553,47.5084271 44.28853,47.0082396 L49.22203,37.2849479" id="Stroke-5" stroke="#29E1FA" stroke-width="2.5"></path>
                <path d="M55.99671,33.4435521 C56.90091,33.4435521 57.63901,32.7026563 57.63901,31.7939271 C57.63901,30.8851979 56.90091,30.1443021 55.99671,30.1443021 C55.09141,30.1443021 54.35331,30.8851979 54.35331,31.7939271 C54.35331,32.7026563 55.09141,33.4435521 55.99671,33.4435521" id="Fill-9" fill="#29E1FA"></path>
                <path d="M34.70676,41.9550208 C34.70676,46.7448958 30.80286,50.6646875 26.02996,50.6646875 L8.67636,50.6646875 C3.90456,50.6646875 -0.00044,46.7448958 -0.00044,41.9550208 L-0.00044,24.5356875 C-0.00044,19.7447083 3.90456,15.8260208 8.67636,15.8260208 L26.02996,15.8260208" id="Stroke-11" stroke="#29E1FA" stroke-width="2.5"></path>
                <path d="M13.87342,35.1611938 L13.87342,32.2086521 L14.99652,32.2086521 L14.99652,30.5104438 L13.87342,30.5104438 L13.87342,28.4743604 L11.77132,28.4743604 L11.77132,30.5104438 L10.64822,30.5104438 L10.64822,32.2086521 L11.77132,32.2086521 L11.77132,35.4615271 C11.77132,36.2123604 12.02102,36.8251729 12.52042,37.3021729 C13.01762,37.7780688 13.69192,38.0154646 14.54002,38.0154646 C15.00532,38.0154646 15.41562,37.8973188 15.77642,37.6621313 L15.33312,36.1516313 C15.03942,36.2178813 14.85352,36.2487979 14.77212,36.2487979 C14.50812,36.2487979 14.29252,36.1681938 14.12532,36.0047771 C13.95812,35.8424646 13.87342,35.5620063 13.87342,35.1611938 L13.87342,35.1611938 Z M16.25272,30.5027146 L19.26122,38.0154646 L21.05862,38.0154646 L24.05832,30.5027146 L21.93422,30.5027146 L20.13682,35.1976313 L18.37902,30.5027146 L16.25272,30.5027146 Z" id="Fill-13" fill="#29E1FA"></path>
                <path d="M84.94585,39.8484917 L91.93525,39.8484917 L102.52275,39.8484917 L105.37945,47.1304708 L105.39815,47.17795 C106.50255,49.9957833 109.23715,51.9888042 112.43595,51.9888042 C116.61265,51.9888042 119.99735,48.5912833 119.99735,44.3987625 C119.99735,43.9460542 119.95775,43.5032833 119.88295,43.0726583 L116.73145,25.110075 C116.68195,24.6893875 116.60825,24.275325 116.51255,23.8712 C115.38725,19.1056167 111.12035,15.5601375 106.02955,15.5601375 L91.93525,15.5601375 L86.63875,15.5601375" id="Stroke-15" stroke="#29E1FA" stroke-width="2.5"></path>
                <path d="M100.51448,29.8781979 C99.06688,29.8781979 97.89098,31.0574479 97.89098,32.5116354 C97.89098,33.9658229 99.06688,35.1450729 100.51448,35.1450729 C101.96208,35.1450729 103.13798,33.9658229 103.13798,32.5116354 C103.13798,31.0574479 101.96208,29.8781979 100.51448,29.8781979 L100.51448,29.8781979 Z M108.07368,28.8634688 C107.16398,28.8634688 106.42588,29.6032604 106.42588,30.5164063 C106.42588,31.4295521 107.16398,32.1704479 108.07368,32.1704479 L108.11548,32.1693438 L108.15728,32.1682396 L108.15838,32.1682396 L108.19908,32.1649271 L108.24088,32.1616146 L108.28268,32.1560938 L108.28268,32.1560938 L108.32448,32.1505729 L108.36408,32.1439479 L108.36518,32.1439479 L108.40478,32.1362188 L108.40588,32.1362188 L108.44438,32.1273854 L108.48398,32.1174479 L108.52358,32.1064063 L108.56208,32.0953646 L108.60168,32.0832188 L108.63908,32.0688646 L108.67648,32.0545104 L108.71388,32.0401563 L108.75018,32.0235938 L108.78758,32.0059271 L108.82278,31.9882604 L108.85798,31.9694896 L108.89208,31.9496146 L108.92618,31.9297396 L108.96028,31.9087604 L108.99328,31.8877813 L109.02628,31.8645938 L109.05928,31.8403021 L109.09008,31.8171146 L109.12088,31.7917188 L109.15168,31.7652188 L109.18138,31.7398229 L109.20888,31.7133229 L109.23858,31.6857188 L109.26498,31.6570104 L109.29138,31.6271979 L109.31888,31.5984896 L109.34308,31.5686771 L109.36838,31.5366563 L109.39258,31.5057396 L109.41678,31.4726146 L109.43878,31.4405938 L109.46078,31.4074688 L109.48058,31.3732396 L109.50148,31.3390104 L109.52128,31.3036771 L109.53998,31.2683438 L109.55758,31.2330104 L109.57408,31.1965729 L109.59058,31.1601354 L109.60598,31.1214896 L109.62028,31.0839479 L109.63348,31.0464063 L109.64668,31.0066563 L109.65768,30.9680104 L109.66758,30.9293646 L109.67858,30.8896146 L109.68738,30.8487604 L109.69508,30.8090104 L109.70168,30.7681563 L109.70608,30.7273021 L109.71158,30.6853438 L109.71488,30.6422813 L109.71818,30.6014271 L109.71928,30.5583646 L109.72038,30.5164063 L109.71928,30.4733438 L109.71818,30.4313854 L109.71488,30.3883229 L109.71158,30.3463646 L109.70608,30.3055104 L109.70168,30.2646563 L109.69508,30.2226979 L109.68738,30.1829479 L109.67858,30.1420938 L109.66758,30.1023438 L109.65768,30.0636979 L109.64668,30.0239479 L109.63348,29.9853021 L109.62028,29.9466563 L109.60598,29.9091146 L109.59058,29.8726771 L109.57408,29.8351354 L109.55758,29.7986979 L109.53998,29.7633646 L109.52128,29.7280313 L109.50148,29.6938021 L109.48058,29.6584688 L109.46078,29.6253438 L109.43878,29.5911146 L109.41678,29.5579896 L109.39258,29.5259688 L109.36838,29.4950521 L109.34308,29.4641354 L109.31888,29.4332188 L109.29138,29.4045104 L109.26498,29.3746979 L109.23858,29.3470938 L109.20888,29.3194896 L109.18138,29.2918854 L109.15168,29.2653854 L109.12088,29.2399896 L109.09008,29.2145938 L109.05928,29.1903021 L109.02628,29.1671146 L108.99328,29.1450313 L108.96028,29.1229479 L108.92618,29.1019688 L108.89208,29.0809896 L108.85798,29.0622188 L108.82278,29.0434479 L108.78758,29.0257813 L108.75018,29.0081146 L108.71388,28.9926563 L108.67648,28.9771979 L108.63908,28.9628438 L108.60168,28.9495938 L108.56208,28.9363438 L108.52358,28.9253021 L108.48398,28.9142604 L108.44438,28.9043229 L108.40588,28.8965938 L108.40478,28.8965938 L108.36518,28.8877604 L108.36408,28.8877604 L108.32448,28.8822396 L108.28268,28.8756146 L108.28268,28.8756146 L108.24088,28.8711979 L108.19908,28.8667813 L108.15838,28.8645729 L108.15728,28.8645729 L108.11548,28.8634688 L108.07368,28.8634688 Z M110.01518,26.9146146 C110.01518,27.8277604 110.75328,28.5675521 111.66188,28.5675521 L111.70368,28.5675521 L111.74658,28.5653438 L111.78838,28.5631354 L111.83018,28.5598229 L111.87088,28.5543021 L111.91158,28.5476771 L111.95228,28.5421563 L111.99408,28.5344271 L112.03368,28.5244896 L112.07328,28.5156563 L112.11178,28.5046146 L112.15138,28.4935729 L112.18878,28.4803229 L112.22728,28.4670729 L112.26578,28.4527188 L112.30318,28.4372604 L112.33948,28.4218021 L112.37468,28.4041354 L112.37578,28.4041354 L112.41098,28.3864688 L112.44728,28.3676979 L112.48138,28.3478229 L112.51548,28.3279479 L112.54848,28.3069688 L112.58258,28.2848854 L112.61448,28.2616979 L112.64638,28.2385104 L112.67828,28.2142188 L112.67938,28.2142188 L112.70908,28.1899271 L112.73878,28.1634271 L112.76958,28.1380313 L112.79708,28.1104271 L112.79818,28.1104271 L112.82568,28.0839271 L112.85428,28.0552188 L112.88068,28.0254063 L112.90708,27.9955938 L112.93238,27.9657813 L112.95658,27.9348646 L112.95768,27.9348646 L112.98078,27.9028438 L113.00388,27.8708229 L113.02698,27.8376979 L113.04898,27.8056771 L113.06988,27.7703438 L113.09078,27.7372188 L113.10948,27.7018854 L113.12818,27.6665521 L113.14578,27.6301146 L113.16338,27.5936771 L113.17988,27.5572396 L113.19418,27.5196979 L113.20848,27.4821563 L113.20958,27.4821563 L113.22168,27.4435104 L113.22278,27.4435104 L113.23378,27.4059688 L113.24588,27.3662188 L113.25688,27.3264688 L113.26678,27.2867188 L113.27558,27.2469688 L113.28218,27.2061146 L113.28878,27.1652604 L113.29538,27.1244063 L113.29978,27.0824479 L113.30088,27.0824479 L113.30418,27.0404896 L113.30638,26.9996354 L113.30858,26.9565729 L113.30858,26.9146146 L113.30858,26.8715521 L113.30638,26.8295938 L113.30418,26.7876354 L113.30088,26.7456771 L113.29978,26.7456771 L113.29538,26.7037188 L113.28878,26.6628646 L113.28218,26.6220104 L113.27558,26.5811563 L113.26678,26.5414063 L113.25688,26.5016563 L113.24588,26.4619063 L113.23378,26.4232604 L113.22278,26.3846146 L113.22168,26.3846146 L113.20958,26.3459688 L113.20848,26.3459688 L113.19418,26.3095313 L113.17988,26.2708854 L113.16338,26.2344479 L113.14578,26.1980104 L113.12818,26.1626771 L113.10948,26.1273438 L113.09078,26.0920104 L113.06988,26.0577813 L113.04898,26.0246563 L113.02698,25.9904271 L113.00388,25.9573021 L112.98078,25.9252813 L112.95768,25.8943646 L112.95658,25.8943646 L112.93238,25.8634479 L112.90708,25.8325313 L112.88068,25.8027188 L112.85428,25.7740104 L112.82568,25.7453021 L112.79818,25.7176979 L112.79708,25.7176979 L112.76958,25.6911979 L112.73878,25.6646979 L112.70908,25.6393021 L112.67938,25.6150104 L112.67828,25.6150104 L112.64638,25.5896146 L112.61448,25.5664271 L112.58258,25.5432396 L112.54848,25.5222604 L112.51548,25.5012813 L112.48138,25.4814063 L112.44728,25.4604271 L112.41098,25.4427604 L112.37578,25.4250938 L112.37468,25.4250938 L112.33948,25.4074271 L112.30318,25.3908646 L112.26578,25.3754063 L112.22728,25.3610521 L112.18878,25.3478021 L112.15138,25.3356563 L112.11178,25.3235104 L112.07328,25.3135729 L112.03368,25.3036354 L111.99408,25.2948021 L111.95228,25.2870729 L111.91158,25.2804479 L111.87088,25.2749271 L111.83018,25.2694063 L111.78838,25.2660938 L111.74658,25.2627813 L111.70368,25.2616771 L111.66188,25.2605729 C110.75328,25.2605729 110.01518,26.0014688 110.01518,26.9146146 L110.01518,26.9146146 Z M108.07368,24.9889479 L108.07368,24.9889479 L108.11548,24.9889479 L108.15728,24.9867396 L108.15838,24.9867396 L108.19908,24.9845313 L108.24088,24.9801146 L108.28268,24.9756979 L108.28268,24.9756979 L108.32448,24.9701771 L108.36408,24.9635521 L108.36518,24.9635521 L108.40478,24.9558229 L108.40588,24.9558229 L108.44438,24.9469896 L108.48398,24.9370521 L108.52358,24.9271146 L108.56208,24.9149688 L108.60168,24.9028229 L108.63908,24.8884688 L108.67648,24.8741146 L108.71388,24.8586563 L108.75018,24.8431979 L108.78758,24.8266354 L108.82278,24.8089688 L108.85798,24.7901979 L108.89208,24.7703229 L108.92618,24.7493438 L108.96028,24.7283646 L108.99328,24.7062813 L109.02628,24.6841979 L109.05928,24.6599063 L109.09008,24.6367188 L109.12088,24.6113229 L109.15168,24.5859271 L109.18138,24.5594271 L109.20888,24.5329271 L109.23858,24.5042188 L109.26498,24.4766146 L109.29138,24.4479063 L109.31888,24.4180938 L109.34308,24.3871771 L109.36838,24.3562604 L109.39258,24.3253438 L109.41678,24.2933229 L109.43878,24.2601979 L109.46078,24.2270729 L109.48058,24.1928438 L109.50148,24.1586146 L109.52128,24.1243854 L109.53998,24.0879479 L109.55758,24.0526146 L109.57408,24.0161771 L109.59058,23.9786354 L109.60598,23.9421979 L109.62028,23.9035521 L109.63348,23.8660104 L109.64668,23.8273646 L109.65768,23.7876146 L109.66758,23.7489688 L109.67858,23.7092188 L109.68738,23.6683646 L109.69508,23.6286146 L109.70168,23.5877604 L109.70608,23.5469063 L109.71158,23.5049479 L109.71488,23.4629896 L109.71818,23.4210313 L109.71928,23.3779688 L109.72038,23.3349063 L109.71928,23.2929479 L109.71818,23.2509896 L109.71488,23.2090313 L109.71158,23.1659688 L109.70608,23.1251146 L109.70168,23.0842604 L109.69508,23.0434063 L109.68738,23.0025521 L109.67858,22.9628021 L109.66758,22.9230521 L109.65768,22.8833021 L109.64668,22.8446563 L109.63348,22.8060104 L109.62028,22.7673646 L109.60598,22.7298229 L109.59058,22.6922813 L109.57408,22.6558438 L109.55758,22.6194063 L109.53998,22.5840729 L109.52128,22.5476354 L109.50148,22.5134063 L109.48058,22.4780729 L109.46078,22.4449479 L109.43878,22.4118229 L109.41678,22.3786979 L109.39258,22.3466771 L109.36838,22.3146563 L109.34308,22.2848438 L109.31888,22.2539271 L109.29138,22.2241146 L109.26498,22.1954063 L109.23858,22.1666979 L109.20888,22.1390938 L109.18138,22.1114896 L109.15168,22.0860938 L109.12088,22.0595938 L109.09008,22.0353021 L109.05928,22.0110104 L109.02628,21.9878229 L108.99328,21.9646354 L108.96028,21.9425521 L108.92618,21.9215729 L108.89208,21.9016979 L108.85798,21.8818229 L108.82278,21.8630521 L108.78758,21.8453854 L108.75018,21.8277188 L108.71388,21.8122604 L108.67648,21.7968021 L108.63908,21.7824479 L108.60168,21.7691979 L108.56208,21.7570521 L108.52358,21.7449063 L108.48398,21.7349688 L108.44438,21.7250313 L108.40588,21.7150938 L108.40478,21.7150938 L108.36518,21.7084688 L108.36408,21.7084688 L108.32448,21.7007396 L108.28268,21.6952188 L108.28268,21.6952188 L108.24088,21.6896979 L108.19908,21.6874896 L108.15838,21.6841771 L108.15728,21.6841771 L108.11548,21.6830729 L108.07368,21.6819688 C107.16398,21.6819688 106.42588,22.4228646 106.42588,23.3349063 C106.42588,24.2480521 107.16398,24.9889479 108.07368,24.9889479 L108.07368,24.9889479 Z M102.83658,26.9366979 C102.83658,27.8509479 103.57468,28.5907396 104.48438,28.5907396 L104.48438,28.5907396 L104.48438,28.5907396 L104.52618,28.5896354 L104.57018,28.5896354 L104.57018,28.5885313 L104.61088,28.5863229 L104.65268,28.5819063 L104.69448,28.5774896 L104.73518,28.5719688 L104.73518,28.5708646 L104.77588,28.5653438 L104.81658,28.5576146 L104.85618,28.5476771 L104.89578,28.5388438 L104.93538,28.5278021 L104.97388,28.5167604 L105.01238,28.5035104 L105.05088,28.4902604 L105.08828,28.4759063 L105.12568,28.4604479 L105.16198,28.4449896 L105.16308,28.4438854 L105.19828,28.4273229 L105.19938,28.4273229 L105.23348,28.4096563 L105.23348,28.4085521 L105.26868,28.3908854 L105.30388,28.3721146 L105.30388,28.3710104 L105.33908,28.3511354 L105.37208,28.3301563 L105.40508,28.3080729 L105.43808,28.2859896 L105.43808,28.2848854 L105.46998,28.2616979 L105.50078,28.2385104 L105.50078,28.2374063 L105.53268,28.2131146 L105.56238,28.1877188 L105.56238,28.1866146 L105.59208,28.1612188 L105.62068,28.1336146 L105.62178,28.1336146 L105.64928,28.1071146 L105.67568,28.0773021 L105.67678,28.0773021 L105.70428,28.0485938 L105.72958,28.0187813 L105.75598,27.9889688 L105.77908,27.9580521 L105.78018,27.9580521 L105.80438,27.9260313 C105.90008,27.7990521 105.97708,27.6566146 106.03208,27.5053438 L106.04418,27.4666979 L106.04528,27.4666979 L106.05738,27.4280521 L106.06948,27.3894063 L106.08048,27.3496563 L106.08928,27.3099063 L106.09808,27.2701563 L106.10578,27.2293021 L106.11238,27.1884479 L106.11898,27.1475938 L106.12338,27.1056354 L106.12448,27.1056354 L106.12778,27.0636771 L106.12888,27.0228229 L106.13108,26.9797604 L106.13108,26.9366979 L106.13108,26.8947396 L106.12888,26.8527813 L106.12778,26.8108229 L106.12448,26.7688646 L106.12338,26.7688646 L106.11898,26.7269063 L106.11238,26.6860521 L106.10578,26.6451979 L106.09808,26.6043438 L106.08928,26.5645938 L106.08048,26.5248438 L106.06948,26.4850938 L106.05738,26.4464479 L106.04528,26.4078021 L106.04418,26.4078021 L106.03208,26.3691563 L106.01778,26.3316146 L106.00238,26.2940729 L105.98698,26.2576354 L105.98588,26.2576354 L105.96938,26.2211979 L105.95068,26.1858646 L105.93308,26.1505313 L105.91328,26.1151979 L105.91218,26.1151979 L105.89348,26.0809688 L105.87148,26.0467396 L105.85058,26.0136146 L105.82748,25.9815938 L105.82638,25.9815938 L105.80438,25.9484688 L105.78018,25.9175521 L105.77908,25.9175521 L105.75598,25.8866354 L105.72958,25.8557188 L105.70428,25.8259063 L105.67678,25.7971979 L105.67568,25.7971979 L105.64928,25.7684896 L105.62178,25.7408854 L105.62068,25.7408854 L105.59208,25.7143854 L105.56238,25.6878854 L105.53268,25.6624896 L105.50078,25.6370938 L105.46998,25.6128021 L105.43808,25.5896146 L105.40508,25.5664271 L105.37208,25.5454479 L105.33908,25.5244688 L105.30388,25.5034896 L105.30388,25.5034896 L105.26868,25.4847188 L105.23348,25.4659479 L105.19938,25.4471771 L105.19828,25.4471771 L105.16308,25.4306146 L105.16198,25.4306146 L105.12568,25.4140521 L105.08828,25.3996979 L105.05088,25.3853438 L105.01238,25.3709896 L104.97388,25.3588438 L104.93538,25.3466979 L104.89578,25.3367604 L104.85618,25.3268229 L104.81658,25.3179896 L104.77588,25.3102604 L104.73518,25.3036354 L104.69448,25.2981146 L104.65268,25.2925938 L104.61088,25.2892813 L104.57018,25.2859688 L104.52618,25.2848646 L104.48438,25.2837604 C103.57468,25.2837604 102.83658,26.0246563 102.83658,26.9366979 L102.83658,26.9366979 Z" id="Fill-17" fill="#29E1FA"></path>
                <path d="M107.84389,13.5377458 L102.44619,13.5377458 C102.03699,13.5377458 101.70369,13.7652042 101.70369,14.0434542 L101.70369,15.0548708 C101.70369,15.3331208 102.03699,15.5605792 102.44619,15.5605792 L107.84389,15.5605792 C108.25199,15.5605792 108.58639,15.3331208 108.58639,15.0548708 L108.58639,14.0434542 C108.58639,13.7652042 108.25199,13.5377458 107.84389,13.5377458" id="Fill-19" fill="#29E1FA"></path>
                <path d="M107.84389,13.5377458 L102.44619,13.5377458 C102.03699,13.5377458 101.70369,13.7652042 101.70369,14.0434542 L101.70369,15.0548708 C101.70369,15.3331208 102.03699,15.5605792 102.44619,15.5605792 L107.84389,15.5605792 C108.25199,15.5605792 108.58639,15.3331208 108.58639,15.0548708 L108.58639,14.0434542 C108.58639,13.7652042 108.25199,13.5377458 107.84389,13.5377458 Z" id="Stroke-21" stroke="#29E1FA" stroke-width="2.5"></path>
                <path d="M89.47367,34 L94.39617,34" id="Stroke-23" stroke="#29E1FA" stroke-width="2.5"></path>
                <path d="M85.00173,15.5601375 L101.06723,15.5601375 L101.06723,24.7225125 C101.06723,25.6124708 100.34233,26.3401167 99.45683,26.3401167 L84.94563,26.3401167" id="Stroke-25" stroke="#29E1FA" stroke-width="2.5"></path>
            </g>
        </g>
    </g>
</svg>