<?xml version="1.0" encoding="UTF-8"?>
<svg width="90px" height="90px" viewBox="0 0 90 90" version="1.1" xmlns="http://www.w3.org/2000/svg" xmlns:xlink="http://www.w3.org/1999/xlink">
    <!-- Generator: Sketch 45.2 (43514) - http://www.bohemiancoding.com/sketch -->
    <title>nodata</title>
    <desc>Created with Sketch.</desc>
    <defs></defs>
    <g id="slice" stroke="none" stroke-width="1" fill="none" fill-rule="evenodd" opacity="0.800000012">
        <g id="nodata" stroke="#FFFFFF" stroke-width="1.5">
            <g id="Group-9" transform="translate(4.000000, 5.000000)">
                <g id="Group-12" transform="translate(63.193942, 60.687396) rotate(14.000000) translate(-63.193942, -60.687396) translate(47.693942, 45.187396)">
                    <rect id="Rectangle-2" fill-opacity="0.2" fill="#FFFFFF" x="0" y="0" width="30.1818182" height="30.1886792" rx="3"></rect>
                    <ellipse id="Oval-2" cx="7.54545455" cy="9.05660377" rx="3.01818182" ry="3.01886792"></ellipse>
                    <path d="M0.457833893,26.147782 L10.555306,15.7182696 L10.555306,15.7182696 C11.1315415,15.1230855 12.0811647,15.1077246 12.6763489,15.6839601 C12.6950649,15.7020802 12.7133056,15.7206848 12.7310526,15.7397549 L13.8502711,16.9424198 L13.8502711,16.9424198 C14.4146406,17.5488673 15.3637753,17.5829783 15.9702228,17.0186088 C15.9834137,17.0063332 15.9963822,16.9938209 16.0091222,16.9810781 L20.6010339,12.3881226 L20.6010339,12.3881226 C21.1867537,11.8022696 22.1365012,11.8021616 22.7223542,12.3878815 C22.7245431,12.3900699 22.7267252,12.3922651 22.7289006,12.394467 L30.1832087,19.939927" id="Path-5" stroke-linecap="round" stroke-linejoin="round"></path>
                </g>
                <g id="Group" transform="translate(59.169102, 21.381437) rotate(-23.000000) translate(-59.169102, -21.381437) translate(42.169102, 6.381437)">
                    <path d="M3.50330396,9.91913747 C2.06208784,9.91913747 0.892405196,11.0783827 0.892405196,12.5067385 L0.892405196,17.6819407 C0.892405196,19.1102965 2.06208784,20.2695418 3.50330396,20.2695418 L9.59540106,20.2695418 L18.4058124,29.0013357 L18.4058124,29.0013357 C19.1825081,29.7711007 20.4361622,29.7654823 21.2059272,28.9887867 C21.5734173,28.6179878 21.7795953,28.1170583 21.7795953,27.5950038 L21.7795953,2.59367542 L21.7795953,2.59367542 C21.7795953,1.50015162 20.8931191,0.61367542 19.7995953,0.61367542 C19.2775408,0.61367542 18.7766113,0.819853359 18.4058124,1.18734353 L9.59540106,9.91913747 L3.50330396,9.91913747 Z" id="Stroke-5597" fill-opacity="0.2" fill="#FFFFFF"></path>
                    <path d="M28.4933349,4.74393531 C31.3949138,7.11762803 33.7151325,11.0749326 33.7151325,15.0943396 C33.7151325,19.1068464 31.3862108,23.0727763 28.4933349,25.4447439" id="Stroke-5599" stroke-linecap="round" stroke-linejoin="round"></path>
                    <path d="M25.0121366,9.05660377 C26.9703107,10.4677089 28.4933349,12.5101887 28.4933349,15.0943396 C28.4933349,17.6784906 26.9720513,19.7209704 25.0121366,21.1320755" id="Stroke-5600" stroke-linecap="round" stroke-linejoin="round"></path>
                </g>
                <g id="Group-12-Copy" transform="translate(23.289537, 43.111977) rotate(-23.000000) translate(-23.289537, -43.111977) translate(6.289537, 26.111977)">
                    <rect id="Rectangle-2" fill-opacity="0.2" fill="#FFFFFF" x="0" y="1.50943396" width="33.2" height="30.1886792" rx="3"></rect>
                    <g id="Group-13" transform="translate(0.000000, 1.509434)">
                        <polygon id="Triangle" stroke-linecap="round" stroke-linejoin="round" points="21.1272727 15.5974843 13.5818182 20.6289308 13.5818182 10.5660377"></polygon>
                        <path d="M5.73452703,0.603764372 L5.73452703,30.21886" id="Path-4"></path>
                        <path d="M3.01818182,5.28301887 L3.01818182,11.3207547 L3.01818182,5.28301887 Z" id="Path-4" transform="translate(3.018182, 8.301887) rotate(-270.000000) translate(-3.018182, -8.301887) "></path>
                        <path d="M3.01818182,12.0754717 L3.01818182,18.1132075 L3.01818182,12.0754717 Z" id="Path-4-Copy-2" transform="translate(3.018182, 15.094340) rotate(-270.000000) translate(-3.018182, -15.094340) "></path>
                        <path d="M3.01818182,18.8679245 L3.01818182,24.9056604 L3.01818182,18.8679245 Z" id="Path-4-Copy" transform="translate(3.018182, 21.886792) rotate(-270.000000) translate(-3.018182, -21.886792) "></path>
                    </g>
                    <g id="Group-13" transform="translate(29.427273, 15.849057) rotate(-180.000000) translate(-29.427273, -15.849057) translate(25.654545, 0.000000)">
                        <path d="M5.73452703,0.603764372 L5.73452703,30.21886" id="Path-4"></path>
                        <path d="M3.01818182,5.28301887 L3.01818182,11.3207547 L3.01818182,5.28301887 Z" id="Path-4" transform="translate(3.018182, 8.301887) rotate(-270.000000) translate(-3.018182, -8.301887) "></path>
                        <path d="M3.01818182,12.0754717 L3.01818182,18.1132075 L3.01818182,12.0754717 Z" id="Path-4-Copy-2" transform="translate(3.018182, 15.094340) rotate(-270.000000) translate(-3.018182, -15.094340) "></path>
                        <path d="M3.01818182,18.8679245 L3.01818182,24.9056604 L3.01818182,18.8679245 Z" id="Path-4-Copy" transform="translate(3.018182, 21.886792) rotate(-270.000000) translate(-3.018182, -21.886792) "></path>
                    </g>
                </g>
            </g>
        </g>
    </g>
</svg>