<?xml version="1.0" encoding="UTF-8"?>
<svg width="140px" height="140px" viewBox="0 0 140 140" version="1.1" xmlns="http://www.w3.org/2000/svg" xmlns:xlink="http://www.w3.org/1999/xlink">
    <!-- Generator: Sketch 43.2 (39069) - http://www.bohemiancoding.com/sketch -->
    <title>photo_stop</title>
    <desc>Created with Sketch.</desc>
    <defs></defs>
    <g id="Page-1" stroke="none" stroke-width="1" fill="none" fill-rule="evenodd">
        <g id="photo_stop" fill="#FFFFFF">
            <g id="Group" transform="translate(8.000000, 1.000000)">
                <g id="Group-15" opacity="0.400000006">
                    <rect id="Rectangle-7" x="34.25" y="31.46" width="75" height="75"></rect>
                    <rect id="Rectangle-6" x="34.25" y="114.446667" width="45.5294118" height="1.90666667"></rect>
                    <rect id="Rectangle-6" x="34.25" y="121.166667" width="28.4558824" height="1.90666667"></rect>
                    <path d="M25.6810157,131.433019 L106.911513,131.433019 L118.028107,119.758983 L118.028107,21.7846306 L25.6810157,21.7846306 L25.6810157,131.433019 Z M21.8810157,17.9846306 L121.828107,17.9846306 L121.828107,121.278831 L108.54024,135.233019 L21.8810157,135.233019 L21.8810157,17.9846306 Z" id="Rectangle-4" fill-rule="nonzero"></path>
                    <polygon id="Rectangle-4" fill-rule="nonzero" points="4.17737705 11.3640858 105.416925 4.28472698 106.5028 19.8134669 110.293544 19.5483923 108.942594 0.228908986 0.121559063 7.83841702 8.36596429 125.738905 23.457102 124.68363 23.1920274 120.892886 11.8916331 121.683087"></polygon>
                    <polygon id="Triangle-2" transform="translate(109.603662, 122.473969) rotate(-45.000000) translate(-109.603662, -122.473969) " points="109.603662 117.792369 119.046808 127.155568 100.160515 127.155568"></polygon>
                </g>
                <g id="Page-1" transform="translate(46.000000, 45.000000)" opacity="0.399999976">
                    <path d="M29.1322734,27.3895156 L49.2384855,30.6392391 L47.2355352,45.0351692 L26.1491559,41.6270737 L27.6321914,30.9816412 L28.1521062,27.2311436 L29.1322734,27.3895156 Z M31.9023111,22.6843619 L28.0413047,16.2088034 L32.0472054,13.4350807 L33.8370759,4.57067021 L36.1809539,8.49811988 L42.104573,18.4313205 L44.1416161,21.8376465 L35.9082118,19.9106392 L31.9023111,22.6843619 Z M22.4330438,14.7055961 L19.6374365,15.7266092 L18.9641042,13.5899137 L21.7597115,12.5689007 L22.4330438,14.7055961 Z M12.8785445,31.9168326 L15.6741518,30.8958195 L16.347484,33.0333997 L13.5518767,34.0544127 L12.8785445,31.9168326 Z M6.48614981,20.5184694 L3.69054253,21.5385977 L3.01721029,19.4019022 L5.81281757,18.3817739 L6.48614981,20.5184694 Z M7.56007212,33.8553417 L10.3556794,32.8343287 L11.0290116,34.9719089 L8.23340436,35.9929219 L7.56007212,33.8553417 Z M17.1145714,16.6405662 L14.3189641,17.6615793 L13.6456319,15.5248839 L16.4412391,14.5038708 L17.1145714,16.6405662 Z M18.1884937,29.9774386 L20.9926242,28.9573103 L21.6574332,31.0940058 L18.8618259,32.1150188 L18.1884937,29.9774386 Z M11.8046222,18.5799602 L9.00049172,19.6000885 L8.33568267,17.4633931 L11.13129,16.4432648 L11.8046222,18.5799602 Z M13.5774463,19.7593453 C15.8752991,18.9489051 18.3717423,20.2256138 19.1516145,22.6118115 C19.1669562,22.6569343 19.1805933,22.7020571 19.1942305,22.7480646 C19.9928536,25.2121212 18.7629569,27.889405 16.4156696,28.7971688 C14.1186691,29.6084937 11.6230782,28.3326698 10.8423537,25.9491263 C10.8261596,25.9031188 10.8125225,25.8571113 10.7988854,25.810219 C10.0002623,23.3452776 11.230159,20.667109 13.5774463,19.7593453 L13.5774463,19.7593453 Z M25.6974267,27.2382216 L25.3479757,29.7482858 L24.1802983,30.1756249 L23.5069661,28.0389294 L25.6974267,27.2426454 L25.6974267,27.2382216 Z M14.8474021,27.2054855 L14.711031,26.7631055 L13.3643665,22.4870604 L13.2279954,22.0446804 L17.1316178,23.4956868 L14.8474021,27.2010617 L14.8474021,27.2054855 Z M36.7349615,38.8506967 L39.0021308,35.5646981 L45.0280282,42.9904888 L27.9057859,40.2229595 L28.1606294,38.3649635 L32.4904114,32.0088476 L36.7349615,38.849812 L36.7349615,38.8506967 Z M45.4200951,33.8500332 C45.2896902,34.9285556 44.3419112,35.693873 43.3029339,35.5585048 C43.2952631,35.55762 43.2875922,35.5567352 43.2807736,35.5558505 C42.2341256,35.3647423 41.5284052,34.3375359 41.6954598,33.2483964 C41.8250123,32.1707587 42.771939,31.4054413 43.8100639,31.5399248 C43.8177348,31.5408096 43.826258,31.5416943 43.8347812,31.5434638 C44.8822816,31.7336872 45.588002,32.7608936 45.4200951,33.8500332 L45.4200951,33.8500332 Z M47.3719062,7.79385092 C45.9604655,5.40411413 43.9668907,3.44260119 41.5931814,2.10749834 L42.6074414,0 C45.323783,1.53505862 47.6062941,3.77969476 49.2299623,6.51183367 C50.8809048,9.28378677 51.8244222,12.445919 51.9744304,15.7018359 L49.7754466,15.8186242 C49.6433372,12.9750055 48.8165874,10.2136695 47.3719062,7.79385092 L47.3719062,7.79385092 Z M43.2134404,10.676399 C42.2665137,9.07586817 40.8678577,7.8186242 39.2066874,7.07631055 L40.2209474,4.96173413 C42.22475,5.90400354 43.9114899,7.44790975 45.062121,9.39526653 C46.2408785,11.3682814 46.8417636,13.6545012 46.7923291,15.9761115 L44.5941977,16.0911303 C44.6589739,14.1844725 44.1774135,12.2999336 43.2134404,10.676399 L43.2134404,10.676399 Z M50.7982298,28.246848 L28.2629077,24.6042911 L23.6177676,9.82879894 L0,18.4445919 L6.3753483,38.7321389 L25.049664,31.9194868 L23.5751516,42.5259898 L23.3884937,43.8168547 L24.5894116,44.0106171 L48.0716604,47.8062376 L49.2734306,48 L49.4524176,46.7091351 L51.8210129,29.7314753 L52,28.4406105 L50.7982298,28.246848 Z" id="Fill-1"></path>
                </g>
            </g>
        </g>
    </g>
</svg>