<?xml version="1.0" encoding="UTF-8"?>
<svg width="140px" height="140px" viewBox="0 0 140 140" version="1.1" xmlns="http://www.w3.org/2000/svg" xmlns:xlink="http://www.w3.org/1999/xlink">
    <!-- Generator: Sketch 43.2 (39069) - http://www.bohemiancoding.com/sketch -->
    <title>video_pause</title>
    <desc>Created with Sketch.</desc>
    <defs></defs>
    <g id="Page-1" stroke="none" stroke-width="1" fill="none" fill-rule="evenodd">
        <g id="video_pause">
            <g id="Group-14" transform="translate(10.000000, 4.000000)">
                <g id="Group-12" transform="translate(10.000000, 14.000000)" fill="#FFFFFF">
                    <g id="Group-13">
                        <rect id="Rectangle-5" x="0" y="0" width="5" height="5"></rect>
                        <rect id="Rectangle-5" x="0" y="10" width="5" height="5"></rect>
                        <rect id="Rectangle-5" x="0" y="20" width="5" height="5"></rect>
                        <rect id="Rectangle-5" x="0" y="30" width="5" height="5"></rect>
                        <rect id="Rectangle-5" x="0" y="40" width="5" height="5"></rect>
                        <rect id="Rectangle-5" x="0" y="50" width="5" height="5"></rect>
                        <rect id="Rectangle-5" x="0" y="60" width="5" height="5"></rect>
                        <rect id="Rectangle-5" x="0" y="70" width="5" height="5"></rect>
                        <rect id="Rectangle-5" x="0" y="80" width="5" height="5"></rect>
                        <rect id="Rectangle-5" x="0" y="90" width="5" height="5"></rect>
                        <rect id="Rectangle-5" x="0" y="100" width="5" height="5"></rect>
                    </g>
                </g>
                <g id="Group-12" transform="translate(105.000000, 14.000000)" fill="#FFFFFF">
                    <g id="Group-13">
                        <rect id="Rectangle-5" x="0" y="0" width="5" height="5"></rect>
                        <rect id="Rectangle-5" x="0" y="10" width="5" height="5"></rect>
                        <rect id="Rectangle-5" x="0" y="20" width="5" height="5"></rect>
                        <rect id="Rectangle-5" x="0" y="30" width="5" height="5"></rect>
                        <rect id="Rectangle-5" x="0" y="40" width="5" height="5"></rect>
                        <rect id="Rectangle-5" x="0" y="50" width="5" height="5"></rect>
                        <rect id="Rectangle-5" x="0" y="60" width="5" height="5"></rect>
                        <rect id="Rectangle-5" x="0" y="70" width="5" height="5"></rect>
                        <rect id="Rectangle-5" x="0" y="80" width="5" height="5"></rect>
                        <rect id="Rectangle-5" x="0" y="90" width="5" height="5"></rect>
                        <rect id="Rectangle-5" x="0" y="100" width="5" height="5"></rect>
                    </g>
                </g>
                <rect id="Rectangle-4" stroke="#FFFFFF" stroke-width="4" x="2" y="2" width="116" height="128"></rect>
            </g>
        </g>
    </g>
</svg>