<?xml version="1.0" encoding="UTF-8"?>
<svg width="140px" height="140px" viewBox="0 0 140 140" version="1.1" xmlns="http://www.w3.org/2000/svg" xmlns:xlink="http://www.w3.org/1999/xlink">
    <!-- Generator: Sketch 43.2 (39069) - http://www.bohemiancoding.com/sketch -->
    <title>video_stop</title>
    <desc>Created with Sketch.</desc>
    <defs></defs>
    <g id="Page-1" stroke="none" stroke-width="1" fill="none" fill-rule="evenodd">
        <g id="video_stop">
            <g id="Page-1" transform="translate(44.000000, 46.000000)"></g>
            <g id="Group" transform="translate(10.000000, 4.000000)">
                <g id="Group-14" opacity="0.397192029">
                    <g id="Group-12" transform="translate(10.000000, 14.000000)" fill="#FFFFFF">
                        <g id="Group-13">
                            <rect id="Rectangle-5" x="0" y="0" width="5" height="5"></rect>
                            <rect id="Rectangle-5" x="0" y="10" width="5" height="5"></rect>
                            <rect id="Rectangle-5" x="0" y="20" width="5" height="5"></rect>
                            <rect id="Rectangle-5" x="0" y="30" width="5" height="5"></rect>
                            <rect id="Rectangle-5" x="0" y="40" width="5" height="5"></rect>
                            <rect id="Rectangle-5" x="0" y="50" width="5" height="5"></rect>
                            <rect id="Rectangle-5" x="0" y="60" width="5" height="5"></rect>
                            <rect id="Rectangle-5" x="0" y="70" width="5" height="5"></rect>
                            <rect id="Rectangle-5" x="0" y="80" width="5" height="5"></rect>
                            <rect id="Rectangle-5" x="0" y="90" width="5" height="5"></rect>
                            <rect id="Rectangle-5" x="0" y="100" width="5" height="5"></rect>
                        </g>
                    </g>
                    <g id="Group-12" transform="translate(105.000000, 14.000000)" fill="#FFFFFF">
                        <g id="Group-13">
                            <rect id="Rectangle-5" x="0" y="0" width="5" height="5"></rect>
                            <rect id="Rectangle-5" x="0" y="10" width="5" height="5"></rect>
                            <rect id="Rectangle-5" x="0" y="20" width="5" height="5"></rect>
                            <rect id="Rectangle-5" x="0" y="30" width="5" height="5"></rect>
                            <rect id="Rectangle-5" x="0" y="40" width="5" height="5"></rect>
                            <rect id="Rectangle-5" x="0" y="50" width="5" height="5"></rect>
                            <rect id="Rectangle-5" x="0" y="60" width="5" height="5"></rect>
                            <rect id="Rectangle-5" x="0" y="70" width="5" height="5"></rect>
                            <rect id="Rectangle-5" x="0" y="80" width="5" height="5"></rect>
                            <rect id="Rectangle-5" x="0" y="90" width="5" height="5"></rect>
                            <rect id="Rectangle-5" x="0" y="100" width="5" height="5"></rect>
                        </g>
                    </g>
                    <rect id="Rectangle-4" stroke="#FFFFFF" stroke-width="4" x="2" y="2" width="116" height="128"></rect>
                </g>
                <rect id="Rectangle-7" fill="#FFFFFF" opacity="0.197407156" x="23" y="14" width="75" height="105"></rect>
                <path d="M63.1322734,69.3895156 L83.2384855,72.6392391 L81.2355352,87.0351692 L60.1491559,83.6270737 L61.6321914,72.9816412 L62.1521062,69.2311436 L63.1322734,69.3895156 Z M65.9023111,64.6843619 L62.0413047,58.2088034 L66.0472054,55.4350807 L67.8370759,46.5706702 L70.1809539,50.4981199 L76.104573,60.4313205 L78.1416161,63.8376465 L69.9082118,61.9106392 L65.9023111,64.6843619 Z M56.4330438,56.7055961 L53.6374365,57.7266092 L52.9641042,55.5899137 L55.7597115,54.5689007 L56.4330438,56.7055961 Z M46.8785445,73.9168326 L49.6741518,72.8958195 L50.347484,75.0333997 L47.5518767,76.0544127 L46.8785445,73.9168326 Z M40.4861498,62.5184694 L37.6905425,63.5385977 L37.0172103,61.4019022 L39.8128176,60.3817739 L40.4861498,62.5184694 Z M41.5600721,75.8553417 L44.3556794,74.8343287 L45.0290116,76.9719089 L42.2334044,77.9929219 L41.5600721,75.8553417 Z M51.1145714,58.6405662 L48.3189641,59.6615793 L47.6456319,57.5248839 L50.4412391,56.5038708 L51.1145714,58.6405662 Z M52.1884937,71.9774386 L54.9926242,70.9573103 L55.6574332,73.0940058 L52.8618259,74.1150188 L52.1884937,71.9774386 Z M45.8046222,60.5799602 L43.0004917,61.6000885 L42.3356827,59.4633931 L45.13129,58.4432648 L45.8046222,60.5799602 Z M47.5774463,61.7593453 C49.8752991,60.9489051 52.3717423,62.2256138 53.1516145,64.6118115 C53.1669562,64.6569343 53.1805933,64.7020571 53.1942305,64.7480646 C53.9928536,67.2121212 52.7629569,69.889405 50.4156696,70.7971688 C48.1186691,71.6084937 45.6230782,70.3326698 44.8423537,67.9491263 C44.8261596,67.9031188 44.8125225,67.8571113 44.7988854,67.810219 C44.0002623,65.3452776 45.230159,62.667109 47.5774463,61.7593453 L47.5774463,61.7593453 Z M59.6974267,69.2382216 L59.3479757,71.7482858 L58.1802983,72.1756249 L57.5069661,70.0389294 L59.6974267,69.2426454 L59.6974267,69.2382216 Z M48.8474021,69.2054855 L48.711031,68.7631055 L47.3643665,64.4870604 L47.2279954,64.0446804 L51.1316178,65.4956868 L48.8474021,69.2010617 L48.8474021,69.2054855 Z M70.7349615,80.8506967 L73.0021308,77.5646981 L79.0280282,84.9904888 L61.9057859,82.2229595 L62.1606294,80.3649635 L66.4904114,74.0088476 L70.7349615,80.849812 L70.7349615,80.8506967 Z M79.4200951,75.8500332 C79.2896902,76.9285556 78.3419112,77.693873 77.3029339,77.5585048 C77.2952631,77.55762 77.2875922,77.5567352 77.2807736,77.5558505 C76.2341256,77.3647423 75.5284052,76.3375359 75.6954598,75.2483964 C75.8250123,74.1707587 76.771939,73.4054413 77.8100639,73.5399248 C77.8177348,73.5408096 77.826258,73.5416943 77.8347812,73.5434638 C78.8822816,73.7336872 79.588002,74.7608936 79.4200951,75.8500332 L79.4200951,75.8500332 Z M81.3719062,49.7938509 C79.9604655,47.4041141 77.9668907,45.4426012 75.5931814,44.1074983 L76.6074414,42 C79.323783,43.5350586 81.6062941,45.7796948 83.2299623,48.5118337 C84.8809048,51.2837868 85.8244222,54.445919 85.9744304,57.7018359 L83.7754466,57.8186242 C83.6433372,54.9750055 82.8165874,52.2136695 81.3719062,49.7938509 L81.3719062,49.7938509 Z M77.2134404,52.676399 C76.2665137,51.0758682 74.8678577,49.8186242 73.2066874,49.0763106 L74.2209474,46.9617341 C76.22475,47.9040035 77.9114899,49.4479098 79.062121,51.3952665 C80.2408785,53.3682814 80.8417636,55.6545012 80.7923291,57.9761115 L78.5941977,58.0911303 C78.6589739,56.1844725 78.1774135,54.2999336 77.2134404,52.676399 L77.2134404,52.676399 Z M84.7982298,70.246848 L62.2629077,66.6042911 L57.6177676,51.8287989 L34,60.4445919 L40.3753483,80.7321389 L59.049664,73.9194868 L57.5751516,84.5259898 L57.3884937,85.8168547 L58.5894116,86.0106171 L82.0716604,89.8062376 L83.2734306,90 L83.4524176,88.7091351 L85.8210129,71.7314753 L86,70.4406105 L84.7982298,70.246848 Z" id="Fill-1" fill="#FFFFFF" opacity="0.399999976"></path>
            </g>
        </g>
    </g>
</svg>