<?xml version="1.0" encoding="UTF-8"?>
<svg width="140px" height="140px" viewBox="0 0 140 140" version="1.1" xmlns="http://www.w3.org/2000/svg" xmlns:xlink="http://www.w3.org/1999/xlink">
    <!-- Generator: Sketch 43.2 (39069) - http://www.bohemiancoding.com/sketch -->
    <title>01</title>
    <desc>Created with Sketch.</desc>
    <defs></defs>
    <g id="Page-1" stroke="none" stroke-width="1" fill="none" fill-rule="evenodd">
        <g id="01">
            <g id="l" transform="translate(20.000000, 13.000000)" fill="#FFFFFF">
                <rect id="Rectangle-5-Copy-12" x="0" y="0" width="5" height="5"></rect>
                <rect id="Rectangle-5-Copy-13" x="0" y="10" width="5" height="5"></rect>
                <rect id="Rectangle-5-Copy-14" x="0" y="20" width="5" height="5"></rect>
                <rect id="Rectangle-5-Copy-15" x="0" y="30" width="5" height="5"></rect>
                <rect id="Rectangle-5-Copy-16" x="0" y="40" width="5" height="5"></rect>
                <rect id="Rectangle-5-Copy-17" x="0" y="50" width="5" height="5"></rect>
                <rect id="Rectangle-5-Copy-18" x="0" y="60" width="5" height="5"></rect>
                <rect id="Rectangle-5-Copy-19" x="0" y="70" width="5" height="5"></rect>
                <rect id="Rectangle-5-Copy-20" x="0" y="80" width="5" height="5"></rect>
                <rect id="Rectangle-5-Copy-21" x="0" y="90" width="5" height="5"></rect>
                <rect id="Rectangle-5-Copy-22" x="0" y="100" width="5" height="5"></rect>
                <rect id="Rectangle-5-Copy-23" x="0" y="110" width="5" height="5"></rect>
            </g>
            <g id="r" transform="translate(115.000000, 13.000000)" fill="#FFFFFF">
                <rect id="Rectangle-5-Copy-12" x="0" y="0" width="5" height="5"></rect>
                <rect id="Rectangle-5-Copy-13" x="0" y="10" width="5" height="5"></rect>
                <rect id="Rectangle-5-Copy-14" x="0" y="20" width="5" height="5"></rect>
                <rect id="Rectangle-5-Copy-15" x="0" y="30" width="5" height="5"></rect>
                <rect id="Rectangle-5-Copy-16" x="0" y="40" width="5" height="5"></rect>
                <rect id="Rectangle-5-Copy-17" x="0" y="50" width="5" height="5"></rect>
                <rect id="Rectangle-5-Copy-18" x="0" y="60" width="5" height="5"></rect>
                <rect id="Rectangle-5-Copy-19" x="0" y="70" width="5" height="5"></rect>
                <rect id="Rectangle-5-Copy-20" x="0" y="80" width="5" height="5"></rect>
                <rect id="Rectangle-5-Copy-21" x="0" y="90" width="5" height="5"></rect>
                <rect id="Rectangle-5-Copy-22" x="0" y="100" width="5" height="5"></rect>
                <rect id="Rectangle-5-Copy-24" x="0" y="110" width="5" height="5"></rect>
            </g>
            <rect id="Rectangle-4" stroke="#FFFFFF" stroke-width="4" x="12" y="6" width="116" height="128"></rect>
        </g>
    </g>
</svg>