<?xml version="1.0" encoding="UTF-8"?>
<svg width="320px" height="195px" viewBox="0 0 320 195" version="1.1" xmlns="http://www.w3.org/2000/svg" xmlns:xlink="http://www.w3.org/1999/xlink" style="background: #273142;">
    <!-- Generator: Sketch 46.2 (44496) - http://www.bohemiancoding.com/sketch -->
    <title>file_cabnet_pic3</title>
    <desc>Created with Sketch.</desc>
    <defs>
        <rect id="path-1" x="0" y="0" width="320" height="190"></rect>
        <rect id="path-3" x="0" y="0" width="320" height="195"></rect>
    </defs>
    <g id="slice" stroke="none" stroke-width="1" fill="none" fill-rule="evenodd">
        <g id="file_cabnet_pic3">
            <g id="pic">
                <mask id="mask-2" fill="white">
                    <use xlink:href="#path-1"></use>
                </mask>
                <use id="Mask" fill="#1F2635" xlink:href="#path-1"></use>
            </g>
            <g id="Group-7">
                <mask id="mask-4" fill="white">
                    <use xlink:href="#path-3"></use>
                </mask>
                <use id="Mask" fill="#1F2635" xlink:href="#path-3"></use>
                <g id="Group-8" mask="url(#mask-4)">
                    <g transform="translate(58.000000, 16.000000)">
                        <g id="Group" opacity="0.5546875">
                            <path d="M203.238362,50.3297185 L202.737494,50.3297185 C202.357753,50.3297185 202.05007,50.0224595 202.05007,49.6434233 L202.05007,49.1434839 C202.05007,48.99537 201.929679,48.8752022 201.781143,48.8752022 C201.632753,48.8752022 201.51251,48.99537 201.51251,49.1434839 L201.51251,49.6434233 C201.51251,50.0224595 201.20468,50.3297185 200.825086,50.3297185 L200.32407,50.3297185 C200.175681,50.3297185 200.05529,50.4497393 200.05529,50.5978531 C200.05529,50.745967 200.175681,50.8659878 200.32407,50.8659878 L200.825086,50.8659878 C201.20468,50.8659878 201.51251,51.1732468 201.51251,51.5524301 L201.51251,52.0523695 C201.51251,52.2004834 201.632753,52.3205041 201.781143,52.3205041 C201.929679,52.3205041 202.05007,52.2004834 202.05007,52.0523695 L202.05007,51.5524301 C202.05007,51.1732468 202.357753,50.8659878 202.737494,50.8659878 L203.238362,50.8659878 C203.386899,50.8659878 203.507143,50.745967 203.507143,50.5978531 C203.507143,50.4497393 203.386899,50.3297185 203.238362,50.3297185" id="Fill-33" fill="#FFFFFF"></path>
                            <path d="M3.85442503,53.9868401 L3.35355641,53.9868401 C2.97366841,53.9868401 2.66598566,53.679581 2.66598566,53.3005448 L2.66598566,52.8006054 C2.66598566,52.6524916 2.54559447,52.5323237 2.39720532,52.5323237 C2.24881618,52.5323237 2.12857234,52.6524916 2.12857234,52.8006054 L2.12857234,53.3005448 C2.12857234,53.679581 1.82074223,53.9868401 1.44100159,53.9868401 L0.940132975,53.9868401 C0.791743832,53.9868401 0.67135264,54.1068608 0.67135264,54.2549747 C0.67135264,54.4030885 0.791743832,54.5231093 0.940132975,54.5231093 L1.44100159,54.5231093 C1.82074223,54.5231093 2.12857234,54.8303683 2.12857234,55.2095516 L2.12857234,55.709491 C2.12857234,55.8576049 2.24881618,55.9776256 2.39720532,55.9776256 C2.54559447,55.9776256 2.66598566,55.8576049 2.66598566,55.709491 L2.66598566,55.2095516 C2.66598566,54.8303683 2.97366841,54.5231093 3.35355641,54.5231093 L3.85442503,54.5231093 C4.00281417,54.5231093 4.12305801,54.4030885 4.12305801,54.2549747 C4.12305801,54.1068608 4.00281417,53.9868401 3.85442503,53.9868401" id="Fill-41" fill="#FFFFFF"></path>
                            <path d="M84.8694748,49.1177035 L84.3686061,49.1177035 C83.9888655,49.1177035 83.6811827,48.8104445 83.6811827,48.4314083 L83.6811827,47.9314689 C83.6811827,47.783355 83.5607916,47.6631872 83.4122551,47.6631872 C83.2638659,47.6631872 83.1436221,47.783355 83.1436221,47.9314689 L83.1436221,48.4314083 C83.1436221,48.8104445 82.835792,49.1177035 82.4561987,49.1177035 L81.9551827,49.1177035 C81.8067936,49.1177035 81.6864024,49.2377243 81.6864024,49.3859852 C81.6864024,49.5340991 81.8067936,49.6541199 81.9551827,49.6541199 L82.4561987,49.6541199 C82.835792,49.6541199 83.1436221,49.9613789 83.1436221,50.3404151 L83.1436221,50.8403545 C83.1436221,50.9884684 83.2638659,51.1086362 83.4122551,51.1086362 C83.5607916,51.1086362 83.6811827,50.9884684 83.6811827,50.8403545 L83.6811827,50.3404151 C83.6811827,49.9613789 83.9888655,49.6541199 84.3686061,49.6541199 L84.8694748,49.6541199 C85.0180113,49.6541199 85.1382551,49.5340991 85.1382551,49.3859852 L85.1382551,49.3858382 C85.1382551,49.2377243 85.0180113,49.1177035 84.8694748,49.1177035" id="Fill-43" fill="#FFFFFF"></path>
                            <path d="M35.1322336,69.0013641 L34.8428232,69.0013641 C34.6234076,69.0013641 34.445547,68.8238334 34.445547,68.604972 L34.445547,68.3159514 C34.445547,68.2303484 34.3759942,68.1609246 34.290232,68.1609246 C34.2044699,68.1609246 34.1349171,68.2303484 34.1349171,68.3159514 L34.1349171,68.604972 C34.1349171,68.8238334 33.9570564,69.0013641 33.7377882,69.0013641 L33.4482305,69.0013641 C33.3624683,69.0013641 33.2930629,69.0707879 33.2930629,69.156391 C33.2930629,69.241994 33.3624683,69.3112707 33.4482305,69.3112707 L33.7377882,69.3112707 C33.9570564,69.3112707 34.1349171,69.4888014 34.1349171,69.707957 L34.1349171,69.9968305 C34.1349171,70.0824335 34.2044699,70.1517102 34.290232,70.1517102 C34.3759942,70.1517102 34.445547,70.0824335 34.445547,69.9968305 L34.445547,69.707957 C34.445547,69.4888014 34.6234076,69.3112707 34.8428232,69.3112707 L35.1322336,69.3112707 C35.2179957,69.3112707 35.2875485,69.241994 35.2875485,69.156391 C35.2875485,69.0707879 35.2179957,69.0013641 35.1322336,69.0013641" id="Fill-45" fill="#FFFFFF"></path>
                            <path d="M145.758536,38.0382573 L145.350945,38.0382573 C145.042083,38.0382573 144.791575,37.7883611 144.791575,37.4800725 L144.791575,37.0730903 C144.791575,36.9526283 144.69373,36.8549644 144.573044,36.8549644 C144.452358,36.8549644 144.354512,36.9526283 144.354512,37.0730903 L144.354512,37.4800725 C144.354512,37.7883611 144.104004,38.0382573 143.795143,38.0382573 L143.387551,38.0382573 C143.266866,38.0382573 143.16902,38.1359213 143.16902,38.2563833 C143.16902,38.3769924 143.266866,38.4746563 143.387551,38.4746563 L143.795143,38.4746563 C144.104004,38.4746563 144.354512,38.7245525 144.354512,39.0328411 L144.354512,39.4396762 C144.354512,39.5601383 144.452358,39.6579493 144.573044,39.6579493 C144.69373,39.6579493 144.791575,39.5601383 144.791575,39.4396762 L144.791575,39.0328411 C144.791575,38.7245525 145.042083,38.4746563 145.350945,38.4746563 L145.758536,38.4746563 C145.879222,38.4746563 145.977067,38.3769924 145.977067,38.2563833 C145.977067,38.1359213 145.879222,38.0382573 145.758536,38.0382573" id="Fill-47" fill="#FFFFFF"></path>
                            <path d="M157.512754,1.48537459 L157.105163,1.48537459 C156.796301,1.48537459 156.545793,1.23547842 156.545793,0.927042703 L156.545793,0.520207612 C156.545793,0.399745595 156.447948,0.30208164 156.327262,0.30208164 C156.206576,0.30208164 156.10873,0.399745595 156.10873,0.520207612 L156.10873,0.927042703 C156.10873,1.23547842 155.858222,1.48537459 155.549508,1.48537459 L155.141769,1.48537459 C155.021231,1.48537459 154.923238,1.58303855 154.923238,1.70350057 C154.923238,1.82410967 155.021231,1.92177362 155.141769,1.92177362 L155.549508,1.92177362 C155.858222,1.92177362 156.10873,2.1716698 156.10873,2.47995843 L156.10873,2.88679352 C156.10873,3.00725554 156.206576,3.10506657 156.327262,3.10506657 C156.447948,3.10506657 156.545793,3.00725554 156.545793,2.88679352 L156.545793,2.47995843 C156.545793,2.1716698 156.796301,1.92177362 157.105163,1.92177362 L157.512754,1.92177362 C157.63344,1.92177362 157.731285,1.82410967 157.731285,1.70350057 C157.731285,1.58303855 157.63344,1.48537459 157.512754,1.48537459" id="Fill-49" fill="#FFFFFF"></path>
                            <path d="M52.1107472,46.9519318 L51.8211894,46.9519318 C51.6019212,46.9519318 51.4240606,46.7744011 51.4240606,46.5553926 L51.4240606,46.266372 C51.4240606,46.180916 51.3545078,46.1114923 51.2687456,46.1114923 C51.1829835,46.1114923 51.1134307,46.180916 51.1134307,46.266372 L51.1134307,46.5553926 C51.1134307,46.7744011 50.93557,46.9519318 50.7161545,46.9519318 L50.4265967,46.9519318 C50.3409819,46.9519318 50.2715765,47.0213556 50.2715765,47.1069586 C50.2715765,47.1925617 50.3409819,47.2618383 50.4265967,47.2618383 L50.7161545,47.2618383 C50.93557,47.2618383 51.1134307,47.4393691 51.1134307,47.6583775 L51.1134307,47.9473981 C51.1134307,48.0330012 51.1829835,48.1022779 51.2687456,48.1022779 C51.3545078,48.1022779 51.4240606,48.0330012 51.4240606,47.9473981 L51.4240606,47.6583775 C51.4240606,47.4393691 51.6019212,47.2618383 51.8211894,47.2618383 L52.1107472,47.2618383 C52.1965093,47.2618383 52.2660621,47.1925617 52.2660621,47.1069586 C52.2660621,47.0213556 52.1965093,46.9519318 52.1107472,46.9519318" id="Fill-51" fill="#FFFFFF"></path>
                            <path d="M6.58183812,94.8127856 L6.17424689,94.8127856 C5.86538527,94.8127856 5.61487728,94.5628894 5.61487728,94.2544537 L5.61487728,93.8476186 C5.61487728,93.7271566 5.51703181,93.6294926 5.3963459,93.6294926 C5.27566,93.6294926 5.17781452,93.7271566 5.17781452,93.8476186 L5.17781452,94.2544537 C5.17781452,94.5628894 4.92730653,94.8127856 4.61844492,94.8127856 L4.21085369,94.8127856 C4.09016778,94.8127856 3.99232231,94.9104495 3.99232231,95.0309115 C3.99232231,95.1515206 4.09016778,95.2491846 4.21085369,95.2491846 L4.61844492,95.2491846 C4.92730653,95.2491846 5.17781452,95.4990808 5.17781452,95.8075165 L5.17781452,96.2142045 C5.17781452,96.3348136 5.27566,96.4324775 5.3963459,96.4324775 C5.51703181,96.4324775 5.61487728,96.3348136 5.61487728,96.2142045 L5.61487728,95.8075165 C5.61487728,95.4990808 5.86538527,95.2491846 6.17424689,95.2491846 L6.58183812,95.2491846 C6.70252403,95.2491846 6.8003695,95.1515206 6.8003695,95.0309115 C6.8003695,94.9104495 6.70252403,94.8127856 6.58183812,94.8127856" id="Fill-57" fill="#FFFFFF"></path>
                            <path d="M131.253018,88.0403051 L130.845427,88.0403051 C130.536565,88.0403051 130.286057,87.7904089 130.286057,87.4819732 L130.286057,87.0751381 C130.286057,86.9546761 130.188212,86.8570121 130.067526,86.8570121 C129.94684,86.8570121 129.848995,86.9546761 129.848995,87.0751381 L129.848995,87.4819732 C129.848995,87.7904089 129.598487,88.0403051 129.289625,88.0403051 L128.882034,88.0403051 C128.761348,88.0403051 128.663502,88.137969 128.663502,88.258431 C128.663502,88.3790401 128.761348,88.4767041 128.882034,88.4767041 L129.289625,88.4767041 C129.598487,88.4767041 129.848995,88.7266003 129.848995,89.035036 L129.848995,89.441724 C129.848995,89.5623331 129.94684,89.659997 130.067526,89.659997 C130.188212,89.659997 130.286057,89.5623331 130.286057,89.441724 L130.286057,89.035036 C130.286057,88.7266003 130.536565,88.4767041 130.845427,88.4767041 L131.253018,88.4767041 C131.373704,88.4767041 131.47155,88.3790401 131.47155,88.258431 C131.47155,88.137969 131.373704,88.0403051 131.253018,88.0403051" id="Fill-61" fill="#FFFFFF"></path>
                            <path d="M152.177803,104.232783 L151.770212,104.232783 C151.46135,104.232783 151.210842,103.982887 151.210842,103.674451 L151.210842,103.267616 C151.210842,103.147154 151.112997,103.04949 150.992311,103.04949 C150.871625,103.04949 150.773779,103.147154 150.773779,103.267616 L150.773779,103.674451 C150.773779,103.982887 150.523271,104.232783 150.21441,104.232783 L149.806819,104.232783 C149.686133,104.232783 149.588287,104.330447 149.588287,104.450909 C149.588287,104.571518 149.686133,104.669182 149.806819,104.669182 L150.21441,104.669182 C150.523271,104.669182 150.773779,104.919078 150.773779,105.227514 L150.773779,105.634202 C150.773779,105.754811 150.871625,105.852475 150.992311,105.852475 C151.112997,105.852475 151.210842,105.754811 151.210842,105.634202 L151.210842,105.227514 C151.210842,104.919078 151.46135,104.669182 151.770212,104.669182 L152.177803,104.669182 C152.298489,104.669182 152.396334,104.571518 152.396334,104.450909 C152.396334,104.330447 152.298489,104.232783 152.177803,104.232783" id="Fill-63" fill="#FFFFFF"></path>
                        </g>
                        <g id="Page-1" transform="translate(27.000000, 29.000000)">
                            <path d="M43.7792692,24.1358021 C43.7792692,35.5166023 34.6515769,44.7426076 23.3915769,44.7426076 C12.1315769,44.7426076 3.0035,35.5166023 3.0035,24.1358021 C3.0035,12.7553906 12.1315769,3.52938533 23.3915769,3.52938533 C34.6515769,3.52938533 43.7792692,12.7553906 43.7792692,24.1358021" id="Fill-1" fill="#FFFFFF"></path>
                            <path d="M92.2492692,30.3450168 C92.0100385,31.7965781 90.6373462,32.973299 89.1827308,32.9729103 L91.8161923,32.9736877 L94.5385,32.9744652 C95.9923462,32.974854 97.3654231,31.7977443 97.6046538,30.346183 L99.6404231,17.9993598 L94.2846538,17.9981936 L92.2492692,30.3450168 Z" id="Fill-3" fill="#FFFFFF"></path>
                            <polygon id="Fill-5" fill="#FFFFFF" points="94.5708462 16.2630064 99.9262308 16.2641727 100.692385 11.6175439 95.337 11.6163776"></polygon>
                            <path d="M115.133115,18.0032473 L109.805808,18.002081 L107.786577,20.2132435 L108.151577,18.0016923 L102.655808,18.0005261 L100.620423,30.3473492 C100.381192,31.7989105 99.0081154,32.9756315 97.5538846,32.9752427 L100.186962,32.9760202 L103.052731,32.9764089 C104.484269,32.9767977 105.834269,31.8362297 106.104654,30.4157678 L107.7085,20.6886745 L112.204269,20.6898407 C113.602346,20.6136474 114.891192,19.4711357 115.122346,18.0693333 L115.133115,18.0032473 Z" id="Fill-7" fill="#FFFFFF"></path>
                            <path d="M75.0861923,20.5729461 L74.0669615,26.7547156 L84.4692692,26.7574368 L83.8738846,30.3680692 L75.2773462,30.3661255 C73.9592692,30.5356168 72.7815769,31.6345894 72.5615769,32.9691395 L86.2088846,32.9722494 C87.5996538,32.908107 88.8858077,31.7869761 89.1404231,30.3991685 L90.1835,24.0716209 L79.9215769,24.0688997 L80.4888846,20.6262037 L88.5208077,20.6281474 C89.8385,20.4586561 91.0161923,19.3596835 91.2361923,18.0251334 L91.2408077,17.9975328 L78.1419615,17.9944228 C76.7046538,17.9940341 75.3485,19.1443206 75.0861923,20.5729461" id="Fill-9" fill="#FFFFFF"></path>
                            <path d="M116.168462,20.6602575 L114.570769,30.350809 C114.331538,31.8023703 112.958846,32.9787025 111.504615,32.9783138 L114.137692,32.9790913 L126.755769,32.9818124 C128.123462,32.9822012 129.418846,31.9415398 129.766923,30.609711 L129.818846,30.2956077 L119.88,30.2932753 L121.467308,20.6641449 L129.04,20.6660886 C130.302308,20.5568522 131.456923,19.5853868 131.802308,18.3530759 L131.854615,18.0354739 L119.235,18.032364 C117.780769,18.0319753 116.407692,19.2086962 116.168462,20.6602575" id="Fill-11" fill="#FFFFFF"></path>
                            <path d="M140.847346,18.0097004 L139.052731,20.2204741 L140.037346,14.2494025 C140.279654,12.8009512 141.650423,11.6277289 143.102346,11.6281176 L140.469654,11.6273401 L140.469269,11.6273401 L137.746962,11.6269514 C136.293115,11.6265627 134.920038,12.8028949 134.680808,14.2548449 L132.026192,30.3549686 C131.786962,31.8065298 130.414269,32.9832508 128.960038,32.982862 L131.593115,32.9836395 L134.314269,32.984417 C135.768115,32.984417 137.141192,31.8076961 137.380423,30.3561348 L138.978885,20.6686932 L144.025808,20.6698594 L142.398885,30.5392321 C142.079269,31.905659 140.764269,32.9855832 139.371577,32.9851945 L142.004654,32.9855832 L144.745808,32.9863607 C146.200038,32.9867495 147.572731,31.8104173 147.811962,30.3584672 L149.847731,18.0120328 L140.847346,18.0097004 Z" id="Fill-13" fill="#FFFFFF"></path>
                            <path d="M65.6343846,30.2425056 L57.4416923,30.2425056 L60.0736154,14.3289779 L68.2663077,14.3289779 L65.6343846,30.2425056 Z M57.5786154,11.5413116 C56.1332308,11.5413116 54.7659231,12.7250299 54.524,14.185921 L51.4116923,33.00296 L59.5486154,33.00296 L60.8274615,34.5695888 L61.0482308,34.840153 C61.0586154,34.8518152 61.0678462,34.8638662 61.0774615,34.8763059 C61.2128462,35.0512397 61.2759231,35.2864284 61.2332308,35.5468853 C61.144,36.0860699 60.6386154,36.5234043 60.1051538,36.5234043 L62.4216923,36.5234043 L62.9109231,36.5234043 L67.344,36.5234043 C67.8778462,36.5234043 68.3828462,36.0860699 68.4720769,35.5468853 C68.5055385,35.3447396 68.4736154,35.1585324 68.3951538,35.0034245 L66.794,33.00296 L68.294,33.00296 C69.689,32.9329865 70.9809231,31.7803675 71.2151538,30.3641817 L74.3286154,11.5413116 L57.5786154,11.5413116 Z" id="Fill-16" fill="#FFFFFF"></path>
                            <g id="Group-20" transform="translate(0.000000, 0.151220)" fill="#2E396B">
                                <path d="M23.3912692,42.706029 C13.1208846,42.706029 4.7655,34.2602282 4.7655,23.8792715 C4.7655,13.4990923 13.1208846,5.05406891 23.3912692,5.05406891 C33.6616538,5.05406891 42.0174231,13.4990923 42.0174231,23.8792715 C42.0174231,34.2602282 33.6616538,42.706029 23.3912692,42.706029 M51.7881923,47.8906763 L41.5266538,38.7945107 C44.8105,34.7232195 46.7828077,29.5296312 46.7828077,23.8792715 C46.7828077,10.8432094 36.2893462,0.237560015 23.3912692,0.237560015 C10.4931923,0.237560015 0.000115384615,10.8432094 0.000115384615,23.8792715 C0.000115384615,36.9161111 10.4931923,47.5229267 23.3912692,47.5229267 C28.9435769,47.5229267 34.0489615,45.555894 38.0651154,42.277247 L47.0708846,52.6585925 C47.7224231,53.3171208 48.5758846,53.646385 49.4297308,53.646385 C50.2835769,53.646385 51.1374231,53.3171208 51.7881923,52.6585925 C53.0905,51.3415358 53.0912692,49.2073442 51.7881923,47.8906763" id="Fill-18"></path>
                            </g>
                            <path d="M29.3293462,36.322697 L25.4066538,35.4884574 C25.2951154,35.4219826 27.0001154,34.3129027 29.3558846,32.8446255 L28.9055,32.057035 L26.4216538,28.6182264 L23.4612692,29.4567421 L23.0528077,22.6386025 L22.6228077,21.2966664 L21.8751154,21.6270968 L16.4912692,23.9813162 C16.4693462,23.9910347 16.4478077,23.9991983 16.4258846,24.0061956 C16.2424231,24.0664506 20.4201154,15.6334782 20.4201154,15.6334782 C20.4201154,15.6334782 20.5416538,8.28742749 20.8805,8.17663612 C12.2155,9.57804973 6.3155,17.8139301 7.70242308,26.5715017 C9.08896154,35.3294621 17.2374231,41.2927588 25.9020385,39.8913452 C26.4912692,39.7961035 27.0662692,39.6666525 27.6285769,39.5099897 L29.3293462,36.322697 Z" id="Fill-21" fill="#8FC31F"></path>
                            <path d="M29.356,32.8445089 C27.0002308,34.3127861 25.2952308,35.421866 25.4067692,35.4887295 L29.3294615,36.3225803 L27.6283077,39.509873 C32.9367692,38.0322661 36.9767692,33.9154921 38.5552308,28.8276415 C38.7456154,28.2157622 38.9002308,27.5898882 39.0167692,26.9531294 C36.3067692,28.5842893 32.3171538,30.9983749 29.356,32.8445089" id="Fill-23" fill="#2E396B"></path>
                            <path d="M20.4202692,15.6335949 C20.4202692,15.6335949 16.2425769,24.0661785 16.4256538,24.0063123 C16.4475769,23.9993149 16.4695,23.9911513 16.4910385,23.9814328 L21.8752692,21.6272134 L22.6229615,21.2963943 L36.6025769,15.1126811 C33.2579615,10.060206 27.2087308,7.15280727 20.8806538,8.176364 C20.5414231,8.28754411 20.4202692,15.6335949 20.4202692,15.6335949" id="Fill-25" fill="#2E396B"></path>
                        </g>
                    </g>
                </g>
            </g>
        </g>
    </g>
</svg>