<?xml version="1.0" encoding="UTF-8"?>
<svg width="320px" height="195px" viewBox="0 0 320 195" version="1.1" xmlns="http://www.w3.org/2000/svg" xmlns:xlink="http://www.w3.org/1999/xlink" style="background: #273142;">
    <!-- Generator: Sketch 46.2 (44496) - http://www.bohemiancoding.com/sketch -->
    <title>file_cabinet_pic1</title>
    <desc>Created with Sketch.</desc>
    <defs>
        <rect id="path-1" x="0" y="0" width="320" height="195"></rect>
        <linearGradient x1="50%" y1="35.6730229%" x2="50%" y2="100%" id="linearGradient-3">
            <stop stop-color="#FFFFFF" offset="0%"></stop>
            <stop stop-color="#FFFFFF" stop-opacity="0.158486187" offset="100%"></stop>
        </linearGradient>
        <rect id="path-4" x="0" y="0" width="32.4642857" height="32.1081081" rx="5.4"></rect>
        <rect id="path-6" x="0" y="0" width="32.4642857" height="32.1081081" rx="5.4"></rect>
        <radialGradient cx="50%" cy="0%" fx="50%" fy="0%" r="111.803399%" gradientTransform="translate(0.500000,0.000000),scale(1.000000,0.765577),rotate(110.946264),translate(-0.500000,-0.000000)" id="radialGradient-7">
            <stop stop-color="#FFFFFF" offset="0%"></stop>
            <stop stop-color="#FCFCFC" offset="28.3328105%"></stop>
            <stop stop-color="#F6F6F6" offset="100%"></stop>
        </radialGradient>
        <rect id="path-8" x="0" y="0" width="32.4642857" height="32.1081081" rx="5.4"></rect>
    </defs>
    <g id="slice" stroke="none" stroke-width="1" fill="none" fill-rule="evenodd">
        <g id="file_cabinet_pic1">
            <g id="pic">
                <mask id="mask-2" fill="white">
                    <use xlink:href="#path-1"></use>
                </mask>
                <use id="Mask" fill="#1F2635" xlink:href="#path-1"></use>
                <g id="Check_icon" mask="url(#mask-2)" fill="url(#linearGradient-3)">
                    <g transform="translate(-51.000000, 10.000000)" id="cloud">
                        <path d="M365.295017,49.5720247 C362.244225,55.262361 355.424078,58 347.5,58 C338.463122,58 330.862002,54.4394626 328.650082,46.9994063 C328.600102,46.9998017 328.550076,47 328.5,47 C318.835017,47 311,39.6126984 311,30.5 C311,21.5217309 318.60556,14.2183283 328.073485,14.0048046 C328.849963,6.14590372 335.684103,0 344,0 C348.790028,0 353.08843,2.03912427 356.020698,5.27019323 C359.522407,2.00551099 364.270834,0 369.5,0 C380.269553,0 389,8.50658975 389,19 C389,19.8110718 388.947842,20.6102738 388.846616,21.3945953 C395.974875,24.2214321 401,31.0389228 401,39 C401,49.4934102 392.269553,58 381.5,58 C374.74639,58 368.794673,54.6547229 365.295017,49.5720247 Z" opacity="0.1"></path>
                        <path d="M77.9606219,155.336185 C72.9804313,161.852661 63.889429,165 53.5,165 C40.1602986,165 28.9611516,159.811373 25.8555893,148.964638 C25.4068325,148.98811 24.9548638,149 24.5,149 C10.9690236,149 0,138.478692 0,125.5 C0,112.521308 10.9690236,102 24.5,102 C24.6975908,102 24.8946354,102.002244 25.0911074,102.006706 C26.1213046,90.7905034 35.7607552,82 47.5,82 C54.1637697,82 60.1509325,84.8325226 64.2708379,89.333376 C69.3395965,84.7786792 76.089506,82 83.5,82 C99.2401154,82 112,94.536027 112,110 C112,110.605343 111.980447,111.206198 111.941928,111.801991 C121.447765,116.34082 128,125.918656 128,137 C128,152.463973 115.240115,165 99.5,165 C90.8980649,165 83.1862044,161.255995 77.9606219,155.336185 Z" opacity="0.08"></path>
                    </g>
                </g>
                <g id="Group-2" mask="url(#mask-2)">
                    <g transform="translate(110.000000, 57.000000)" id="Group">
                        <g transform="translate(22.628464, 23.182518) rotate(-30.000000) translate(-22.628464, -23.182518) translate(6.128464, 6.682518)">
                            <mask id="mask-5" fill="white">
                                <use xlink:href="#path-4"></use>
                            </mask>
                            <g id="Mask">
                                <use fill="#585E69" fill-rule="evenodd" xlink:href="#path-4"></use>
                                <rect stroke="#FFFFFF" stroke-width="1.8" x="0.9" y="0.9" width="30.6642857" height="30.3081081" rx="5.4"></rect>
                            </g>
                            <path d="M1.08214269,31.5315909 L11.6649965,20.7206622 L11.6649965,20.7206622 C12.2706764,20.1019291 13.2632593,20.0913474 13.8819924,20.6970273 C13.8973339,20.7120451 13.9123652,20.7273764 13.927077,20.7430116 L15.115049,22.0055506 L15.115049,22.0055506 C15.7083857,22.63613 16.7005658,22.6663212 17.3311452,22.0729845 C17.3406667,22.0640253 17.3500758,22.0549474 17.3593702,22.0457529 L22.1851874,17.2717965 L22.1851874,17.2717965 C22.7986211,16.6649551 23.787122,16.6679024 24.3969261,17.2783911 L32.2115962,25.1018336 L32.2115962,31.5315909 L29.6709232,33.2771107 L4.1968149,33.2771107 L1.08214269,31.5315909 Z" id="Path-5" stroke="#FFFFFF" stroke-width="1.8" fill="#FFFFFF" stroke-linecap="round" stroke-linejoin="round" mask="url(#mask-5)"></path>
                            <ellipse id="Oval-2" stroke="#FFFFFF" stroke-width="1.56774194" fill="#FFFFFF" mask="url(#mask-5)" cx="8.57145999" cy="8.47812999" rx="3.16074571" ry="3.12677863"></ellipse>
                        </g>
                        <g transform="translate(34.282647, 2.189189)">
                            <g id="Checkbox">
                                <use fill="#585E69" fill-rule="evenodd" xlink:href="#path-6"></use>
                                <rect stroke="#FFFFFF" stroke-width="1.8" x="0.9" y="0.9" width="30.6642857" height="30.3081081" rx="5.4"></rect>
                            </g>
                            <path d="M21.1878116,18.1261221 L15.4525324,22.1136724 L15.4525324,22.1136724 C14.6363129,22.6811628 13.5145943,22.4795281 12.9471038,21.6633086 C12.7373989,21.3616908 12.625,21.0031308 12.625,20.6357762 L12.625,12.6606757 L12.625,12.6606757 C12.625,11.6665632 13.4308875,10.8606757 14.425,10.8606757 C14.7923546,10.8606757 15.1509146,10.9730746 15.4525324,11.1827795 L21.1878116,15.1703298 L21.1878116,15.1703298 C22.0040311,15.7378202 22.2056658,16.8595388 21.6381753,17.6757584 C21.5160181,17.8514567 21.3635099,18.0039649 21.1878116,18.1261221 Z" id="play" fill="url(#radialGradient-7)"></path>
                        </g>
                        <g transform="translate(78.685424, 22.930246) rotate(-330.000000) translate(-78.685424, -22.930246) translate(62.453281, 6.876192)">
                            <g id="Checkbox">
                                <use fill="#585E69" fill-rule="evenodd" xlink:href="#path-8"></use>
                                <rect stroke="#FFFFFF" stroke-width="1.8" x="0.9" y="0.9" width="30.6642857" height="30.3081081" rx="5.4"></rect>
                            </g>
                            <ellipse id="Oval-6" fill="#FFFFFF" transform="translate(11.177664, 22.195379) rotate(-23.000000) translate(-11.177664, -22.195379) " cx="11.1776635" cy="22.195379" rx="2.59714286" ry="1.92648649"></ellipse>
                            <ellipse id="Oval-6" fill="#FFFFFF" transform="translate(20.393915, 20.436421) rotate(-23.000000) translate(-20.393915, -20.436421) " cx="20.3939146" cy="20.4364208" rx="2.59714286" ry="1.92648649"></ellipse>
                            <polyline id="Path-8" stroke="#FFFFFF" stroke-width="2.7" stroke-linecap="round" stroke-linejoin="round" points="12.4085714 21.4974168 12.4085714 11.4351619 21.6544621 8.02702703 21.6544621 19.853905"></polyline>
                        </g>
                    </g>
                </g>
                <g id="Group" mask="url(#mask-2)" fill="#FFFFFF" opacity="0.5546875">
                    <g transform="translate(58.000000, 16.000000)">
                        <path d="M203.238362,50.3297185 L202.737494,50.3297185 C202.357753,50.3297185 202.05007,50.0224595 202.05007,49.6434233 L202.05007,49.1434839 C202.05007,48.99537 201.929679,48.8752022 201.781143,48.8752022 C201.632753,48.8752022 201.51251,48.99537 201.51251,49.1434839 L201.51251,49.6434233 C201.51251,50.0224595 201.20468,50.3297185 200.825086,50.3297185 L200.32407,50.3297185 C200.175681,50.3297185 200.05529,50.4497393 200.05529,50.5978531 C200.05529,50.745967 200.175681,50.8659878 200.32407,50.8659878 L200.825086,50.8659878 C201.20468,50.8659878 201.51251,51.1732468 201.51251,51.5524301 L201.51251,52.0523695 C201.51251,52.2004834 201.632753,52.3205041 201.781143,52.3205041 C201.929679,52.3205041 202.05007,52.2004834 202.05007,52.0523695 L202.05007,51.5524301 C202.05007,51.1732468 202.357753,50.8659878 202.737494,50.8659878 L203.238362,50.8659878 C203.386899,50.8659878 203.507143,50.745967 203.507143,50.5978531 C203.507143,50.4497393 203.386899,50.3297185 203.238362,50.3297185" id="Fill-33"></path>
                        <path d="M6.78502957,6.04944362 L6.26515181,6.04944362 C5.87111748,6.04944362 5.55164612,5.73056492 5.55164612,5.33726158 L5.55164612,4.81834828 C5.55164612,4.66449813 5.42668684,4.53991775 5.27269811,4.53991775 C5.11870937,4.53991775 4.99389745,4.66449813 4.99389745,4.81834828 L4.99389745,5.33726158 C4.99389745,5.73056492 4.67457345,6.04944362 4.28039176,6.04944362 L3.760514,6.04944362 C3.60652527,6.04944362 3.48156599,6.17417108 3.48156599,6.32787414 C3.48156599,6.4815772 3.60652527,6.60615758 3.760514,6.60615758 L4.28039176,6.60615758 C4.67457345,6.60615758 4.99389745,6.92503628 4.99389745,7.31833962 L4.99389745,7.83725292 C4.99389745,7.99095598 5.11870937,8.11568345 5.27269811,8.11568345 C5.42668684,8.11568345 5.55164612,7.99095598 5.55164612,7.83725292 L5.55164612,7.31833962 C5.55164612,6.92503628 5.87111748,6.60615758 6.26515181,6.60615758 L6.78502957,6.60615758 C6.93916566,6.60615758 7.06397758,6.4815772 7.06397758,6.32787414 C7.06397758,6.17417108 6.93916566,6.04944362 6.78502957,6.04944362" id="Fill-35"></path>
                        <path d="M3.85442503,53.9868401 L3.35355641,53.9868401 C2.97366841,53.9868401 2.66598566,53.679581 2.66598566,53.3005448 L2.66598566,52.8006054 C2.66598566,52.6524916 2.54559447,52.5323237 2.39720532,52.5323237 C2.24881618,52.5323237 2.12857234,52.6524916 2.12857234,52.8006054 L2.12857234,53.3005448 C2.12857234,53.679581 1.82074223,53.9868401 1.44100159,53.9868401 L0.940132975,53.9868401 C0.791743832,53.9868401 0.67135264,54.1068608 0.67135264,54.2549747 C0.67135264,54.4030885 0.791743832,54.5231093 0.940132975,54.5231093 L1.44100159,54.5231093 C1.82074223,54.5231093 2.12857234,54.8303683 2.12857234,55.2095516 L2.12857234,55.709491 C2.12857234,55.8576049 2.24881618,55.9776256 2.39720532,55.9776256 C2.54559447,55.9776256 2.66598566,55.8576049 2.66598566,55.709491 L2.66598566,55.2095516 C2.66598566,54.8303683 2.97366841,54.5231093 3.35355641,54.5231093 L3.85442503,54.5231093 C4.00281417,54.5231093 4.12305801,54.4030885 4.12305801,54.2549747 C4.12305801,54.1068608 4.00281417,53.9868401 3.85442503,53.9868401" id="Fill-41"></path>
                        <path d="M84.8694748,49.1177035 L84.3686061,49.1177035 C83.9888655,49.1177035 83.6811827,48.8104445 83.6811827,48.4314083 L83.6811827,47.9314689 C83.6811827,47.783355 83.5607916,47.6631872 83.4122551,47.6631872 C83.2638659,47.6631872 83.1436221,47.783355 83.1436221,47.9314689 L83.1436221,48.4314083 C83.1436221,48.8104445 82.835792,49.1177035 82.4561987,49.1177035 L81.9551827,49.1177035 C81.8067936,49.1177035 81.6864024,49.2377243 81.6864024,49.3859852 C81.6864024,49.5340991 81.8067936,49.6541199 81.9551827,49.6541199 L82.4561987,49.6541199 C82.835792,49.6541199 83.1436221,49.9613789 83.1436221,50.3404151 L83.1436221,50.8403545 C83.1436221,50.9884684 83.2638659,51.1086362 83.4122551,51.1086362 C83.5607916,51.1086362 83.6811827,50.9884684 83.6811827,50.8403545 L83.6811827,50.3404151 C83.6811827,49.9613789 83.9888655,49.6541199 84.3686061,49.6541199 L84.8694748,49.6541199 C85.0180113,49.6541199 85.1382551,49.5340991 85.1382551,49.3859852 L85.1382551,49.3858382 C85.1382551,49.2377243 85.0180113,49.1177035 84.8694748,49.1177035" id="Fill-43"></path>
                        <path d="M35.1322336,69.0013641 L34.8428232,69.0013641 C34.6234076,69.0013641 34.445547,68.8238334 34.445547,68.604972 L34.445547,68.3159514 C34.445547,68.2303484 34.3759942,68.1609246 34.290232,68.1609246 C34.2044699,68.1609246 34.1349171,68.2303484 34.1349171,68.3159514 L34.1349171,68.604972 C34.1349171,68.8238334 33.9570564,69.0013641 33.7377882,69.0013641 L33.4482305,69.0013641 C33.3624683,69.0013641 33.2930629,69.0707879 33.2930629,69.156391 C33.2930629,69.241994 33.3624683,69.3112707 33.4482305,69.3112707 L33.7377882,69.3112707 C33.9570564,69.3112707 34.1349171,69.4888014 34.1349171,69.707957 L34.1349171,69.9968305 C34.1349171,70.0824335 34.2044699,70.1517102 34.290232,70.1517102 C34.3759942,70.1517102 34.445547,70.0824335 34.445547,69.9968305 L34.445547,69.707957 C34.445547,69.4888014 34.6234076,69.3112707 34.8428232,69.3112707 L35.1322336,69.3112707 C35.2179957,69.3112707 35.2875485,69.241994 35.2875485,69.156391 C35.2875485,69.0707879 35.2179957,69.0013641 35.1322336,69.0013641" id="Fill-45"></path>
                        <path d="M145.758536,38.0382573 L145.350945,38.0382573 C145.042083,38.0382573 144.791575,37.7883611 144.791575,37.4800725 L144.791575,37.0730903 C144.791575,36.9526283 144.69373,36.8549644 144.573044,36.8549644 C144.452358,36.8549644 144.354512,36.9526283 144.354512,37.0730903 L144.354512,37.4800725 C144.354512,37.7883611 144.104004,38.0382573 143.795143,38.0382573 L143.387551,38.0382573 C143.266866,38.0382573 143.16902,38.1359213 143.16902,38.2563833 C143.16902,38.3769924 143.266866,38.4746563 143.387551,38.4746563 L143.795143,38.4746563 C144.104004,38.4746563 144.354512,38.7245525 144.354512,39.0328411 L144.354512,39.4396762 C144.354512,39.5601383 144.452358,39.6579493 144.573044,39.6579493 C144.69373,39.6579493 144.791575,39.5601383 144.791575,39.4396762 L144.791575,39.0328411 C144.791575,38.7245525 145.042083,38.4746563 145.350945,38.4746563 L145.758536,38.4746563 C145.879222,38.4746563 145.977067,38.3769924 145.977067,38.2563833 C145.977067,38.1359213 145.879222,38.0382573 145.758536,38.0382573" id="Fill-47"></path>
                        <path d="M157.512754,1.48537459 L157.105163,1.48537459 C156.796301,1.48537459 156.545793,1.23547842 156.545793,0.927042703 L156.545793,0.520207612 C156.545793,0.399745595 156.447948,0.30208164 156.327262,0.30208164 C156.206576,0.30208164 156.10873,0.399745595 156.10873,0.520207612 L156.10873,0.927042703 C156.10873,1.23547842 155.858222,1.48537459 155.549508,1.48537459 L155.141769,1.48537459 C155.021231,1.48537459 154.923238,1.58303855 154.923238,1.70350057 C154.923238,1.82410967 155.021231,1.92177362 155.141769,1.92177362 L155.549508,1.92177362 C155.858222,1.92177362 156.10873,2.1716698 156.10873,2.47995843 L156.10873,2.88679352 C156.10873,3.00725554 156.206576,3.10506657 156.327262,3.10506657 C156.447948,3.10506657 156.545793,3.00725554 156.545793,2.88679352 L156.545793,2.47995843 C156.545793,2.1716698 156.796301,1.92177362 157.105163,1.92177362 L157.512754,1.92177362 C157.63344,1.92177362 157.731285,1.82410967 157.731285,1.70350057 C157.731285,1.58303855 157.63344,1.48537459 157.512754,1.48537459" id="Fill-49"></path>
                        <path d="M52.1107472,46.9519318 L51.8211894,46.9519318 C51.6019212,46.9519318 51.4240606,46.7744011 51.4240606,46.5553926 L51.4240606,46.266372 C51.4240606,46.180916 51.3545078,46.1114923 51.2687456,46.1114923 C51.1829835,46.1114923 51.1134307,46.180916 51.1134307,46.266372 L51.1134307,46.5553926 C51.1134307,46.7744011 50.93557,46.9519318 50.7161545,46.9519318 L50.4265967,46.9519318 C50.3409819,46.9519318 50.2715765,47.0213556 50.2715765,47.1069586 C50.2715765,47.1925617 50.3409819,47.2618383 50.4265967,47.2618383 L50.7161545,47.2618383 C50.93557,47.2618383 51.1134307,47.4393691 51.1134307,47.6583775 L51.1134307,47.9473981 C51.1134307,48.0330012 51.1829835,48.1022779 51.2687456,48.1022779 C51.3545078,48.1022779 51.4240606,48.0330012 51.4240606,47.9473981 L51.4240606,47.6583775 C51.4240606,47.4393691 51.6019212,47.2618383 51.8211894,47.2618383 L52.1107472,47.2618383 C52.1965093,47.2618383 52.2660621,47.1925617 52.2660621,47.1069586 C52.2660621,47.0213556 52.1965093,46.9519318 52.1107472,46.9519318" id="Fill-51"></path>
                        <path d="M6.58183812,94.8127856 L6.17424689,94.8127856 C5.86538527,94.8127856 5.61487728,94.5628894 5.61487728,94.2544537 L5.61487728,93.8476186 C5.61487728,93.7271566 5.51703181,93.6294926 5.3963459,93.6294926 C5.27566,93.6294926 5.17781452,93.7271566 5.17781452,93.8476186 L5.17781452,94.2544537 C5.17781452,94.5628894 4.92730653,94.8127856 4.61844492,94.8127856 L4.21085369,94.8127856 C4.09016778,94.8127856 3.99232231,94.9104495 3.99232231,95.0309115 C3.99232231,95.1515206 4.09016778,95.2491846 4.21085369,95.2491846 L4.61844492,95.2491846 C4.92730653,95.2491846 5.17781452,95.4990808 5.17781452,95.8075165 L5.17781452,96.2142045 C5.17781452,96.3348136 5.27566,96.4324775 5.3963459,96.4324775 C5.51703181,96.4324775 5.61487728,96.3348136 5.61487728,96.2142045 L5.61487728,95.8075165 C5.61487728,95.4990808 5.86538527,95.2491846 6.17424689,95.2491846 L6.58183812,95.2491846 C6.70252403,95.2491846 6.8003695,95.1515206 6.8003695,95.0309115 C6.8003695,94.9104495 6.70252403,94.8127856 6.58183812,94.8127856" id="Fill-57"></path>
                        <path d="M131.253018,88.0403051 L130.845427,88.0403051 C130.536565,88.0403051 130.286057,87.7904089 130.286057,87.4819732 L130.286057,87.0751381 C130.286057,86.9546761 130.188212,86.8570121 130.067526,86.8570121 C129.94684,86.8570121 129.848995,86.9546761 129.848995,87.0751381 L129.848995,87.4819732 C129.848995,87.7904089 129.598487,88.0403051 129.289625,88.0403051 L128.882034,88.0403051 C128.761348,88.0403051 128.663502,88.137969 128.663502,88.258431 C128.663502,88.3790401 128.761348,88.4767041 128.882034,88.4767041 L129.289625,88.4767041 C129.598487,88.4767041 129.848995,88.7266003 129.848995,89.035036 L129.848995,89.441724 C129.848995,89.5623331 129.94684,89.659997 130.067526,89.659997 C130.188212,89.659997 130.286057,89.5623331 130.286057,89.441724 L130.286057,89.035036 C130.286057,88.7266003 130.536565,88.4767041 130.845427,88.4767041 L131.253018,88.4767041 C131.373704,88.4767041 131.47155,88.3790401 131.47155,88.258431 C131.47155,88.137969 131.373704,88.0403051 131.253018,88.0403051" id="Fill-61"></path>
                        <path d="M152.177803,104.232783 L151.770212,104.232783 C151.46135,104.232783 151.210842,103.982887 151.210842,103.674451 L151.210842,103.267616 C151.210842,103.147154 151.112997,103.04949 150.992311,103.04949 C150.871625,103.04949 150.773779,103.147154 150.773779,103.267616 L150.773779,103.674451 C150.773779,103.982887 150.523271,104.232783 150.21441,104.232783 L149.806819,104.232783 C149.686133,104.232783 149.588287,104.330447 149.588287,104.450909 C149.588287,104.571518 149.686133,104.669182 149.806819,104.669182 L150.21441,104.669182 C150.523271,104.669182 150.773779,104.919078 150.773779,105.227514 L150.773779,105.634202 C150.773779,105.754811 150.871625,105.852475 150.992311,105.852475 C151.112997,105.852475 151.210842,105.754811 151.210842,105.634202 L151.210842,105.227514 C151.210842,104.919078 151.46135,104.669182 151.770212,104.669182 L152.177803,104.669182 C152.298489,104.669182 152.396334,104.571518 152.396334,104.450909 C152.396334,104.330447 152.298489,104.232783 152.177803,104.232783" id="Fill-63"></path>
                    </g>
                </g>
            </g>
        </g>
    </g>
</svg>