<?xml version="1.0" encoding="UTF-8"?>
<svg width="320px" height="195px" viewBox="0 0 320 195" version="1.1" xmlns="http://www.w3.org/2000/svg" xmlns:xlink="http://www.w3.org/1999/xlink" style="background: #273142;">
    <!-- Generator: Sketch 46.2 (44496) - http://www.bohemiancoding.com/sketch -->
    <title>file_cabnet_pic4</title>
    <desc>Created with Sketch.</desc>
    <defs>
        <rect id="path-1" x="0" y="0" width="320" height="190"></rect>
        <rect id="path-3" x="0" y="0" width="320" height="195"></rect>
        <linearGradient x1="50%" y1="0%" x2="50%" y2="100%" id="linearGradient-5">
            <stop stop-color="#FFFFFF" offset="0%"></stop>
            <stop stop-color="#CACACA" offset="100%"></stop>
        </linearGradient>
        <linearGradient x1="50%" y1="0%" x2="50%" y2="100%" id="linearGradient-6">
            <stop stop-color="#2FBAF0" offset="0%"></stop>
            <stop stop-color="#348EF7" offset="100%"></stop>
        </linearGradient>
        <rect id="path-7" x="2.88739891" y="9.56384045" width="35.1732378" height="21.9512195" rx="1.46236559"></rect>
        <filter x="-15.6%" y="-15.9%" width="131.3%" height="150.1%" filterUnits="objectBoundingBox" id="filter-8">
            <feOffset dx="0" dy="2" in="SourceAlpha" result="shadowOffsetOuter1"></feOffset>
            <feGaussianBlur stdDeviation="1.5" in="shadowOffsetOuter1" result="shadowBlurOuter1"></feGaussianBlur>
            <feColorMatrix values="0 0 0 0 0.435533588   0 0 0 0 0.435533588   0 0 0 0 0.435533588  0 0 0 0.5 0" type="matrix" in="shadowBlurOuter1"></feColorMatrix>
        </filter>
        <filter x="-11.6%" y="-7.3%" width="123.2%" height="122.9%" filterUnits="objectBoundingBox" id="filter-9">
            <feOffset dx="0" dy="2" in="SourceAlpha" result="shadowOffsetOuter1"></feOffset>
            <feGaussianBlur stdDeviation="1.5" in="shadowOffsetOuter1" result="shadowBlurOuter1"></feGaussianBlur>
            <feColorMatrix values="0 0 0 0 0   0 0 0 0 0   0 0 0 0 0  0 0 0 0.3 0" type="matrix" in="shadowBlurOuter1" result="shadowMatrixOuter1"></feColorMatrix>
            <feMerge>
                <feMergeNode in="shadowMatrixOuter1"></feMergeNode>
                <feMergeNode in="SourceGraphic"></feMergeNode>
            </feMerge>
        </filter>
        <path d="M29.3100769,30.5809273 C32.2384622,28.5225413 34.1511206,25.1252973 34.1511206,21.2829234 C34.1511206,17.189477 31.9803377,13.6012332 28.7232673,11.5988146" id="path-10"></path>
        <filter x="-117.2%" y="-23.0%" width="334.4%" height="167.0%" filterUnits="objectBoundingBox" id="filter-11">
            <feMorphology radius="0.860215054" operator="dilate" in="SourceAlpha" result="shadowSpreadOuter1"></feMorphology>
            <feOffset dx="0" dy="2" in="shadowSpreadOuter1" result="shadowOffsetOuter1"></feOffset>
            <feMorphology radius="1" operator="erode" in="SourceAlpha" result="shadowInner"></feMorphology>
            <feOffset dx="0" dy="2" in="shadowInner" result="shadowInner"></feOffset>
            <feComposite in="shadowOffsetOuter1" in2="shadowInner" operator="out" result="shadowOffsetOuter1"></feComposite>
            <feGaussianBlur stdDeviation="1.5" in="shadowOffsetOuter1" result="shadowBlurOuter1"></feGaussianBlur>
            <feColorMatrix values="0 0 0 0 0   0 0 0 0 0   0 0 0 0 0  0 0 0 0.5 0" type="matrix" in="shadowBlurOuter1"></feColorMatrix>
        </filter>
    </defs>
    <g id="slice" stroke="none" stroke-width="1" fill="none" fill-rule="evenodd">
        <g id="file_cabnet_pic4">
            <g id="pic">
                <mask id="mask-2" fill="white">
                    <use xlink:href="#path-1"></use>
                </mask>
                <use id="Mask" fill="#1F2635" xlink:href="#path-1"></use>
            </g>
            <g id="Group-7">
                <mask id="mask-4" fill="white">
                    <use xlink:href="#path-3"></use>
                </mask>
                <use id="Mask" fill="#1F2635" xlink:href="#path-3"></use>
                <g id="Group-8" mask="url(#mask-4)">
                    <g transform="translate(58.000000, 16.000000)">
                        <g id="Group" opacity="0.5546875">
                            <path d="M3.85442503,53.9868401 L3.35355641,53.9868401 C2.97366841,53.9868401 2.66598566,53.679581 2.66598566,53.3005448 L2.66598566,52.8006054 C2.66598566,52.6524916 2.54559447,52.5323237 2.39720532,52.5323237 C2.24881618,52.5323237 2.12857234,52.6524916 2.12857234,52.8006054 L2.12857234,53.3005448 C2.12857234,53.679581 1.82074223,53.9868401 1.44100159,53.9868401 L0.940132975,53.9868401 C0.791743832,53.9868401 0.67135264,54.1068608 0.67135264,54.2549747 C0.67135264,54.4030885 0.791743832,54.5231093 0.940132975,54.5231093 L1.44100159,54.5231093 C1.82074223,54.5231093 2.12857234,54.8303683 2.12857234,55.2095516 L2.12857234,55.709491 C2.12857234,55.8576049 2.24881618,55.9776256 2.39720532,55.9776256 C2.54559447,55.9776256 2.66598566,55.8576049 2.66598566,55.709491 L2.66598566,55.2095516 C2.66598566,54.8303683 2.97366841,54.5231093 3.35355641,54.5231093 L3.85442503,54.5231093 C4.00281417,54.5231093 4.12305801,54.4030885 4.12305801,54.2549747 C4.12305801,54.1068608 4.00281417,53.9868401 3.85442503,53.9868401" id="Fill-41" fill="#FFFFFF"></path>
                            <path d="M84.8694748,49.1177035 L84.3686061,49.1177035 C83.9888655,49.1177035 83.6811827,48.8104445 83.6811827,48.4314083 L83.6811827,47.9314689 C83.6811827,47.783355 83.5607916,47.6631872 83.4122551,47.6631872 C83.2638659,47.6631872 83.1436221,47.783355 83.1436221,47.9314689 L83.1436221,48.4314083 C83.1436221,48.8104445 82.835792,49.1177035 82.4561987,49.1177035 L81.9551827,49.1177035 C81.8067936,49.1177035 81.6864024,49.2377243 81.6864024,49.3859852 C81.6864024,49.5340991 81.8067936,49.6541199 81.9551827,49.6541199 L82.4561987,49.6541199 C82.835792,49.6541199 83.1436221,49.9613789 83.1436221,50.3404151 L83.1436221,50.8403545 C83.1436221,50.9884684 83.2638659,51.1086362 83.4122551,51.1086362 C83.5607916,51.1086362 83.6811827,50.9884684 83.6811827,50.8403545 L83.6811827,50.3404151 C83.6811827,49.9613789 83.9888655,49.6541199 84.3686061,49.6541199 L84.8694748,49.6541199 C85.0180113,49.6541199 85.1382551,49.5340991 85.1382551,49.3859852 L85.1382551,49.3858382 C85.1382551,49.2377243 85.0180113,49.1177035 84.8694748,49.1177035" id="Fill-43" fill="#FFFFFF"></path>
                            <path d="M35.1322336,69.0013641 L34.8428232,69.0013641 C34.6234076,69.0013641 34.445547,68.8238334 34.445547,68.604972 L34.445547,68.3159514 C34.445547,68.2303484 34.3759942,68.1609246 34.290232,68.1609246 C34.2044699,68.1609246 34.1349171,68.2303484 34.1349171,68.3159514 L34.1349171,68.604972 C34.1349171,68.8238334 33.9570564,69.0013641 33.7377882,69.0013641 L33.4482305,69.0013641 C33.3624683,69.0013641 33.2930629,69.0707879 33.2930629,69.156391 C33.2930629,69.241994 33.3624683,69.3112707 33.4482305,69.3112707 L33.7377882,69.3112707 C33.9570564,69.3112707 34.1349171,69.4888014 34.1349171,69.707957 L34.1349171,69.9968305 C34.1349171,70.0824335 34.2044699,70.1517102 34.290232,70.1517102 C34.3759942,70.1517102 34.445547,70.0824335 34.445547,69.9968305 L34.445547,69.707957 C34.445547,69.4888014 34.6234076,69.3112707 34.8428232,69.3112707 L35.1322336,69.3112707 C35.2179957,69.3112707 35.2875485,69.241994 35.2875485,69.156391 C35.2875485,69.0707879 35.2179957,69.0013641 35.1322336,69.0013641" id="Fill-45" fill="#FFFFFF"></path>
                            <path d="M157.512754,1.48537459 L157.105163,1.48537459 C156.796301,1.48537459 156.545793,1.23547842 156.545793,0.927042703 L156.545793,0.520207612 C156.545793,0.399745595 156.447948,0.30208164 156.327262,0.30208164 C156.206576,0.30208164 156.10873,0.399745595 156.10873,0.520207612 L156.10873,0.927042703 C156.10873,1.23547842 155.858222,1.48537459 155.549508,1.48537459 L155.141769,1.48537459 C155.021231,1.48537459 154.923238,1.58303855 154.923238,1.70350057 C154.923238,1.82410967 155.021231,1.92177362 155.141769,1.92177362 L155.549508,1.92177362 C155.858222,1.92177362 156.10873,2.1716698 156.10873,2.47995843 L156.10873,2.88679352 C156.10873,3.00725554 156.206576,3.10506657 156.327262,3.10506657 C156.447948,3.10506657 156.545793,3.00725554 156.545793,2.88679352 L156.545793,2.47995843 C156.545793,2.1716698 156.796301,1.92177362 157.105163,1.92177362 L157.512754,1.92177362 C157.63344,1.92177362 157.731285,1.82410967 157.731285,1.70350057 C157.731285,1.58303855 157.63344,1.48537459 157.512754,1.48537459" id="Fill-49" fill="#FFFFFF"></path>
                            <path d="M52.1107472,46.9519318 L51.8211894,46.9519318 C51.6019212,46.9519318 51.4240606,46.7744011 51.4240606,46.5553926 L51.4240606,46.266372 C51.4240606,46.180916 51.3545078,46.1114923 51.2687456,46.1114923 C51.1829835,46.1114923 51.1134307,46.180916 51.1134307,46.266372 L51.1134307,46.5553926 C51.1134307,46.7744011 50.93557,46.9519318 50.7161545,46.9519318 L50.4265967,46.9519318 C50.3409819,46.9519318 50.2715765,47.0213556 50.2715765,47.1069586 C50.2715765,47.1925617 50.3409819,47.2618383 50.4265967,47.2618383 L50.7161545,47.2618383 C50.93557,47.2618383 51.1134307,47.4393691 51.1134307,47.6583775 L51.1134307,47.9473981 C51.1134307,48.0330012 51.1829835,48.1022779 51.2687456,48.1022779 C51.3545078,48.1022779 51.4240606,48.0330012 51.4240606,47.9473981 L51.4240606,47.6583775 C51.4240606,47.4393691 51.6019212,47.2618383 51.8211894,47.2618383 L52.1107472,47.2618383 C52.1965093,47.2618383 52.2660621,47.1925617 52.2660621,47.1069586 C52.2660621,47.0213556 52.1965093,46.9519318 52.1107472,46.9519318" id="Fill-51" fill="#FFFFFF"></path>
                            <path d="M6.58183812,94.8127856 L6.17424689,94.8127856 C5.86538527,94.8127856 5.61487728,94.5628894 5.61487728,94.2544537 L5.61487728,93.8476186 C5.61487728,93.7271566 5.51703181,93.6294926 5.3963459,93.6294926 C5.27566,93.6294926 5.17781452,93.7271566 5.17781452,93.8476186 L5.17781452,94.2544537 C5.17781452,94.5628894 4.92730653,94.8127856 4.61844492,94.8127856 L4.21085369,94.8127856 C4.09016778,94.8127856 3.99232231,94.9104495 3.99232231,95.0309115 C3.99232231,95.1515206 4.09016778,95.2491846 4.21085369,95.2491846 L4.61844492,95.2491846 C4.92730653,95.2491846 5.17781452,95.4990808 5.17781452,95.8075165 L5.17781452,96.2142045 C5.17781452,96.3348136 5.27566,96.4324775 5.3963459,96.4324775 C5.51703181,96.4324775 5.61487728,96.3348136 5.61487728,96.2142045 L5.61487728,95.8075165 C5.61487728,95.4990808 5.86538527,95.2491846 6.17424689,95.2491846 L6.58183812,95.2491846 C6.70252403,95.2491846 6.8003695,95.1515206 6.8003695,95.0309115 C6.8003695,94.9104495 6.70252403,94.8127856 6.58183812,94.8127856" id="Fill-57" fill="#FFFFFF"></path>
                            <path d="M131.253018,88.0403051 L130.845427,88.0403051 C130.536565,88.0403051 130.286057,87.7904089 130.286057,87.4819732 L130.286057,87.0751381 C130.286057,86.9546761 130.188212,86.8570121 130.067526,86.8570121 C129.94684,86.8570121 129.848995,86.9546761 129.848995,87.0751381 L129.848995,87.4819732 C129.848995,87.7904089 129.598487,88.0403051 129.289625,88.0403051 L128.882034,88.0403051 C128.761348,88.0403051 128.663502,88.137969 128.663502,88.258431 C128.663502,88.3790401 128.761348,88.4767041 128.882034,88.4767041 L129.289625,88.4767041 C129.598487,88.4767041 129.848995,88.7266003 129.848995,89.035036 L129.848995,89.441724 C129.848995,89.5623331 129.94684,89.659997 130.067526,89.659997 C130.188212,89.659997 130.286057,89.5623331 130.286057,89.441724 L130.286057,89.035036 C130.286057,88.7266003 130.536565,88.4767041 130.845427,88.4767041 L131.253018,88.4767041 C131.373704,88.4767041 131.47155,88.3790401 131.47155,88.258431 C131.47155,88.137969 131.373704,88.0403051 131.253018,88.0403051" id="Fill-61" fill="#FFFFFF"></path>
                            <path d="M152.177803,104.232783 L151.770212,104.232783 C151.46135,104.232783 151.210842,103.982887 151.210842,103.674451 L151.210842,103.267616 C151.210842,103.147154 151.112997,103.04949 150.992311,103.04949 C150.871625,103.04949 150.773779,103.147154 150.773779,103.267616 L150.773779,103.674451 C150.773779,103.982887 150.523271,104.232783 150.21441,104.232783 L149.806819,104.232783 C149.686133,104.232783 149.588287,104.330447 149.588287,104.450909 C149.588287,104.571518 149.686133,104.669182 149.806819,104.669182 L150.21441,104.669182 C150.523271,104.669182 150.773779,104.919078 150.773779,105.227514 L150.773779,105.634202 C150.773779,105.754811 150.871625,105.852475 150.992311,105.852475 C151.112997,105.852475 151.210842,105.754811 151.210842,105.634202 L151.210842,105.227514 C151.210842,104.919078 151.46135,104.669182 151.770212,104.669182 L152.177803,104.669182 C152.298489,104.669182 152.396334,104.571518 152.396334,104.450909 C152.396334,104.330447 152.298489,104.232783 152.177803,104.232783" id="Fill-63" fill="#FFFFFF"></path>
                        </g>
                        <g id="Page-1" transform="translate(27.000000, 29.000000)"></g>
                    </g>
                </g>
            </g>
            <g id="Group-4" transform="translate(204.000000, 30.000000)">
                <g id="Group-3" transform="translate(28.232400, 29.983555) rotate(14.000000) translate(-28.232400, -29.983555) translate(5.866809, 5.126412)">
                    <rect id="Rectangle-8" fill="url(#linearGradient-5)" transform="translate(27.443676, 27.943761) rotate(-71.000000) translate(-27.443676, -27.943761) " x="8.49409417" y="16.6022973" width="37.8991646" height="22.6829268" rx="1.46236559"></rect>
                    <g id="Rectangle-8" transform="translate(20.474018, 20.539450) rotate(-49.000000) translate(-20.474018, -20.539450) ">
                        <use fill="black" fill-opacity="1" filter="url(#filter-8)" xlink:href="#path-7"></use>
                        <use fill="url(#linearGradient-6)" fill-rule="evenodd" xlink:href="#path-7"></use>
                    </g>
                </g>
                <g id="Group-2" filter="url(#filter-9)" transform="translate(32.242135, 6.585366)">
                    <path d="M38.7385823,21.2578203 C38.7385823,31.2815603 30.6618403,39.4074457 20.6983018,39.4074457 C10.7347633,39.4074457 2.657681,31.2815603 2.657681,21.2578203 C2.657681,11.2344226 10.7347633,3.10853722 20.6983018,3.10853722 C30.6618403,3.10853722 38.7385823,11.2344226 38.7385823,21.2578203" id="Fill-1" fill="#FFFFFF" opacity="0.404098732"></path>
                    <path d="M20.6980295,37.7469 C11.6101634,37.7469 4.21680665,30.3081865 4.21680665,21.1650675 C4.21680665,12.0226332 11.6101634,4.58460449 20.6980295,4.58460449 C29.7858957,4.58460449 37.1795927,12.0226332 37.1795927,21.1650675 C37.1795927,30.3081865 29.7858957,37.7469 20.6980295,37.7469 M45.8253686,42.3133237 L36.74533,34.3017957 C39.6510785,30.7159702 41.3962973,26.1416715 41.3962973,21.1650675 C41.3962973,9.68344096 32.111039,0.342421861 20.6980295,0.342421861 C9.28502007,0.342421861 0.000102099384,9.68344096 0.000102099384,21.1650675 C0.000102099384,32.6473788 9.28502007,41.989425 20.6980295,41.989425 C25.6110519,41.989425 30.1286093,40.2569436 33.6823485,37.3692464 L41.6512054,46.5127079 C42.2277266,47.0927125 42.9829217,47.3827148 43.7384572,47.3827148 C44.4939926,47.3827148 45.2495281,47.0927125 45.8253686,46.5127079 C46.9777303,45.3526986 46.978411,43.4729906 45.8253686,42.3133237" id="Fill-18" fill="#FFFFFF"></path>
                    <g id="Oval-10" opacity="0.0500000007" stroke-linecap="round" stroke-linejoin="round">
                        <use fill="black" fill-opacity="1" filter="url(#filter-11)" xlink:href="#path-10"></use>
                        <use stroke="#FFFFFF" stroke-width="1.72043011" xlink:href="#path-10"></use>
                    </g>
                </g>
            </g>
        </g>
    </g>
</svg>