<?xml version="1.0" encoding="UTF-8"?>
<svg width="28px" height="28px" viewBox="0 0 28 28" version="1.1" xmlns="http://www.w3.org/2000/svg" xmlns:xlink="http://www.w3.org/1999/xlink">
    <!-- Generator: Sketch 46.2 (44496) - http://www.bohemiancoding.com/sketch -->
    <title>genius_dlna</title>
    <desc>Created with Sketch.</desc>
    <defs></defs>
    <g id="slice" stroke="none" stroke-width="1" fill="none" fill-rule="evenodd">
        <g id="genius_dlna" fill="#FFFFFF">
            <g id="Page-1" transform="translate(4.500000, 5.000000)">
                <path d="M9.49719463,0 C14.0844832,0 17.9117718,2.95669231 18.7996711,6.88796503 C18.8821745,7.25295105 18.9382819,7.62205594 18.7785034,7.86958741 C18.5527987,8.21916084 18.0361007,8.15286014 17.6798188,8.15286014 L10.8966913,8.15286014 C10.2112886,8.15286014 9.7143557,8.16255944 9.06771812,7.82361538 C8.56874497,7.56213287 8.39519463,7.3425035 8.05587248,6.92968531 C7.59515436,6.36965035 6.91842282,6.01582517 6.16403356,6.01582517 C4.77588591,6.01582517 3.65055034,7.21348951 3.65055034,8.69070629 C3.65055034,10.1680559 4.77588591,11.3655874 6.16403356,11.3655874 C6.76348993,11.3655874 7.31410738,11.1421049 7.74600671,10.7691469 C7.97158389,10.5746294 8.26665772,10.2112378 8.47514765,9.97991608 C8.98572483,9.41376923 9.78627517,9.23306993 10.6966174,9.26974126 L17.9428859,9.26974126 C18.7119396,9.24994406 18.992349,9.41071329 18.8465973,10.1562308 C18.0553557,14.1981818 14.1706846,17.2671469 9.49719463,17.2671469 C6.6712953,17.2671469 4.13396644,16.1448182 2.39451007,14.364 C2.18461745,14.1491538 2.09930872,13.8735874 2.39642282,13.6982028 C2.50634228,13.6330979 2.66943624,13.5966923 2.89514094,13.5961608 L7.7656443,13.5961608 C8.28731544,13.6272517 8.75185906,13.7706154 9.16603356,14.0273147 C9.64944966,14.3267972 9.73667114,14.5338042 10.0807114,14.9138042 C10.5379866,15.4188322 11.179906,15.7330629 11.8909396,15.7330629 C13.2790872,15.7330629 14.4044228,14.5355315 14.4044228,13.0581818 C14.4044228,11.580965 13.2790872,10.3833007 11.8909396,10.3833007 C11.2913557,10.3833007 10.7408658,10.6067832 10.3089664,10.9797413 C10.0833893,11.1742587 9.78831544,11.5376503 9.5798255,11.768972 C8.80031544,12.6334056 7.50908054,12.479014 6.4774698,12.479014 L2.79822819,12.479014 C2.22631544,12.479014 1.59153691,12.5417273 1.09587919,12.1954755 C0.783590604,11.977042 0.567959732,11.6266713 0.400657718,11.1208462 C0.140268456,10.3332098 0,9.49827273 0,8.63344056 C0,7.904 0.0999731544,7.19581818 0.287422819,6.51912587 C0.564644295,5.53896503 1.02434228,4.76315385 2.37971812,4.80261538 L7.41765101,4.80261538 C8.15291275,4.77298601 8.81663758,4.88525874 9.31369799,5.22765734 C9.58594631,5.4153986 9.69191275,5.58786014 9.90218792,5.83127273 C10.0572483,6.01077622 10.225698,6.18961538 10.3683893,6.30202098 C10.8157181,6.65465035 11.3507785,6.89846154 11.9503624,6.89846154 C13.3385101,6.89846154 14.4637181,5.70093007 14.4637181,4.22358042 C14.4637181,2.74623077 13.3385101,1.5486993 11.9503624,1.5486993 C11.183604,1.5486993 10.4969262,1.91421678 10.035953,2.49032867 C9.59002685,3.04757343 9.12790604,3.40086713 8.5279396,3.5716014 C8.11797315,3.68825874 7.78324161,3.68573427 7.36868456,3.68573427 L2.95443624,3.68573427 C2.08324161,3.68307692 2.11881879,3.15506294 2.63768456,2.66279021 C4.3661745,1.02188112 6.8004698,0 9.49719463,0" id="Fill-1"></path>
            </g>
        </g>
    </g>
</svg>