<?xml version="1.0" encoding="UTF-8"?>
<svg width="28px" height="28px" viewBox="0 0 28 28" version="1.1" xmlns="http://www.w3.org/2000/svg" xmlns:xlink="http://www.w3.org/1999/xlink">
    <!-- Generator: Sketch 46.2 (44496) - http://www.bohemiancoding.com/sketch -->
    <title>genius_bluetooth</title>
    <desc>Created with Sketch.</desc>
    <defs></defs>
    <g id="slice" stroke="none" stroke-width="1" fill="none" fill-rule="evenodd">
        <g id="genius_bluetooth" fill-rule="nonzero" fill="#FFFFFF">
            <g id="Group-3" transform="translate(8.000000, 3.500000)">
                <path d="M5.29255757,0.911590874 L5.29255757,19.2041978 C5.29255757,19.6926204 5.67429373,20.0885651 6.14518914,20.0885651 C6.61608456,20.0885651 6.99782072,19.6926204 6.99782072,19.2041978 L6.99782072,0.911590874 C6.99782072,0.423168331 6.61608456,0.0272236286 6.14518914,0.0272236286 C5.67429373,0.0272236286 5.29255757,0.423168331 5.29255757,0.911590874 Z" id="Path-6"></path>
                <path d="M0.255331604,15.3118165 C-0.0807068115,15.6539747 -0.0856993608,16.2139011 0.244180433,16.5624472 C0.574060227,16.9109932 1.1138936,16.9161716 1.44993201,16.5740134 L11.5472296,6.29282827 C11.8902549,5.94355599 11.8872605,5.36936915 11.5406125,5.02396625 L6.74602992,0.246604798 C6.40644255,-0.091762838 5.86669478,-0.0805275304 5.54046953,0.27169956 C5.21424427,0.623926651 5.2250764,1.18376429 5.56466376,1.52213193 L9.72607493,5.66859619 L0.255331604,15.3118165 Z" id="Path-5"></path>
                <path d="M0.255331604,18.5872507 C-0.0807068115,18.9294089 -0.0856993608,19.4893354 0.244180433,19.8378814 C0.574060227,20.1864275 1.1138936,20.1916058 1.44993201,19.8494476 L11.5472296,9.56826251 C11.8902549,9.21899024 11.8872605,8.6448034 11.5406125,8.2994005 L6.74602992,3.52203904 C6.40644255,3.18367141 5.86669478,3.19490671 5.54046953,3.5471338 C5.21424427,3.89936089 5.2250764,4.45919853 5.56466376,4.79756617 L9.72607493,8.94403043 L0.255331604,18.5872507 Z" id="Path-5" transform="translate(5.901281, 11.689075) scale(1, -1) translate(-5.901281, -11.689075) "></path>
            </g>
        </g>
    </g>
</svg>