<?xml version="1.0" encoding="UTF-8"?>
<svg width="28px" height="28px" viewBox="0 0 28 28" version="1.1" xmlns="http://www.w3.org/2000/svg" xmlns:xlink="http://www.w3.org/1999/xlink">
    <!-- Generator: Sketch 46.2 (44496) - http://www.bohemiancoding.com/sketch -->
    <title>genius_chromecast</title>
    <desc>Created with Sketch.</desc>
    <defs></defs>
    <g id="slice" stroke="none" stroke-width="1" fill="none" fill-rule="evenodd">
        <g id="genius_chromecast" fill="#FFFFFF">
            <g id="Page-1" transform="translate(5.000000, 7.000000)">
                <path d="M16.4093127,0 L1.6472556,0 C0.731827029,0 -1.5428571e-06,0.722227198 -1.5428571e-06,1.62564562 L-1.5428571e-06,4.03391551 L1.6472556,4.03391551 L1.6472556,1.62564562 L16.348627,1.62564562 L16.348627,12.8833557 L10.6143413,12.8833557 L10.6143413,14.5090013 L16.348627,14.5090013 C17.2635413,14.5090013 17.9958842,13.7867741 17.9958842,12.8833557 L17.9958842,1.62564562 C17.9953699,0.722227198 17.2635413,0 16.4093127,0 L16.4093127,0 Z M0.0611984571,5.65905359 L0.0611984571,7.28469921 C4.14822703,7.28469921 7.44222703,10.5354829 7.44222703,14.5688909 L9.02828417,14.5688909 C9.02828417,9.63206449 5.00194131,5.65905359 0.0611984571,5.65905359 L0.0611984571,5.65905359 Z M14.7625699,3.2507837 L3.29399846,3.2507837 L3.29399846,4.57545902 C6.52731274,5.59865652 9.08896989,8.12721302 10.1262842,11.3181072 L14.7013699,11.3181072 L14.7013699,3.2507837 L14.7625699,3.2507837 Z M0.0611984571,8.90983729 L0.0611984571,10.5354829 C2.31839846,10.5354829 4.14822703,12.3413047 4.14822703,14.5688909 L5.79548417,14.5688909 C5.73428417,11.4383938 3.17211274,8.90983729 0.0611984571,8.90983729 L0.0611984571,8.90983729 Z M0.0611984571,12.1002239 L0.0611984571,14.5084938 L2.50148417,14.5084938 C2.50096989,13.1838185 1.40296989,12.1002239 0.0611984571,12.1002239 L0.0611984571,12.1002239 Z" id="Fill-1"></path>
            </g>
        </g>
    </g>
</svg>