<?xml version="1.0" encoding="UTF-8"?>
<svg width="420px" height="200px" viewBox="0 0 420 200" version="1.1" xmlns="http://www.w3.org/2000/svg" xmlns:xlink="http://www.w3.org/1999/xlink">
    <!-- Generator: Sketch 46.2 (44496) - http://www.bohemiancoding.com/sketch -->
    <title>genius_pic_bluetooth</title>
    <desc>Created with Sketch.</desc>
    <defs>
        <path d="M0,0 L288,0 L288,87.2399324 L288,87.2399324 C288,88.7311013 286.791169,89.9399324 285.3,89.9399324 L2.7,89.9399324 L2.7,89.9399324 C1.20883118,89.9399324 2.45604601e-14,88.7311013 1.64313008e-14,87.2399324 L0,0 Z" id="path-1"></path>
        <linearGradient x1="100%" y1="50%" x2="18.1780864%" y2="50%" id="linearGradient-3">
            <stop stop-color="#374368" offset="0%"></stop>
            <stop stop-color="#7C509A" offset="62.4929363%"></stop>
            <stop stop-color="#AA69B5" offset="100%"></stop>
        </linearGradient>
        <rect id="path-4" x="0" y="0" width="288" height="45"></rect>
        <linearGradient x1="53.7304074%" y1="0%" x2="4.96337139%" y2="97.1814566%" id="linearGradient-6">
            <stop stop-color="#FFFFFF" offset="0%"></stop>
            <stop stop-color="#FFFFFF" offset="100%"></stop>
        </linearGradient>
        <rect id="path-7" x="6.97362373" y="21.4478969" width="1.785" height="3.024" rx="0.8925"></rect>
        <filter x="-196.1%" y="-82.7%" width="492.2%" height="331.5%" filterUnits="objectBoundingBox" id="filter-8">
            <feOffset dx="0" dy="1" in="SourceAlpha" result="shadowOffsetOuter1"></feOffset>
            <feGaussianBlur stdDeviation="1" in="shadowOffsetOuter1" result="shadowBlurOuter1"></feGaussianBlur>
            <feColorMatrix values="0 0 0 0 0   0 0 0 0 0   0 0 0 0 0  0 0 0 0.5 0" type="matrix" in="shadowBlurOuter1"></feColorMatrix>
        </filter>
        <rect id="path-9" x="6.97362373" y="8.84789689" width="1.785" height="3.024" rx="0.8925"></rect>
        <filter x="-196.1%" y="-82.7%" width="492.2%" height="331.5%" filterUnits="objectBoundingBox" id="filter-10">
            <feOffset dx="0" dy="1" in="SourceAlpha" result="shadowOffsetOuter1"></feOffset>
            <feGaussianBlur stdDeviation="1" in="shadowOffsetOuter1" result="shadowBlurOuter1"></feGaussianBlur>
            <feColorMatrix values="0 0 0 0 0   0 0 0 0 0   0 0 0 0 0  0 0 0 0.5 0" type="matrix" in="shadowBlurOuter1"></feColorMatrix>
        </filter>
        <rect id="path-11" x="7.4583895" y="11.0014608" width="2.07059997" height="2.44699753" rx="1.03529999"></rect>
        <filter x="-386.4%" y="-286.1%" width="872.7%" height="753.9%" filterUnits="objectBoundingBox" id="filter-12">
            <feOffset dx="0" dy="1" in="SourceAlpha" result="shadowOffsetOuter1"></feOffset>
            <feGaussianBlur stdDeviation="2.5" in="shadowOffsetOuter1" result="shadowBlurOuter1"></feGaussianBlur>
            <feColorMatrix values="0 0 0 0 0   0 0 0 0 0   0 0 0 0 0  0 0 0 0.5 0" type="matrix" in="shadowBlurOuter1"></feColorMatrix>
        </filter>
        <linearGradient x1="50%" y1="4.00853836%" x2="50%" y2="94.949122%" id="linearGradient-13">
            <stop stop-color="#FFFFFF" offset="0%"></stop>
            <stop stop-color="#FFFFFF" offset="100%"></stop>
        </linearGradient>
        <rect id="path-14" x="7.57796618" y="0.306813634" width="1.53" height="3.276" rx="0.765"></rect>
        <filter x="-228.8%" y="-76.3%" width="557.5%" height="313.7%" filterUnits="objectBoundingBox" id="filter-15">
            <feOffset dx="0" dy="1" in="SourceAlpha" result="shadowOffsetOuter1"></feOffset>
            <feGaussianBlur stdDeviation="1" in="shadowOffsetOuter1" result="shadowBlurOuter1"></feGaussianBlur>
            <feColorMatrix values="0 0 0 0 0   0 0 0 0 0   0 0 0 0 0  0 0 0 0.5 0" type="matrix" in="shadowBlurOuter1"></feColorMatrix>
        </filter>
        <rect id="path-16" x="7.68360076" y="10.9457556" width="1.93992286" height="3.276" rx="0.969961432"></rect>
        <filter x="-180.4%" y="-76.3%" width="460.8%" height="313.7%" filterUnits="objectBoundingBox" id="filter-17">
            <feOffset dx="0" dy="1" in="SourceAlpha" result="shadowOffsetOuter1"></feOffset>
            <feGaussianBlur stdDeviation="1" in="shadowOffsetOuter1" result="shadowBlurOuter1"></feGaussianBlur>
            <feColorMatrix values="0 0 0 0 0   0 0 0 0 0   0 0 0 0 0  0 0 0 0.5 0" type="matrix" in="shadowBlurOuter1"></feColorMatrix>
        </filter>
        <linearGradient x1="58.9908084%" y1="6.56907121%" x2="0%" y2="96.7690437%" id="linearGradient-18">
            <stop stop-color="#FFFFFF" offset="0%"></stop>
            <stop stop-color="#FFFFFF" offset="100%"></stop>
        </linearGradient>
        <linearGradient x1="180.835927%" y1="40.1738614%" x2="0%" y2="40.1738628%" id="linearGradient-19">
            <stop stop-color="#71568F" offset="0%"></stop>
            <stop stop-color="#FFFFFF" offset="100%"></stop>
        </linearGradient>
        <linearGradient x1="0%" y1="50%" x2="100%" y2="50%" id="linearGradient-20">
            <stop stop-color="#71568F" offset="0%"></stop>
            <stop stop-color="#FFFFFF" offset="100%"></stop>
        </linearGradient>
    </defs>
    <g id="slice" stroke="none" stroke-width="1" fill="none" fill-rule="evenodd">
        <g id="genius_pic_bluetooth">
            <g id="Group-32" transform="translate(66.000000, 21.000000)">
                <g id="Form-Base" transform="translate(0.000000, 35.000000)">
                    <path d="M0,33.3 L270,33.3 L270,75.6 L270,75.6 C270,77.0911688 268.791169,78.3 267.3,78.3 L2.7,78.3 L2.7,78.3 C1.20883118,78.3 1.75020947e-14,77.0911688 1.73194792e-14,75.6 L0,33.3 Z" id="Base" fill="#4B5266"></path>
                    <path d="M29.8283209,27.2180819 L285.3,27.2180819 C286.791169,27.2180819 288,26.0092508 288,24.5180819 L288,24.5180819 L288,0.218081934 L0,0.218081934 L1.73194792e-14,24.5180819 C1.75020947e-14,26.0092508 1.20883118,27.2180819 2.7,27.2180819 L15.4277316,27.2180819 L20.7188379,32.5091883 C21.7732535,33.5636039 23.482799,33.5636039 24.5372146,32.5091883 L29.3413369,27.705066 L29.8283209,27.2180819 Z" id="Top-Bar" fill="#374368" transform="translate(144.000000, 16.759041) scale(1, -1) translate(-144.000000, -16.759041) "></path>
                </g>
                <g id="Top-Bar" transform="translate(13.000000, 51.000000)" fill="#FFFFFF">
                    <path d="M0.816943359,8 L0.816943359,0.96171875 L3.11791992,0.96171875 C3.88169327,0.96171875 4.456126,1.11962733 4.84123535,1.43544922 C5.2263447,1.75127111 5.41889648,2.21855159 5.41889648,2.83730469 C5.41889648,3.16601727 5.32544039,3.45685909 5.13852539,3.70983887 C4.95161039,3.96281865 4.6970231,4.15859306 4.37475586,4.29716797 C4.7550312,4.40351616 5.05554089,4.60573581 5.27629395,4.90383301 C5.497047,5.2019302 5.60742188,5.5572245 5.60742188,5.96972656 C5.60742188,6.60137035 5.40278525,7.09765445 4.99350586,7.45859375 C4.58422647,7.81953305 4.00576546,8 3.25810547,8 L0.816943359,8 Z M1.74506836,4.70805664 L1.74506836,7.24106445 L3.27744141,7.24106445 C3.7092795,7.24106445 4.05007199,7.12907827 4.2998291,6.90510254 C4.54958621,6.68112681 4.67446289,6.37256056 4.67446289,5.97939453 C4.67446289,5.1318317 4.21362766,4.70805664 3.29194336,4.70805664 L1.74506836,4.70805664 Z M1.74506836,3.96362305 L3.14692383,3.96362305 C3.55298055,3.96362305 3.87765992,3.86211039 4.12097168,3.65908203 C4.36428344,3.45605367 4.4859375,3.18051932 4.4859375,2.8324707 C4.4859375,2.44575002 4.37314566,2.16457607 4.14755859,1.98894043 C3.92197153,1.81330479 3.57876207,1.72548828 3.11791992,1.72548828 L1.74506836,1.72548828 L1.74506836,3.96362305 Z M7.81171875,8 L6.91743164,8 L6.91743164,0.575 L7.81171875,0.575 L7.81171875,8 Z M12.4716797,7.48276367 C12.1236311,7.89204306 11.6128452,8.09667969 10.9393066,8.09667969 C10.3817843,8.09667969 9.95720361,7.93474283 9.66555176,7.61086426 C9.37389991,7.28698569 9.22646486,6.80762036 9.22324219,6.17275391 L9.22324219,2.76962891 L10.1175293,2.76962891 L10.1175293,6.14858398 C10.1175293,6.94136139 10.4397917,7.33774414 11.0843262,7.33774414 C11.7675327,7.33774414 12.2219227,7.08315684 12.4475098,6.57397461 L12.4475098,2.76962891 L13.3417969,2.76962891 L13.3417969,8 L12.4910156,8 L12.4716797,7.48276367 Z M16.8706055,8.09667969 C16.1616175,8.09667969 15.5847678,7.8638451 15.1400391,7.39816895 C14.6953103,6.93249279 14.4729492,6.3097207 14.4729492,5.52983398 L14.4729492,5.36547852 C14.4729492,4.84662827 14.5720449,4.38337606 14.7702393,3.97570801 C14.9684336,3.56803995 15.2455793,3.24900018 15.6016846,3.0185791 C15.9577899,2.78815803 16.3436991,2.67294922 16.7594238,2.67294922 C17.4394077,2.67294922 17.967918,2.89692159 18.3449707,3.34487305 C18.7220234,3.79282451 18.9105469,4.43412669 18.9105469,5.26879883 L18.9105469,5.64101563 L15.3672363,5.64101563 C15.380127,6.1566432 15.5307847,6.57316736 15.8192139,6.89060059 C16.107643,7.20803381 16.4742165,7.36674805 16.9189453,7.36674805 C17.2347672,7.36674805 17.502245,7.30229557 17.7213867,7.17338867 C17.9405284,7.04448178 18.1322746,6.8736827 18.2966309,6.66098633 L18.8428711,7.08637695 C18.4045877,7.75991548 17.7471724,8.09667969 16.8706055,8.09667969 Z M16.7594238,3.40771484 C16.3984845,3.40771484 16.0955579,3.53903677 15.8506348,3.80168457 C15.6057117,4.06433237 15.4542483,4.43251716 15.3962402,4.90625 L18.0162598,4.90625 L18.0162598,4.83857422 C17.9904784,4.38417742 17.8680187,4.03210574 17.648877,3.78234863 C17.4297352,3.53259152 17.1332538,3.40771484 16.7594238,3.40771484 Z M21.1583496,1.503125 L21.1583496,2.76962891 L22.1348145,2.76962891 L22.1348145,3.46088867 L21.1583496,3.46088867 L21.1583496,6.70449219 C21.1583496,6.91396589 21.201855,7.07106881 21.2888672,7.17580566 C21.3758793,7.28054252 21.52412,7.33291016 21.7335937,7.33291016 C21.8367193,7.33291016 21.9785147,7.31357441 22.1589844,7.27490234 L22.1589844,8 C21.9237293,8.06445345 21.694923,8.09667969 21.4725586,8.09667969 C21.0729472,8.09667969 20.7716319,7.97583129 20.5686035,7.73413086 C20.3655752,7.49243043 20.2640625,7.14922097 20.2640625,6.70449219 L20.2640625,3.46088867 L19.3117676,3.46088867 L19.3117676,2.76962891 L20.2640625,2.76962891 L20.2640625,1.503125 L21.1583496,1.503125 Z M22.8454102,5.33647461 C22.8454102,4.8240697 22.9461172,4.36323447 23.1475342,3.95395508 C23.3489512,3.54467569 23.6293195,3.22885853 23.9886475,3.00649414 C24.3479754,2.78412975 24.7580543,2.67294922 25.2188965,2.67294922 C25.9311071,2.67294922 26.5071511,2.91947996 26.9470459,3.41254883 C27.3869407,3.9056177 27.6068848,4.56142169 27.6068848,5.37998047 L27.6068848,5.44282227 C27.6068848,5.9520045 27.5094004,6.40881145 27.3144287,6.81325684 C27.119457,7.21770222 26.8407001,7.53271372 26.4781494,7.75830078 C26.1155988,7.98388785 25.6990746,8.09667969 25.2285645,8.09667969 C24.5195765,8.09667969 23.9451438,7.85014895 23.505249,7.35708008 C23.0653542,6.86401121 22.8454102,6.21142984 22.8454102,5.39931641 L22.8454102,5.33647461 Z M23.7445312,5.44282227 C23.7445312,6.02290329 23.8790758,6.48857246 24.1481689,6.83984375 C24.4172621,7.19111504 24.7773903,7.36674805 25.2285645,7.36674805 C25.6829613,7.36674805 26.0438951,7.18869807 26.311377,6.83259277 C26.5788588,6.47648748 26.7125977,5.97778641 26.7125977,5.33647461 C26.7125977,4.76283893 26.5764418,4.29797541 26.304126,3.94187012 C26.0318102,3.58576482 25.6700706,3.40771484 25.2188965,3.40771484 C24.7773904,3.40771484 24.4212904,3.58334785 24.1505859,3.93461914 C23.8798815,4.28589043 23.7445312,4.78861978 23.7445312,5.44282227 Z M28.4915039,5.33647461 C28.4915039,4.8240697 28.5922109,4.36323447 28.7936279,3.95395508 C28.995045,3.54467569 29.2754132,3.22885853 29.6347412,3.00649414 C29.9940692,2.78412975 30.4041481,2.67294922 30.8649902,2.67294922 C31.5772008,2.67294922 32.1532449,2.91947996 32.5931396,3.41254883 C33.0330344,3.9056177 33.2529785,4.56142169 33.2529785,5.37998047 L33.2529785,5.44282227 C33.2529785,5.9520045 33.1554941,6.40881145 32.9605225,6.81325684 C32.7655508,7.21770222 32.4867938,7.53271372 32.1242432,7.75830078 C31.7616925,7.98388785 31.3451684,8.09667969 30.8746582,8.09667969 C30.1656703,8.09667969 29.5912376,7.85014895 29.1513428,7.35708008 C28.711448,6.86401121 28.4915039,6.21142984 28.4915039,5.39931641 L28.4915039,5.33647461 Z M29.390625,5.44282227 C29.390625,6.02290329 29.5251696,6.48857246 29.7942627,6.83984375 C30.0633558,7.19111504 30.4234841,7.36674805 30.8746582,7.36674805 C31.329055,7.36674805 31.6899889,7.18869807 31.9574707,6.83259277 C32.2249525,6.47648748 32.3586914,5.97778641 32.3586914,5.33647461 C32.3586914,4.76283893 32.2225355,4.29797541 31.9502197,3.94187012 C31.6779039,3.58576482 31.3161644,3.40771484 30.8649902,3.40771484 C30.4234841,3.40771484 30.0673842,3.58334785 29.7966797,3.93461914 C29.5259752,4.28589043 29.390625,4.78861978 29.390625,5.44282227 Z M35.587793,1.503125 L35.587793,2.76962891 L36.5642578,2.76962891 L36.5642578,3.46088867 L35.587793,3.46088867 L35.587793,6.70449219 C35.587793,6.91396589 35.6312984,7.07106881 35.7183105,7.17580566 C35.8053227,7.28054252 35.9535634,7.33291016 36.1630371,7.33291016 C36.2661626,7.33291016 36.4079581,7.31357441 36.5884277,7.27490234 L36.5884277,8 C36.3531727,8.06445345 36.1243663,8.09667969 35.902002,8.09667969 C35.5023906,8.09667969 35.2010752,7.97583129 34.9980469,7.73413086 C34.7950185,7.49243043 34.6935059,7.14922097 34.6935059,6.70449219 L34.6935059,3.46088867 L33.7412109,3.46088867 L33.7412109,2.76962891 L34.6935059,2.76962891 L34.6935059,1.503125 L35.587793,1.503125 Z M38.5026855,3.40288086 C38.8990742,2.91625733 39.4146941,2.67294922 40.0495605,2.67294922 C41.1549372,2.67294922 41.7124511,3.29652697 41.7221191,4.54370117 L41.7221191,8 L40.827832,8 L40.827832,4.53886719 C40.8246094,4.16181452 40.7384042,3.88305754 40.5692139,3.70258789 C40.4000236,3.52211824 40.1365741,3.43188477 39.7788574,3.43188477 C39.4888169,3.43188477 39.2342296,3.50922774 39.0150879,3.66391602 C38.7959462,3.81860429 38.6251471,4.0216296 38.5026855,4.27299805 L38.5026855,8 L37.6083984,8 L37.6083984,0.575 L38.5026855,0.575 L38.5026855,3.40288086 Z M45.2944336,5.34130859 C45.2944336,4.53886318 45.4845684,3.89353271 45.8648437,3.40529785 C46.2451191,2.91706299 46.7430145,2.67294922 47.3585449,2.67294922 C47.9708527,2.67294922 48.4558576,2.88241978 48.8135742,3.30136719 L48.8135742,0.575 L49.7078613,0.575 L49.7078613,8 L48.886084,8 L48.8425781,7.43925781 C48.4848615,7.87754125 47.9869661,8.09667969 47.348877,8.09667969 C46.7430145,8.09667969 46.2491474,7.84853764 45.8672607,7.35224609 C45.4853741,6.85595455 45.2944336,6.20820712 45.2944336,5.40898438 L45.2944336,5.34130859 Z M46.1887207,5.44282227 C46.1887207,6.03579398 46.3111804,6.49985184 46.5561035,6.83500977 C46.8010266,7.17016769 47.1394021,7.33774414 47.5712402,7.33774414 C48.1384306,7.33774414 48.5525378,7.08315684 48.8135742,6.57397461 L48.8135742,4.17148438 C48.5460924,3.6784155 48.1352078,3.43188477 47.5809082,3.43188477 C47.1426248,3.43188477 46.8010266,3.60107253 46.5561035,3.93945313 C46.3111804,4.27783372 46.1887207,4.77895176 46.1887207,5.44282227 Z M53.2656738,8.09667969 C52.5566859,8.09667969 51.9798362,7.8638451 51.5351074,7.39816895 C51.0903786,6.93249279 50.8680176,6.3097207 50.8680176,5.52983398 L50.8680176,5.36547852 C50.8680176,4.84662827 50.9671133,4.38337606 51.1653076,3.97570801 C51.363502,3.56803995 51.6406476,3.24900018 51.9967529,3.0185791 C52.3528582,2.78815803 52.7387675,2.67294922 53.1544922,2.67294922 C53.8344761,2.67294922 54.3629864,2.89692159 54.7400391,3.34487305 C55.1170917,3.79282451 55.3056152,4.43412669 55.3056152,5.26879883 L55.3056152,5.64101563 L51.7623047,5.64101563 C51.7751954,6.1566432 51.9258531,6.57316736 52.2142822,6.89060059 C52.5027114,7.20803381 52.8692849,7.36674805 53.3140137,7.36674805 C53.6298356,7.36674805 53.8973134,7.30229557 54.1164551,7.17338867 C54.3355968,7.04448178 54.5273429,6.8736827 54.6916992,6.66098633 L55.2379395,7.08637695 C54.799656,7.75991548 54.1422407,8.09667969 53.2656738,8.09667969 Z M53.1544922,3.40771484 C52.7935529,3.40771484 52.4906262,3.53903677 52.2457031,3.80168457 C52.00078,4.06433237 51.8493167,4.43251716 51.7913086,4.90625 L54.4113281,4.90625 L54.4113281,4.83857422 C54.3855467,4.38417742 54.263087,4.03210574 54.0439453,3.78234863 C53.8248036,3.53259152 53.5283222,3.40771484 53.1544922,3.40771484 Z M58.0029785,6.78666992 L59.2984863,2.76962891 L60.2121094,2.76962891 L58.3365234,8 L57.6549316,8 L55.7600098,2.76962891 L56.6736328,2.76962891 L58.0029785,6.78666992 Z M62.0441895,8 L61.1499023,8 L61.1499023,2.76962891 L62.0441895,2.76962891 L62.0441895,8 Z M61.0773926,1.38227539 C61.0773926,1.23725513 61.1217037,1.11479542 61.2103271,1.01489258 C61.2989506,0.914989735 61.4302726,0.865039063 61.6042969,0.865039063 C61.7783212,0.865039063 61.9104488,0.914989735 62.0006836,1.01489258 C62.0909184,1.11479542 62.1360352,1.23725513 62.1360352,1.38227539 C62.1360352,1.52729565 62.0909184,1.64814405 62.0006836,1.74482422 C61.9104488,1.84150439 61.7783212,1.88984375 61.6042969,1.88984375 C61.4302726,1.88984375 61.2989506,1.84150439 61.2103271,1.74482422 C61.1217037,1.64814405 61.0773926,1.52729565 61.0773926,1.38227539 Z M65.572998,7.36674805 C65.8920426,7.36674805 66.1707996,7.27006933 66.4092773,7.07670898 C66.6477551,6.88334864 66.7798827,6.64165184 66.8056641,6.35161133 L67.6516113,6.35161133 C67.635498,6.65131986 67.532374,6.93652208 67.3422363,7.20722656 C67.1520987,7.47793104 66.898317,7.69384685 66.5808838,7.85498047 C66.2634506,8.01611409 65.927492,8.09667969 65.572998,8.09667969 C64.8607875,8.09667969 64.2944113,7.85901117 63.8738525,7.38366699 C63.4532938,6.90832282 63.2430176,6.25815842 63.2430176,5.4331543 L63.2430176,5.28330078 C63.2430176,4.77411855 63.3364737,4.32133987 63.5233887,3.92495117 C63.7103037,3.52856247 63.9785871,3.22080188 64.3282471,3.00166016 C64.677907,2.78251844 65.0912086,2.67294922 65.5681641,2.67294922 C66.1546904,2.67294922 66.6421123,2.84858223 67.0304443,3.19985352 C67.4187764,3.5511248 67.6258299,4.0071261 67.6516113,4.56787109 L66.8056641,4.56787109 C66.7798827,4.2294905 66.6517834,3.95153917 66.4213623,3.73400879 C66.1909412,3.5164784 65.9065447,3.40771484 65.5681641,3.40771484 C65.1137673,3.40771484 64.7616956,3.57126301 64.5119385,3.89836426 C64.2621814,4.2254655 64.1373047,4.69838558 64.1373047,5.31713867 L64.1373047,5.48632813 C64.1373047,6.08896786 64.2613757,6.55302572 64.5095215,6.87851563 C64.7576673,7.20400553 65.1121559,7.36674805 65.572998,7.36674805 Z M70.8275391,8.09667969 C70.1185511,8.09667969 69.5417014,7.8638451 69.0969727,7.39816895 C68.6522439,6.93249279 68.4298828,6.3097207 68.4298828,5.52983398 L68.4298828,5.36547852 C68.4298828,4.84662827 68.5289785,4.38337606 68.7271729,3.97570801 C68.9253672,3.56803995 69.2025129,3.24900018 69.5586182,3.0185791 C69.9147235,2.78815803 70.3006327,2.67294922 70.7163574,2.67294922 C71.3963413,2.67294922 71.9248516,2.89692159 72.3019043,3.34487305 C72.678957,3.79282451 72.8674805,4.43412669 72.8674805,5.26879883 L72.8674805,5.64101563 L69.3241699,5.64101563 C69.3370606,6.1566432 69.4877183,6.57316736 69.7761475,6.89060059 C70.0645766,7.20803381 70.4311501,7.36674805 70.8758789,7.36674805 C71.1917008,7.36674805 71.4591786,7.30229557 71.6783203,7.17338867 C71.897462,7.04448178 72.0892082,6.8736827 72.2535645,6.66098633 L72.7998047,7.08637695 C72.3615212,7.75991548 71.7041059,8.09667969 70.8275391,8.09667969 Z M70.7163574,3.40771484 C70.3554181,3.40771484 70.0524915,3.53903677 69.8075684,3.80168457 C69.5626453,4.06433237 69.4111819,4.43251716 69.3531738,4.90625 L71.9731934,4.90625 L71.9731934,4.83857422 C71.947412,4.38417742 71.8249523,4.03210574 71.6058105,3.78234863 C71.3866688,3.53259152 71.0901874,3.40771484 70.7163574,3.40771484 Z" id="Bluetooth-device"></path>
                </g>
                <g id="１" transform="translate(0.000000, 68.000000)">
                    <g id="Illustration">
                        <mask id="mask-2" fill="white">
                            <use xlink:href="#path-1"></use>
                        </mask>
                        <use id="Mask" fill="#FFFFFF" xlink:href="#path-1"></use>
                    </g>
                </g>
                <g id="Group" transform="translate(227.000000, 47.000000)">
                    <rect id="Base" stroke="#FFFFFF" stroke-width="0.5" x="0" y="0" width="48.0689999" height="16.2" rx="1.8"></rect>
                    <path d="M18.6029297,8.41835937 C18.0240205,8.25195229 17.6027357,8.04746215 17.3390625,7.80488281 C17.0753893,7.56230347 16.9435547,7.26289241 16.9435547,6.90664062 C16.9435547,6.50351361 17.1046859,6.17011851 17.4269531,5.90644531 C17.7492204,5.64277212 18.1681615,5.5109375 18.6837891,5.5109375 C19.0353533,5.5109375 19.3488267,5.57890557 19.6242188,5.71484375 C19.8996108,5.85078193 20.1128899,6.03828005 20.2640625,6.27734375 C20.4152351,6.51640745 20.4908203,6.77773296 20.4908203,7.06132813 L19.8123047,7.06132813 C19.8123047,6.75195158 19.7138682,6.50878995 19.5169922,6.33183594 C19.3201162,6.15488193 19.0423846,6.06640625 18.6837891,6.06640625 C18.3509749,6.06640625 18.0914072,6.13964771 17.9050781,6.28613281 C17.7187491,6.43261792 17.6255859,6.6359362 17.6255859,6.89609375 C17.6255859,7.10468854 17.7140616,7.28105397 17.8910156,7.42519531 C18.0679696,7.56933666 18.3691385,7.70117128 18.7945313,7.82070312 C19.219924,7.94023497 19.5527332,8.07206959 19.7929688,8.21621094 C20.0332043,8.36035228 20.2113275,8.52851466 20.3273438,8.72070312 C20.44336,8.91289159 20.5013672,9.1390612 20.5013672,9.39921875 C20.5013672,9.81406457 20.3396501,10.1462878 20.0162109,10.3958984 C19.6927718,10.6455091 19.2603543,10.7703125 18.7189453,10.7703125 C18.3673811,10.7703125 18.0392593,10.7029304 17.7345703,10.5681641 C17.4298813,10.4333978 17.1949227,10.2488293 17.0296875,10.0144531 C16.8644523,9.78007695 16.7818359,9.51406399 16.7818359,9.21640625 L17.4603516,9.21640625 C17.4603516,9.5257828 17.5746082,9.77011629 17.803125,9.94941406 C18.0316418,10.1287118 18.3369122,10.2183594 18.7189453,10.2183594 C19.0751971,10.2183594 19.3482412,10.1457039 19.5380859,10.0003906 C19.7279306,9.8550774 19.8228516,9.6570325 19.8228516,9.40625 C19.8228516,9.1554675 19.7349618,8.96152412 19.5591797,8.82441406 C19.3833976,8.687304 19.0646507,8.55195379 18.6029297,8.41835937 Z M22.1466797,5.975 L22.1466797,6.89609375 L22.8568359,6.89609375 L22.8568359,7.39882812 L22.1466797,7.39882812 L22.1466797,9.7578125 C22.1466797,9.91015701 22.17832,10.0244137 22.2416016,10.1005859 C22.3048831,10.1767582 22.4126946,10.2148438 22.5650391,10.2148438 C22.6400394,10.2148438 22.7431634,10.2007814 22.8744141,10.1726562 L22.8744141,10.7 C22.7033195,10.7468752 22.5369149,10.7703125 22.3751953,10.7703125 C22.0845689,10.7703125 21.8654304,10.6824228 21.7177734,10.5066406 C21.5701164,10.3308585 21.4962891,10.0812516 21.4962891,9.7578125 L21.4962891,7.39882812 L20.8037109,7.39882812 L20.8037109,6.89609375 L21.4962891,6.89609375 L21.4962891,5.975 L22.1466797,5.975 Z M23.3736328,8.76289063 C23.3736328,8.39023251 23.4468743,8.05507961 23.5933594,7.75742188 C23.7398445,7.45976414 23.9437487,7.23007893 24.2050781,7.06835938 C24.4664076,6.90663982 24.7646468,6.82578125 25.0998047,6.82578125 C25.617776,6.82578125 26.0367172,7.00507633 26.3566406,7.36367187 C26.6765641,7.72226742 26.8365234,8.19921577 26.8365234,8.79453125 L26.8365234,8.84023437 C26.8365234,9.21054873 26.7656257,9.54277197 26.6238281,9.83691406 C26.4820305,10.1310562 26.2792982,10.3601554 26.015625,10.5242187 C25.7519518,10.6882821 25.4490251,10.7703125 25.1068359,10.7703125 C24.5912084,10.7703125 24.1734391,10.5910174 23.8535156,10.2324219 C23.5335922,9.87382633 23.3736328,9.3992217 23.3736328,8.80859375 L23.3736328,8.76289063 Z M24.0275391,8.84023437 C24.0275391,9.26211148 24.1253896,9.60077997 24.3210938,9.85625 C24.5167979,10.11172 24.7787093,10.2394531 25.1068359,10.2394531 C25.4373063,10.2394531 25.6998037,10.1099622 25.8943359,9.85097656 C26.0888682,9.59199089 26.1861328,9.22929921 26.1861328,8.76289063 C26.1861328,8.34570104 26.0871104,8.00761848 25.8890625,7.74863281 C25.6910146,7.48964714 25.4279313,7.36015625 25.0998047,7.36015625 C24.7787093,7.36015625 24.5197275,7.48788935 24.3228516,7.74335938 C24.1259756,7.9988294 24.0275391,8.36445075 24.0275391,8.84023437 Z M30.8654297,8.84023437 C30.8654297,9.41914352 30.7330091,9.88554511 30.4681641,10.2394531 C30.203319,10.5933611 29.8447288,10.7703125 29.3923828,10.7703125 C28.9306618,10.7703125 28.5673841,10.6238296 28.3025391,10.3308594 L28.3025391,12.1625 L27.6521484,12.1625 L27.6521484,6.89609375 L28.2462891,6.89609375 L28.2779297,7.31796875 C28.5427748,6.98984211 28.9107398,6.82578125 29.3818359,6.82578125 C29.8388695,6.82578125 30.2003893,6.99804515 30.4664063,7.34257812 C30.7324232,7.6871111 30.8654297,8.16640318 30.8654297,8.78046875 L30.8654297,8.84023437 Z M30.2150391,8.76640625 C30.2150391,8.33749786 30.1236337,7.99882937 29.9408203,7.75039062 C29.7580069,7.50195188 29.5072282,7.37773438 29.1884766,7.37773438 C28.7947246,7.37773438 28.499415,7.552342 28.3025391,7.9015625 L28.3025391,9.71914062 C28.4970713,10.0660174 28.7947246,10.2394531 29.1955078,10.2394531 C29.5072281,10.2394531 29.7550772,10.1158215 29.9390625,9.86855469 C30.1230478,9.62128783 30.2150391,9.25390869 30.2150391,8.76640625 Z" id="Stop" fill="#FFFFFF"></path>
                </g>
                <g id="status" transform="translate(0.000000, 68.000000)">
                    <g id="Oval-4">
                        <mask id="mask-5" fill="white">
                            <use xlink:href="#path-4"></use>
                        </mask>
                        <use id="Mask" fill="url(#linearGradient-3)" xlink:href="#path-4"></use>
                        <g id="Group-22" mask="url(#mask-5)">
                            <g transform="translate(214.200000, 9.900000)">
                                <path d="M12.4007455,10.8675603 L0.325547795,23.0300899 C-0.102901185,23.4616375 -0.109266685,24.1678458 0.311330052,24.6074501 C0.731926789,25.0470545 1.42021434,25.0535857 1.84866332,24.622038 L14.7227178,11.6548742 C15.160075,11.2143539 15.1562571,10.4901596 14.7142809,10.0545196 L8.60118814,4.02906355 C8.16821426,3.60229674 7.48003585,3.61646729 7.06409865,4.06071436 C6.64816144,4.50496144 6.6619724,5.2110577 7.09494629,5.63782451 L12.4007455,10.8675603 Z" id="Path-5" fill="url(#linearGradient-6)" fill-rule="nonzero" transform="translate(7.524133, 14.329753) scale(1, -1) translate(-7.524133, -14.329753) "></path>
                                <g id="Rectangle-23" fill="none">
                                    <use fill="black" fill-opacity="1" filter="url(#filter-8)" xlink:href="#path-7"></use>
                                    <use fill="#855C9C" fill-rule="evenodd" xlink:href="#path-7"></use>
                                </g>
                                <g id="Rectangle-23" fill="none">
                                    <use fill="black" fill-opacity="1" filter="url(#filter-10)" xlink:href="#path-9"></use>
                                    <use fill="#855C9C" fill-rule="evenodd" xlink:href="#path-9"></use>
                                </g>
                                <g id="Rectangle-23" fill="none" transform="translate(8.493689, 12.224960) rotate(-45.000000) translate(-8.493689, -12.224960) ">
                                    <use fill="black" fill-opacity="1" filter="url(#filter-12)" xlink:href="#path-11"></use>
                                    <use fill="#855C9C" fill-rule="evenodd" xlink:href="#path-11"></use>
                                </g>
                                <path d="M6.75251953,1.11540984 L6.75251953,23.8789879 C6.75251953,24.4950117 7.23923314,24.9943977 7.83962479,24.9943977 C8.44001645,24.9943977 8.92673006,24.4950117 8.92673006,23.8789879 L8.92673006,1.11540984 C8.92673006,0.499385994 8.44001645,0 7.83962479,0 C7.23923314,0 6.75251953,0.499385994 6.75251953,1.11540984 Z" id="Path-6" fill="url(#linearGradient-13)" fill-rule="nonzero"></path>
                                <g id="Rectangle-23" fill="none" transform="translate(8.342966, 1.944814) rotate(-45.000000) translate(-8.342966, -1.944814) ">
                                    <use fill="black" fill-opacity="1" filter="url(#filter-15)" xlink:href="#path-14"></use>
                                    <use fill="#855C9C" fill-rule="evenodd" xlink:href="#path-14"></use>
                                </g>
                                <g id="Rectangle-23" fill="none" transform="translate(8.653562, 12.583756) rotate(-315.000000) translate(-8.653562, -12.583756) ">
                                    <use fill="black" fill-opacity="1" filter="url(#filter-17)" xlink:href="#path-16"></use>
                                    <use fill="#855C9C" fill-rule="evenodd" xlink:href="#path-16"></use>
                                </g>
                                <path d="M12.4007455,7.1495275 L0.325547795,19.3120571 C-0.102901185,19.7436047 -0.109266685,20.449813 0.311330052,20.8894173 C0.731926789,21.3290217 1.42021434,21.3355529 1.84866332,20.9040053 L14.7227178,7.93684137 C15.160075,7.49632107 15.1562571,6.77212685 14.7142809,6.3364868 L8.60118814,0.311030761 C8.16821426,-0.11573605 7.48003585,-0.101565498 7.06409865,0.342681576 C6.64816144,0.78692865 6.6619724,1.49302492 7.09494629,1.91979173 L12.4007455,7.1495275 Z" id="Path-5" fill="url(#linearGradient-18)" fill-rule="nonzero"></path>
                            </g>
                        </g>
                    </g>
                    <g id="Group-24" transform="translate(148.500000, 7.200000)" fill="#FFFFFF">
                        <circle id="Oval-5" opacity="0.48194067" cx="0.675" cy="20.475" r="1"></circle>
                        <circle id="Oval-5" cx="16.875" cy="27.675" r="1"></circle>
                        <circle id="Oval-5" opacity="0.244735054" cx="114.975" cy="19.575" r="1"></circle>
                        <circle id="Oval-5" opacity="0.506567029" cx="129.375" cy="1.575" r="1"></circle>
                        <circle id="Oval-5" opacity="0.624660326" cx="129.375" cy="29.475" r="1"></circle>
                        <circle id="Oval-5" cx="24.075" cy="0.675" r="1"></circle>
                    </g>
                    <path d="M15.7119141,15.2141602 C14.8274695,14.9599271 14.1838399,14.6475116 13.7810059,14.2769043 C13.3781718,13.906297 13.1767578,13.4488634 13.1767578,12.9045898 C13.1767578,12.2887013 13.4229305,11.7793477 13.9152832,11.3765137 C14.4076359,10.9736796 15.0476849,10.7722656 15.8354492,10.7722656 C16.3725613,10.7722656 16.851479,10.8761057 17.2722168,11.0837891 C17.6929546,11.2914724 18.0187977,11.5779279 18.2497559,11.9431641 C18.480714,12.3084003 18.5961914,12.7076476 18.5961914,13.140918 L17.5595703,13.140918 C17.5595703,12.6682594 17.4091812,12.2967624 17.1083984,12.026416 C16.8076157,11.7560696 16.3833035,11.6208984 15.8354492,11.6208984 C15.3269831,11.6208984 14.9304213,11.7327951 14.645752,11.9565918 C14.3610826,12.1803885 14.21875,12.4910136 14.21875,12.8884766 C14.21875,13.2071631 14.3539212,13.4766102 14.6242676,13.6968262 C14.894614,13.9170421 15.3547331,14.1184561 16.0046387,14.3010742 C16.6545443,14.4836923 17.1630027,14.6851063 17.5300293,14.9053223 C17.8970559,15.1255382 18.1691886,15.382453 18.3464355,15.6760742 C18.5236825,15.9696955 18.6123047,16.3152324 18.6123047,16.7126953 C18.6123047,17.3464875 18.3652368,17.8540508 17.8710938,18.2354004 C17.3769507,18.61675 16.7163127,18.8074219 15.8891602,18.8074219 C15.3520481,18.8074219 14.850751,18.7044769 14.3852539,18.498584 C13.9197568,18.292691 13.5607923,18.0107114 13.3083496,17.6526367 C13.0559069,17.294562 12.9296875,16.8881533 12.9296875,16.4333984 L13.9663086,16.4333984 C13.9663086,16.9060571 14.1408674,17.2793443 14.4899902,17.5532715 C14.8391131,17.8271986 15.3054984,17.9641602 15.8891602,17.9641602 C16.4334337,17.9641602 16.8505845,17.8531587 17.140625,17.6311523 C17.4306655,17.409146 17.5756836,17.1065774 17.5756836,16.7234375 C17.5756836,16.3402976 17.4414076,16.0439952 17.1728516,15.8345215 C16.9042955,15.6250478 16.4173212,15.4182627 15.7119141,15.2141602 Z M22.1088867,17.9963867 C22.4633807,17.9963867 22.7731107,17.8889659 23.0380859,17.6741211 C23.3030612,17.4592763 23.4498696,17.1907243 23.4785156,16.868457 L24.418457,16.868457 C24.4005533,17.2014665 24.2859711,17.5183579 24.074707,17.8191406 C23.863443,18.1199234 23.5814634,18.3598298 23.2287598,18.5388672 C22.8760562,18.7179045 22.5027689,18.8074219 22.1088867,18.8074219 C21.3175416,18.8074219 20.6882348,18.5433457 20.2209473,18.0151855 C19.7536598,17.4870254 19.5200195,16.7646205 19.5200195,15.8479492 L19.5200195,15.6814453 C19.5200195,15.1156873 19.6238596,14.6125999 19.831543,14.172168 C20.0392263,13.7317361 20.337319,13.3897799 20.7258301,13.1462891 C21.1143411,12.9027983 21.5735651,12.7810547 22.1035156,12.7810547 C22.7552116,12.7810547 23.2967915,12.9762025 23.7282715,13.3665039 C24.1597515,13.7568053 24.3898111,14.2634734 24.418457,14.8865234 L23.4785156,14.8865234 C23.4498696,14.510545 23.3075371,14.2017102 23.0515137,13.9600098 C22.7954903,13.7183093 22.4794941,13.5974609 22.1035156,13.5974609 C21.5986303,13.5974609 21.2074395,13.7791811 20.9299316,14.142627 C20.6524237,14.5060728 20.5136719,15.0315395 20.5136719,15.719043 L20.5136719,15.9070313 C20.5136719,16.576631 20.6515286,17.0922508 20.9272461,17.4539063 C21.2029636,17.8155617 21.5968399,17.9963867 22.1088867,17.9963867 Z M29.1235352,18.7 C29.0662432,18.5854161 29.0196942,18.3813166 28.9838867,18.0876953 C28.5219703,18.5675154 27.9705436,18.8074219 27.3295898,18.8074219 C26.7566703,18.8074219 26.2867043,18.6453955 25.9196777,18.3213379 C25.5526512,17.9972803 25.3691406,17.5863957 25.3691406,17.0886719 C25.3691406,16.4835256 25.5992002,16.0135596 26.0593262,15.6787598 C26.5194522,15.3439599 27.1666625,15.1765625 28.0009766,15.1765625 L28.9677734,15.1765625 L28.9677734,14.7200195 C28.9677734,14.3726871 28.8639333,14.0960785 28.65625,13.8901855 C28.4485667,13.6842926 28.1424174,13.5813477 27.737793,13.5813477 C27.383299,13.5813477 27.0861015,13.670865 26.8461914,13.8499023 C26.6062814,14.0289397 26.4863281,14.2455716 26.4863281,14.4998047 L25.4873047,14.4998047 C25.4873047,14.2097642 25.5902496,13.9295749 25.7961426,13.6592285 C26.0020355,13.3888821 26.2813296,13.1749357 26.6340332,13.0173828 C26.9867368,12.8598299 27.3743468,12.7810547 27.796875,12.7810547 C28.4664747,12.7810547 28.9910463,12.9484521 29.3706055,13.283252 C29.7501647,13.6180518 29.9471028,14.0790661 29.9614258,14.6663086 L29.9614258,17.3411133 C29.9614258,17.8746446 30.029459,18.2989568 30.1655273,18.6140625 L30.1655273,18.7 L29.1235352,18.7 Z M27.4746094,17.9426758 C27.7861344,17.9426758 28.0815416,17.8621102 28.3608398,17.7009766 C28.6401381,17.5398429 28.8424473,17.3303724 28.9677734,17.0725586 L28.9677734,15.8801758 L28.1889648,15.8801758 C26.9715108,15.8801758 26.362793,16.2364548 26.362793,16.9490234 C26.362793,17.2605484 26.4666331,17.5040356 26.6743164,17.6794922 C26.8819997,17.8549488 27.1487614,17.9426758 27.4746094,17.9426758 Z M32.4589844,12.8884766 L32.4912109,13.6189453 C32.9352236,13.0603488 33.5152959,12.7810547 34.2314453,12.7810547 C35.4596416,12.7810547 36.0791015,13.4739189 36.0898438,14.859668 L36.0898438,18.7 L35.0961914,18.7 L35.0961914,14.8542969 C35.0926107,14.4353495 34.9968271,14.1256195 34.8088379,13.9250977 C34.6208487,13.7245758 34.328127,13.6243164 33.9306641,13.6243164 C33.6083968,13.6243164 33.3255221,13.710253 33.0820312,13.8821289 C32.8385404,14.0540048 32.6487637,14.2795884 32.5126953,14.5588867 L32.5126953,18.7 L31.519043,18.7 L31.519043,12.8884766 L32.4589844,12.8884766 Z M38.5283203,12.8884766 L38.5605469,13.6189453 C39.0045595,13.0603488 39.5846318,12.7810547 40.3007812,12.7810547 C41.5289775,12.7810547 42.1484374,13.4739189 42.1591797,14.859668 L42.1591797,18.7 L41.1655273,18.7 L41.1655273,14.8542969 C41.1619466,14.4353495 41.066163,14.1256195 40.8781738,13.9250977 C40.6901846,13.7245758 40.3974629,13.6243164 40,13.6243164 C39.6777328,13.6243164 39.394858,13.710253 39.1513672,13.8821289 C38.9078764,14.0540048 38.7180996,14.2795884 38.5820312,14.5588867 L38.5820312,18.7 L37.5883789,18.7 L37.5883789,12.8884766 L38.5283203,12.8884766 Z M44.7373047,18.7 L43.7436523,18.7 L43.7436523,12.8884766 L44.7373047,12.8884766 L44.7373047,18.7 Z M43.6630859,11.3469727 C43.6630859,11.185839 43.7123205,11.0497727 43.810791,10.9387695 C43.9092616,10.8277664 44.0551748,10.7722656 44.2485352,10.7722656 C44.4418955,10.7722656 44.5887039,10.8277664 44.6889648,10.9387695 C44.7892258,11.0497727 44.8393555,11.185839 44.8393555,11.3469727 C44.8393555,11.5081063 44.7892258,11.6423823 44.6889648,11.7498047 C44.5887039,11.8572271 44.4418955,11.9109375 44.2485352,11.9109375 C44.0551748,11.9109375 43.9092616,11.8572271 43.810791,11.7498047 C43.7123205,11.6423823 43.6630859,11.5081063 43.6630859,11.3469727 Z M47.2670898,12.8884766 L47.2993164,13.6189453 C47.743329,13.0603488 48.3234014,12.7810547 49.0395508,12.7810547 C50.267747,12.7810547 50.887207,13.4739189 50.8979492,14.859668 L50.8979492,18.7 L49.9042969,18.7 L49.9042969,14.8542969 C49.9007161,14.4353495 49.8049326,14.1256195 49.6169434,13.9250977 C49.4289541,13.7245758 49.1362325,13.6243164 48.7387695,13.6243164 C48.4165023,13.6243164 48.1336275,13.710253 47.8901367,13.8821289 C47.6466459,14.0540048 47.4568692,14.2795884 47.3208008,14.5588867 L47.3208008,18.7 L46.3271484,18.7 L46.3271484,12.8884766 L47.2670898,12.8884766 Z M52.1601562,15.7458984 C52.1601562,14.8399694 52.3696268,14.1193549 52.7885742,13.5840332 C53.2075216,13.0487115 53.7625291,12.7810547 54.4536133,12.7810547 C55.1626012,12.7810547 55.7158183,13.0317032 56.1132812,13.5330078 L56.1616211,12.8884766 L57.0693359,12.8884766 L57.0693359,18.5603516 C57.0693359,19.3123084 56.8464378,19.9049132 56.4006348,20.3381836 C55.9548318,20.771454 55.3559608,20.9880859 54.6040039,20.9880859 C54.1850565,20.9880859 53.7750671,20.8985686 53.3740234,20.7195313 C52.9729798,20.5404939 52.6668305,20.2952164 52.4555664,19.9836914 L52.9711914,19.3875 C53.3973003,19.9138698 53.9182912,20.1770508 54.5341797,20.1770508 C55.0175805,20.1770508 55.3944485,20.0409844 55.6647949,19.7688477 C55.9351413,19.4967109 56.0703125,19.1135767 56.0703125,18.6194336 L56.0703125,18.1199219 C55.6728496,18.5782575 55.1303745,18.8074219 54.4428711,18.8074219 C53.7625292,18.8074219 53.2119975,18.5334988 52.7912598,17.9856445 C52.370522,17.4377902 52.1601562,16.6912157 52.1601562,15.7458984 Z M53.1591797,15.8586914 C53.1591797,16.5139681 53.2934557,17.0286928 53.5620117,17.4028809 C53.8305677,17.7770689 54.2065406,17.9641602 54.6899414,17.9641602 C55.3165721,17.9641602 55.7766912,17.679495 56.0703125,17.1101563 L56.0703125,14.4568359 C55.765949,13.9018201 55.3094106,13.6243164 54.7006836,13.6243164 C54.2172827,13.6243164 53.8395196,13.8123028 53.5673828,14.1882813 C53.295246,14.5642597 53.1591797,15.1210575 53.1591797,15.8586914 Z M62.6391602,11.48125 L62.6391602,12.8884766 L63.7241211,12.8884766 L63.7241211,13.656543 L62.6391602,13.656543 L62.6391602,17.2605469 C62.6391602,17.4932954 62.6874995,17.6678542 62.7841797,17.7842285 C62.8808599,17.9006028 63.0455718,17.9587891 63.2783203,17.9587891 C63.3929042,17.9587891 63.5504547,17.9373049 63.7509766,17.8943359 L63.7509766,18.7 C63.489582,18.7716149 63.2353528,18.8074219 62.9882812,18.8074219 C62.5442686,18.8074219 62.2094738,18.6731459 61.9838867,18.4045898 C61.7582997,18.1360338 61.6455078,17.75469 61.6455078,17.2605469 L61.6455078,13.656543 L60.5874023,13.656543 L60.5874023,12.8884766 L61.6455078,12.8884766 L61.6455078,11.48125 L62.6391602,11.48125 Z M65.8779297,13.5920898 C66.3183616,13.051397 66.8912725,12.7810547 67.5966797,12.7810547 C68.8248759,12.7810547 69.4443359,13.4739189 69.4550781,14.859668 L69.4550781,18.7 L68.4614258,18.7 L68.4614258,14.8542969 C68.457845,14.4353495 68.3620615,14.1256195 68.1740723,13.9250977 C67.986083,13.7245758 67.6933614,13.6243164 67.2958984,13.6243164 C66.9736312,13.6243164 66.6907564,13.710253 66.4472656,13.8821289 C66.2037748,14.0540048 66.0139981,14.2795884 65.8779297,14.5588867 L65.8779297,18.7 L64.8842773,18.7 L64.8842773,10.45 L65.8779297,10.45 L65.8779297,13.5920898 Z M73.3544922,18.8074219 C72.5667278,18.8074219 71.9257837,18.5487168 71.4316406,18.0312988 C70.9374975,17.5138809 70.6904297,16.8219119 70.6904297,15.9553711 L70.6904297,15.7727539 C70.6904297,15.1962536 70.800536,14.681529 71.020752,14.2285645 C71.2409679,13.7755999 71.5489075,13.4211113 71.9445801,13.1650879 C72.3402526,12.9090645 72.7690407,12.7810547 73.230957,12.7810547 C73.9864947,12.7810547 74.5737284,13.0299129 74.9926758,13.5276367 C75.4116232,14.0253606 75.6210938,14.7379185 75.6210938,15.665332 L75.6210938,16.0789063 L71.684082,16.0789063 C71.698405,16.6518258 71.8658024,17.1146304 72.1862793,17.467334 C72.5067562,17.8200376 72.91406,17.9963867 73.4082031,17.9963867 C73.7591163,17.9963867 74.0563139,17.9247729 74.2998047,17.781543 C74.5432955,17.6383131 74.7563467,17.4485363 74.9389648,17.212207 L75.5458984,17.6848633 C75.0589168,18.4332394 74.3284554,18.8074219 73.3544922,18.8074219 Z M73.230957,13.5974609 C72.8299134,13.5974609 72.4933282,13.7433742 72.2211914,14.0352051 C71.9490546,14.327036 71.780762,14.7361302 71.7163086,15.2625 L74.6274414,15.2625 L74.6274414,15.1873047 C74.5987954,14.6824194 74.4627291,14.2912286 74.2192383,14.0137207 C73.9757475,13.7362128 73.6463237,13.5974609 73.230957,13.5974609 Z M84.4135742,15.8586914 C84.4135742,16.7467167 84.2094747,17.4601698 83.8012695,17.9990723 C83.3930644,18.5379747 82.8452183,18.8074219 82.1577148,18.8074219 C81.4236617,18.8074219 80.8561218,18.5478216 80.4550781,18.0286133 L80.4067383,18.7 L79.4936523,18.7 L79.4936523,10.45 L80.4873047,10.45 L80.4873047,13.5276367 C80.8883484,13.0299129 81.4415655,12.7810547 82.1469727,12.7810547 C82.8523798,12.7810547 83.4064921,13.0478163 83.8093262,13.5813477 C84.2121602,14.114879 84.4135742,14.8453404 84.4135742,15.7727539 L84.4135742,15.8586914 Z M83.4199219,15.7458984 C83.4199219,15.0691372 83.2892266,14.546356 83.027832,14.1775391 C82.7664375,13.8087221 82.3904647,13.6243164 81.8999023,13.6243164 C81.2446256,13.6243164 80.7737645,13.9286753 80.4873047,14.5374023 L80.4873047,17.0510742 C80.7916682,17.6598012 81.2661101,17.9641602 81.9106445,17.9641602 C82.3868839,17.9641602 82.7574857,17.7797544 83.0224609,17.4109375 C83.2874362,17.0421206 83.4199219,16.4871131 83.4199219,15.7458984 Z M86.7446289,18.7 L85.7509766,18.7 L85.7509766,10.45 L86.7446289,10.45 L86.7446289,18.7 Z M91.9223633,18.125293 C91.5356426,18.5800478 90.9681027,18.8074219 90.2197266,18.8074219 C89.6002573,18.8074219 89.128501,18.627492 88.8044434,18.267627 C88.4803857,17.9077619 88.316569,17.3751337 88.3129883,16.6697266 L88.3129883,12.8884766 L89.3066406,12.8884766 L89.3066406,16.6428711 C89.3066406,17.5237349 89.66471,17.9641602 90.3808594,17.9641602 C91.1399778,17.9641602 91.6448555,17.6812854 91.8955078,17.1155273 L91.8955078,12.8884766 L92.8891602,12.8884766 L92.8891602,18.7 L91.9438477,18.7 L91.9223633,18.125293 Z M96.8100586,18.8074219 C96.0222942,18.8074219 95.3813501,18.5487168 94.887207,18.0312988 C94.3930639,17.5138809 94.1459961,16.8219119 94.1459961,15.9553711 L94.1459961,15.7727539 C94.1459961,15.1962536 94.2561024,14.681529 94.4763184,14.2285645 C94.6965343,13.7755999 95.0044739,13.4211113 95.4001465,13.1650879 C95.795819,12.9090645 96.2246071,12.7810547 96.6865234,12.7810547 C97.4420611,12.7810547 98.0292948,13.0299129 98.4482422,13.5276367 C98.8671896,14.0253606 99.0766602,14.7379185 99.0766602,15.665332 L99.0766602,16.0789063 L95.1396484,16.0789063 C95.1539714,16.6518258 95.3213688,17.1146304 95.6418457,17.467334 C95.9623226,17.8200376 96.3696264,17.9963867 96.8637695,17.9963867 C97.2146827,17.9963867 97.5118803,17.9247729 97.7553711,17.781543 C97.9988619,17.6383131 98.2119131,17.4485363 98.3945312,17.212207 L99.0014648,17.6848633 C98.5144832,18.4332394 97.7840218,18.8074219 96.8100586,18.8074219 Z M96.6865234,13.5974609 C96.2854798,13.5974609 95.9488946,13.7433742 95.6767578,14.0352051 C95.404621,14.327036 95.2363284,14.7361302 95.171875,15.2625 L98.0830078,15.2625 L98.0830078,15.1873047 C98.0543618,14.6824194 97.9182955,14.2912286 97.6748047,14.0137207 C97.4313139,13.7362128 97.1018901,13.5974609 96.6865234,13.5974609 Z M101.574219,11.48125 L101.574219,12.8884766 L102.65918,12.8884766 L102.65918,13.656543 L101.574219,13.656543 L101.574219,17.2605469 C101.574219,17.4932954 101.622558,17.6678542 101.719238,17.7842285 C101.815918,17.9006028 101.98063,17.9587891 102.213379,17.9587891 C102.327963,17.9587891 102.485513,17.9373049 102.686035,17.8943359 L102.686035,18.7 C102.424641,18.7716149 102.170411,18.8074219 101.92334,18.8074219 C101.479327,18.8074219 101.144532,18.6731459 100.918945,18.4045898 C100.693358,18.1360338 100.580566,17.75469 100.580566,17.2605469 L100.580566,13.656543 L99.5224609,13.656543 L99.5224609,12.8884766 L100.580566,12.8884766 L100.580566,11.48125 L101.574219,11.48125 Z M103.44873,15.7405273 C103.44873,15.1711886 103.560627,14.6591494 103.784424,14.2043945 C104.008221,13.7496397 104.319741,13.3987317 104.718994,13.1516602 C105.118247,12.9045886 105.573891,12.7810547 106.085938,12.7810547 C106.877283,12.7810547 107.517332,13.0549777 108.006104,13.602832 C108.494875,14.1506863 108.739258,14.8793574 108.739258,15.7888672 L108.739258,15.8586914 C108.739258,16.4244494 108.630942,16.9320127 108.414307,17.3813965 C108.197671,17.8307802 107.887941,18.180793 107.485107,18.4314453 C107.082273,18.6820976 106.619469,18.8074219 106.09668,18.8074219 C105.308915,18.8074219 104.670657,18.5334988 104.181885,17.9856445 C103.693113,17.4377902 103.44873,16.7126998 103.44873,15.8103516 L103.44873,15.7405273 Z M104.447754,15.8586914 C104.447754,16.5032259 104.597248,17.0206361 104.89624,17.4109375 C105.195233,17.8012389 105.595375,17.9963867 106.09668,17.9963867 C106.601565,17.9963867 107.002603,17.7985534 107.299805,17.4028809 C107.597007,17.0072083 107.745605,16.453096 107.745605,15.7405273 C107.745605,15.1031544 107.594321,14.5866393 107.291748,14.1909668 C106.989175,13.7952942 106.587242,13.5974609 106.085938,13.5974609 C105.595375,13.5974609 105.199709,13.7926087 104.898926,14.1829102 C104.598143,14.5732116 104.447754,15.1317998 104.447754,15.8586914 Z M109.722168,15.7405273 C109.722168,15.1711886 109.834065,14.6591494 110.057861,14.2043945 C110.281658,13.7496397 110.593178,13.3987317 110.992432,13.1516602 C111.391685,12.9045886 111.847328,12.7810547 112.359375,12.7810547 C113.15072,12.7810547 113.790769,13.0549777 114.279541,13.602832 C114.768313,14.1506863 115.012695,14.8793574 115.012695,15.7888672 L115.012695,15.8586914 C115.012695,16.4244494 114.904379,16.9320127 114.687744,17.3813965 C114.471109,17.8307802 114.161379,18.180793 113.758545,18.4314453 C113.355711,18.6820976 112.892906,18.8074219 112.370117,18.8074219 C111.582353,18.8074219 110.944094,18.5334988 110.455322,17.9856445 C109.96655,17.4377902 109.722168,16.7126998 109.722168,15.8103516 L109.722168,15.7405273 Z M110.721191,15.8586914 C110.721191,16.5032259 110.870685,17.0206361 111.169678,17.4109375 C111.46867,17.8012389 111.868813,17.9963867 112.370117,17.9963867 C112.875003,17.9963867 113.27604,17.7985534 113.573242,17.4028809 C113.870444,17.0072083 114.019043,16.453096 114.019043,15.7405273 C114.019043,15.1031544 113.867759,14.5866393 113.565186,14.1909668 C113.262612,13.7952942 112.86068,13.5974609 112.359375,13.5974609 C111.868813,13.5974609 111.473146,13.7926087 111.172363,14.1829102 C110.871581,14.5732116 110.721191,15.1317998 110.721191,15.8586914 Z M117.606934,11.48125 L117.606934,12.8884766 L118.691895,12.8884766 L118.691895,13.656543 L117.606934,13.656543 L117.606934,17.2605469 C117.606934,17.4932954 117.655273,17.6678542 117.751953,17.7842285 C117.848633,17.9006028 118.013345,17.9587891 118.246094,17.9587891 C118.360678,17.9587891 118.518228,17.9373049 118.71875,17.8943359 L118.71875,18.7 C118.457355,18.7716149 118.203126,18.8074219 117.956055,18.8074219 C117.512042,18.8074219 117.177247,18.6731459 116.95166,18.4045898 C116.726073,18.1360338 116.613281,17.75469 116.613281,17.2605469 L116.613281,13.656543 L115.555176,13.656543 L115.555176,12.8884766 L116.613281,12.8884766 L116.613281,11.48125 L117.606934,11.48125 Z M120.845703,13.5920898 C121.286135,13.051397 121.859046,12.7810547 122.564453,12.7810547 C123.792649,12.7810547 124.412109,13.4739189 124.422852,14.859668 L124.422852,18.7 L123.429199,18.7 L123.429199,14.8542969 C123.425618,14.4353495 123.329835,14.1256195 123.141846,13.9250977 C122.953856,13.7245758 122.661135,13.6243164 122.263672,13.6243164 C121.941405,13.6243164 121.65853,13.710253 121.415039,13.8821289 C121.171548,14.0540048 120.981772,14.2795884 120.845703,14.5588867 L120.845703,18.7 L119.852051,18.7 L119.852051,10.45 L120.845703,10.45 L120.845703,13.5920898 Z M128.39209,15.7458984 C128.39209,14.8542924 128.603351,14.1372586 129.025879,13.5947754 C129.448407,13.0522922 130.001624,12.7810547 130.685547,12.7810547 C131.365889,12.7810547 131.904783,13.0137998 132.302246,13.4792969 L132.302246,10.45 L133.295898,10.45 L133.295898,18.7 L132.382812,18.7 L132.334473,18.0769531 C131.93701,18.5639347 131.383793,18.8074219 130.674805,18.8074219 C130.001624,18.8074219 129.452883,18.5317085 129.028564,17.9802734 C128.604246,17.4288384 128.39209,16.709119 128.39209,15.8210938 L128.39209,15.7458984 Z M129.385742,15.8586914 C129.385742,16.5175489 129.521809,17.0331687 129.793945,17.4055664 C130.066082,17.7779641 130.442055,17.9641602 130.921875,17.9641602 C131.552086,17.9641602 132.012206,17.6812854 132.302246,17.1155273 L132.302246,14.4460938 C132.005044,13.8982394 131.548506,13.6243164 130.932617,13.6243164 C130.445636,13.6243164 130.066082,13.8123028 129.793945,14.1882813 C129.521809,14.5642597 129.385742,15.1210575 129.385742,15.8586914 Z M137.249023,18.8074219 C136.461259,18.8074219 135.820315,18.5487168 135.326172,18.0312988 C134.832029,17.5138809 134.584961,16.8219119 134.584961,15.9553711 L134.584961,15.7727539 C134.584961,15.1962536 134.695067,14.681529 134.915283,14.2285645 C135.135499,13.7755999 135.443439,13.4211113 135.839111,13.1650879 C136.234784,12.9090645 136.663572,12.7810547 137.125488,12.7810547 C137.881026,12.7810547 138.46826,13.0299129 138.887207,13.5276367 C139.306154,14.0253606 139.515625,14.7379185 139.515625,15.665332 L139.515625,16.0789063 L135.578613,16.0789063 C135.592936,16.6518258 135.760334,17.1146304 136.080811,17.467334 C136.401287,17.8200376 136.808591,17.9963867 137.302734,17.9963867 C137.653648,17.9963867 137.950845,17.9247729 138.194336,17.781543 C138.437827,17.6383131 138.650878,17.4485363 138.833496,17.212207 L139.44043,17.6848633 C138.953448,18.4332394 138.222987,18.8074219 137.249023,18.8074219 Z M137.125488,13.5974609 C136.724445,13.5974609 136.387859,13.7433742 136.115723,14.0352051 C135.843586,14.327036 135.675293,14.7361302 135.61084,15.2625 L138.521973,15.2625 L138.521973,15.1873047 C138.493327,14.6824194 138.35726,14.2912286 138.11377,14.0137207 C137.870279,13.7362128 137.540855,13.5974609 137.125488,13.5974609 Z M142.512695,17.3518555 L143.952148,12.8884766 L144.967285,12.8884766 L142.883301,18.7 L142.125977,18.7 L140.020508,12.8884766 L141.035645,12.8884766 L142.512695,17.3518555 Z M147.00293,18.7 L146.009277,18.7 L146.009277,12.8884766 L147.00293,12.8884766 L147.00293,18.7 Z M145.928711,11.3469727 C145.928711,11.185839 145.977945,11.0497727 146.076416,10.9387695 C146.174887,10.8277664 146.3208,10.7722656 146.51416,10.7722656 C146.70752,10.7722656 146.854329,10.8277664 146.95459,10.9387695 C147.054851,11.0497727 147.10498,11.185839 147.10498,11.3469727 C147.10498,11.5081063 147.054851,11.6423823 146.95459,11.7498047 C146.854329,11.8572271 146.70752,11.9109375 146.51416,11.9109375 C146.3208,11.9109375 146.174887,11.8572271 146.076416,11.7498047 C145.977945,11.6423823 145.928711,11.5081063 145.928711,11.3469727 Z M150.923828,17.9963867 C151.278322,17.9963867 151.588052,17.8889659 151.853027,17.6741211 C152.118003,17.4592763 152.264811,17.1907243 152.293457,16.868457 L153.233398,16.868457 C153.215495,17.2014665 153.100913,17.5183579 152.889648,17.8191406 C152.678384,18.1199234 152.396405,18.3598298 152.043701,18.5388672 C151.690998,18.7179045 151.31771,18.8074219 150.923828,18.8074219 C150.132483,18.8074219 149.503176,18.5433457 149.035889,18.0151855 C148.568601,17.4870254 148.334961,16.7646205 148.334961,15.8479492 L148.334961,15.6814453 C148.334961,15.1156873 148.438801,14.6125999 148.646484,14.172168 C148.854168,13.7317361 149.15226,13.3897799 149.540771,13.1462891 C149.929283,12.9027983 150.388506,12.7810547 150.918457,12.7810547 C151.570153,12.7810547 152.111733,12.9762025 152.543213,13.3665039 C152.974693,13.7568053 153.204752,14.2634734 153.233398,14.8865234 L152.293457,14.8865234 C152.264811,14.510545 152.122478,14.2017102 151.866455,13.9600098 C151.610432,13.7183093 151.294435,13.5974609 150.918457,13.5974609 C150.413572,13.5974609 150.022381,13.7791811 149.744873,14.142627 C149.467365,14.5060728 149.328613,15.0315395 149.328613,15.719043 L149.328613,15.9070313 C149.328613,16.576631 149.46647,17.0922508 149.742188,17.4539063 C150.017905,17.8155617 150.411781,17.9963867 150.923828,17.9963867 Z M156.762207,18.8074219 C155.974443,18.8074219 155.333499,18.5487168 154.839355,18.0312988 C154.345212,17.5138809 154.098145,16.8219119 154.098145,15.9553711 L154.098145,15.7727539 C154.098145,15.1962536 154.208251,14.681529 154.428467,14.2285645 C154.648683,13.7755999 154.956622,13.4211113 155.352295,13.1650879 C155.747967,12.9090645 156.176756,12.7810547 156.638672,12.7810547 C157.39421,12.7810547 157.981443,13.0299129 158.400391,13.5276367 C158.819338,14.0253606 159.028809,14.7379185 159.028809,15.665332 L159.028809,16.0789063 L155.091797,16.0789063 C155.10612,16.6518258 155.273517,17.1146304 155.593994,17.467334 C155.914471,17.8200376 156.321775,17.9963867 156.815918,17.9963867 C157.166831,17.9963867 157.464029,17.9247729 157.70752,17.781543 C157.95101,17.6383131 158.164062,17.4485363 158.34668,17.212207 L158.953613,17.6848633 C158.466632,18.4332394 157.73617,18.8074219 156.762207,18.8074219 Z M156.638672,13.5974609 C156.237628,13.5974609 155.901043,13.7433742 155.628906,14.0352051 C155.356769,14.327036 155.188477,14.7361302 155.124023,15.2625 L158.035156,15.2625 L158.035156,15.1873047 C158.00651,14.6824194 157.870444,14.2912286 157.626953,14.0137207 C157.383462,13.7362128 157.054039,13.5974609 156.638672,13.5974609 Z" id="Scanning-the-bluetoo" fill="#FFFFFF"></path>
                </g>
                <path d="M15.1866744,103.923906 L14.4590868,103.923906 L14.4590868,99.2327204 L13,99.7539632 L13,99.1147749 L15.0732333,98.3576411 L15.1866744,98.3576411 L15.1866744,103.923906 Z M19.1884058,101.831325 C19.1884058,101.199743 19.3422669,100.691822 19.6499936,100.307546 C19.9577203,99.9232701 20.3606277,99.7311351 20.8587277,99.7311351 C21.3542199,99.7311351 21.746696,99.8960034 22.0361678,100.225745 L22.0361678,98.0798985 L22.7598435,98.0798985 L22.7598435,103.923906 L22.0948442,103.923906 L22.0596383,103.482562 C21.7701666,103.827522 21.3672592,104 20.8509042,104 C20.3606277,104 19.9609801,103.804694 19.6519495,103.414077 C19.3429188,103.02346 19.1884058,102.513637 19.1884058,101.884591 L19.1884058,101.831325 Z M19.9120816,101.911224 C19.9120816,102.377935 20.0111785,102.743182 20.2093754,103.006975 C20.4075723,103.270769 20.6813928,103.402663 21.0308452,103.402663 C21.4898274,103.402663 21.8249316,103.202285 22.0361678,102.801522 L22.0361678,100.91059 C21.8197159,100.522509 21.4872195,100.328472 21.0386687,100.328472 C20.6840006,100.328472 20.4075723,100.461635 20.2093754,100.727964 C20.0111785,100.994294 19.9120816,101.38871 19.9120816,101.911224 Z M25.6388996,104 C25.0651718,104 24.598373,103.816742 24.2384892,103.450222 C23.8786054,103.083701 23.6986662,102.593535 23.6986662,101.979708 L23.6986662,101.850349 C23.6986662,101.441976 23.7788565,101.077364 23.9392395,100.7565 C24.0996225,100.435636 24.3238945,100.184528 24.6120623,100.003171 C24.9002302,99.8218127 25.212516,99.7311351 25.5489291,99.7311351 C26.0991862,99.7311351 26.5268678,99.9074174 26.8319867,100.259987 C27.1371055,100.612557 27.2896627,101.117308 27.2896627,101.774255 L27.2896627,102.067216 L24.4223419,102.067216 C24.4327733,102.473052 24.5546887,102.800887 24.7880916,103.050729 C25.0214945,103.300572 25.3181334,103.425491 25.6780172,103.425491 C25.9335868,103.425491 26.1500355,103.374763 26.3273695,103.273304 C26.5047036,103.171845 26.6598685,103.037414 26.7928691,102.870006 L27.234898,103.204819 C26.8802299,103.734942 26.3482358,104 25.6388996,104 Z M25.5489291,100.309448 C25.2568495,100.309448 25.0117149,100.412808 24.813518,100.619531 C24.6153211,100.826253 24.4927539,101.116041 24.4458125,101.488903 L26.5659869,101.488903 L26.5659869,101.435637 C26.5451241,101.077994 26.4460271,100.800889 26.2686931,100.604312 C26.091359,100.407735 25.8514401,100.309448 25.5489291,100.309448 Z M29.4724253,102.968928 L30.5207772,99.8072289 L31.2601,99.8072289 L29.7423368,103.923906 L29.1907785,103.923906 L27.6573682,99.8072289 L28.396691,99.8072289 L29.4724253,102.968928 Z M32.7426574,103.923906 L32.0189817,103.923906 L32.0189817,99.8072289 L32.7426574,99.8072289 L32.7426574,103.923906 Z M31.9603052,98.7152822 C31.9603052,98.6011408 31.9961627,98.5047563 32.0678787,98.4261256 C32.1395946,98.3474949 32.2458631,98.3081801 32.3866872,98.3081801 C32.5275113,98.3081801 32.6344317,98.3474949 32.7074516,98.4261256 C32.7804715,98.5047563 32.8169809,98.6011408 32.8169809,98.7152822 C32.8169809,98.8294235 32.7804715,98.9245399 32.7074516,99.0006341 C32.6344317,99.0767283 32.5275113,99.1147749 32.3866872,99.1147749 C32.2458631,99.1147749 32.1395946,99.0767283 32.0678787,99.0006341 C31.9961627,98.9245399 31.9603052,98.8294235 31.9603052,98.7152822 Z M35.5982429,103.425491 C35.8564204,103.425491 36.0819964,103.349398 36.2749776,103.19721 C36.4679587,103.045021 36.5748791,102.854789 36.595742,102.626506 L37.2803001,102.626506 C37.2672608,102.862398 37.1838108,103.086873 37.0299474,103.299937 C36.876084,103.513 36.6707187,103.682942 36.4138451,103.809765 C36.1569715,103.936589 35.8851068,104 35.5982429,104 C35.0219073,104 34.5635838,103.812938 34.2232589,103.438808 C33.882934,103.064678 33.7127741,102.552952 33.7127741,101.903614 L33.7127741,101.785669 C33.7127741,101.384906 33.7884008,101.028537 33.9396563,100.71655 C34.0909118,100.404564 34.3080124,100.162334 34.5909645,99.9898542 C34.8739166,99.8173739 35.2083688,99.7311351 35.5943312,99.7311351 C36.0689605,99.7311351 36.4633925,99.8693708 36.7776388,100.145847 C37.0918852,100.422322 37.2594373,100.781228 37.2803001,101.222575 L36.595742,101.222575 C36.5748791,100.956245 36.4712185,100.737477 36.284757,100.566265 C36.0982954,100.395053 35.8681558,100.309448 35.5943312,100.309448 C35.2266238,100.309448 34.94172,100.438172 34.7396114,100.695625 C34.5375027,100.953077 34.4364499,101.325299 34.4364499,101.812302 L34.4364499,101.945466 C34.4364499,102.419787 34.5368508,102.785034 34.7376555,103.041218 C34.9384602,103.297401 35.2253198,103.425491 35.5982429,103.425491 Z M39.850327,104 C39.2765992,104 38.8098004,103.816742 38.4499166,103.450222 C38.0900328,103.083701 37.9100936,102.593535 37.9100936,101.979708 L37.9100936,101.850349 C37.9100936,101.441976 37.9902839,101.077364 38.1506669,100.7565 C38.3110499,100.435636 38.535322,100.184528 38.8234898,100.003171 C39.1116576,99.8218127 39.4239434,99.7311351 39.7603565,99.7311351 C40.3106137,99.7311351 40.7382953,99.9074174 41.0434141,100.259987 C41.348533,100.612557 41.5010902,101.117308 41.5010902,101.774255 L41.5010902,102.067216 L38.6337694,102.067216 C38.6442008,102.473052 38.7661161,102.800887 38.999519,103.050729 C39.2329219,103.300572 39.5295609,103.425491 39.8894447,103.425491 C40.1450143,103.425491 40.3614629,103.374763 40.538797,103.273304 C40.716131,103.171845 40.871296,103.037414 41.0042965,102.870006 L41.4463255,103.204819 C41.0916574,103.734942 40.5596632,104 39.850327,104 Z M39.7603565,100.309448 C39.4682769,100.309448 39.2231424,100.412808 39.0249455,100.619531 C38.8267486,100.826253 38.7041813,101.116041 38.65724,101.488903 L40.7774144,101.488903 L40.7774144,101.435637 C40.7565516,101.077994 40.6574546,100.800889 40.4801206,100.604312 C40.3027865,100.407735 40.0628676,100.309448 39.7603565,100.309448 Z M45.1077337,103.923906 L44.384058,103.923906 L44.384058,99.8072289 L45.1077337,99.8072289 L45.1077337,103.923906 Z M44.3253816,98.7152822 C44.3253816,98.6011408 44.361239,98.5047563 44.432955,98.4261256 C44.504671,98.3474949 44.6109394,98.3081801 44.7517635,98.3081801 C44.8925876,98.3081801 44.999508,98.3474949 45.0725279,98.4261256 C45.1455478,98.5047563 45.1820572,98.6011408 45.1820572,98.7152822 C45.1820572,98.8294235 45.1455478,98.9245399 45.0725279,99.0006341 C44.999508,99.0767283 44.8925876,99.1147749 44.7517635,99.1147749 C44.6109394,99.1147749 44.504671,99.0767283 44.432955,99.0006341 C44.361239,98.9245399 44.3253816,98.8294235 44.3253816,98.7152822 Z M48.7300244,102.831959 C48.7300244,102.641724 48.6563536,102.493976 48.5090099,102.388713 C48.3616661,102.283449 48.1047964,102.192771 47.738393,102.116677 C47.3719895,102.040583 47.0812182,101.949271 46.8660703,101.842739 C46.6509224,101.736207 46.4918457,101.609386 46.3888354,101.46227 C46.2858252,101.315155 46.2343209,101.140141 46.2343209,100.937223 C46.2343209,100.599871 46.3810105,100.314522 46.674394,100.081167 C46.9677775,99.8478111 47.3426509,99.7311351 47.7990253,99.7311351 C48.2788703,99.7311351 48.6680867,99.8516158 48.9666859,100.092581 C49.2652851,100.333546 49.4145825,100.641723 49.4145825,101.017121 L48.686995,101.017121 C48.686995,100.824349 48.602893,100.658212 48.4346864,100.518706 C48.2664799,100.3792 48.0545949,100.309448 47.7990253,100.309448 C47.535632,100.309448 47.3296147,100.36525 47.180967,100.476855 C47.0323194,100.58846 46.9579967,100.734305 46.9579967,100.914394 C46.9579967,101.084338 47.0271038,101.212428 47.16532,101.298668 C47.3035362,101.384908 47.5532345,101.467343 47.9144222,101.545973 C48.2756099,101.624604 48.5683371,101.718452 48.7926125,101.827521 C49.016888,101.936589 49.1831361,102.06785 49.2913621,102.221306 C49.399588,102.374763 49.4537001,102.561825 49.4537001,102.782498 C49.4537001,103.150287 49.3024469,103.445148 48.9999359,103.667089 C48.6974248,103.889031 48.3049488,104 47.8224958,104 C47.4834749,104 47.1835762,103.941662 46.9227908,103.824984 C46.6620055,103.708306 46.457944,103.54534 46.3106002,103.336081 C46.1632565,103.126822 46.0895857,102.900445 46.0895857,102.656944 L46.8132615,102.656944 C46.8263008,102.892836 46.9234419,103.079898 47.1046877,103.218136 C47.2859335,103.356374 47.5252005,103.425491 47.8224958,103.425491 C48.0963205,103.425491 48.3160288,103.371592 48.4816275,103.263792 C48.6472263,103.155992 48.7300244,103.012049 48.7300244,102.831959 Z M52.7356676,103.923906 L52.7356676,100.3513 L52.0667564,100.3513 L52.0667564,99.8072289 L52.7356676,99.8072289 L52.7356676,99.3849081 C52.7356676,98.9435615 52.8569309,98.6024108 53.0994613,98.3614458 C53.3419917,98.1204807 53.6849193,98 54.1282545,98 C54.2951571,98 54.4607533,98.0215597 54.6250481,98.0646798 L54.5859305,98.6353836 C54.4633614,98.6125554 54.3329706,98.6011414 54.1947544,98.6011414 C53.9600476,98.6011414 53.7788045,98.6677229 53.6510196,98.8008878 C53.5232348,98.9340527 53.4593433,99.1249195 53.4593433,99.373494 L53.4593433,99.8072289 L54.3629601,99.8072289 L54.3629601,100.3513 L53.4593433,100.3513 L53.4593433,103.923906 L52.7356676,103.923906 Z M54.9692831,101.827521 C54.9692831,101.424221 55.0507773,101.061511 55.2137681,100.739379 C55.376759,100.417246 55.6036388,100.168676 55.8944145,99.9936588 C56.1851902,99.8186421 56.5170346,99.7311351 56.8899577,99.7311351 C57.4662933,99.7311351 57.9324402,99.9251724 58.2884122,100.313253 C58.6443842,100.701334 58.8223676,101.217498 58.8223676,101.861763 L58.8223676,101.911224 C58.8223676,102.311987 58.7434812,102.671527 58.585706,102.989854 C58.4279309,103.308182 58.2023549,103.556118 57.9089714,103.733672 C57.6155879,103.911225 57.2785278,104 56.8977812,104 C56.3240534,104 55.8592104,103.805963 55.5032384,103.417882 C55.1472664,103.029801 54.9692831,102.516173 54.9692831,101.876982 L54.9692831,101.827521 Z M55.6968706,101.911224 C55.6968706,102.367789 55.8057468,102.734304 56.0235026,103.01078 C56.2412584,103.287256 56.5326817,103.425491 56.8977812,103.425491 C57.2654886,103.425491 57.5575638,103.285353 57.7740156,103.005073 C57.9904675,102.724793 58.0986918,102.332279 58.0986918,101.827521 C58.0986918,101.376028 57.9885116,101.010147 57.768148,100.729867 C57.5477844,100.449586 57.2550572,100.309448 56.8899577,100.309448 C56.5326817,100.309448 56.2445182,100.447684 56.0254585,100.72416 C55.8063988,101.000635 55.6968706,101.39632 55.6968706,101.911224 Z M62.3429524,103.516804 C62.0613042,103.838936 61.6479656,104 61.1029242,104 C60.6517655,104 60.308186,103.872544 60.0721752,103.617628 C59.8361644,103.362713 59.7168569,102.985418 59.7142491,102.485732 L59.7142491,99.8072289 L60.4379248,99.8072289 L60.4379248,102.466709 C60.4379248,103.090682 60.6987063,103.402663 61.220277,103.402663 C61.773142,103.402663 62.1408439,103.202285 62.3233936,102.801522 L62.3233936,99.8072289 L63.0470694,99.8072289 L63.0470694,103.923906 L62.3585995,103.923906 L62.3429524,103.516804 Z M64.8308324,99.8072289 L64.8543029,100.324667 C65.1776768,99.9289771 65.6001427,99.7311351 66.1217135,99.7311351 C67.0162073,99.7311351 67.4673592,100.221935 67.4751828,101.203551 L67.4751828,103.923906 L66.751507,103.923906 L66.751507,101.199746 C66.7488991,100.902979 66.6791401,100.683577 66.5422278,100.541535 C66.4053155,100.399492 66.1921266,100.328472 65.9026549,100.328472 C65.667948,100.328472 65.4619307,100.389346 65.2845966,100.511097 C65.1072626,100.632848 64.9690484,100.792643 64.86995,100.990488 L64.86995,103.923906 L64.1462742,103.923906 L64.1462742,99.8072289 L64.8308324,99.8072289 Z M68.3905348,101.831325 C68.3905348,101.199743 68.5443959,100.691822 68.8521226,100.307546 C69.1598493,99.9232701 69.5627567,99.7311351 70.0608567,99.7311351 C70.5563489,99.7311351 70.948825,99.8960034 71.2382968,100.225745 L71.2382968,98.0798985 L71.9619726,98.0798985 L71.9619726,103.923906 L71.2969732,103.923906 L71.2617673,103.482562 C70.9722956,103.827522 70.5693882,104 70.0530332,104 C69.5627567,104 69.1631092,103.804694 68.8540785,103.414077 C68.5450478,103.02346 68.3905348,102.513637 68.3905348,101.884591 L68.3905348,101.831325 Z M69.1142106,101.911224 C69.1142106,102.377935 69.2133075,102.743182 69.4115044,103.006975 C69.6097013,103.270769 69.8835218,103.402663 70.2329742,103.402663 C70.6919565,103.402663 71.0270606,103.202285 71.2382968,102.801522 L71.2382968,100.91059 C71.0218449,100.522509 70.6893486,100.328472 70.2407977,100.328472 C69.8861296,100.328472 69.6097013,100.461635 69.4115044,100.727964 C69.2133075,100.994294 69.1142106,101.38871 69.1142106,101.911224 Z M73.100295,103.554851 C73.100295,103.4331 73.1374563,103.331643 73.2117802,103.250476 C73.286104,103.169308 73.3975881,103.128725 73.5462357,103.128725 C73.6948834,103.128725 73.8076714,103.169308 73.8846031,103.250476 C73.9615347,103.331643 74,103.4331 74,103.554851 C74,103.671529 73.9615347,103.769182 73.8846031,103.847812 C73.8076714,103.926443 73.6948834,103.965758 73.5462357,103.965758 C73.3975881,103.965758 73.286104,103.926443 73.2117802,103.847812 C73.1374563,103.769182 73.100295,103.671529 73.100295,103.554851 Z" id="1-device-is-found." fill="#FFFFFF"></path>
                <g id="1" transform="translate(12.000000, 124.000000)">
                    <g id="Group" transform="translate(220.700000, 2.700000)">
                        <rect id="Base" fill="#374368" x="0" y="0" width="42.3" height="18" rx="1.8"></rect>
                        <path d="M16.2673828,9.19609375 L16.2673828,11.2 L15.5923828,11.2 L15.5923828,6.08125 L17.4802734,6.08125 C18.0404325,6.08125 18.4792953,6.22421732 18.796875,6.51015625 C19.1144547,6.79609518 19.2732422,7.17460702 19.2732422,7.64570313 C19.2732422,8.14258061 19.1179703,8.52519397 18.8074219,8.79355469 C18.4968734,9.0619154 18.0521513,9.19609375 17.4732422,9.19609375 L16.2673828,9.19609375 Z M16.2673828,8.64414063 L17.4802734,8.64414063 C17.8412127,8.64414063 18.1177725,8.55918054 18.3099609,8.38925781 C18.5021494,8.21933509 18.5982422,7.97382973 18.5982422,7.65273437 C18.5982422,7.34804535 18.5021494,7.10429779 18.3099609,6.92148438 C18.1177725,6.73867096 17.8541032,6.64375004 17.5189453,6.63671875 L16.2673828,6.63671875 L16.2673828,8.64414063 Z M22.3423828,11.2 C22.3048826,11.1249996 22.2744142,10.9914072 22.2509766,10.7992187 C21.9486313,11.1132828 21.5876974,11.2703125 21.1681641,11.2703125 C20.7931622,11.2703125 20.4855481,11.1642589 20.2453125,10.9521484 C20.0050769,10.740038 19.8849609,10.4710954 19.8849609,10.1453125 C19.8849609,9.74921677 20.0355454,9.44160266 20.3367188,9.22246094 C20.6378921,9.00331922 21.0615207,8.89375 21.6076172,8.89375 L22.2404297,8.89375 L22.2404297,8.59492188 C22.2404297,8.36757699 22.1724616,8.18652411 22.0365234,8.05175781 C21.9005853,7.91699151 21.7001966,7.84960938 21.4353516,7.84960938 C21.2033192,7.84960938 21.0087898,7.90820254 20.8517578,8.02539062 C20.6947258,8.14257871 20.6162109,8.28437417 20.6162109,8.45078125 L19.9623047,8.45078125 C19.9623047,8.26093655 20.0296868,8.07753995 20.1644531,7.90058594 C20.2992194,7.72363193 20.4820301,7.58359427 20.7128906,7.48046875 C20.9437512,7.37734323 21.1974596,7.32578125 21.4740234,7.32578125 C21.9123069,7.32578125 22.2556628,7.43535047 22.5041016,7.65449219 C22.7525403,7.87363391 22.8814453,8.1753887 22.8908203,8.55976563 L22.8908203,10.3105469 C22.8908203,10.6597674 22.9353511,10.937499 23.0244141,11.14375 L23.0244141,11.2 L22.3423828,11.2 Z M21.2630859,10.7042969 C21.4669932,10.7042969 21.6603506,10.651563 21.8431641,10.5460938 C22.0259775,10.4406245 22.158398,10.3035165 22.2404297,10.1347656 L22.2404297,9.35429687 L21.7306641,9.35429687 C20.9337851,9.35429687 20.5353516,9.58749767 20.5353516,10.0539063 C20.5353516,10.2578135 20.6033196,10.4171869 20.7392578,10.5320312 C20.875196,10.6468756 21.0498036,10.7042969 21.2630859,10.7042969 Z M24.6169922,11.2 L23.9666016,11.2 L23.9666016,7.39609375 L24.6169922,7.39609375 L24.6169922,11.2 Z M23.9138672,6.38710937 C23.9138672,6.2816401 23.9460934,6.19257849 24.0105469,6.11992188 C24.0750003,6.04726526 24.1705072,6.0109375 24.2970703,6.0109375 C24.4236334,6.0109375 24.5197262,6.04726526 24.5853516,6.11992188 C24.6509769,6.19257849 24.6837891,6.2816401 24.6837891,6.38710937 C24.6837891,6.49257865 24.6509769,6.5804684 24.5853516,6.65078125 C24.5197262,6.7210941 24.4236334,6.75625 24.2970703,6.75625 C24.1705072,6.75625 24.0750003,6.7210941 24.0105469,6.65078125 C23.9460934,6.5804684 23.9138672,6.49257865 23.9138672,6.38710937 Z M27.4962891,7.9796875 C27.3978511,7.96328117 27.2912115,7.95507812 27.1763672,7.95507812 C26.7498026,7.95507812 26.4603523,8.13671693 26.3080078,8.5 L26.3080078,11.2 L25.6576172,11.2 L25.6576172,7.39609375 L26.2904297,7.39609375 L26.3009766,7.83554688 C26.5142589,7.49570143 26.8165996,7.32578125 27.2080078,7.32578125 C27.3345709,7.32578125 27.4306637,7.34218734 27.4962891,7.375 L27.4962891,7.9796875 Z" id="Pair" fill="#FFFFFF"></path>
                    </g>
                    <path d="M32.8251953,10 L32.8251953,2.890625 L35.1494141,2.890625 C35.9209023,2.890625 36.5011374,3.05012861 36.8901367,3.36914062 C37.2791361,3.68815264 37.4736328,4.16015313 37.4736328,4.78515625 C37.4736328,5.11718916 37.3792327,5.41096877 37.1904297,5.66650391 C37.0016267,5.92203904 36.7444678,6.11979097 36.4189453,6.25976562 C36.8030618,6.36718804 37.106607,6.57145032 37.3295898,6.87255859 C37.5525727,7.17366687 37.6640625,7.53255 37.6640625,7.94921875 C37.6640625,8.58724277 37.4573588,9.08853984 37.0439453,9.453125 C36.6305318,9.81771016 36.0462277,10 35.2910156,10 L32.8251953,10 Z M33.7626953,6.67480469 L33.7626953,9.23339844 L35.3105469,9.23339844 C35.746747,9.23339844 36.0909818,9.12028108 36.3432617,8.89404297 C36.5955416,8.66780486 36.7216797,8.35612178 36.7216797,7.95898438 C36.7216797,7.1028603 36.2561896,6.67480469 35.3251953,6.67480469 L33.7626953,6.67480469 Z M33.7626953,5.92285156 L35.1787109,5.92285156 C35.5888692,5.92285156 35.9168282,5.82031353 36.1625977,5.61523438 C36.4083671,5.41015522 36.53125,5.1318377 36.53125,4.78027344 C36.53125,4.38964648 36.4173188,4.1056324 36.1894531,3.92822266 C35.9615874,3.75081292 35.6149112,3.66210938 35.1494141,3.66210938 L33.7626953,3.66210938 L33.7626953,5.92285156 Z M39.890625,10 L38.9873047,10 L38.9873047,2.5 L39.890625,2.5 L39.890625,10 Z M44.5976562,9.47753906 C44.246092,9.89095259 43.7301466,10.0976562 43.0498047,10.0976562 C42.4866508,10.0976562 42.0577814,9.93408367 41.7631836,9.60693359 C41.4685858,9.27978352 41.3196615,8.79557612 41.3164062,8.15429688 L41.3164062,4.71679688 L42.2197266,4.71679688 L42.2197266,8.12988281 C42.2197266,8.93066807 42.5452441,9.33105469 43.1962891,9.33105469 C43.8863967,9.33105469 44.3453765,9.0738958 44.5732422,8.55957031 L44.5732422,4.71679688 L45.4765625,4.71679688 L45.4765625,10 L44.6171875,10 L44.5976562,9.47753906 Z M49.0410156,10.0976562 C48.3248662,10.0976562 47.7421897,9.8624698 47.2929688,9.39208984 C46.8437478,8.92170989 46.6191406,8.29264717 46.6191406,7.50488281 L46.6191406,7.33886719 C46.6191406,6.81477603 46.7192373,6.34684451 46.9194336,5.93505859 C47.1196299,5.52327268 47.399575,5.20101028 47.7592773,4.96826172 C48.1189797,4.73551316 48.508787,4.61914062 48.9287109,4.61914062 C49.6155633,4.61914062 50.1494122,4.84537534 50.5302734,5.29785156 C50.9111347,5.75032778 51.1015625,6.39810776 51.1015625,7.24121094 L51.1015625,7.6171875 L47.5224609,7.6171875 C47.5354818,8.13802344 47.6876613,8.55875491 47.9790039,8.87939453 C48.2703465,9.20003416 48.6406228,9.36035156 49.0898438,9.36035156 C49.4088558,9.36035156 49.6790354,9.29524805 49.9003906,9.16503906 C50.1217459,9.03483008 50.3154289,8.86230576 50.4814453,8.64746094 L51.0332031,9.07714844 C50.5904926,9.75749038 49.9264367,10.0976562 49.0410156,10.0976562 Z M48.9287109,5.36132812 C48.5641258,5.36132812 48.2581393,5.49397654 48.0107422,5.75927734 C47.7633451,6.02457815 47.6103519,6.39648198 47.5517578,6.875 L50.1982422,6.875 L50.1982422,6.80664062 C50.1722004,6.34765396 50.0485037,5.992026 49.8271484,5.73974609 C49.6057932,5.48746619 49.306317,5.36132812 48.9287109,5.36132812 Z M53.3720703,3.4375 L53.3720703,4.71679687 L54.3583984,4.71679687 L54.3583984,5.41503906 L53.3720703,5.41503906 L53.3720703,8.69140625 C53.3720703,8.90299585 53.4160152,9.06168567 53.5039062,9.16748047 C53.5917973,9.27327527 53.7415354,9.32617187 53.953125,9.32617187 C54.0572922,9.32617187 54.2005199,9.30664082 54.3828125,9.26757812 L54.3828125,10 C54.1451811,10.0651045 53.9140636,10.0976562 53.6894531,10.0976562 C53.2858053,10.0976562 52.9814463,9.97558716 52.7763672,9.73144531 C52.571288,9.48730347 52.46875,9.14062725 52.46875,8.69140625 L52.46875,5.41503906 L51.5068359,5.41503906 L51.5068359,4.71679687 L52.46875,4.71679687 L52.46875,3.4375 L53.3720703,3.4375 Z M55.0761719,7.30957031 C55.0761719,6.7919896 55.1778961,6.32649946 55.3813477,5.91308594 C55.5847992,5.49967241 55.8679995,5.18066519 56.230957,4.95605469 C56.5939146,4.73144419 57.0081357,4.61914062 57.4736328,4.61914062 C58.1930375,4.61914062 58.7749001,4.86816157 59.2192383,5.36621094 C59.6635764,5.8642603 59.8857422,6.52668857 59.8857422,7.35351562 L59.8857422,7.41699219 C59.8857422,7.93131768 59.7872731,8.39273884 59.590332,8.80126953 C59.3933909,9.20980022 59.1118182,9.52799365 58.7456055,9.75585938 C58.3793927,9.9837251 57.9586612,10.0976562 57.4833984,10.0976562 C56.767249,10.0976562 56.1870139,9.8486353 55.7426758,9.35058594 C55.2983376,8.85253657 55.0761719,8.19336348 55.0761719,7.37304688 L55.0761719,7.30957031 Z M55.984375,7.41699219 C55.984375,8.00293262 56.1202786,8.47330552 56.3920898,8.828125 C56.6639011,9.18294448 57.027667,9.36035156 57.4833984,9.36035156 C57.9423851,9.36035156 58.3069648,9.1805031 58.5771484,8.82080078 C58.8473321,8.46109846 58.9824219,7.95736001 58.9824219,7.30957031 C58.9824219,6.73014033 58.8448907,6.26058123 58.5698242,5.90087891 C58.2947577,5.54117659 57.9293643,5.36132812 57.4736328,5.36132812 C57.027667,5.36132812 56.6679701,5.53873521 56.3945312,5.89355469 C56.1210924,6.24837417 55.984375,6.75618159 55.984375,7.41699219 Z M60.7792969,7.30957031 C60.7792969,6.7919896 60.8810211,6.32649946 61.0844727,5.91308594 C61.2879242,5.49967241 61.5711245,5.18066519 61.934082,4.95605469 C62.2970396,4.73144419 62.7112607,4.61914062 63.1767578,4.61914062 C63.8961625,4.61914062 64.4780251,4.86816157 64.9223633,5.36621094 C65.3667014,5.8642603 65.5888672,6.52668857 65.5888672,7.35351562 L65.5888672,7.41699219 C65.5888672,7.93131768 65.4903981,8.39273884 65.293457,8.80126953 C65.0965159,9.20980022 64.8149432,9.52799365 64.4487305,9.75585938 C64.0825177,9.9837251 63.6617862,10.0976562 63.1865234,10.0976562 C62.470374,10.0976562 61.8901389,9.8486353 61.4458008,9.35058594 C61.0014626,8.85253657 60.7792969,8.19336348 60.7792969,7.37304688 L60.7792969,7.30957031 Z M61.6875,7.41699219 C61.6875,8.00293262 61.8234036,8.47330552 62.0952148,8.828125 C62.3670261,9.18294448 62.730792,9.36035156 63.1865234,9.36035156 C63.6455101,9.36035156 64.0100898,9.1805031 64.2802734,8.82080078 C64.5504571,8.46109846 64.6855469,7.95736001 64.6855469,7.30957031 C64.6855469,6.73014033 64.5480157,6.26058123 64.2729492,5.90087891 C63.9978827,5.54117659 63.6324893,5.36132812 63.1767578,5.36132812 C62.730792,5.36132812 62.3710951,5.53873521 62.0976562,5.89355469 C61.8242174,6.24837417 61.6875,6.75618159 61.6875,7.41699219 Z M67.9472656,3.4375 L67.9472656,4.71679687 L68.9335938,4.71679687 L68.9335938,5.41503906 L67.9472656,5.41503906 L67.9472656,8.69140625 C67.9472656,8.90299585 67.9912105,9.06168567 68.0791016,9.16748047 C68.1669926,9.27327527 68.3167307,9.32617187 68.5283203,9.32617187 C68.6324875,9.32617187 68.7757152,9.30664082 68.9580078,9.26757812 L68.9580078,10 C68.7203764,10.0651045 68.4892589,10.0976562 68.2646484,10.0976562 C67.8610006,10.0976562 67.5566417,9.97558716 67.3515625,9.73144531 C67.1464833,9.48730347 67.0439453,9.14062725 67.0439453,8.69140625 L67.0439453,5.41503906 L66.0820312,5.41503906 L66.0820312,4.71679687 L67.0439453,4.71679687 L67.0439453,3.4375 L67.9472656,3.4375 Z M70.8916016,5.35644531 C71.2919942,4.8649064 71.8128223,4.61914062 72.4541016,4.61914062 C73.5706436,4.61914062 74.133789,5.24901714 74.1435547,6.50878906 L74.1435547,10 L73.2402344,10 L73.2402344,6.50390625 C73.2369792,6.12304497 73.1499032,5.84147227 72.9790039,5.65917969 C72.8081046,5.47688711 72.541994,5.38574219 72.1806641,5.38574219 C71.8876938,5.38574219 71.630535,5.46386641 71.4091797,5.62011719 C71.1878244,5.77636797 71.0153001,5.98144404 70.8916016,6.23535156 L70.8916016,10 L69.9882812,10 L69.9882812,2.5 L70.8916016,2.5 L70.8916016,5.35644531 Z M77.3759766,7.34863281 L74.9931641,7.34863281 L74.9931641,6.61132812 L77.3759766,6.61132812 L77.3759766,7.34863281 Z M82.8203125,10 L78.1621094,10 L78.1621094,9.35058594 L80.6230469,6.61621094 C80.987632,6.20279741 81.2390944,5.86670051 81.3774414,5.60791016 C81.5157885,5.3491198 81.5849609,5.08138159 81.5849609,4.8046875 C81.5849609,4.43359189 81.4726574,4.12923296 81.2480469,3.89160156 C81.0234364,3.65397017 80.7239602,3.53515625 80.3496094,3.53515625 C79.9003884,3.53515625 79.5512708,3.6629219 79.3022461,3.91845703 C79.0532214,4.17399216 78.9287109,4.52962012 78.9287109,4.98535156 L78.0253906,4.98535156 C78.0253906,4.33105142 78.2361633,3.80208535 78.6577148,3.3984375 C79.0792664,2.99478965 79.6432256,2.79296875 80.3496094,2.79296875 C81.01042,2.79296875 81.5328757,2.96630686 81.9169922,3.31298828 C82.3011087,3.6596697 82.4931641,4.12109087 82.4931641,4.69726562 C82.4931641,5.39713892 82.047205,6.23046392 81.1552734,7.19726562 L79.2509766,9.26269531 L82.8203125,9.26269531 L82.8203125,10 Z M88.0888672,4.74609375 C88.0888672,5.10091323 87.9952809,5.41666528 87.8081055,5.69335938 C87.6209301,5.97005347 87.3678401,6.18652266 87.0488281,6.34277344 C87.4199237,6.50227944 87.7137033,6.73502451 87.9301758,7.04101562 C88.1466482,7.34700674 88.2548828,7.69368296 88.2548828,8.08105469 C88.2548828,8.69629214 88.0473654,9.18619609 87.6323242,9.55078125 C87.2172831,9.91536641 86.6712273,10.0976562 85.9941406,10.0976562 C85.3105435,10.0976562 84.7628601,9.91455261 84.3510742,9.54833984 C83.9392883,9.18212708 83.7333984,8.69303691 83.7333984,8.08105469 C83.7333984,7.69693818 83.8383779,7.35026196 84.0483398,7.04101562 C84.2583018,6.73176929 84.5488263,6.49739663 84.9199219,6.33789062 C84.6041651,6.18163984 84.3551441,5.96517065 84.1728516,5.68847656 C83.990559,5.41178247 83.8994141,5.09765801 83.8994141,4.74609375 C83.8994141,4.14713242 84.0914694,3.67187676 84.4755859,3.3203125 C84.8597024,2.96874824 85.3658823,2.79296875 85.9941406,2.79296875 C86.6191438,2.79296875 87.1245098,2.96874824 87.5102539,3.3203125 C87.895998,3.67187676 88.0888672,4.14713242 88.0888672,4.74609375 Z M87.3515625,8.06152344 C87.3515625,7.66438604 87.2254244,7.34049604 86.9731445,7.08984375 C86.7208646,6.83919146 86.3912781,6.71386719 85.984375,6.71386719 C85.5774719,6.71386719 85.2511406,6.83756387 85.0053711,7.08496094 C84.7596016,7.33235801 84.6367188,7.65787559 84.6367188,8.06152344 C84.6367188,8.46517129 84.7563465,8.78255093 84.9956055,9.01367188 C85.2348645,9.24479282 85.5677062,9.36035156 85.9941406,9.36035156 C86.4173198,9.36035156 86.7493478,9.24397903 86.9902344,9.01123047 C87.231121,8.77848191 87.3515625,8.46191606 87.3515625,8.06152344 Z M85.9941406,3.53515625 C85.6393211,3.53515625 85.3520519,3.64501843 85.1323242,3.86474609 C84.9125966,4.08447375 84.8027344,4.38313613 84.8027344,4.76074219 C84.8027344,5.12207212 84.910969,5.41422415 85.1274414,5.63720703 C85.3439138,5.86018992 85.6328107,5.97167969 85.9941406,5.97167969 C86.3554706,5.97167969 86.6443674,5.86018992 86.8608398,5.63720703 C87.0773123,5.41422415 87.1855469,5.12207212 87.1855469,4.76074219 C87.1855469,4.39941226 87.0732433,4.10481885 86.8486328,3.87695312 C86.6240223,3.6490874 86.3391944,3.53515625 85.9941406,3.53515625 Z" id="Bluetooth-28" fill="#4C4C4C"></path>
                    <path d="M37.6601562,22 L36.8120117,22 L33.5908203,17.0693359 L33.5908203,22 L32.7426758,22 L32.7426758,15.6015625 L33.5908203,15.6015625 L36.8208008,20.5541992 L36.8208008,15.6015625 L37.6601562,15.6015625 L37.6601562,22 Z M38.815918,19.5786133 C38.815918,19.1127906 38.9074698,18.6938495 39.0905762,18.3217773 C39.2736826,17.9497052 39.5285628,17.6625987 39.8552246,17.4604492 C40.1818864,17.2582998 40.5546854,17.1572266 40.9736328,17.1572266 C41.621097,17.1572266 42.1447734,17.3813454 42.5446777,17.8295898 C42.9445821,18.2778343 43.1445312,18.8740197 43.1445312,19.6181641 L43.1445312,19.675293 C43.1445312,20.1381859 43.0559091,20.553465 42.8786621,20.9211426 C42.7014151,21.2888202 42.4479997,21.5751943 42.1184082,21.7802734 C41.7888167,21.9853526 41.4101584,22.0878906 40.9824219,22.0878906 C40.3378874,22.0878906 39.8156758,21.8637718 39.4157715,21.4155273 C39.0158671,20.9672829 38.815918,20.3740271 38.815918,19.6357422 L38.815918,19.5786133 Z M39.6333008,19.675293 C39.6333008,20.2026394 39.755614,20.625975 40.0002441,20.9453125 C40.2448743,21.26465 40.5722636,21.4243164 40.9824219,21.4243164 C41.3955099,21.4243164 41.7236316,21.2624528 41.9667969,20.9387207 C42.2099622,20.6149886 42.331543,20.161624 42.331543,19.5786133 C42.331543,19.0571263 42.2077649,18.6345231 41.9602051,18.310791 C41.7126452,17.9870589 41.3837911,17.8251953 40.9736328,17.8251953 C40.5722636,17.8251953 40.2485364,17.9848617 40.0024414,18.3041992 C39.7563464,18.6235368 39.6333008,19.0805634 39.6333008,19.675293 Z M45.2670898,16.09375 L45.2670898,17.2451172 L46.1547852,17.2451172 L46.1547852,17.8735352 L45.2670898,17.8735352 L45.2670898,20.8222656 C45.2670898,21.0126963 45.3066402,21.1555171 45.3857422,21.2507324 C45.4648441,21.3459477 45.5996084,21.3935547 45.7900391,21.3935547 C45.8837895,21.3935547 46.0126945,21.3759767 46.1767578,21.3408203 L46.1767578,22 C45.9628896,22.058594 45.7548838,22.0878906 45.5527344,22.0878906 C45.1894513,22.0878906 44.9155283,21.9780284 44.730957,21.7583008 C44.5463858,21.5385731 44.4541016,21.2265645 44.4541016,20.8222656 L44.4541016,17.8735352 L43.5883789,17.8735352 L43.5883789,17.2451172 L44.4541016,17.2451172 L44.4541016,16.09375 L45.2670898,16.09375 Z M53.3486328,19.675293 C53.3486328,20.3989294 53.1831071,20.9819314 52.8520508,21.4243164 C52.5209944,21.8667014 52.0727567,22.0878906 51.5073242,22.0878906 C50.9301729,22.0878906 50.4760759,21.904787 50.1450195,21.5385742 L50.1450195,23.828125 L49.3320312,23.828125 L49.3320312,17.2451172 L50.074707,17.2451172 L50.1142578,17.7724609 C50.4453142,17.3623026 50.9052705,17.1572266 51.4941406,17.1572266 C52.0654325,17.1572266 52.5173323,17.3725564 52.8498535,17.8032227 C53.1823747,18.2338889 53.3486328,18.833004 53.3486328,19.6005859 L53.3486328,19.675293 Z M52.5356445,19.5830078 C52.5356445,19.0468723 52.4213879,18.6235367 52.1928711,18.3129883 C51.9643543,18.0024399 51.6508809,17.847168 51.2524414,17.847168 C50.7602514,17.847168 50.3911145,18.0654275 50.1450195,18.5019531 L50.1450195,20.7739258 C50.3881848,21.2075217 50.7602514,21.4243164 51.2612305,21.4243164 C51.6508809,21.4243164 51.9606922,21.2697769 52.1906738,20.9606934 C52.4206554,20.6516098 52.5356445,20.1923859 52.5356445,19.5830078 Z M57.3168945,22 C57.2700193,21.9062495 57.2319337,21.739259 57.2026367,21.4990234 C56.8247051,21.8916035 56.3735378,22.0878906 55.8491211,22.0878906 C55.3803688,22.0878906 54.9958511,21.9553236 54.6955566,21.6901855 C54.3952622,21.4250475 54.2451172,21.0888692 54.2451172,20.6816406 C54.2451172,20.186521 54.4333477,19.8020033 54.8098145,19.5280762 C55.1862812,19.254149 55.7158169,19.1171875 56.3984375,19.1171875 L57.1894531,19.1171875 L57.1894531,18.7436523 C57.1894531,18.4594712 57.104493,18.2331551 56.9345703,18.0646973 C56.7646476,17.8962394 56.5141618,17.8120117 56.1831055,17.8120117 C55.893065,17.8120117 55.6499033,17.8852532 55.4536133,18.0317383 C55.2573232,18.1782234 55.1591797,18.3554677 55.1591797,18.5634766 L54.3417969,18.5634766 C54.3417969,18.3261707 54.4260245,18.0969249 54.5944824,17.8757324 C54.7629403,17.6545399 54.9914536,17.4794928 55.2800293,17.3505859 C55.568605,17.221679 55.8857405,17.1572266 56.2314453,17.1572266 C56.7792996,17.1572266 57.2084945,17.2941881 57.519043,17.5681152 C57.8295914,17.8420424 57.9907226,18.2192359 58.0024414,18.699707 L58.0024414,20.8881836 C58.0024414,21.3247092 58.0581049,21.6718737 58.1694336,21.9296875 L58.1694336,22 L57.3168945,22 Z M55.9677734,21.3803711 C56.2226575,21.3803711 56.4643543,21.3144538 56.6928711,21.1826172 C56.9213879,21.0507806 57.0869135,20.8793956 57.1894531,20.668457 L57.1894531,19.6928711 L56.5522461,19.6928711 C55.5561474,19.6928711 55.0581055,19.9843721 55.0581055,20.5673828 C55.0581055,20.8222669 55.1430656,21.0214837 55.3129883,21.1650391 C55.482911,21.3085945 55.7011705,21.3803711 55.9677734,21.3803711 Z M60.1601562,22 L59.347168,22 L59.347168,17.2451172 L60.1601562,17.2451172 L60.1601562,22 Z M59.28125,15.9838867 C59.28125,15.8520501 59.3215328,15.7407231 59.4020996,15.6499023 C59.4826664,15.5590816 59.60205,15.5136719 59.7602539,15.5136719 C59.9184578,15.5136719 60.0385738,15.5590816 60.1206055,15.6499023 C60.2026371,15.7407231 60.2436523,15.8520501 60.2436523,15.9838867 C60.2436523,16.1157233 60.2026371,16.2255855 60.1206055,16.3134766 C60.0385738,16.4013676 59.9184578,16.4453125 59.7602539,16.4453125 C59.60205,16.4453125 59.4826664,16.4013676 59.4020996,16.3134766 C59.3215328,16.2255855 59.28125,16.1157233 59.28125,15.9838867 Z M63.7592773,17.9746094 C63.6362299,17.9541015 63.5029304,17.9438477 63.359375,17.9438477 C62.8261692,17.9438477 62.4643564,18.1708962 62.2739258,18.625 L62.2739258,22 L61.4609375,22 L61.4609375,17.2451172 L62.2519531,17.2451172 L62.2651367,17.7944336 C62.5317396,17.3696268 62.9096655,17.1572266 63.3989258,17.1572266 C63.5571297,17.1572266 63.6772457,17.1777342 63.7592773,17.21875 L63.7592773,17.9746094 Z M66.4794922,22.0878906 C65.8349577,22.0878906 65.3105489,21.8762228 64.90625,21.4528809 C64.5019511,21.0295389 64.2998047,20.4633825 64.2998047,19.7543945 L64.2998047,19.6049805 C64.2998047,19.1332984 64.3898917,18.7121601 64.5700684,18.3415527 C64.750245,17.9709454 65.0021956,17.6809093 65.3259277,17.4714355 C65.6496598,17.2619618 66.0004864,17.1572266 66.378418,17.1572266 C66.9965851,17.1572266 67.4770491,17.3608378 67.8198242,17.7680664 C68.1625994,18.175295 68.3339844,18.758297 68.3339844,19.5170898 L68.3339844,19.8554688 L65.112793,19.8554688 C65.1245118,20.3242211 65.2614733,20.7028794 65.5236816,20.9914551 C65.78589,21.2800307 66.1191386,21.4243164 66.5234375,21.4243164 C66.8105483,21.4243164 67.0537099,21.3657232 67.2529297,21.2485352 C67.4521494,21.1313471 67.6264641,20.9760752 67.7758789,20.7827148 L68.2724609,21.1694336 C67.8740214,21.7817413 67.2763712,22.0878906 66.4794922,22.0878906 Z M66.378418,17.8251953 C66.0502913,17.8251953 65.7749035,17.9445789 65.5522461,18.1833496 C65.3295887,18.4221203 65.1918948,18.7568338 65.1391602,19.1875 L67.5209961,19.1875 L67.5209961,19.1259766 C67.4975585,18.7128886 67.3862315,18.3928234 67.1870117,18.1657715 C66.987792,17.9387196 66.7182634,17.8251953 66.378418,17.8251953 Z M69.0766602,19.5830078 C69.0766602,18.853512 69.24951,18.2668479 69.5952148,17.822998 C69.9409197,17.3791482 70.3935519,17.1572266 70.953125,17.1572266 C71.5097684,17.1572266 71.950682,17.3476543 72.2758789,17.7285156 L72.2758789,15.25 L73.0888672,15.25 L73.0888672,22 L72.3417969,22 L72.3022461,21.4902344 C71.9770492,21.8886739 71.524417,22.0878906 70.9443359,22.0878906 C70.3935519,22.0878906 69.9445818,21.8623069 69.5974121,21.4111328 C69.2502424,20.9599587 69.0766602,20.3710974 69.0766602,19.6445312 L69.0766602,19.5830078 Z M69.8896484,19.675293 C69.8896484,20.2143582 70.0009754,20.6362289 70.2236328,20.940918 C70.4462902,21.245607 70.7539043,21.3979492 71.1464844,21.3979492 C71.662112,21.3979492 72.038573,21.1665062 72.2758789,20.7036133 L72.2758789,18.5195312 C72.0327136,18.0712868 71.6591822,17.847168 71.1552734,17.847168 C70.7568339,17.847168 70.4462902,18.000975 70.2236328,18.3085938 C70.0009754,18.6162125 69.8896484,19.0717743 69.8896484,19.675293 Z" id="Not-paired" fill="#7F7F7F"></path>
                    <circle id="Base" fill="#B2B2B2" cx="11.25" cy="11.25" r="11.25"></circle>
                    <g id="Group-3" transform="translate(7.000000, 4.500000)" fill-rule="nonzero" fill="#FFFFFF">
                        <path d="M3.52837171,0.60772725 L3.52837171,12.8027986 C3.52837171,13.1284136 3.78286248,13.3923767 4.09679276,13.3923767 C4.41072304,13.3923767 4.66521382,13.1284136 4.66521382,12.8027986 L4.66521382,0.60772725 C4.66521382,0.282112221 4.41072304,0.0181490858 4.09679276,0.0181490858 C3.78286248,0.0181490858 3.52837171,0.282112221 3.52837171,0.60772725 Z" id="Path-6"></path>
                        <path d="M0.170221069,10.2078777 C-0.053804541,10.4359831 -0.0571329072,10.8092674 0.162786955,11.0416314 C0.382706818,11.2739955 0.742595731,11.2774477 0.966621341,11.0493423 L7.69815308,4.19521884 C7.92683658,3.96237066 7.92484033,3.57957944 7.69374167,3.34931084 L4.49735328,0.164403199 C4.2709617,-0.0611752253 3.91112986,-0.0536850202 3.69364635,0.18113304 C3.47616285,0.4159511 3.48338426,0.789176194 3.70977584,1.01475462 L6.48404995,3.77906412 L0.170221069,10.2078777 Z" id="Path-5"></path>
                        <path d="M0.170221069,12.3915005 C-0.053804541,12.619606 -0.0571329072,12.9928902 0.162786955,13.2252543 C0.382706818,13.4576183 0.742595731,13.4610706 0.966621341,13.2329651 L7.69815308,6.37884167 C7.92683658,6.14599349 7.92484033,5.76320226 7.69374167,5.53293366 L4.49735328,2.34802603 C4.2709617,2.1224476 3.91112986,2.12993781 3.69364635,2.36475587 C3.47616285,2.59957393 3.48338426,2.97279902 3.70977584,3.19837745 L6.48404995,5.96268695 L0.170221069,12.3915005 Z" id="Path-5" transform="translate(3.934187, 7.792717) scale(1, -1) translate(-3.934187, -7.792717) "></path>
                    </g>
                </g>
                <g id="sig" transform="translate(8.000000, 0.000000)">
                    <g id="Group-3" transform="translate(8.500000, 4.000000)" fill-rule="nonzero" fill="#FFFFFF">
                        <path d="M5.73360403,0.98755678 L5.73360403,20.8045477 C5.73360403,21.3336721 6.14715154,21.7626122 6.65728824,21.7626122 C7.16742494,21.7626122 7.58097245,21.3336721 7.58097245,20.8045477 L7.58097245,0.98755678 C7.58097245,0.458432359 7.16742494,0.0294922644 6.65728824,0.0294922644 C6.14715154,0.0294922644 5.73360403,0.458432359 5.73360403,0.98755678 Z" id="Path-6"></path>
                        <path d="M0.276609238,16.5878012 C-0.0874323792,16.9584726 -0.0928409742,17.5650595 0.264528802,17.9426511 C0.621898579,18.3202426 1.20671806,18.3258526 1.57075968,17.9551812 L12.5094988,6.81723062 C12.8811095,6.43885232 12.8778655,5.81681658 12.5023302,5.44263011 L7.30819908,0.267155198 C6.94031277,-0.0994097411 6.35558601,-0.0872381579 6.00217532,0.29434119 C5.64876462,0.675920538 5.66049943,1.28241131 6.02838574,1.64897625 L10.5365812,6.1409792 L0.276609238,16.5878012 Z" id="Path-5"></path>
                        <path d="M0.276609238,20.1361883 C-0.0874323792,20.5068597 -0.0928409742,21.1134466 0.264528802,21.4910382 C0.621898579,21.8686297 1.20671806,21.8742396 1.57075968,21.5035683 L12.5094988,10.3656177 C12.8811095,9.98723942 12.8778655,9.36520368 12.5023302,8.99101721 L7.30819908,3.81554229 C6.94031277,3.44897736 6.35558601,3.46114894 6.00217532,3.84272829 C5.64876462,4.22430763 5.66049943,4.83079841 6.02838574,5.19736335 L10.5365812,9.6893663 L0.276609238,20.1361883 Z" id="Path-5" transform="translate(6.393054, 12.663165) scale(1, -1) translate(-6.393054, -12.663165) "></path>
                    </g>
                    <rect id="Base" fill="#FF5252" x="17" y="0" width="13" height="13" rx="6.5"></rect>
                    <path d="M23.16,4.8500061 L23.16,9.6100061 C23.16,9.9200061 23.42,10.1800061 23.73,10.1800061 C24.04,10.1800061 24.3,9.9200061 24.3,9.6100061 L24.3,3.8600061 C24.3,3.5500061 24.04,3.2900061 23.73,3.2900061 C23.58,3.2900061 23.49,3.3400061 23.38,3.4100061 L21.94,4.3400061 C21.8,4.4300061 21.7,4.6000061 21.7,4.8000061 C21.7,5.1000061 21.95,5.3500061 22.25,5.3500061 C22.38,5.3500061 22.49,5.3100061 22.58,5.2400061 L23.16,4.8500061 Z" id="1" fill="#FFFFFF"></path>
                </g>
                <g id="Group-4" transform="translate(191.000000, 68.000000)">
                    <path d="M9.64320133,44.9999993 C3.49873961,39.1654008 0,31.0406821 0,22.4999997 C0,13.9593172 3.49873961,5.83459858 9.64320133,0 L10.9999784,2.01183067e-11 C4.58590379,5.69921252 0.912597123,13.882044 0.912597123,22.4999997 C0.912597123,31.1179554 4.58590379,39.3007868 11,45 L9.64320133,44.9999993 L9.64320133,44.9999993 Z" id="Combined-Shape" fill="url(#linearGradient-19)"></path>
                    <path d="M51,22.4999997 C51,13.9593172 54.4987396,5.83459858 60.6432013,0 L61.9999784,2.01183067e-11 C55.5859038,5.69921252 51.9125971,13.882044 51.9125971,22.4999997 C51.9125971,31.1179554 55.5859038,39.3007868 62,45 L60.6432013,44.9999993 C54.4987396,39.1654008 51,31.0406821 51,22.4999997 Z" id="Combined-Shape" fill="url(#linearGradient-20)" transform="translate(56.500000, 22.500000) scale(-1, 1) translate(-56.500000, -22.500000) "></path>
                </g>
            </g>
        </g>
    </g>
</svg>