<?xml version="1.0" encoding="UTF-8"?>
<svg width="250px" height="220px" viewBox="0 0 250 220" version="1.1" xmlns="http://www.w3.org/2000/svg" xmlns:xlink="http://www.w3.org/1999/xlink">
    <!-- Generator: Sketch 46.2 (44496) - http://www.bohemiancoding.com/sketch -->
    <title>genius_pic_usb</title>
    <desc>Created with Sketch.</desc>
    <defs>
        <linearGradient x1="0%" y1="50%" x2="94.4783298%" y2="50%" id="linearGradient-1">
            <stop stop-color="#FFFFFF" offset="0%"></stop>
            <stop stop-color="#FFFFFF" stop-opacity="0.5" offset="47.2769178%"></stop>
            <stop stop-color="#1F2740" offset="100%"></stop>
        </linearGradient>
        <linearGradient x1="0%" y1="50%" x2="94.4783298%" y2="50%" id="linearGradient-2">
            <stop stop-color="#FFFFFF" offset="0.61583227%"></stop>
            <stop stop-color="#1F2740" offset="100%"></stop>
        </linearGradient>
        <linearGradient x1="25.5589414%" y1="112.100524%" x2="154.873373%" y2="-30.6548441%" id="linearGradient-3">
            <stop stop-color="#FFFFFF" offset="0%"></stop>
            <stop stop-color="#FFFFFF" stop-opacity="0.5" offset="47.2769178%"></stop>
            <stop stop-color="#1F2740" offset="100%"></stop>
        </linearGradient>
        <linearGradient x1="50%" y1="14.2628476%" x2="50%" y2="100%" id="linearGradient-4">
            <stop stop-color="#FFFFFF" stop-opacity="0" offset="0%"></stop>
            <stop stop-color="#FFFFFF" stop-opacity="0.2" offset="100%"></stop>
        </linearGradient>
        <linearGradient x1="0%" y1="0%" x2="238.664722%" y2="-773.70587%" id="linearGradient-5">
            <stop stop-color="#FFFFFF" offset="0%"></stop>
            <stop stop-color="#1A4180" offset="100%"></stop>
        </linearGradient>
        <linearGradient x1="-17.3724653%" y1="50%" x2="89.6872621%" y2="50%" id="linearGradient-6">
            <stop stop-color="#FFFFFF" offset="0%"></stop>
            <stop stop-color="#FFFFFF" stop-opacity="0.5" offset="51.2238168%"></stop>
            <stop stop-color="#1F2740" offset="100%"></stop>
        </linearGradient>
        <linearGradient x1="100%" y1="100%" x2="22.7514873%" y2="8.91744733%" id="linearGradient-7">
            <stop stop-color="#FFFFFF" offset="0%"></stop>
            <stop stop-color="#FFFFFF" stop-opacity="0.5" offset="51.2238168%"></stop>
            <stop stop-color="#1F2740" offset="100%"></stop>
        </linearGradient>
    </defs>
    <g id="slice" stroke="none" stroke-width="1" fill="none" fill-rule="evenodd">
        <g id="genius_pic_usb">
            <g id="Group-4" transform="translate(25.000000, 11.000000)">
                <g id="Group-5" transform="translate(80.000000, 0.000000)">
                    <path d="M120.489709,191.361982 L6.35885095,191.361982 C2.84695455,191.361982 0,188.506126 0,184.983249 L0,6.37873273 C0,2.85585592 2.84695455,0 6.35885095,0 L120.633361,0" id="Rectangle-5" stroke="url(#linearGradient-1)" stroke-width="2" stroke-linecap="round" stroke-linejoin="round"></path>
                    <path d="M120.977137,180.518136 L17.1688976,180.518136 C13.6570012,180.518136 10.8100466,177.66228 10.8100466,174.139404 L10.8100466,17.2225784 C10.8100466,13.6997016 13.6570012,10.8438456 17.1688976,10.8438456 L120.522094,10.8438456" id="Rectangle-5" stroke="url(#linearGradient-2)" stroke-width="0.686981592" stroke-linecap="round" stroke-linejoin="round"></path>
                    <path d="M42.7314784,182.623118 L47.3098511,182.623118 C48.1527062,182.623118 48.8359753,183.308524 48.8359753,184.154014 L48.8359753,206.607153 C48.8359753,207.452644 48.1527062,208.138049 47.3098511,208.138049 L42.7314784,208.138049" id="Rectangle-5-Copy-2" stroke="url(#linearGradient-3)" stroke-width="1.37396318" transform="translate(45.783727, 195.380584) rotate(-270.000000) translate(-45.783727, -195.380584) "></path>
                    <path d="M109.880379,47.9680702 L109.880379,66.5939697 L109.880379,66.5939697 C109.880379,67.4394602 109.19711,68.1248656 108.354254,68.1248656 L54.8127294,68.1248656 L54.8127294,68.1248656 C53.9698743,68.1248656 53.2866052,67.4394602 53.2866052,66.5939697 L53.2866052,47.9680702 L53.2866052,47.9680702" id="Rectangle-5-Copy" stroke="url(#linearGradient-5)" stroke-width="0.686981592" fill="url(#linearGradient-4)" stroke-linecap="round" stroke-linejoin="round" transform="translate(81.583492, 58.046468) rotate(-270.000000) translate(-81.583492, -58.046468) "></path>
                    <path d="M61.493826,29.3421706 L29.5958666,29.3421706 C29.4227237,29.3421706 29.2507144,29.3875686 29.2507144,29.5543926 L29.2507144,36.1671886 C29.2507144,36.3342861 29.4227237,36.5068533 29.5958666,36.5068533 L31.0807579,36.5068533 L33.1913439,39.900492 L57.744192,39.900492 L60.0299045,36.5068533 L61.493826,36.5068533 C61.6669688,36.5068533 61.6808543,36.3342861 61.6808543,36.1671886 L61.6808543,29.5543926 C61.6808543,29.3875686 61.6669688,29.3421706 61.493826,29.3421706 Z" id="Stroke-3" stroke="url(#linearGradient-5)" stroke-width="1.03047239"></path>
                    <path d="M61.493826,48.4783688 L29.5958666,48.4783688 C29.4227237,48.4783688 29.2507144,48.5237668 29.2507144,48.6905909 L29.2507144,55.3033868 C29.2507144,55.4704843 29.4227237,55.6430515 29.5958666,55.6430515 L31.0807579,55.6430515 L33.1913439,59.0366902 L57.744192,59.0366902 L60.0299045,55.6430515 L61.493826,55.6430515 C61.6669688,55.6430515 61.6808543,55.4704843 61.6808543,55.3033868 L61.6808543,48.6905909 C61.6808543,48.5237668 61.6669688,48.4783688 61.493826,48.4783688 Z" id="Stroke-3-Copy" stroke="url(#linearGradient-6)" stroke-width="1.03047239" stroke-linecap="round" stroke-linejoin="round"></path>
                    <rect id="Rectangle-5-Copy" stroke="url(#linearGradient-5)" stroke-width="0.959676576" fill-opacity="0.2" fill="#FFFFFF" transform="translate(42.133221, 91.165053) rotate(-270.000000) translate(-42.133221, -91.165053) " x="37.6480467" y="78.3249043" width="8.97034852" height="25.6802965" rx="1.53548252"></rect>
                    <rect id="Rectangle-5-Copy" stroke="url(#linearGradient-7)" stroke-width="0.959676576" stroke-linecap="round" stroke-linejoin="round" transform="translate(33.803612, 115.561334) rotate(-180.000000) translate(-33.803612, -115.561334) " x="29.3184374" y="102.721186" width="8.97034852" height="25.6802965" rx="1.53548252"></rect>
                    <rect id="Rectangle-5-Copy" stroke="url(#linearGradient-7)" stroke-width="0.959676576" stroke-linecap="round" stroke-linejoin="round" transform="translate(50.462830, 115.561334) rotate(-180.000000) translate(-50.462830, -115.561334) " x="45.9776561" y="102.721186" width="8.97034852" height="25.6802965" rx="1.53548252"></rect>
                </g>
                <g id="Group-7" transform="translate(45.000000, 82.000000)">
                    <path d="M56.6050694,10.0072905 L10.7660327,10.0072905" id="Path-7" stroke="#FFFFFF" stroke-width="0.824377911" stroke-linecap="round" stroke-linejoin="round"></path>
                    <circle id="Oval-2" fill="#FFFFFF" cx="10" cy="10" r="2.5"></circle>
                    <circle id="Oval-2" stroke-opacity="0.5" stroke="#FFFFFF" stroke-width="0.625" cx="10" cy="10" r="6"></circle>
                    <circle id="Oval-2" stroke-opacity="0.2" stroke="#FFFFFF" stroke-width="0.625" cx="10" cy="10" r="10"></circle>
                </g>
                <g id="Group-7" transform="translate(0.000000, 81.000000)" fill="#FFFFFF">
                    <path d="M21.5006243,15.2406695 L15.8452124,15.2406695 L15.8452124,16.7358095 L13.0105388,16.7358095 L13.0105388,12.2527129 L24.3329753,12.2527129 L24.3329753,15.2406695 L30,10.7587347 L24.3329753,6.27563812 L24.3329753,9.26475639 L13.0105388,9.26475639 L13.0105388,4.78165985 L15.9845654,4.78165985 C16.454882,5.85393197 17.508159,6.55329038 18.6775634,6.57420143 C20.4937984,6.47196963 21.8815227,4.91758167 21.7781691,3.10180559 C21.6841058,1.42892167 20.3498002,0.09409972 18.6775634,0 C17.508159,0.0209110489 16.454882,0.720269462 15.9845654,1.79254158 L13.0105388,1.79254158 C11.4091398,1.84365748 10.1491558,3.17847943 10.1898005,4.78165985 L10.1898005,9.26475639 L5.79901762,9.26475639 C5.29850786,8.21804222 4.26381135,7.52913933 3.10485835,7.47105308 C1.29094595,7.57328488 -0.097939604,9.12883457 0.00541391958,10.9434489 C0.0994772388,12.6163328 1.43378284,13.9511548 3.10485835,14.0452545 C4.28819813,14.0638421 5.36005546,13.3517047 5.79901762,12.2527129 L10.1898005,12.2527129 L10.1898005,16.7358095 C10.1491558,18.3389899 11.4091398,19.6738118 13.0105388,19.723766 L15.8452124,19.723766 L15.8452124,21.2177443 L21.5006243,21.2177443 L21.5006243,15.2406695 Z" id="Fill-1"></path>
                </g>
            </g>
        </g>
    </g>
</svg>