<?xml version="1.0" encoding="UTF-8"?>
<svg width="28px" height="28px" viewBox="0 0 28 28" version="1.1" xmlns="http://www.w3.org/2000/svg" xmlns:xlink="http://www.w3.org/1999/xlink">
    <!-- Generator: Sketch 46.2 (44496) - http://www.bohemiancoding.com/sketch -->
    <title>genius_analog</title>
    <desc>Created with Sketch.</desc>
    <defs></defs>
    <g id="slice" stroke="none" stroke-width="1" fill="none" fill-rule="evenodd">
        <g id="genius_analog" fill="#FFFFFF">
            <g id="Page-1" transform="translate(6.000000, 6.000000)">
                <g id="Group-3">
                    <path d="M7.99287273,13.7237091 C4.83432727,13.7193455 2.27650909,11.1586182 2.27650909,8.00007273 C2.27505455,4.84007273 4.83578182,2.27789091 7.99578182,2.27643636 L8.00741818,2.27643636 C11.1681455,2.2808 13.7281455,4.84589091 13.7237818,8.00734545 C13.7194182,11.1680727 11.1543273,13.7273455 7.99287273,13.7237091 L7.99287273,13.7237091 Z M15.9565091,2.15061818 C15.8968727,0.9928 14.9754182,0.0662545455 13.8183273,7.27272727e-05 L2.18196364,7.27272727e-05 C1.01541818,0.0888 0.0896,1.01534545 0.000145454545,2.18189091 L0.000145454545,13.8182545 C0.0896,14.9840727 1.01541818,15.9106182 2.18196364,16.0000727 L13.8183273,16.0000727 C14.9841455,15.9106182 15.9106909,14.9840727 16.0001455,13.8182545 L15.9565091,2.15061818 Z" id="Fill-1"></path>
                </g>
                <path d="M7.9936,11.0618182 C6.30487273,11.0581818 4.9376,9.688 4.9376,7.99927273 C4.93905455,6.30618182 6.31141818,4.93527273 8.00450909,4.93672727 L8.00669091,4.93672727 C9.69832727,4.94036364 11.0663273,6.31418182 11.0626909,8.00581818 C11.0590545,9.69745455 9.68450909,11.0654545 7.9936,11.0618182 M8.00669091,3.39563636 L8.00523636,3.39563636 C5.46123636,3.39418182 3.39723636,5.45527273 3.39578182,7.99927273 C3.39578182,10.5396364 5.45323636,12.6007273 7.9936,12.6043636 C10.5361455,12.608 12.6008727,10.5490909 12.6045091,8.00654545 C12.6081455,5.46327273 10.5499636,3.39927273 8.00669091,3.39563636" id="Fill-4"></path>
            </g>
        </g>
    </g>
</svg>