<?xml version="1.0" encoding="UTF-8"?>
<svg width="420px" height="200px" viewBox="0 0 420 200" version="1.1" xmlns="http://www.w3.org/2000/svg" xmlns:xlink="http://www.w3.org/1999/xlink">
    <!-- Generator: Sketch 46.2 (44496) - http://www.bohemiancoding.com/sketch -->
    <title>genius_pic_appletv</title>
    <desc>Created with Sketch.</desc>
    <defs>
        <linearGradient x1="0%" y1="50%" x2="94.4783298%" y2="50%" id="linearGradient-1">
            <stop stop-color="#FFFFFF" offset="0.61583227%"></stop>
            <stop stop-color="#1F2740" offset="100%"></stop>
        </linearGradient>
        <linearGradient x1="0%" y1="100%" x2="100%" y2="0%" id="linearGradient-2">
            <stop stop-color="#FFFFFF" offset="0%"></stop>
            <stop stop-color="#1F2740" offset="100%"></stop>
        </linearGradient>
        <linearGradient x1="25.5589414%" y1="112.100524%" x2="154.873373%" y2="-30.6548441%" id="linearGradient-3">
            <stop stop-color="#FFFFFF" offset="0%"></stop>
            <stop stop-color="#FFFFFF" stop-opacity="0.5" offset="47.2769178%"></stop>
            <stop stop-color="#1F2740" offset="100%"></stop>
        </linearGradient>
        <linearGradient x1="100%" y1="100%" x2="22.7514873%" y2="8.91744733%" id="linearGradient-4">
            <stop stop-color="#FFFFFF" offset="0%"></stop>
            <stop stop-color="#FFFFFF" stop-opacity="0.5" offset="51.2238168%"></stop>
            <stop stop-color="#1F2740" offset="100%"></stop>
        </linearGradient>
        <linearGradient x1="50.0000715%" y1="101.092409%" x2="50%" y2="0%" id="linearGradient-5">
            <stop stop-color="#1F2740" offset="0%"></stop>
            <stop stop-color="#FFFFFF" offset="46.1966328%"></stop>
            <stop stop-color="#9194A1" offset="96.5439785%"></stop>
            <stop stop-color="#9598A4" offset="100%"></stop>
        </linearGradient>
        <linearGradient x1="87.3310126%" y1="71.2943137%" x2="4.18911354%" y2="59.51249%" id="linearGradient-6">
            <stop stop-color="#1F2740" offset="0%"></stop>
            <stop stop-color="#53596C" offset="45.2216394%"></stop>
            <stop stop-color="#FFFFFF" offset="100%"></stop>
        </linearGradient>
        <linearGradient x1="-9.63933246%" y1="53.2385103%" x2="100%" y2="53.2385111%" id="linearGradient-7">
            <stop stop-color="#1F2740" offset="0%"></stop>
            <stop stop-color="#FFFFFF" stop-opacity="0.5" offset="54.9712492%"></stop>
            <stop stop-color="#FFFFFF" offset="100%"></stop>
        </linearGradient>
        <linearGradient x1="-9.63933246%" y1="53.2385103%" x2="100%" y2="53.2385111%" id="linearGradient-8">
            <stop stop-color="#FFFFFF" offset="0%"></stop>
            <stop stop-color="#FFFFFF" stop-opacity="0.5" offset="54.9712492%"></stop>
            <stop stop-color="#FFFFFF" offset="100%"></stop>
        </linearGradient>
    </defs>
    <g id="slice" stroke="none" stroke-width="1" fill="none" fill-rule="evenodd">
        <g id="genius_pic_appletv">
            <g id="Group-2" transform="translate(10.000000, 23.000000)">
                <g id="Group-4" transform="translate(287.000000, 0.000000)">
                    <g id="Group" transform="translate(0.245305, 0.000000)">
                        <path d="M96.1112828,147.251764 L5.91723888,147.251764 C2.86591905,147.251764 0.39233559,144.77981 0.39233559,141.7305 L0.39233559,5.90741211 C0.39233559,2.85810234 2.86591905,0.386148365 5.91723888,0.386148365 L95.7159176,0.386148365" id="Rectangle-5" stroke="url(#linearGradient-1)" stroke-width="1.6" stroke-linecap="round" stroke-linejoin="round"></path>
                        <rect id="Rectangle-5-Copy" stroke="url(#linearGradient-2)" stroke-linecap="round" stroke-linejoin="round" transform="translate(21.754695, 87.000000) rotate(-270.000000) translate(-21.754695, -87.000000) " x="11.7546948" y="77" width="20" height="20" rx="1.31900466"></rect>
                        <rect id="Rectangle-5-Copy" stroke="url(#linearGradient-2)" stroke-linecap="round" stroke-linejoin="round" transform="translate(21.754695, 117.000000) rotate(-270.000000) translate(-21.754695, -117.000000) " x="11.7546948" y="107" width="20" height="20" rx="1.31900466"></rect>
                        <path d="M28.1452687,139.609426 L32.123199,139.609426 C32.8555158,139.609426 33.4491758,140.202695 33.4491758,140.934529 L33.4491758,160.369378 C33.4491758,161.101212 32.8555158,161.694481 32.123199,161.694481 L28.1452687,161.694481" id="Rectangle-5-Copy-2" stroke="url(#linearGradient-3)" stroke-width="1.09917055" transform="translate(30.797222, 150.651954) rotate(-270.000000) translate(-30.797222, -150.651954) "></path>
                        <rect id="Rectangle-5-Copy" stroke="url(#linearGradient-4)" stroke-linecap="round" stroke-linejoin="round" transform="translate(65.232088, 102.134004) rotate(-180.000000) translate(-65.232088, -102.134004) " x="55.7546948" y="68" width="18.9547858" height="68.2680076" rx="1.31900466"></rect>
                        <path d="M42.2546948,1 L42.2546948,144.78328" id="Path-9" stroke="url(#linearGradient-5)"></path>
                        <path d="M42.7546948,48 L111.052536,48" id="Path-9" stroke="url(#linearGradient-6)"></path>
                    </g>
                </g>
                <g id="Mac-mini" transform="translate(0.000000, 47.000000)">
                    <path d="M14.3867737,0.39775405 L63.6132263,0.39775405 C71.3405466,0.39775405 77.6022459,6.65827047 77.6022459,14.3867737 L77.6022459,63.6132263 C77.6022459,71.3405466 71.3417295,77.6022459 63.6132263,77.6022459 L14.3867737,77.6022459 C6.65945338,77.6022459 0.39775405,71.3417295 0.39775405,63.6132263 L0.39775405,14.3867737 C0.39775405,6.65945338 6.65827047,0.39775405 14.3867737,0.39775405 Z" id="Rectangle-17" stroke="url(#linearGradient-7)" stroke-width="1.6" stroke-linecap="round" stroke-linejoin="round" fill-rule="nonzero"></path>
                    <path d="M31.9875778,33.1335274 C32.6881169,32.2917253 33.1582684,31.1220002 33.02968,29.9536082 C32.024413,29.9929323 30.8021531,30.6227843 30.0828615,31.4612538 C29.4372403,32.2084115 28.8713172,33.3981318 29.0213371,34.5405299 C30.143807,34.6271762 31.2903873,33.9739964 31.9875778,33.1335274 M35.8043775,47.3808447 C34.9732407,48.5945594 34.1066082,49.804275 32.7430349,49.8282693 C31.4062509,49.8542632 30.9756135,49.0391215 29.4446074,49.0391215 C27.9142709,49.0391215 27.4360827,49.804275 26.1689507,49.8542632 C24.8522586,49.9055845 23.853689,48.5432381 23.0118365,47.335522 C21.2926358,44.8647695 19.9826411,40.3518304 21.7420256,37.3085459 C22.6193739,35.7955682 24.1818574,34.8397929 25.8802964,34.813799 C27.1742177,34.7924707 28.3917895,35.6782625 29.1814029,35.6782625 C29.971686,35.6782625 31.4511229,34.6071809 33.009588,34.7644773 C33.6592276,34.7938037 35.4902734,35.0264157 36.6676614,36.7386798 C36.5705503,36.7999988 34.4823276,38.0077148 34.5050984,40.5264561 C34.5312179,43.5377481 37.159914,44.5401792 37.1907216,44.5521763 C37.1659416,44.6201603 36.7694605,45.9805072 35.8043775,47.3808447 Z" id="apple_logo" fill="#FFFFFF"></path>
                    <path d="M42.4086804,36.7944897 L41.8677062,36.7944897 C41.2796907,36.7944897 40.8092784,37.2649021 40.8092784,37.8529175 C40.8092784,38.440933 41.2796907,38.9113454 41.8677062,38.9113454 L42.4086804,38.9113454 L42.4086804,44.4622113 C42.4086804,46.3203402 43.7023144,47.6610155 45.7956495,47.6610155 C46.4071856,47.6610155 46.9011186,47.1670825 46.9011186,46.5555464 C46.9011186,45.9440103 46.4071856,45.4500773 45.7956495,45.4500773 C45.3722784,45.4500773 44.901866,45.1443093 44.901866,44.6033351 L44.901866,38.9113454 L45.9602938,38.9113454 C46.5483093,38.9113454 47.0187216,38.440933 47.0187216,37.8529175 C47.0187216,37.2649021 46.5483093,36.7944897 45.9602938,36.7944897 L44.901866,36.7944897 L44.901866,34.8187577 C44.901866,34.1366598 44.3373711,33.5721649 43.6552732,33.5721649 C42.9731753,33.5721649 42.4086804,34.1366598 42.4086804,34.8187577 L42.4086804,36.7944897 Z M53.8270361,47.6610155 C54.3680103,47.6610155 54.7913814,47.3552474 55.003067,46.8848351 L58.766366,38.3703711 C58.8134072,38.252768 58.8604485,38.0881237 58.8604485,37.8764381 C58.8604485,37.1708196 58.2959536,36.6063247 57.5903351,36.6063247 C56.8847165,36.6063247 56.5319072,37.1002577 56.4143041,37.4060258 L53.8270361,43.9447577 L51.239768,37.4060258 C51.1221649,37.1002577 50.7693557,36.6063247 50.0637371,36.6063247 C49.3581186,36.6063247 48.7936237,37.1708196 48.7936237,37.8764381 C48.7936237,38.0881237 48.8406649,38.252768 48.8877062,38.3703711 L52.6510052,46.8848351 C52.8626907,47.3552474 53.2860619,47.6610155 53.8270361,47.6610155 Z" id="tv" fill="#FFFFFF"></path>
                </g>
                <g id="Group-5" transform="translate(103.000000, 53.000000)">
                    <g id="Group-31" transform="translate(0.000000, 46.000000)" fill="#FFFFFF">
                        <circle id="Oval-8" cx="145.5" cy="1.5" r="1.5"></circle>
                        <circle id="Oval-8" cx="25.5" cy="1.5" r="1.5"></circle>
                        <circle id="Oval-8" cx="121.5" cy="1.5" r="1.5"></circle>
                        <circle id="Oval-8" cx="13.5" cy="1.5" r="1.5"></circle>
                        <circle id="Oval-8" cx="157.5" cy="1.5" r="1.5"></circle>
                        <circle id="Oval-8" cx="37.5" cy="1.5" r="1.5"></circle>
                        <circle id="Oval-8" cx="133.5" cy="1.5" r="1.5"></circle>
                        <circle id="Oval-8" cx="7.5" cy="1.5" r="1.5"></circle>
                        <circle id="Oval-8" cx="1.5" cy="1.5" r="1.5"></circle>
                        <circle id="Oval-8" cx="151.5" cy="1.5" r="1.5"></circle>
                        <circle id="Oval-8" cx="31.5" cy="1.5" r="1.5"></circle>
                        <circle id="Oval-8" cx="127.5" cy="1.5" r="1.5"></circle>
                        <circle id="Oval-8" cx="19.5" cy="1.5" r="1.5"></circle>
                        <circle id="Oval-8" cx="115.5" cy="1.5" r="1.5"></circle>
                        <circle id="Oval-8" cx="43.5" cy="1.5" r="1.5"></circle>
                        <circle id="Oval-8" cx="139.5" cy="1.5" r="1.5"></circle>
                    </g>
                    <g id="Page-1" transform="translate(53.000000, 0.000000)">
                        <path d="M57.5632653,0 C60.9233692,3.4229805 63,8.1347036 63,13.3377342 C63,18.5400814 60.9238199,23.2515768 57.564392,26.6743295" id="Stroke-1" stroke="#FFFFFF" stroke-width="1.6" stroke-linecap="round"></path>
                        <path d="M25.3560823,26.6743295 C22.0220268,23.2672221 19.9591837,18.5583095 19.9591837,13.356522 C19.9591837,8.1343585 22.0388465,3.41005059 25.3959184,0" id="Stroke-3" stroke="#FFFFFF" stroke-width="1.6" stroke-linecap="round"></path>
                        <path d="M30.7970282,22.605364 C28.300301,20.1819705 26.755102,16.8306498 26.755102,13.1276653 C26.755102,9.40723173 28.3154703,6.04248873 30.8326531,3.61685824" id="Stroke-5" stroke="#FFFFFF" stroke-width="1.6" stroke-linecap="round"></path>
                        <path d="M52.5795918,3.61685824 C55.099588,6.05592687 56.6571429,9.41043581 56.6571429,13.1146077 C56.6571429,16.8151703 55.1024118,20.1669721 52.5861807,22.605364" id="Stroke-7" stroke="#FFFFFF" stroke-width="1.6" stroke-linecap="round"></path>
                        <path d="M47.5959184,7.23371648 C48.9962933,8.74671143 49.8612245,10.8240684 49.8612245,13.1173053 C49.8612245,15.4045775 49.0005975,17.4764285 47.6071093,18.9885057" id="Stroke-9" stroke="#FFFFFF" stroke-width="1.6" stroke-linecap="round"></path>
                        <path d="M35.7891462,18.9885057 C34.4070978,17.4913513 33.5510204,15.4176024 33.5510204,13.1252544 C33.5510204,10.8181974 34.4187169,8.73290752 35.8163265,7.23371648" id="Stroke-11" stroke="#FFFFFF" stroke-width="1.6" stroke-linecap="round"></path>
                        <path d="M2.7,51.5402299 L51.2387755,51.5402299 L51.2387755,51.5402299 C52.7299443,51.5402299 53.9387755,50.3313987 53.9387755,48.8402299 L53.9387755,42.9375479 L53.9387755,42.9375479 C53.9387755,41.4463791 52.7299443,40.2375479 51.2387755,40.2375479 L2.7,40.2375479 L2.7,40.2375479 C1.20883118,40.2375479 -1.51488314e-15,41.4463791 -1.33226763e-15,42.9375479 L0,48.8402299 L-4.4408921e-16,48.8402299 C-2.61473697e-16,50.3313987 1.20883118,51.5402299 2.7,51.5402299 Z" id="Fill-13" stroke="url(#linearGradient-8)" stroke-width="1.6" stroke-linecap="round" stroke-linejoin="round"></path>
                        <path d="M39.4414957,41.3181396 L40.5737245,1.77924352 C40.5879906,1.28204472 41.0051037,0.890407824 41.5053224,0.904587781 C41.9874255,0.91831758 42.3707982,1.30635322 42.3852907,1.77924352 L43.5175196,41.3181396 C43.5496749,42.4370057 42.6631397,43.3695067 41.5374777,43.4014678 C40.4120422,43.4332039 39.473651,42.5520209 39.4414957,41.433605 C39.4405899,41.3971422 39.4405899,41.3541522 39.4414957,41.3181396" id="Fill-17" fill="#FFFFFF"></path>
                        <ellipse id="Oval-9" fill="#FFFFFF" cx="6.525" cy="45.9482759" rx="1.125" ry="1.12068966"></ellipse>
                        <ellipse id="Oval-9" fill="#FFFFFF" cx="13.725" cy="45.9482759" rx="1.125" ry="1.12068966"></ellipse>
                        <rect id="Rectangle-18" fill="#FFFFFF" x="18.9" y="44.8275862" width="9" height="2.24137931" rx="1.12068966"></rect>
                    </g>
                </g>
                <g id="Group" transform="translate(294.000000, 14.000000)">
                    <path d="M5.34948249,0.00438242705 L5.34963995,0.000424105844 L5.17879788,0.000424105844 C5.17249956,0.000141368615 5.16667361,0 5.1606902,0 L5.1606902,0.000424105844 L1.75046203,0.000424105844 C0.583539828,0.000424105844 0,0.423257632 0,1.2679351 L0,3.59655892 C0,4.43699533 0.583539828,4.85714286 1.75046203,4.85714286 L5.16509902,4.85714286 L5.16509902,4.85643601 C6.3287146,4.85530507 6.91099476,4.43529891 6.91099476,3.59627618 L6.91099476,1.26736963 C6.91099476,0.469767906 6.38980836,0.048772172 5.34948249,0.00438242705 L5.34948249,0.00438242705 Z" id="Fill-1" fill="#FEFEFE"></path>
                    <rect id="Rectangle" fill="#1F2740" x="2.13612541" y="1.14285714" width="2.82722513" height="2.57142857"></rect>
                    <path d="M5.87744384,5 L7.53926702,5 C7.40140697,4.70228194 6.60941505,3.38202886 3.29842932,3 C3.29842932,3 5.43369704,4.11537641 5.87744384,5 Z" id="Fill-3" fill="#FEFEFE"></path>
                    <path d="M3.29842932,3 C3.29842932,3 5.43369704,4.11537641 5.87744384,5 L7.53926702,5 C7.40140697,4.70228194 6.60941505,3.38202886 3.29842932,3 Z" id="Stroke-4" stroke="#1F2740" stroke-width="0.5" stroke-linecap="round" stroke-linejoin="round"></path>
                    <path d="M22.460733,5 L20.4285045,5 L20.4285045,3.70426369 L17.5814941,3.70426369 L17.5814941,5 L15.5497382,5 L15.5497382,1.19858905 C15.5497382,0.873936402 15.6836447,0.615392744 15.952088,0.423820373 C16.2143872,0.236559458 16.5886954,0.142857143 17.0759576,0.142857143 L20.9438083,0.142857143 C21.4310705,0.142857143 21.8053787,0.236559458 22.0672053,0.423820373 C22.3298197,0.610793857 22.460733,0.869050085 22.460733,1.19858905 L22.460733,5 Z" id="Fill-1" fill="#FEFEFE"></path>
                    <path d="M29.6752138,0.386598134 C29.4718518,0.23828404 29.1593953,0.158378385 28.739249,0.145587732 L28.7470526,0.14415058 L28.6688604,0.14415058 C28.6515364,0.143863149 28.6356171,0.142857143 28.6179809,0.142857143 L25.0339395,0.142857143 L25.0315984,0.14415058 L24.9154807,0.14415058 C24.4330616,0.14415058 24.0617659,0.237565464 23.8020618,0.424395234 C23.5426699,0.611656149 23.411101,0.86200804 23.4042339,1.17545091 L23.4036096,1.17573834 L23.4036096,1.18737927 C23.4036096,1.19169072 23.4031414,1.19571475 23.4031414,1.19988249 L23.4036096,1.19988249 L23.4036096,5 L25.4172528,5 L25.4172528,3.73142587 L28.6735426,3.73142587 C29.5578475,3.73142587 30,3.40404262 30,2.74927614 L30,1.19140329 C30,0.817456325 29.8916859,0.548996318 29.6752138,0.386598134 L29.6752138,0.386598134 Z" id="Combined-Shape" fill="#FEFEFE"></path>
                    <path d="M12.9784559,0.143000854 L12.9784559,0.142857143 L12.6771829,0.142857143 L12.6771829,2.96807081 C12.6632756,2.99724413 12.6345234,3.02066902 12.5735813,3.01060925 C12.5735813,3.01060925 12.5338908,3.00299257 12.5062324,2.97482522 C12.165269,2.49138157 10.8551693,0.834969102 10.4359186,0.306543921 C10.4345122,0.304531967 10.4326371,0.303525991 10.430762,0.30194517 L10.4324808,0.301657748 C10.4257616,0.295334466 10.4184173,0.289442317 10.4113855,0.283406457 C10.408104,0.280532238 10.4048225,0.276939464 10.4010722,0.274352667 C10.2941891,0.186688984 10.1544909,0.143000854 9.96838301,0.143000854 L8.34013408,0.143000854 C8.13511848,0.143000854 7.9771377,0.196030196 7.86712933,0.302376303 C7.75665217,0.408434988 7.70149172,0.551139966 7.69867901,0.728910417 L7.69633508,0.730347527 L7.69633508,5 L9.60038625,5 C9.60038625,5 9.59007297,2.74402543 9.58507259,2.07921855 C9.59304194,2.03639269 9.62788834,1.97186647 9.77258686,1.98724354 C9.77258686,1.98724354 9.82930992,1.99184229 9.85306173,2.02963827 C10.2210585,2.57071002 12.6287417,5 12.6287417,5 L14.6073298,5 L14.6073298,0.143000854 L12.9784559,0.143000854 Z" id="Fill-4" fill="#FEFEFE"></path>
                    <rect id="Rectangle" fill="#1F2740" x="17.591623" y="1.28571429" width="2.82722513" height="1.5"></rect>
                    <rect id="Rectangle" fill="#1F2740" x="25.3979053" y="1.39999989" width="2.59162304" height="1.25714275"></rect>
                </g>
            </g>
        </g>
    </g>
</svg>