<?xml version="1.0" encoding="UTF-8"?>
<svg width="28px" height="28px" viewBox="0 0 28 28" version="1.1" xmlns="http://www.w3.org/2000/svg" xmlns:xlink="http://www.w3.org/1999/xlink">
    <!-- Generator: Sketch 46.2 (44496) - http://www.bohemiancoding.com/sketch -->
    <title>genius_hd</title>
    <desc>Created with Sketch.</desc>
    <defs></defs>
    <g id="slice" stroke="none" stroke-width="1" fill="none" fill-rule="evenodd">
        <g id="genius_hd" fill="#FFFFFF">
            <g id="Group" transform="translate(4.500000, 6.500000)">
                <path d="M8.67,2.655 C8.67,2.175 8.28,1.785 7.8,1.785 C7.32,1.785 6.93,2.175 6.93,2.655 L6.93,6.045 L2.64,6.045 L2.64,2.655 C2.64,2.175 2.25,1.785 1.77,1.785 C1.29,1.785 0.9,2.175 0.9,2.655 L0.9,11.25 C0.9,11.73 1.29,12.12 1.77,12.12 C2.25,12.12 2.64,11.73 2.64,11.25 L2.64,7.635 L6.93,7.635 L6.93,11.25 C6.93,11.73 7.32,12.12 7.8,12.12 C8.28,12.12 8.67,11.73 8.67,11.25 L8.67,2.655 Z M12.21,3.465 L12.21,10.44 L13.365,10.44 C15.285,10.44 16.44,9.57 16.44,6.96 C16.44,4.35 15.285,3.465 13.365,3.465 L12.21,3.465 Z M11.34,1.905 L13.365,1.905 C16.35,1.905 18.24,3.255 18.24,6.96 C18.24,10.665 16.35,12 13.365,12 L11.34,12 C10.86,12 10.47,11.61 10.47,11.13 L10.47,2.775 C10.47,2.295 10.86,1.905 11.34,1.905 Z" id="HD"></path>
            </g>
        </g>
    </g>
</svg>