<?xml version="1.0" encoding="UTF-8"?>
<svg width="420px" height="200px" viewBox="0 0 420 200" version="1.1" xmlns="http://www.w3.org/2000/svg" xmlns:xlink="http://www.w3.org/1999/xlink">
    <!-- Generator: Sketch 46.2 (44496) - http://www.bohemiancoding.com/sketch -->
    <title>genius_pic_dlna</title>
    <desc>Created with Sketch.</desc>
    <defs>
        <linearGradient x1="0%" y1="50%" x2="94.4783298%" y2="50%" id="linearGradient-1">
            <stop stop-color="#FFFFFF" offset="0.61583227%"></stop>
            <stop stop-color="#1F2740" offset="100%"></stop>
        </linearGradient>
        <linearGradient x1="0%" y1="100%" x2="100%" y2="0%" id="linearGradient-2">
            <stop stop-color="#FFFFFF" offset="0%"></stop>
            <stop stop-color="#1F2740" offset="100%"></stop>
        </linearGradient>
        <linearGradient x1="25.5589414%" y1="112.100524%" x2="154.873373%" y2="-30.6548441%" id="linearGradient-3">
            <stop stop-color="#FFFFFF" offset="0%"></stop>
            <stop stop-color="#FFFFFF" stop-opacity="0.5" offset="47.2769178%"></stop>
            <stop stop-color="#1F2740" offset="100%"></stop>
        </linearGradient>
        <linearGradient x1="100%" y1="100%" x2="22.7514873%" y2="8.91744733%" id="linearGradient-4">
            <stop stop-color="#FFFFFF" offset="0%"></stop>
            <stop stop-color="#FFFFFF" stop-opacity="0.5" offset="51.2238168%"></stop>
            <stop stop-color="#1F2740" offset="100%"></stop>
        </linearGradient>
        <linearGradient x1="50.0000715%" y1="101.092409%" x2="50%" y2="0%" id="linearGradient-5">
            <stop stop-color="#1F2740" offset="0%"></stop>
            <stop stop-color="#FFFFFF" offset="46.1966328%"></stop>
            <stop stop-color="#9194A1" offset="96.5439785%"></stop>
            <stop stop-color="#9598A4" offset="100%"></stop>
        </linearGradient>
        <linearGradient x1="87.3310126%" y1="71.2943137%" x2="4.18911354%" y2="59.51249%" id="linearGradient-6">
            <stop stop-color="#1F2740" offset="0%"></stop>
            <stop stop-color="#53596C" offset="45.2216394%"></stop>
            <stop stop-color="#FFFFFF" offset="100%"></stop>
        </linearGradient>
        <linearGradient x1="-9.63933246%" y1="53.2385103%" x2="100%" y2="53.2385111%" id="linearGradient-7">
            <stop stop-color="#FFFFFF" offset="0%"></stop>
            <stop stop-color="#FFFFFF" stop-opacity="0.5" offset="54.9712492%"></stop>
            <stop stop-color="#FFFFFF" offset="100%"></stop>
        </linearGradient>
    </defs>
    <g id="slice" stroke="none" stroke-width="1" fill="none" fill-rule="evenodd">
        <g id="genius_pic_dlna">
            <g id="Group-2" transform="translate(11.000000, 23.000000)">
                <g id="Group-4" transform="translate(286.000000, 0.000000)">
                    <g id="Group" transform="translate(0.245305, 0.000000)">
                        <path d="M96.1112828,147.251764 L5.91723888,147.251764 C2.86591905,147.251764 0.39233559,144.77981 0.39233559,141.7305 L0.39233559,5.90741211 C0.39233559,2.85810234 2.86591905,0.386148365 5.91723888,0.386148365 L95.7159176,0.386148365" id="Rectangle-5" stroke="url(#linearGradient-1)" stroke-width="1.6" stroke-linecap="round" stroke-linejoin="round"></path>
                        <rect id="Rectangle-5-Copy" stroke="url(#linearGradient-2)" stroke-linecap="round" stroke-linejoin="round" transform="translate(21.754695, 87.000000) rotate(-270.000000) translate(-21.754695, -87.000000) " x="11.7546948" y="77" width="20" height="20" rx="1.31900466"></rect>
                        <rect id="Rectangle-5-Copy" stroke="url(#linearGradient-2)" stroke-linecap="round" stroke-linejoin="round" transform="translate(21.754695, 117.000000) rotate(-270.000000) translate(-21.754695, -117.000000) " x="11.7546948" y="107" width="20" height="20" rx="1.31900466"></rect>
                        <path d="M28.1452687,139.609426 L32.123199,139.609426 C32.8555158,139.609426 33.4491758,140.202695 33.4491758,140.934529 L33.4491758,160.369378 C33.4491758,161.101212 32.8555158,161.694481 32.123199,161.694481 L28.1452687,161.694481" id="Rectangle-5-Copy-2" stroke="url(#linearGradient-3)" stroke-width="1.09917055" transform="translate(30.797222, 150.651954) rotate(-270.000000) translate(-30.797222, -150.651954) "></path>
                        <rect id="Rectangle-5-Copy" stroke="url(#linearGradient-4)" stroke-linecap="round" stroke-linejoin="round" transform="translate(65.232088, 102.134004) rotate(-180.000000) translate(-65.232088, -102.134004) " x="55.7546948" y="68" width="18.9547858" height="68.2680076" rx="1.31900466"></rect>
                        <path d="M42.2546948,1 L42.2546948,144.78328" id="Path-9" stroke="url(#linearGradient-5)"></path>
                        <path d="M42.7546948,48 L111.052536,48" id="Path-9" stroke="url(#linearGradient-6)"></path>
                    </g>
                </g>
                <g id="Group-5" transform="translate(107.000000, 53.000000)">
                    <g id="Group-31" transform="translate(0.000000, 46.000000)" fill="#FFFFFF">
                        <circle id="Oval-8" cx="145.5" cy="1.5" r="1.5"></circle>
                        <circle id="Oval-8" cx="25.5" cy="1.5" r="1.5"></circle>
                        <circle id="Oval-8" cx="121.5" cy="1.5" r="1.5"></circle>
                        <circle id="Oval-8" cx="13.5" cy="1.5" r="1.5"></circle>
                        <circle id="Oval-8" cx="157.5" cy="1.5" r="1.5"></circle>
                        <circle id="Oval-8" cx="37.5" cy="1.5" r="1.5"></circle>
                        <circle id="Oval-8" cx="133.5" cy="1.5" r="1.5"></circle>
                        <circle id="Oval-8" cx="7.5" cy="1.5" r="1.5"></circle>
                        <circle id="Oval-8" cx="1.5" cy="1.5" r="1.5"></circle>
                        <circle id="Oval-8" cx="151.5" cy="1.5" r="1.5"></circle>
                        <circle id="Oval-8" cx="31.5" cy="1.5" r="1.5"></circle>
                        <circle id="Oval-8" cx="127.5" cy="1.5" r="1.5"></circle>
                        <circle id="Oval-8" cx="19.5" cy="1.5" r="1.5"></circle>
                        <circle id="Oval-8" cx="115.5" cy="1.5" r="1.5"></circle>
                        <circle id="Oval-8" cx="43.5" cy="1.5" r="1.5"></circle>
                        <circle id="Oval-8" cx="139.5" cy="1.5" r="1.5"></circle>
                    </g>
                    <g id="Page-1" transform="translate(53.000000, 0.000000)">
                        <path d="M57.5632653,0 C60.9233692,3.4229805 63,8.1347036 63,13.3377342 C63,18.5400814 60.9238199,23.2515768 57.564392,26.6743295" id="Stroke-1" stroke="#FFFFFF" stroke-width="1.6" stroke-linecap="round"></path>
                        <path d="M25.3560823,26.6743295 C22.0220268,23.2672221 19.9591837,18.5583095 19.9591837,13.356522 C19.9591837,8.1343585 22.0388465,3.41005059 25.3959184,0" id="Stroke-3" stroke="#FFFFFF" stroke-width="1.6" stroke-linecap="round"></path>
                        <path d="M30.7970282,22.605364 C28.300301,20.1819705 26.755102,16.8306498 26.755102,13.1276653 C26.755102,9.40723173 28.3154703,6.04248873 30.8326531,3.61685824" id="Stroke-5" stroke="#FFFFFF" stroke-width="1.6" stroke-linecap="round"></path>
                        <path d="M52.5795918,3.61685824 C55.099588,6.05592687 56.6571429,9.41043581 56.6571429,13.1146077 C56.6571429,16.8151703 55.1024118,20.1669721 52.5861807,22.605364" id="Stroke-7" stroke="#FFFFFF" stroke-width="1.6" stroke-linecap="round"></path>
                        <path d="M47.5959184,7.23371648 C48.9962933,8.74671143 49.8612245,10.8240684 49.8612245,13.1173053 C49.8612245,15.4045775 49.0005975,17.4764285 47.6071093,18.9885057" id="Stroke-9" stroke="#FFFFFF" stroke-width="1.6" stroke-linecap="round"></path>
                        <path d="M35.7891462,18.9885057 C34.4070978,17.4913513 33.5510204,15.4176024 33.5510204,13.1252544 C33.5510204,10.8181974 34.4187169,8.73290752 35.8163265,7.23371648" id="Stroke-11" stroke="#FFFFFF" stroke-width="1.6" stroke-linecap="round"></path>
                        <path d="M2.7,51.5402299 L51.2387755,51.5402299 L51.2387755,51.5402299 C52.7299443,51.5402299 53.9387755,50.3313987 53.9387755,48.8402299 L53.9387755,42.9375479 L53.9387755,42.9375479 C53.9387755,41.4463791 52.7299443,40.2375479 51.2387755,40.2375479 L2.7,40.2375479 L2.7,40.2375479 C1.20883118,40.2375479 -1.51488314e-15,41.4463791 -1.33226763e-15,42.9375479 L0,48.8402299 L-4.4408921e-16,48.8402299 C-2.61473697e-16,50.3313987 1.20883118,51.5402299 2.7,51.5402299 Z" id="Fill-13" stroke="url(#linearGradient-7)" stroke-width="1.6" stroke-linecap="round" stroke-linejoin="round"></path>
                        <path d="M39.4414957,41.3181396 L40.5737245,1.77924352 C40.5879906,1.28204472 41.0051037,0.890407824 41.5053224,0.904587781 C41.9874255,0.91831758 42.3707982,1.30635322 42.3852907,1.77924352 L43.5175196,41.3181396 C43.5496749,42.4370057 42.6631397,43.3695067 41.5374777,43.4014678 C40.4120422,43.4332039 39.473651,42.5520209 39.4414957,41.433605 C39.4405899,41.3971422 39.4405899,41.3541522 39.4414957,41.3181396" id="Fill-17" fill="#FFFFFF"></path>
                        <ellipse id="Oval-9" fill="#FFFFFF" cx="6.525" cy="45.9482759" rx="1.125" ry="1.12068966"></ellipse>
                        <ellipse id="Oval-9" fill="#FFFFFF" cx="13.725" cy="45.9482759" rx="1.125" ry="1.12068966"></ellipse>
                        <rect id="Rectangle-18" fill="#FFFFFF" x="18.9" y="44.8275862" width="9" height="2.24137931" rx="1.12068966"></rect>
                    </g>
                </g>
                <g id="Page-1" transform="translate(0.000000, 65.000000)" fill="#FFFFFF">
                    <g id="Group-3" transform="translate(0.000000, 1.692714)">
                        <path d="M12.8760321,0.00737244898 C19.095367,0.00737244898 24.2843122,3.86758673 25.4881046,9.00019898 C25.5999607,9.47671939 25.6760297,9.95861735 25.4594059,10.2817908 C25.1534009,10.7381888 24.4528743,10.6516276 23.9698359,10.6516276 L14.7734358,10.6516276 C13.8441834,10.6516276 13.1704538,10.6642908 12.2937582,10.2217704 C11.6172625,9.88038265 11.3819672,9.59363776 10.9219224,9.05466837 C10.2972919,8.3234949 9.37979567,7.86154592 8.35701296,7.86154592 C6.47499597,7.86154592 4.94929323,9.42519898 4.94929323,11.3538316 C4.94929323,13.2826378 6.47499597,14.8461173 8.35701296,14.8461173 C9.16974141,14.8461173 9.91625523,14.5543418 10.5018139,14.0674133 C10.807646,13.8134541 11.2076999,13.3390153 11.4903655,13.0370051 C12.1825937,12.297852 13.2679605,12.0619337 14.5021805,12.1098112 L24.326496,12.1098112 C25.3691603,12.0839643 25.7493326,12.2938622 25.551726,13.267199 C24.4789798,18.5443112 19.2122367,22.5511071 12.8760321,22.5511071 C9.04474616,22.5511071 5.60469709,21.0858112 3.24638423,18.760801 C2.9618169,18.480301 2.84615739,18.1205255 3.24897749,17.8915459 C3.39800364,17.8065459 3.61912248,17.7590153 3.92512745,17.7583214 L10.528438,17.7583214 C11.2357072,17.7989133 11.8655242,17.9860867 12.4270519,18.3212296 C13.0824558,18.7122296 13.2007085,18.9824949 13.66715,19.4786173 C14.2871126,20.1379745 15.1574115,20.5482296 16.1214136,20.5482296 C18.0034306,20.5482296 19.5291333,18.98475 19.5291333,17.0559439 C19.5291333,15.1273112 18.0034306,13.5636582 16.1214136,13.5636582 C15.3085123,13.5636582 14.5621713,13.8554337 13.9766127,14.3423622 C13.6707806,14.5963214 13.2707266,15.0707602 12.988061,15.3727704 C11.9312201,16.5013622 10.1805951,16.2997908 8.78196223,16.2997908 L3.79373549,16.2997908 C3.01835002,16.2997908 2.15773266,16.3816684 1.48573192,15.9296071 C1.0623386,15.6444235 0.769991484,15.1869847 0.543167462,14.5265867 C0.190138002,13.4982602 -3.45768325e-05,12.4081786 -3.45768325e-05,11.2790663 C-3.45768325e-05,10.3267194 0.135506607,9.40212755 0.389646326,8.51864796 C0.765496495,7.23896429 1.3887439,6.22607653 3.22632967,6.27759694 L10.0566372,6.27759694 C11.0534872,6.23891327 11.9533493,6.3854949 12.6272518,6.83252551 C12.9963595,7.07763776 13.1400262,7.30280102 13.4251122,7.62059694 C13.6353393,7.85495408 13.8637193,8.08844388 14.0571767,8.23519898 C14.6636543,8.69558673 15.3890763,9.01390306 16.2019776,9.01390306 C18.0839946,9.01390306 19.6095245,7.45042347 19.6095245,5.52161735 C19.6095245,3.59281122 18.0839946,2.02933163 16.2019776,2.02933163 C15.1624251,2.02933163 14.2314439,2.50654592 13.6064677,3.25870918 C13.0018918,3.9862398 12.3753596,4.4474949 11.5619396,4.67040306 C11.006117,4.82270918 10.5522961,4.81941327 9.99024965,4.81941327 L4.00551859,4.81941327 C2.82437399,4.81594388 2.87260867,4.12657653 3.57607433,3.48387245 C5.91951915,1.34152551 9.21987782,0.00737244898 12.8760321,0.00737244898" id="Fill-1"></path>
                    </g>
                    <g id="Group-6" transform="translate(31.234405, 0.131490)">
                        <path d="M44.3796815,7.04884184 C43.6229675,7.04884184 43.0038693,7.67003571 43.0038693,8.42931122 L43.0038693,8.42931122 C43.0038693,9.18858673 43.6229675,9.80978061 44.3796815,9.80978061 L50.8087249,9.80978061 C51.4919631,9.80978061 52.506966,10.2167398 52.506966,11.4853214 L52.506966,13.8269847 C52.4027169,15.2350357 50.5061776,13.2399643 48.8515033,13.2399643 L45.6512445,13.2399643 C43.455097,13.2399643 41.6583119,15.0430051 41.6583119,17.2464133 L41.6583119,19.9331071 C41.6583119,22.1366888 43.4585547,23.815352 45.6512445,23.9397296 C47.1868017,24.0268112 48.2870365,24.0667092 49.8021933,23.6059745 C50.7390526,23.3209643 51.5818628,22.8484337 52.209951,22.8668214 C53.0247541,22.8904133 52.6850367,23.9489235 53.6836156,23.9489235 L54.2674454,23.9489235 C55.0205288,23.9489235 55.5051231,23.3306786 55.5051231,22.5750459 L55.5051231,11.6910561 C55.5051231,9.91577041 54.7544601,8.60607653 53.214408,7.69154592 C52.2913794,7.14338265 51.2983328,7.03444388 50.2091626,7.04884184 L44.3796815,7.04884184 Z M46.1730089,16.3565153 L51.0514542,16.3565153 C51.8678133,16.3565153 52.5360105,17.0269745 52.5360105,17.8460969 L52.5360105,19.7393418 C52.5360105,20.5584643 51.8678133,21.2289235 51.0514542,21.2289235 L46.1730089,21.2289235 C45.356477,21.2289235 44.6882797,20.5584643 44.6882797,19.7393418 L44.6882797,17.8460969 C44.6882797,17.026801 45.3563041,16.3565153 46.1730089,16.3565153 L46.1730089,16.3565153 Z M26.3406022,23.9558622 L26.732012,23.9558622 C27.4850954,23.9558622 28.1012545,23.3376173 28.1012545,22.5818112 L28.1012545,16.4123724 L28.1016003,16.4094235 L28.1016003,11.4129847 C28.1016003,10.5761684 28.7839741,9.89148469 29.6177944,9.89148469 L34.6006617,9.89148469 C35.4346549,9.89148469 36.1170287,10.5761684 36.1170287,11.4129847 L36.1170287,16.82575 L36.1170287,22.6779133 C36.1170287,23.3769949 36.6870278,23.9489235 37.383751,23.9489235 L37.7459433,23.9489235 C38.4424936,23.9489235 39.0124927,23.3769949 39.0124927,22.6779133 L39.0124927,12.3113827 C39.0124927,9.67152551 38.1458244,7.1164949 34.956976,7.02091327 C33.3954862,6.97425 32.3211841,6.89410714 30.8058544,7.35484184 C29.8689951,7.63985204 29.067677,8.31846429 28.4395888,8.30025 C27.6247858,8.27648469 27.608016,7.01171939 26.6094371,7.01171939 L26.3406022,7.01171939 C25.5875188,7.01171939 24.9713596,7.63013776 24.9713596,8.38577041 L24.9713596,22.5818112 C24.9713596,23.3376173 25.5875188,23.9558622 26.3406022,23.9558622 L26.3406022,23.9558622 Z M4.72230209,10.1150867 L9.60057451,10.1150867 C10.4171064,10.1150867 11.0851308,10.7853724 11.0851308,11.6048418 L11.0851308,19.7393418 C11.0851308,20.5584643 10.4171064,21.2289235 9.60057451,21.2289235 L4.72230209,21.2289235 C3.9055973,21.2289235 3.2375729,20.5584643 3.2375729,19.7393418 L3.2375729,11.6048418 C3.2375729,10.7853724 3.9055973,10.1150867 4.72230209,10.1150867 L4.72230209,10.1150867 Z M19.8664361,0.0420663265 L19.4995759,0.0420663265 C18.7936899,0.0420663265 18.2160839,0.621627551 18.2160839,1.32990306 L18.2160839,22.6610867 C18.2160839,23.3693622 18.7936899,23.9489235 19.4995759,23.9489235 L19.8664361,23.9489235 C20.572495,23.9489235 21.150101,23.3693622 21.150101,22.6610867 L21.150101,1.32990306 C21.150101,0.621627551 20.572495,0.0420663265 19.8664361,0.0420663265 L19.8664361,0.0420663265 Z M12.8167386,0.0420663265 L12.4255017,0.0420663265 C11.6722454,0.0420663265 11.0560863,0.660311224 11.0560863,1.41611735 L11.0560863,7.58555612 C10.9786342,8.63279082 9.90969139,7.79753571 8.68619017,7.30071939 C7.99603659,7.02056633 7.64542751,6.99853571 6.9371211,6.99853571 L4.20053769,6.99853571 C2.00439017,6.99853571 0.207432181,8.80157653 0.207432181,11.0051582 L0.207432181,19.9331071 C0.207432181,22.1366888 1.96324374,23.8472704 4.20053769,23.9397296 C5.76133591,24.0042602 6.83615675,24.0668827 8.35148643,23.6059745 C9.28834571,23.3209643 10.27586,22.9596276 10.9039482,22.9780153 C11.7763217,23.0035153 11.3786881,23.9489235 12.8167386,23.9489235 C13.5699949,23.9489235 14.1859812,23.330852 14.1859812,22.5750459 L14.1859812,1.41611735 C14.1859812,0.660311224 13.5699949,0.0420663265 12.8167386,0.0420663265 L12.8167386,0.0420663265 Z" id="Fill-4"></path>
                    </g>
                </g>
                <g id="Group" transform="translate(293.000000, 14.000000)">
                    <path d="M5.34948249,0.00438242705 L5.34963995,0.000424105844 L5.17879788,0.000424105844 C5.17249956,0.000141368615 5.16667361,0 5.1606902,0 L5.1606902,0.000424105844 L1.75046203,0.000424105844 C0.583539828,0.000424105844 0,0.423257632 0,1.2679351 L0,3.59655892 C0,4.43699533 0.583539828,4.85714286 1.75046203,4.85714286 L5.16509902,4.85714286 L5.16509902,4.85643601 C6.3287146,4.85530507 6.91099476,4.43529891 6.91099476,3.59627618 L6.91099476,1.26736963 C6.91099476,0.469767906 6.38980836,0.048772172 5.34948249,0.00438242705 L5.34948249,0.00438242705 Z" id="Fill-1" fill="#FEFEFE"></path>
                    <rect id="Rectangle" fill="#1F2740" x="2.13612541" y="1.14285714" width="2.82722513" height="2.57142857"></rect>
                    <path d="M5.87744384,5 L7.53926702,5 C7.40140697,4.70228194 6.60941505,3.38202886 3.29842932,3 C3.29842932,3 5.43369704,4.11537641 5.87744384,5 Z" id="Fill-3" fill="#FEFEFE"></path>
                    <path d="M3.29842932,3 C3.29842932,3 5.43369704,4.11537641 5.87744384,5 L7.53926702,5 C7.40140697,4.70228194 6.60941505,3.38202886 3.29842932,3 Z" id="Stroke-4" stroke="#1F2740" stroke-width="0.5" stroke-linecap="round" stroke-linejoin="round"></path>
                    <path d="M22.460733,5 L20.4285045,5 L20.4285045,3.70426369 L17.5814941,3.70426369 L17.5814941,5 L15.5497382,5 L15.5497382,1.19858905 C15.5497382,0.873936402 15.6836447,0.615392744 15.952088,0.423820373 C16.2143872,0.236559458 16.5886954,0.142857143 17.0759576,0.142857143 L20.9438083,0.142857143 C21.4310705,0.142857143 21.8053787,0.236559458 22.0672053,0.423820373 C22.3298197,0.610793857 22.460733,0.869050085 22.460733,1.19858905 L22.460733,5 Z" id="Fill-1" fill="#FEFEFE"></path>
                    <path d="M29.6752138,0.386598134 C29.4718518,0.23828404 29.1593953,0.158378385 28.739249,0.145587732 L28.7470526,0.14415058 L28.6688604,0.14415058 C28.6515364,0.143863149 28.6356171,0.142857143 28.6179809,0.142857143 L25.0339395,0.142857143 L25.0315984,0.14415058 L24.9154807,0.14415058 C24.4330616,0.14415058 24.0617659,0.237565464 23.8020618,0.424395234 C23.5426699,0.611656149 23.411101,0.86200804 23.4042339,1.17545091 L23.4036096,1.17573834 L23.4036096,1.18737927 C23.4036096,1.19169072 23.4031414,1.19571475 23.4031414,1.19988249 L23.4036096,1.19988249 L23.4036096,5 L25.4172528,5 L25.4172528,3.73142587 L28.6735426,3.73142587 C29.5578475,3.73142587 30,3.40404262 30,2.74927614 L30,1.19140329 C30,0.817456325 29.8916859,0.548996318 29.6752138,0.386598134 L29.6752138,0.386598134 Z" id="Combined-Shape" fill="#FEFEFE"></path>
                    <path d="M12.9784559,0.143000854 L12.9784559,0.142857143 L12.6771829,0.142857143 L12.6771829,2.96807081 C12.6632756,2.99724413 12.6345234,3.02066902 12.5735813,3.01060925 C12.5735813,3.01060925 12.5338908,3.00299257 12.5062324,2.97482522 C12.165269,2.49138157 10.8551693,0.834969102 10.4359186,0.306543921 C10.4345122,0.304531967 10.4326371,0.303525991 10.430762,0.30194517 L10.4324808,0.301657748 C10.4257616,0.295334466 10.4184173,0.289442317 10.4113855,0.283406457 C10.408104,0.280532238 10.4048225,0.276939464 10.4010722,0.274352667 C10.2941891,0.186688984 10.1544909,0.143000854 9.96838301,0.143000854 L8.34013408,0.143000854 C8.13511848,0.143000854 7.9771377,0.196030196 7.86712933,0.302376303 C7.75665217,0.408434988 7.70149172,0.551139966 7.69867901,0.728910417 L7.69633508,0.730347527 L7.69633508,5 L9.60038625,5 C9.60038625,5 9.59007297,2.74402543 9.58507259,2.07921855 C9.59304194,2.03639269 9.62788834,1.97186647 9.77258686,1.98724354 C9.77258686,1.98724354 9.82930992,1.99184229 9.85306173,2.02963827 C10.2210585,2.57071002 12.6287417,5 12.6287417,5 L14.6073298,5 L14.6073298,0.143000854 L12.9784559,0.143000854 Z" id="Fill-4" fill="#FEFEFE"></path>
                    <rect id="Rectangle" fill="#1F2740" x="17.591623" y="1.28571429" width="2.82722513" height="1.5"></rect>
                    <rect id="Rectangle" fill="#1F2740" x="25.3979053" y="1.39999989" width="2.59162304" height="1.25714275"></rect>
                </g>
            </g>
        </g>
    </g>
</svg>