<?xml version="1.0" encoding="UTF-8"?>
<svg width="28px" height="28px" viewBox="0 0 28 28" version="1.1" xmlns="http://www.w3.org/2000/svg" xmlns:xlink="http://www.w3.org/1999/xlink">
    <!-- Generator: Sketch 46.2 (44496) - http://www.bohemiancoding.com/sketch -->
    <title>genius_usb</title>
    <desc>Created with Sketch.</desc>
    <defs></defs>
    <g id="slice" stroke="none" stroke-width="1" fill="none" fill-rule="evenodd">
        <g id="genius_usb" fill="#FFFFFF">
            <g id="Page-1" transform="translate(4.000000, 7.000000)">
                <path d="M14.2421538,10.0913846 L10.496,10.0913846 L10.496,11.0813846 L8.61830769,11.0813846 L8.61830769,8.11292308 L16.1183077,8.11292308 L16.1183077,10.0913846 L19.8721538,7.12369231 L16.1183077,4.15523077 L16.1183077,6.13446154 L8.61830769,6.13446154 L8.61830769,3.166 L10.5883077,3.166 C10.8998462,3.876 11.5975385,4.33907692 12.3721538,4.35292308 C13.5752308,4.28523077 14.4944615,3.256 14.426,2.05369231 C14.3636923,0.946 13.4798462,0.0621538462 12.3721538,-0.000153846154 C11.5975385,0.0136923077 10.8998462,0.476769231 10.5883077,1.18676923 L8.61830769,1.18676923 C7.55753846,1.22061538 6.72292308,2.10446154 6.74984615,3.166 L6.74984615,6.13446154 L3.84138462,6.13446154 C3.50984615,5.44138462 2.82446154,4.98523077 2.05676923,4.94676923 C0.855230769,5.01446154 -0.0647692308,6.04446154 0.00369230769,7.246 C0.066,8.35369231 0.949846154,9.23753846 2.05676923,9.29984615 C2.84061538,9.31215385 3.55061538,8.84061538 3.84138462,8.11292308 L6.74984615,8.11292308 L6.74984615,11.0813846 C6.72292308,12.1429231 7.55753846,13.0267692 8.61830769,13.0598462 L10.496,13.0598462 L10.496,14.0490769 L14.2421538,14.0490769 L14.2421538,10.0913846 Z" id="Fill-1"></path>
            </g>
        </g>
    </g>
</svg>