<?xml version="1.0" encoding="UTF-8"?>
<svg width="200px" height="150px" viewBox="0 0 200 150" version="1.1" xmlns="http://www.w3.org/2000/svg" xmlns:xlink="http://www.w3.org/1999/xlink">
    <!-- Generator: Sketch 46.2 (44496) - http://www.bohemiancoding.com/sketch -->
    <title>genius_pic_hdplayer</title>
    <desc>Created with Sketch.</desc>
    <defs>
        <linearGradient x1="100%" y1="55.7821333%" x2="-13.5132396%" y2="55.7821305%" id="linearGradient-1">
            <stop stop-color="#FFFFFF" stop-opacity="0" offset="0%"></stop>
            <stop stop-color="#FFFFFF" stop-opacity="0.2" offset="100%"></stop>
        </linearGradient>
        <linearGradient x1="94.9182965%" y1="55.7821333%" x2="-13.5132396%" y2="55.7821305%" id="linearGradient-2">
            <stop stop-color="#FFFFFF" stop-opacity="0" offset="0%"></stop>
            <stop stop-color="#FFFFFF" stop-opacity="0.2" offset="100%"></stop>
        </linearGradient>
        <linearGradient x1="5.08726464%" y1="0%" x2="100%" y2="100%" id="linearGradient-3">
            <stop stop-color="#A531B1" offset="0%"></stop>
            <stop stop-color="#F83E85" offset="100%"></stop>
        </linearGradient>
        <rect id="path-4" x="1" y="1" width="79.6942675" height="79.3333333" rx="23.3766234"></rect>
        <linearGradient x1="93.932939%" y1="30.5459505%" x2="27.2851696%" y2="100%" id="linearGradient-6">
            <stop stop-color="#1F4CE8" offset="0%"></stop>
            <stop stop-color="#23AFE5" offset="100%"></stop>
        </linearGradient>
        <linearGradient x1="31.086802%" y1="5.83932284%" x2="100%" y2="100%" id="linearGradient-7">
            <stop stop-color="#68AA0C" offset="0%"></stop>
            <stop stop-color="#8CB60C" offset="44.8146177%"></stop>
            <stop stop-color="#ACC000" offset="100%"></stop>
        </linearGradient>
        <linearGradient x1="61.1772517%" y1="10.5312888%" x2="80.0419982%" y2="95.5254333%" id="linearGradient-8">
            <stop stop-color="#F1C502" offset="0%"></stop>
            <stop stop-color="#F2BF00" offset="59.2694989%"></stop>
            <stop stop-color="#FB6108" offset="100%"></stop>
        </linearGradient>
        <linearGradient x1="93.932939%" y1="30.5459505%" x2="27.2851696%" y2="100%" id="linearGradient-9">
            <stop stop-color="#23ABE5" offset="0%"></stop>
            <stop stop-color="#23AFE5" offset="100%"></stop>
        </linearGradient>
    </defs>
    <g id="slice" stroke="none" stroke-width="1" fill="none" fill-rule="evenodd">
        <g id="genius_pic_hdplayer">
            <g id="Group" transform="translate(8.000000, 8.000000)">
                <g id="Group-12" transform="translate(50.980892, 0.000000)" fill="url(#linearGradient-1)">
                    <rect id="Rectangle-11" x="0" y="0" width="79.6942675" height="29.75"></rect>
                    <rect id="Rectangle-11-Copy-3" x="0" y="35.5833333" width="79.6942675" height="29.75"></rect>
                </g>
                <g id="Group-11" transform="translate(98.445860, 53.666667)" fill="url(#linearGradient-2)">
                    <rect id="Rectangle-11-Copy" x="0" y="74.0833333" width="85.5541401" height="5.25"></rect>
                    <rect id="Rectangle-11-Copy-2" x="0" y="64.1666667" width="85.5541401" height="5.25"></rect>
                    <rect id="Rectangle-11-Copy" x="0" y="0" width="85.5541401" height="60.0833333"></rect>
                </g>
                <g id="Group-8">
                    <rect id="Rectangle-10" fill="url(#linearGradient-3)" x="0" y="0" width="79.6942675" height="79.3333333" rx="23.3766234"></rect>
                    <polygon id="HD" fill="#FFFFFF" opacity="0.5" points="15.9388535 48.382487 15.9388535 19.8333333 21.873119 19.8333333 21.873119 30.7184245 33.0801254 30.7184245 33.0801254 19.8333333 39.0338475 19.8333333 39.0338475 48.382487 33.0801254 48.382487 33.0801254 35.6380208 21.873119 35.6380208 21.873119 48.382487"></polygon>
                    <path d="M55.7894462,31.0309028 C57.7999725,31.6894347 59.4278257,32.8967252 60.6730549,34.6528103 C61.6718324,36.0731733 62.3528069,37.6097248 62.7159988,39.2625109 C63.0791906,40.9152969 63.2607838,42.490585 63.2607838,43.9884223 C63.2607838,47.7846652 62.4954982,50.9998024 60.964904,53.6339301 C58.8895221,57.1848376 55.6856993,58.9602648 51.3533395,58.9602648 L38.9983933,58.9602648 L38.9983933,30.4111111 L51.3533395,30.4111111 C53.1303853,30.4369359 54.6090727,30.643531 55.7894462,31.0309028 Z M44.8159191,35.3694444 L44.8159191,54.0019314 L50.3415959,54.0019314 C53.1693038,54.0019314 55.140887,52.6138702 56.2564048,49.8377062 C56.8660483,48.314044 57.1708654,46.4998803 57.1708654,44.3951606 C57.1708654,41.4898726 56.7136397,39.2592905 55.7991745,37.7033474 C54.8847094,36.1474043 53.0655347,35.3694444 50.3415959,35.3694444 L44.8159191,35.3694444 Z" id="Combined-Shape" fill="#FFFFFF"></path>
                </g>
                <g id="Group-8-Copy" transform="translate(54.668790, 52.666667)">
                    <mask id="mask-5" fill="white">
                        <use xlink:href="#path-4"></use>
                    </mask>
                    <use id="Mask" fill="#C9D2E3" xlink:href="#path-4"></use>
                    <g id="Group-9" transform="translate(0.203822, 0.166667)">
                        <path d="M80.4904459,24.6228012 L80.4904655,24.6227958 C68.1065979,28.0290131 53.4379426,30 37.7133758,30 C24.4025511,30 11.8483503,28.5876697 0.796178344,26.0879833 L0.796178344,24.2099567 C0.796178344,11.2994041 11.2622491,0.833333333 24.1728017,0.833333333 L57.1138225,0.833333333 C70.0243751,0.833333333 80.4904459,11.2994041 80.4904459,24.2099567 L80.4904459,24.6228012 Z" id="Combined-Shape" fill="#FFFFFF"></path>
                        <path d="M24.9053856,25.5204034 C37.4430561,12.1806501 44.5862208,7.86775828 49.4761317,9.24411547 C56.9723226,11.3540591 60.098012,23.1740117 62.5152484,35.139647 C64.7333798,46.1196866 66.7021806,55.5555965 65.5425526,60.0634194 C63.1192055,69.4836985 48.6187533,65.7738111 33.0528276,61.1306447 C17.4869019,56.4874783 1.51945173,52.6089276 12.7939841,38.9701643 L24.9053856,25.5204034 Z" id="Path-8-Copy-3" fill="#FFFFFF"></path>
                        <path d="M62.5039515,35.1903263 C64.7220829,46.1703659 66.6908837,55.6062757 65.5312557,60.1140986 C63.1079085,69.5343778 48.6074564,65.8244903 33.0415307,61.181324 C30.0992418,60.3036674 27.1426069,59.4533298 24.3583173,58.5592314 C36.3915627,55.5622622 44.5788757,52.5377211 48.9202564,49.4856079 C53.261637,46.4334948 57.7895354,41.6684009 62.5039515,35.1903263 Z" id="b" fill="url(#linearGradient-6)"></path>
                        <path d="M45.7457049,30.5702856 C39.3332906,25.9186325 32.3822397,24.2353385 24.8925522,25.5204034 C37.4302227,12.1806501 44.5733874,7.86775828 49.4632983,9.24411547 C56.9594893,11.3540591 60.0851786,23.1740117 62.502415,35.139647 C63.0706328,37.9523992 63.8316963,41.8795375 64.7856054,46.9210618 C55.7417175,38.6678537 49.395084,33.217595 45.7457049,30.5702856 Z" id="g" fill="url(#linearGradient-7)"></path>
                        <path d="M33.0528276,61.1692066 C17.4869019,56.5260402 1.51945173,52.6474895 12.7939841,39.0087262 L24.9053856,25.5589653 C27.3734526,22.9330066 29.6324784,20.6568457 31.706425,18.7050225 C30.1986159,34.494734 29.5180915,44.7039279 29.664852,49.3326042 C29.8116124,53.9612805 30.9409376,57.9068146 33.0528276,61.1692066 Z" id="o" fill="url(#linearGradient-8)"></path>
                        <path d="M30.9802923,56.7923308 C31.5160955,58.3619235 32.2001875,59.8311004 33.0671896,61.1704223 C30.1306474,60.29448 27.004322,59.392826 24.2247993,58.5006442 C26.5569664,57.9195083 28.9373332,57.3755401 30.9802923,56.7923308 Z" id="Combined-Shape" fill="url(#linearGradient-9)"></path>
                    </g>
                </g>
            </g>
        </g>
    </g>
</svg>