<?xml version="1.0" encoding="UTF-8"?>
<svg width="30px" height="30px" viewBox="0 0 30 30" version="1.1" xmlns="http://www.w3.org/2000/svg" xmlns:xlink="http://www.w3.org/1999/xlink">
    <!-- Generator: Sketch 46.2 (44496) - http://www.bohemiancoding.com/sketch -->
    <title>type_genis_0</title>
    <desc>Created with Sketch.</desc>
    <defs></defs>
    <g id="slice" stroke="none" stroke-width="1" fill="none" fill-rule="evenodd">
        <g id="type_genis_0">
            <g id="Group-2">
                <g id="Group" transform="translate(18.500000, 18.502136) rotate(-45.000000) translate(-18.500000, -18.502136) translate(11.000000, 6.002136)">
                    <path d="M7.90011604,13.7582248 L7.90011604,13.7582248 L7.90011604,13.7582248 C8.42240536,13.7582248 8.85659419,14.1604374 8.89647087,14.6812022 L9.49709333,22.5249618 L9.49709333,22.5249618 C9.56349772,23.3921623 8.91432423,24.1489986 8.04712374,24.215403 C8.00711834,24.2184663 7.96701047,24.2199997 7.92688795,24.2199997 L7.92688795,24.2199997 L7.92688795,24.2199997 C7.05269822,24.2199997 6.34402742,23.5113289 6.34402742,22.6371391 C6.34402742,22.5994979 6.34537011,22.5618686 6.34805294,22.5243231 L6.90846021,14.68155 L6.90846021,14.68155 C6.94563486,14.1612991 7.37853871,13.7582248 7.90011604,13.7582248 Z" id="Rectangle" fill="#FFFFFF" transform="translate(7.922897, 18.989112) rotate(-360.000000) translate(-7.922897, -18.989112) "></path>
                    <path d="M7.83252404,13.3218072 L4.78031872,14.9500441 C3.94219033,15.3971541 2.90029874,15.0801711 2.45318872,14.2420427 C2.27414294,13.9064132 2.21141171,13.5208971 2.27481066,13.1458169 L2.86373075,9.66165423 L0.361994102,7.18720207 C-0.313380475,6.51919328 -0.319351622,5.43016589 0.348657172,4.75479131 C0.610774353,4.4897839 0.951885342,4.31709613 1.32063751,4.26272532 L4.756247,3.75616052 L6.28577302,0.611426447 C6.70125903,-0.242820556 7.73058101,-0.598506616 8.58482801,-0.183020605 C8.93110613,-0.0145989261 9.21085339,0.265148329 9.37927506,0.611426447 L10.9088011,3.75616052 L14.3444106,4.26272532 C15.2841799,4.40128998 15.9336846,5.27545241 15.79512,6.21522174 C15.7407492,6.5839739 15.5680614,6.92508489 15.303054,7.18720207 L12.8013173,9.66165423 L13.3902374,13.1458169 C13.5485562,14.0824608 12.9175991,14.9701034 11.9809552,15.1284222 C11.605875,15.1918211 11.2203589,15.1290899 10.8847294,14.9500441 L7.83252404,13.3218072 Z" id="Star" stroke="#FFFFFF" stroke-width="2" stroke-linejoin="bevel"></path>
                </g>
                <path d="M6.69148632,4.40817288 L6.69148632,6.40817288 M12.2148957,6.41852951 L10.9293205,7.95061839 M1.16807689,6.41852951 L2.45365211,7.95061839" id="Path-2" stroke="#FFFFFF" stroke-width="1.5" stroke-linecap="round" stroke-linejoin="round" transform="translate(6.691486, 6.661486) rotate(-45.000000) translate(-6.691486, -6.661486) "></path>
            </g>
        </g>
    </g>
</svg>