<?xml version="1.0" encoding="UTF-8"?>
<svg width="34px" height="34px" viewBox="0 0 34 34" version="1.1" xmlns="http://www.w3.org/2000/svg" xmlns:xlink="http://www.w3.org/1999/xlink">
    <!-- Generator: Sketch 42 (36781) - http://www.bohemiancoding.com/sketch -->
    <title>amazon_drive</title>
    <desc>Created with Sketch.</desc>
    <defs>
        <polygon id="path-1" points="29.9999976 3.69555653e-05 0 3.69555653e-05 0 27.9966728 29.9999976 27.9966728 29.9999976 3.69555653e-05"></polygon>
    </defs>
    <g id="Page-1" stroke="none" stroke-width="1" fill="none" fill-rule="evenodd">
        <g id="amazon_drive">
            <g id="Page-1" transform="translate(2.000000, 3.000000)">
                <mask id="mask-2" fill="white">
                    <use xlink:href="#path-1"></use>
                </mask>
                <g id="Clip-2"></g>
                <path d="M24.4090896,22.2013749 C24.4454376,22.1267 24.4999896,22.0520621 24.5727336,21.9773872 C25.0272576,21.6601114 25.4636136,21.4454612 25.8818256,21.3334735 C26.5727256,21.1468232 27.2454456,21.0441853 27.8999976,21.0255104 C28.0818096,21.0068355 28.2545496,21.0161853 28.4181816,21.0534981 C29.2363536,21.128173 29.7272736,21.2681607 29.8909056,21.4734488 C29.9636136,21.5854488 29.9999976,21.7534242 29.9999976,21.9773872 L29.9999976,22.1733749 C29.9999976,22.8266261 29.8272576,23.5965337 29.4818256,24.4830978 C29.1363456,25.3696618 28.6545216,26.0835694 28.0363536,26.6248452 C27.9454296,26.6994955 27.8636136,26.7368329 27.7909056,26.7368329 C27.7545216,26.7368329 27.7181736,26.7275078 27.6818256,26.7088206 C27.5727336,26.6528329 27.5454456,26.5501703 27.5999976,26.4008575 C28.2727176,24.777067 28.6090896,23.6478773 28.6090896,23.0132641 C28.6090896,22.8079759 28.5727176,22.6586385 28.4999976,22.5653256 C28.3181736,22.3413503 27.8090736,22.2293626 26.9727336,22.2293626 C26.6636136,22.2293626 26.2999896,22.2480375 25.8818256,22.2853503 C25.4272656,22.3413503 25.0090896,22.397338 24.6272736,22.453338 C24.5181816,22.453338 24.4454376,22.4346631 24.4090896,22.397338 C24.3727176,22.3600252 24.3636336,22.3226877 24.3818256,22.2853503 C24.3818256,22.2666877 24.3908976,22.2386877 24.4090896,22.2013749 M12.9545496,13.1864466 C12.9545496,13.9143604 13.1318256,14.4976178 13.4863656,14.9362434 C13.8409056,15.374869 14.3181816,15.5941633 14.9181816,15.5941633 C14.9727216,15.5941633 15.0499896,15.5848382 15.1499976,15.5661633 C15.2499816,15.5475007 15.3181656,15.5381756 15.3545496,15.5381756 C16.1181816,15.3328751 16.7090736,14.8289367 17.1272736,14.0263481 C17.3272656,13.6717225 17.4772656,13.2844405 17.5772736,12.8644897 C17.6772576,12.444539 17.7318096,12.1039073 17.7409056,11.8426068 C17.7499896,11.5813186 17.7545496,11.1520181 17.7545496,10.5547669 L17.7545496,9.85485315 C16.6999896,9.85485315 15.8999976,9.92951571 15.3545496,10.0788285 C13.7545416,10.5454418 12.9545496,11.5813186 12.9545496,13.1864466 M8.2636296,13.746385 C8.2636296,12.4585329 8.5727136,11.3573432 9.1909056,10.4427792 C9.8090736,9.52821522 10.6545336,8.83765121 11.7272736,8.3710256 C12.7090896,7.94174976 13.9181736,7.63378671 15.3545496,7.44713647 C15.8454456,7.39114879 16.6454376,7.31648623 17.7545496,7.22316111 L17.7545496,6.7472227 C17.7545496,5.55268333 17.6272656,4.75013163 17.3727336,4.33951835 C16.9909056,3.77957994 16.3909056,3.49961689 15.5727336,3.49961689 L15.3545496,3.49961689 C14.7545496,3.55560458 14.2363656,3.75157994 13.7999976,4.08754298 C13.3636296,4.42350603 13.0817976,4.89011931 12.9545496,5.48737052 C12.8818056,5.86064637 12.6999816,6.07530893 12.4090896,6.13129661 L9.2727216,5.73934589 C8.9636136,5.66468333 8.8090896,5.49669564 8.8090896,5.23540748 C8.8090896,5.17940748 8.8181736,5.11409468 8.8363656,5.03943212 C9.1454496,3.37830409 9.9045336,2.14645191 11.1136296,1.34387558 C12.3227136,0.541299252 13.7363376,0.0933485262 15.3545496,3.57237132e-05 L16.0363536,3.57237132e-05 C18.1090896,3.57237132e-05 19.7272656,0.550636692 20.8909056,1.65183863 C21.0734256,1.83932653 21.2420736,2.04053726 21.3954456,2.25375856 C21.5499816,2.4684088 21.6727176,2.65971544 21.7636416,2.82769081 C21.8545296,2.99567849 21.9363456,3.23831641 22.0090896,3.55560458 C22.0818096,3.87289274 22.1363376,4.0922117 22.1727336,4.21352451 C22.2090816,4.33483731 22.2363456,4.59615011 22.2545496,4.99743828 C22.2727176,5.3987018 22.2818256,5.63668333 22.2818256,5.71134589 L22.2818256,12.4865329 C22.2818256,12.9717964 22.3499976,13.415103 22.4863536,13.8163789 C22.6227336,14.2176547 22.7545296,14.5069675 22.8818256,14.684268 C23.0090736,14.8615685 23.2181736,15.1462126 23.5090896,15.5381756 C23.6181816,15.706151 23.6727336,15.8554638 23.6727336,15.986114 C23.6727336,16.1354145 23.5999896,16.2660894 23.4545496,16.3780648 C21.9454296,17.7219046 21.1272576,18.4498184 20.9999976,18.5618061 C20.7818256,18.7297938 20.5181736,18.7484563 20.2090896,18.6178061 C19.9545216,18.3938184 19.7318256,18.1791681 19.5409056,17.9738677 C19.3499976,17.7685672 19.2136416,17.6192421 19.1318256,17.5259293 C19.0499976,17.4326165 18.9181656,17.2506349 18.7363536,16.979997 C18.5545296,16.7093468 18.4272576,16.5273776 18.3545496,16.4340524 C17.3363376,17.5726041 16.3363536,18.2818307 15.3545496,18.5618061 C14.7363576,18.7484563 13.9727136,18.8417691 13.0636296,18.8417691 C11.6636136,18.8417691 10.5136296,18.3984994 9.6136296,17.5119231 C8.7136296,16.6253714 8.2636296,15.3701879 8.2636296,13.746385 M0.0545496,21.7254242 C0.1454496,21.5761237 0.2908896,21.5667616 0.4909056,21.6974365 C5.0363376,24.4037788 9.9818256,25.7569438 15.3272736,25.7569438 C18.8908896,25.7569438 22.4090736,25.0757049 25.8818256,23.7131901 C25.9727256,23.675865 26.1045216,23.619865 26.2772736,23.5452148 C26.4499896,23.4705399 26.5727256,23.4145399 26.6454456,23.3772271 C26.9181816,23.2652394 27.1318176,23.3212271 27.2863536,23.5452148 C27.4408896,23.7691778 27.3908976,23.9744783 27.1363536,24.1611409 C26.8090896,24.4037788 26.3908896,24.6837542 25.8818256,25.00103 C24.3181656,25.9529191 22.5727176,26.690158 20.6454456,27.212759 C18.7181736,27.7353846 16.8363456,27.9966728 14.9999976,27.9966728 C12.1636296,27.9966728 9.4817976,27.4880533 6.9545496,26.4708637 C4.4272656,25.4536618 2.1636216,24.0211532 0.1636296,22.1733749 C0.0545496,22.0800498 -2.4e-06,21.9867124 -2.4e-06,21.8934119 C-2.4e-06,21.8374119 0.0181656,21.7814119 0.0545496,21.7254242" id="Fill-1" fill="#000000" mask="url(#mask-2)"></path>
            </g>
        </g>
    </g>
</svg>