<?xml version="1.0" encoding="UTF-8"?>
<svg width="34px" height="34px" viewBox="0 0 34 34" version="1.1" xmlns="http://www.w3.org/2000/svg" xmlns:xlink="http://www.w3.org/1999/xlink">
    <!-- Generator: Sketch 42 (36781) - http://www.bohemiancoding.com/sketch -->
    <title>box</title>
    <desc>Created with Sketch.</desc>
    <defs>
        <polygon id="path-1" points="29.9999988 30 0 30 0 4.79999994e-06 29.9999988 4.79999995e-06 29.9999988 30"></polygon>
    </defs>
    <g id="Page-1" stroke="none" stroke-width="1" fill="none" fill-rule="evenodd">
        <g id="box">
            <g id="Page-1" transform="translate(2.000000, 2.000000)">
                <g id="Group-3">
                    <rect id="Rectangle-20" fill="#00AEEF" x="0" y="0" width="30" height="30"></rect>
                    <mask id="mask-2" fill="white">
                        <use xlink:href="#path-1"></use>
                    </mask>
                    <g id="Clip-2"></g>
                </g>
                <path d="M15.3539064,19.1558244 C14.0022624,19.1558244 12.9063264,18.0608244 12.9063264,16.7091804 C12.9063264,15.3588324 14.0022624,14.2640604 15.3539064,14.2640604 C16.7049624,14.2640604 17.8003104,15.3588324 17.8003104,16.7091804 C17.8003104,18.0608244 16.7049624,19.1558244 15.3539064,19.1558244 M8.1472224,19.1558244 C6.7959384,19.1558244 5.6991744,18.0611724 5.6991744,16.7097684 C5.6991744,15.3588324 6.7959384,14.2640604 8.1472224,14.2640604 C9.4983984,14.2640604 10.5928104,15.3588324 10.5928104,16.7091804 C10.5928104,18.0608244 9.4983984,19.1558244 8.1472224,19.1558244 M15.3539064,12.6311724 C13.7930904,12.6311724 12.4348824,13.5091404 11.7508584,14.7980844 C11.0666064,13.5091404 9.7091064,12.6311724 8.1472224,12.6311724 C7.2643104,12.6302364 6.4050504,12.9165564 5.6991744,13.4469084 L5.6991744,10.0106244 C5.6909904,9.5661804 5.3279544,9.2103924 4.8834384,9.2111724 C4.4378904,9.2111724 4.0792944,9.5666004 4.0691064,10.0106244 L4.0691064,16.7772684 L4.0699224,16.7772684 C4.1058984,18.9990324 5.9164464,20.7888324 8.1472224,20.7888324 C9.7091064,20.7888324 11.0666064,19.9100484 11.7508584,18.6223884 C12.4348824,19.9100484 13.7930904,20.7888324 15.3539064,20.7888324 C17.6057784,20.7888324 19.4325024,18.9628164 19.4325024,16.7091804 C19.4325024,14.4567204 17.6057784,12.6311724 15.3539064,12.6311724" id="Fill-4" fill="#FFFFFF"></path>
                <path d="M25.7613276,19.4232468 L23.5443756,16.7039148 L25.7640276,13.9792908 C26.0446836,13.6198788 25.9641756,13.1179668 25.5767556,12.8513628 C25.1888676,12.5824188 24.6446436,12.6513228 24.3445356,13.0000788 L24.3445356,12.9996108 L22.4348436,15.3400788 L20.5269156,12.9996108 L20.5269156,13.0000788 C20.2298436,12.6513228 19.6822236,12.5824188 19.2955116,12.8513628 C18.9087876,13.1182068 18.8279316,13.6198788 19.1100036,13.9792908 L19.1091756,13.9792908 L21.3249636,16.7039148 L19.1091756,19.4232468 L19.1100036,19.4232468 C18.8279316,19.7838348 18.9087876,20.2841028 19.2955116,20.5518828 C19.6822236,20.8196508 20.2298436,20.7514548 20.5269156,20.4022308 L22.4348436,18.0650388 L24.3418356,20.4022308 C24.6423036,20.7514548 25.1862876,20.8196508 25.5741756,20.5518828 C25.9617156,20.2841028 26.0425716,19.7838348 25.7613276,19.4232468" id="Fill-6" fill="#FFFFFF"></path>
            </g>
        </g>
    </g>
</svg>