<?xml version="1.0" encoding="UTF-8"?>
<svg width="34px" height="34px" viewBox="0 0 34 34" version="1.1" xmlns="http://www.w3.org/2000/svg" xmlns:xlink="http://www.w3.org/1999/xlink">
    <!-- Generator: Sketch 43.2 (39069) - http://www.bohemiancoding.com/sketch -->
    <title>device_mobile</title>
    <desc>Created with Sketch.</desc>
    <defs>
        <path d="M0,2.19711304 C0,0.983681013 0.993397683,0 2.20715332,0 L15.7928467,0 C17.0118238,0 18,0.980116986 18,2.19711304 L18,25.802887 C18,27.016319 17.0066023,28 15.7928467,28 L2.20715332,28 C0.988176201,28 0,27.019883 0,25.802887 L0,2.19711304 Z M2.25,5.71093872 L2.25,21.3930066 C2.25,21.7144826 2.494424,21.9519727 2.79593629,21.9519727 L15.2040637,21.9519727 C15.504158,21.9519727 15.75,21.701715 15.75,21.3930066 L15.75,5.71093872 C15.75,5.38946274 15.505576,5.15197266 15.2040637,5.15197266 L2.79593629,5.15197266 C2.49584196,5.15197266 2.25,5.40223029 2.25,5.71093872 Z M6.1875,2.47706924 C6.1875,2.77910056 6.42919922,3.02394531 6.74741113,3.02394531 L11.2525889,3.02394531 C11.5618192,3.02394531 11.8125,2.78642212 11.8125,2.47706924 L11.8125,2.45082138 C11.8125,2.14879007 11.5708008,1.90394531 11.2525889,1.90394531 L6.74741113,1.90394531 C6.43818075,1.90394531 6.1875,2.14146851 6.1875,2.45082138 L6.1875,2.47706924 Z M9.05623627,26.4399994 C9.8328867,26.4399994 10.4624863,25.813198 10.4624863,25.0399994 C10.4624863,24.2668007 9.8328867,23.6399994 9.05623627,23.6399994 C8.27958584,23.6399994 7.64998627,24.2668007 7.64998627,25.0399994 C7.64998627,25.813198 8.27958584,26.4399994 9.05623627,26.4399994 Z" id="path-1"></path>
    </defs>
    <g id="Page-1" stroke="none" stroke-width="1" fill="none" fill-rule="evenodd">
        <g id="device_mobile">
            <g id="Group-2" transform="translate(8.000000, 3.000000)">
                <g id="Combined-Shape">
                    <use fill="#2A8BAB" fill-rule="evenodd" xlink:href="#path-1"></use>
                    <path stroke="#2A8BAB" stroke-width="1.1" d="M0.55,2.19711304 C0.55,1.28999483 1.29459118,0.55 2.20715332,0.55 L15.7928467,0.55 C16.7100023,0.55 17.45,1.28580609 17.45,2.19711304 L17.45,25.802887 C17.45,26.7100052 16.7054088,27.45 15.7928467,27.45 L2.20715332,27.45 C1.2899977,27.45 0.55,26.7141939 0.55,25.802887 L0.55,2.19711304 Z M1.7,5.71093872 L1.7,21.3930066 C1.7,22.0128877 2.18534162,22.5019727 2.79593629,22.5019727 L15.2040637,22.5019727 C15.8111196,22.5019727 16.3,22.0023206 16.3,21.3930066 L16.3,5.71093872 C16.3,5.0910576 15.8146584,4.60197266 15.2040637,4.60197266 L2.79593629,4.60197266 C2.18888043,4.60197266 1.7,5.10162471 1.7,5.71093872 Z M5.6375,2.47706924 C5.6375,3.08745968 6.13006241,3.57394531 6.74741113,3.57394531 L11.2525889,3.57394531 C11.8642198,3.57394531 12.3625,3.09176607 12.3625,2.47706924 L12.3625,2.45082138 C12.3625,1.84043094 11.8699376,1.35394531 11.2525889,1.35394531 L6.74741113,1.35394531 C6.13578015,1.35394531 5.6375,1.83612456 5.6375,2.45082138 L5.6375,2.47706924 Z M9.05623627,26.9899994 C10.1360962,26.9899994 11.0124863,26.1175044 11.0124863,25.0399994 C11.0124863,23.9624944 10.1360962,23.0899994 9.05623627,23.0899994 C7.9763763,23.0899994 7.09998627,23.9624944 7.09998627,25.0399994 C7.09998627,26.1175044 7.9763763,26.9899994 9.05623627,26.9899994 Z"></path>
                </g>
            </g>
        </g>
    </g>
</svg>