<?xml version="1.0" encoding="UTF-8"?>
<svg width="34px" height="34px" viewBox="0 0 34 34" version="1.1" xmlns="http://www.w3.org/2000/svg" xmlns:xlink="http://www.w3.org/1999/xlink">
    <!-- Generator: Sketch 43.2 (39069) - http://www.bohemiancoding.com/sketch -->
    <title>device_usb</title>
    <desc>Created with Sketch.</desc>
    <defs></defs>
    <g id="Page-1" stroke="none" stroke-width="1" fill="none" fill-rule="evenodd">
        <g id="device_usb" stroke="#2A8BAB" fill-rule="nonzero" fill="#2A8BAB">
            <path d="M30.1388957,17.2505795 L27.1950611,15.5505366 L27.1950611,16.7632644 L12.1483055,16.7632644 L15.0780789,13.6679345 C15.3274138,13.4680783 15.6536437,13.3278789 15.989228,13.3201129 C17.346803,13.3201129 18.1529937,13.3197599 18.4497481,13.3191716 C18.6508987,13.8922654 19.1912224,14.3059213 19.8335627,14.3059213 C20.6461663,14.3059213 21.3056271,13.6465193 21.3056271,12.8336216 C21.3056271,12.0203709 20.6462251,11.3612042 19.8335627,11.3612042 C19.1912224,11.3612042 18.6508987,11.7746248 18.4497481,12.3472479 L16.0180562,12.3468361 C15.3590072,12.3468361 14.6684237,12.7084246 14.2288812,13.1323175 C14.2188795,13.1430251 11.1197843,16.4162665 11.1197843,16.4162665 C10.8709789,16.6158286 10.5449256,16.7551455 10.2095766,16.7631468 L8.50741576,16.7631468 C8.28179062,15.6386687 7.28880464,14.7914713 6.09766861,14.7914713 C4.73962291,14.7914713 3.63879577,15.8922984 3.63879577,17.2499323 C3.63879577,18.607978 4.73962291,19.708864 6.09766861,19.708864 C7.28903998,19.708864 8.28202595,18.8609605 8.5076511,17.7355411 L10.1799835,17.7355411 L13.891826,17.7355411 C14.2265278,17.7440719 14.5521693,17.8835654 14.8007394,18.0833627 C14.8007394,18.0833627 17.8991286,21.3563688 17.9087184,21.3669587 C18.3484963,21.7910281 19.039374,22.1523813 19.6985407,22.1523813 L22.0419828,22.1518518 L22.0419828,23.1388957 L24.9865822,23.1388957 L24.9865822,20.1945905 L22.0419828,20.1945905 L22.0419828,21.18034 C22.0419828,21.18034 21.4247642,21.1792221 19.6698301,21.1792221 C19.3341869,21.171515 19.0076041,21.0314921 18.7583869,20.8316359 L15.8279663,17.7357176 L27.1950611,17.7357176 L27.1950611,18.9503869 L30.1388957,17.2505795 Z" id="path1334" transform="translate(16.888846, 17.250050) rotate(-90.000000) translate(-16.888846, -17.250050) "></path>
        </g>
    </g>
</svg>