<?xml version="1.0" encoding="UTF-8"?>
<svg width="34px" height="34px" viewBox="0 0 34 34" version="1.1" xmlns="http://www.w3.org/2000/svg" xmlns:xlink="http://www.w3.org/1999/xlink">
    <!-- Generator: Sketch 43.2 (39069) - http://www.bohemiancoding.com/sketch -->
    <title>device_nas</title>
    <desc>Created with Sketch.</desc>
    <defs></defs>
    <g id="Page-1" stroke="none" stroke-width="1" fill="none" fill-rule="evenodd">
        <g id="device_nas" fill="#2A8BAB">
            <path d="M28.3067963,26.6155123 C28.3067963,27.1460385 27.8553278,27.5770082 27.3030994,27.5770082 L12.0208782,27.5770082 C11.4677318,27.5770082 11.0185584,27.1460385 11.0185584,26.6155123 L11.0185584,14.1156229 C11.0185584,13.5866453 11.4677318,13.1536845 12.0208782,13.1536845 L27.3030994,13.1536845 C27.8553278,13.1536845 28.3067963,13.5866453 28.3067963,14.1156229 L28.3067963,26.6155123 Z M6.50685695,17.0600658 C5.64270901,17.0600658 4.94060315,16.3886116 4.94060315,15.5576455 C4.94060315,14.7286705 5.64270901,14.0552252 6.50685695,14.0552252 C7.37238202,14.0552252 8.07425836,14.7286705 8.07425836,15.5576455 C8.07425836,16.3886116 7.37238202,17.0600658 6.50685695,17.0600658 L6.50685695,17.0600658 Z M27.7621421,11.2306926 L6.0078775,11.2306926 C4.34866755,11.2306926 3,12.5255927 3,14.1156229 L3,26.6155123 C3,28.2070911 4.34866755,29.5 6.0078775,29.5 L27.7621421,29.5 C29.421352,29.5 30.7704786,28.2070911 30.7704786,26.6155123 L30.7704786,14.1156229 C30.7704786,12.5255927 29.421352,11.2306926 27.7621421,11.2306926 L27.7621421,11.2306926 Z M19.5895748,17.0001106 C19.0341331,17.0001106 18.5863369,16.5706896 18.5863369,16.0368448 C18.5863369,15.507646 19.0341331,15.0768975 19.5895748,15.0768975 C20.1418032,15.0768975 20.5895994,15.507646 20.5895994,16.0368448 C20.5895994,16.5706896 20.1418032,17.0001106 19.5895748,17.0001106 L19.5895748,17.0001106 Z M20.5895994,14.1156229 L18.5863369,14.1156229 C18.034338,14.1156229 17.5840171,14.5479199 17.5840171,15.0768975 L17.5840171,25.6537951 C17.5840171,26.1843214 18.034338,26.6155123 18.5863369,26.6155123 L20.5895994,26.6155123 C21.144123,26.6155123 21.5932963,26.1843214 21.5932963,25.6537951 L21.5932963,15.0768975 C21.5932963,14.5479199 21.144123,14.1156229 20.5895994,14.1156229 L20.5895994,14.1156229 Z M24.9238809,17.0001106 C24.3686687,17.0001106 23.9224792,16.5706896 23.9224792,16.0368448 C23.9224792,15.507646 24.3686687,15.0768975 24.9238809,15.0768975 C25.4770274,15.0768975 25.9262007,15.507646 25.9262007,16.0368448 C25.9262007,16.5706896 25.4770274,17.0001106 24.9238809,17.0001106 L24.9238809,17.0001106 Z M25.9262007,14.1156229 L23.9224792,14.1156229 C23.3695622,14.1156229 22.9178641,14.5479199 22.9178641,15.0768975 L22.9178641,25.6537951 C22.9178641,26.1843214 23.3695622,26.6155123 23.9224792,26.6155123 L25.9262007,26.6155123 C26.4795767,26.6155123 26.9271434,26.1843214 26.9271434,25.6537951 L26.9271434,15.0768975 C26.9271434,14.5479199 26.4795767,14.1156229 25.9262007,14.1156229 L25.9262007,14.1156229 Z M14.2550392,17.0001106 C13.7021223,17.0001106 13.2513423,16.5706896 13.2513423,16.0368448 C13.2513423,15.507646 13.7021223,15.0768975 14.2550392,15.0768975 C14.8079562,15.0768975 15.257359,15.507646 15.257359,16.0368448 C15.257359,16.5706896 14.8079562,17.0001106 14.2550392,17.0001106 L14.2550392,17.0001106 Z M15.257359,14.1156229 L13.2513423,14.1156229 C12.700491,14.1156229 12.2503996,14.5479199 12.2503996,15.0768975 L12.2503996,25.6537951 C12.2503996,26.1843214 12.700491,26.6155123 13.2513423,26.6155123 L15.257359,26.6155123 C15.8091284,26.6155123 16.2596788,26.1843214 16.2596788,25.6537951 L16.2596788,15.0768975 C16.2596788,14.5479199 15.8091284,14.1156229 15.257359,14.1156229 L15.257359,14.1156229 Z M6.0078775,10.269418 L27.9916635,10.269418 C29.1966506,10.269418 30.2634659,10.7924222 31,11.5990522 L28.9953604,7.38448775 C28.2893527,5.91304059 27.6469224,4.5 25.9881715,4.5 L8.01182855,4.5 C6.35147099,4.5 5.63123294,5.86790825 5.00463961,7.38448775 L3,11.5990522 C3.73469789,10.7924222 4.80289033,10.269418 6.0078775,10.269418 L6.0078775,10.269418 Z" id="Fill-1"></path>
        </g>
    </g>
</svg>