<?xml version="1.0" encoding="UTF-8"?>
<svg width="34px" height="34px" viewBox="0 0 34 34" version="1.1" xmlns="http://www.w3.org/2000/svg" xmlns:xlink="http://www.w3.org/1999/xlink">
    <!-- Generator: Sketch 43.2 (39069) - http://www.bohemiancoding.com/sketch -->
    <title>device_ftp</title>
    <desc>Created with Sketch.</desc>
    <defs></defs>
    <g id="Page-1" stroke="none" stroke-width="1" fill="none" fill-rule="evenodd">
        <g id="device_ftp">
            <rect id="Rectangle-14" fill="#2A8BAB" x="12.5" y="24.5" width="9" height="4" rx="1"></rect>
            <rect id="Rectangle-14-Copy" fill="#2A8BAB" x="5" y="25.5" width="24" height="2" rx="1"></rect>
            <rect id="Rectangle-14-Copy" fill="#2A8BAB" transform="translate(17.000000, 24.000000) rotate(-270.000000) translate(-17.000000, -24.000000) " x="13.5" y="23" width="7" height="2" rx="1"></rect>
            <g id="Group" transform="translate(6.500000, 5.500000)">
                <path d="M20.475,14.7793611 C20.475,15.9425833 19.53315,16.8894167 18.375,16.8894167 L2.625,16.8894167 C1.46685,16.8894167 0.525,15.9425833 0.525,14.7793611 L0.525,2.11005556 C0.525,0.946305556 1.46685,0 2.625,0 L9.384375,0 C9.709875,0 10.0023,0.181555556 10.1472,0.473944444 L11.2896,3.16244444 L18.375,3.16244444 C19.53315,3.16244444 20.475,4.10927778 20.475,5.2725 L20.475,17.9460278 L20.475,14.7793611 Z" id="file" fill="#2A8BAB"></path>
                <path d="M5.4936,10.2606333 L6.88275,10.2606333 C7.08855,10.2606333 7.2576,10.0915833 7.2576,9.88578333 C7.2576,9.67998333 7.08855,9.51093333 6.88275,9.51093333 L5.4936,9.51093333 L5.4936,8.15118333 L7.3605,8.15118333 C7.57365,8.15118333 7.7427,7.98213333 7.7427,7.76898333 C7.7427,7.55583333 7.57365,7.38678333 7.3605,7.38678333 L5.0673,7.38678333 C4.8321,7.38678333 4.641,7.57788333 4.641,7.81308333 L4.641,11.9658333 C4.641,12.2010333 4.8321,12.3921333 5.0673,12.3921333 C5.3025,12.3921333 5.4936,12.2010333 5.4936,11.9658333 L5.4936,10.2606333 Z M11.67495,8.13648333 C11.88075,8.13648333 12.0498,7.96743333 12.0498,7.76163333 C12.0498,7.55583333 11.88075,7.38678333 11.67495,7.38678333 L8.57325,7.38678333 C8.36745,7.38678333 8.1984,7.55583333 8.1984,7.76163333 C8.1984,7.96743333 8.36745,8.13648333 8.57325,8.13648333 L9.6978,8.13648333 L9.6978,11.9658333 C9.6978,12.2010333 9.8889,12.3921333 10.1241,12.3921333 C10.3593,12.3921333 10.5504,12.2010333 10.5504,11.9658333 L10.5504,8.13648333 L11.67495,8.13648333 Z M14.4753,10.4076333 L13.49775,10.4076333 L13.49775,11.9658333 C13.49775,12.2010333 13.30665,12.3921333 13.07145,12.3921333 C12.83625,12.3921333 12.64515,12.2010333 12.64515,11.9658333 L12.64515,7.81308333 C12.64515,7.57788333 12.83625,7.38678333 13.07145,7.38678333 L14.4753,7.38678333 C15.33525,7.38678333 16.0188,7.86453333 16.0188,8.89353333 C16.0188,9.90783333 15.34995,10.4076333 14.4753,10.4076333 Z M14.40915,8.15118333 L13.49775,8.15118333 L13.49775,9.64323333 L14.40915,9.64323333 C14.86485,9.64323333 15.1368,9.37128333 15.1368,8.89353333 C15.1368,8.40843333 14.8575,8.15118333 14.40915,8.15118333 Z" id="FTP" fill="#FFFFFF"></path>
            </g>
        </g>
    </g>
</svg>