<?xml version="1.0" encoding="UTF-8"?>
<svg width="34px" height="34px" viewBox="0 0 34 34" version="1.1" xmlns="http://www.w3.org/2000/svg" xmlns:xlink="http://www.w3.org/1999/xlink">
    <!-- Generator: Sketch 42 (36781) - http://www.bohemiancoding.com/sketch -->
    <title>dropbox</title>
    <desc>Created with Sketch.</desc>
    <defs></defs>
    <g id="Page-1" stroke="none" stroke-width="1" fill="none" fill-rule="evenodd">
        <g id="dropbox" fill="#007EE5">
            <g id="Page-1" transform="translate(2.000000, 4.000000)">
                <path d="M8.8238052,3.71612903e-05 L1.2e-06,5.5754849 L6.1011492,10.3037133 L14.9982492,4.98698942 L8.8238052,3.71612903e-05 Z M14.9982492,15.6201236 L21.1726932,20.607703 L29.9965092,15.0322436 L23.8953732,10.3037133 L14.9982492,15.6201236 Z M1.2e-06,15.0322436 L8.8238052,20.607703 L14.9982492,15.6201236 L6.1011492,10.3037481 L1.2e-06,15.0322436 Z" id="Fill-1"></path>
                <path d="M21.172698,3.71612903e-05 L14.998254,4.98702426 L23.895366,10.3037481 L29.996514,5.5754849 L21.172698,3.71612903e-05 Z M8.82381,21.6660914 L6.173874,19.9917081 L6.173874,21.8686552 L15.016362,27.0000023 L23.858874,21.8686552 L23.858874,19.9916733 L21.208938,21.6660914 L15.016362,16.6932836 L8.82381,21.6660914 Z" id="Fill-2"></path>
            </g>
        </g>
    </g>
</svg>