<?xml version="1.0" encoding="UTF-8"?>
<svg width="12px" height="12px" viewBox="0 0 12 12" version="1.1" xmlns="http://www.w3.org/2000/svg" xmlns:xlink="http://www.w3.org/1999/xlink">
    <!-- Generator: Sketch 42 (36781) - http://www.bohemiancoding.com/sketch -->
    <title>edit</title>
    <desc>Created with Sketch.</desc>
    <defs></defs>
    <g id="Page-1" stroke="none" stroke-width="1" fill="none" fill-rule="evenodd">
        <g id="edit" fill="#FFFFFF">
            <path d="M8.7365,0.2225 L0.8415,8.1175 C0.808,8.151 0.7845,8.1935 0.774,8.24 L0.006,11.6955 C-0.0125,11.779 0.013,11.866 0.0735,11.9265 C0.1205,11.974 0.1845,12 0.25,12 C0.268,12 0.286,11.998 0.304,11.994 L3.76,11.226 C3.8065,11.2155 3.849,11.1925 3.8825,11.1585 L10.515,4.526 C10.517,4.524 10.5195,4.5235 10.5215,4.5215 C10.5235,4.5195 10.524,4.517 10.526,4.515 L11.7775,3.2635 C12.0735,2.9675 12.0735,2.486 11.7775,2.19 L9.81,0.2225 C9.5235,-0.0645 9.0235,-0.0645 8.7365,0.2225 L8.7365,0.2225 Z M3.6675,10.6665 L1.3335,8.3325 L7.656,2.0095 L9.99,4.3435 L3.6675,10.6665 L3.6675,10.6665 Z M1.557,11.2035 L0.7965,10.443 L1.1495,8.855 L3.1445,10.8505 L1.557,11.2035 L1.557,11.2035 Z M0.668,11.0215 L0.9785,11.332 L0.579,11.4205 L0.668,11.0215 L0.668,11.0215 Z M11.424,2.91 L10.344,3.99 L8.01,1.656 L9.09,0.576 C9.188,0.478 9.3585,0.478 9.4565,0.576 L11.424,2.5435 C11.525,2.6445 11.525,2.809 11.424,2.91 L11.424,2.91 Z" id="Shape"></path>
        </g>
    </g>
</svg>