<?xml version="1.0" encoding="UTF-8"?>
<svg width="110px" height="80px" viewBox="0 0 110 80" version="1.1" xmlns="http://www.w3.org/2000/svg" xmlns:xlink="http://www.w3.org/1999/xlink">
    <!-- Generator: Sketch 42 (36781) - http://www.bohemiancoding.com/sketch -->
    <title>empty_gray</title>
    <desc>Created with Sketch.</desc>
    <defs></defs>
    <g id="Page-1" stroke="none" stroke-width="1" fill="none" fill-rule="evenodd" opacity="0.4">
        <g id="empty_gray">
            <g id="Page-1" transform="translate(5.000000, 2.000000)">
                <path d="M34.4719178,5.10009132 C33.7673516,5.10009132 33.197032,5.67086758 33.197032,6.37497717 L33.197032,8.9256621 C33.197032,9.62840183 32.6253425,10.2005479 31.9216895,10.2005479 L31.9216895,1.27497717 C31.9216895,0.571324201 31.3513699,9.13242009e-05 30.646347,9.13242009e-05 C29.9417808,9.13242009e-05 29.3714612,0.57086758 29.3714612,1.27497717 L29.3714612,7.65031963 C28.6678082,7.65031963 28.0961187,7.07817352 28.0961187,6.37497717 L28.0961187,5.10009132 C28.0961187,4.39598174 27.5257991,3.82520548 26.8207763,3.82520548 C26.11621,3.82520548 25.5458904,4.39598174 25.5458904,5.10009132 L25.5458904,6.37497717 C25.5458904,8.48456621 27.2618721,10.2005479 29.3714612,10.2005479 L29.3714612,12.7512329 C29.3714612,13.4548858 29.9417808,14.0261187 30.646347,14.0261187 C31.3513699,14.0261187 31.9216895,13.4553425 31.9216895,12.7512329 C34.0308219,12.7512329 35.7472603,11.0352511 35.7472603,8.9256621 L35.7472603,6.37497717 C35.7468037,5.67086758 35.1769406,5.10009132 34.4719178,5.10009132 Z" id="Stroke-1" stroke="#737373"></path>
                <path d="M13.0428311,23.8046119 C12.0131507,23.8046119 11.1798174,24.6393151 11.1798174,25.6680822 L11.1798174,29.3950228 C11.1798174,30.4219635 10.3446575,31.2580365 9.31634703,31.2580365 L9.31634703,18.2142009 C9.31634703,17.1849772 8.48347032,16.3511872 7.45333333,16.3511872 C6.42319635,16.3511872 5.58986301,17.1854338 5.58986301,18.2142009 L5.58986301,27.5310959 C4.56200913,27.5310959 3.72684932,26.6950228 3.72684932,25.6680822 L3.72684932,23.8046119 C3.72684932,22.7753881 2.89305936,21.9411416 1.863379,21.9411416 C0.833242009,21.9411416 0.000365296804,22.7758447 0.000365296804,23.8046119 L0.000365296804,25.6680822 C0.000365296804,28.750274 2.50812785,31.2580365 5.59031963,31.2580365 L5.59031963,34.9849772 C5.59031963,36.0142009 6.42365297,36.8484475 7.45378995,36.8484475 C8.48347032,36.8484475 9.31680365,36.0137443 9.31680365,34.9849772 C12.3994521,34.9849772 14.9072146,32.4772146 14.9072146,29.3950228 L14.9072146,25.6680822 C14.9063014,24.6393151 14.072968,23.8046119 13.0428311,23.8046119 Z" id="Stroke-3" stroke="#737373"></path>
                <path d="M96.8800457,22.4206849 C95.339863,22.4206849 94.0942009,23.6681735 94.0942009,25.2065297 L94.0942009,30.7786758 C94.0942009,32.3142922 92.8453425,33.5645205 91.3083562,33.5645205 L91.3083562,14.0626941 C91.3083562,12.5238813 90.0622374,11.2768493 88.5225114,11.2768493 C86.9823288,11.2768493 85.7366667,12.5243379 85.7366667,14.0626941 L85.7366667,27.9923744 C84.1992237,27.9923744 82.9508219,26.7421461 82.9508219,25.2065297 L82.9508219,22.4206849 C82.9508219,20.8818721 81.7051598,19.6348402 80.1649772,19.6348402 C78.6247945,19.6348402 77.3791324,20.8823288 77.3791324,22.4206849 L77.3791324,25.2065297 C77.3791324,29.8152055 81.1284475,33.5645205 85.7375799,33.5645205 L85.7375799,39.1371233 C85.7375799,40.6754795 86.983242,41.9225114 88.522968,41.9225114 C90.0626941,41.9225114 91.3088128,40.6750228 91.3088128,39.1371233 C95.9179452,39.1371233 99.6672603,35.3873516 99.6672603,30.7786758 L99.6672603,25.2065297 C99.6658904,23.6681735 98.4197717,22.4206849 96.8800457,22.4206849 Z" id="Stroke-5" stroke="#737373"></path>
                <path d="M69.5554338,37.7041096 C69.5554338,45.5872146 63.1421918,52.0004566 55.2590868,52.0004566 C54.7376256,52.0004566 54.3147945,52.4232877 54.3147945,52.9447489 L54.3147945,74.0022831 L43.5613699,74.0022831 L43.5613699,61.3721461 C43.5613699,60.8511416 43.1385388,60.4283105 42.6175342,60.4283105 C34.7339726,60.4283105 28.3207306,54.0150685 28.3207306,46.1324201 L28.3207306,36.3625571 C28.3207306,34.5598174 29.7873973,33.0926941 31.5905936,33.0926941 C33.39379,33.0926941 34.8609132,34.5598174 34.8609132,36.3625571 L34.8609132,46.1324201 C34.8609132,50.0894977 37.8403653,53.3621005 41.673242,53.8292237 L41.673242,55.4621005 C41.673242,55.9840183 42.0960731,56.4063927 42.6175342,56.4063927 C43.1385388,56.4063927 43.5613699,55.9840183 43.5613699,55.4621005 L43.5613699,23.9917808 C43.5613699,21.0269406 45.973242,18.6150685 48.9380822,18.6150685 C51.9029224,18.6150685 54.3147945,21.0269406 54.3147945,23.9917808 L54.3147945,47.0342466 C54.3147945,47.5561644 54.7376256,47.9780822 55.2586301,47.9780822 C55.7805479,47.9780822 56.2029224,47.5561644 56.2029224,47.0342466 L56.2029224,45.4013699 C60.0362557,44.93379 63.0157078,41.6616438 63.0157078,37.7041096 L63.0157078,27.9347032 C63.0157078,26.1319635 64.4828311,24.6648402 66.2855708,24.6648402 C68.0887671,24.6648402 69.5554338,26.1319635 69.5554338,27.9347032 L69.5554338,37.7041096 Z M66.2855708,22.7767123 C63.4412785,22.7767123 61.1275799,25.0908676 61.1275799,27.9347032 L61.1275799,37.7041096 C61.1275799,40.6187215 58.9915068,43.0429224 56.2029224,43.4958904 L56.2029224,23.9917808 C56.2029224,19.9858447 52.9440183,16.7269406 48.9380822,16.7269406 C44.9321461,16.7269406 41.673242,19.9858447 41.673242,23.9917808 L41.673242,51.9237443 C38.8846575,51.4707763 36.7485845,49.0461187 36.7485845,46.1319635 L36.7485845,36.3625571 C36.7485845,33.5182648 34.4348858,31.2045662 31.5905936,31.2045662 C28.7463014,31.2045662 26.4326027,33.5182648 26.4326027,36.3625571 L26.4326027,46.1319635 C26.4326027,54.7388128 33.1869406,61.7986301 41.673242,62.2890411 L41.673242,74.0022831 L38.8408219,74.0022831 C38.3193607,74.0022831 37.8965297,74.4246575 37.8965297,74.9461187 C37.8965297,75.4680365 38.3193607,75.890411 38.8408219,75.890411 L59.0353425,75.890411 C59.5568037,75.890411 59.9791781,75.4680365 59.9791781,74.9461187 C59.9791781,74.4246575 59.5568037,74.0022831 59.0353425,74.0022831 L56.2029224,74.0022831 L56.2029224,53.8611872 C64.6896804,53.3707763 71.4435616,46.3114155 71.4435616,37.7041096 L71.4435616,27.9347032 C71.4440183,25.090411 69.1294064,22.7767123 66.2855708,22.7767123 L66.2855708,22.7767123 Z" id="Fill-7" fill="#737373"></path>
                <path d="M48.9379452,67.0805936 C48.416484,67.0805936 47.9941096,67.5034247 47.9941096,68.0244292 L47.9941096,69.9125571 C47.9941096,70.4344749 48.416484,70.8573059 48.9379452,70.8573059 C49.459863,70.8573059 49.8822374,70.4344749 49.8822374,69.9125571 L49.8822374,68.0244292 C49.8822374,67.5034247 49.459863,67.0805936 48.9379452,67.0805936" id="Fill-9" fill="#737373"></path>
                <path d="M51.4823744,35.6105023 C50.9609132,35.6105023 50.5385388,36.0328767 50.5385388,36.5543379 L50.5385388,38.4429224 C50.5385388,38.9639269 50.9609132,39.386758 51.4823744,39.386758 C52.0042922,39.386758 52.4266667,38.9639269 52.4266667,38.4429224 L52.4266667,36.5543379 C52.4266667,36.0328767 52.0042922,35.6105023 51.4823744,35.6105023" id="Fill-11" fill="#737373"></path>
                <path d="M46.3935616,29.3163927 C45.8721005,29.3163927 45.449726,29.7392237 45.449726,30.2606849 L45.449726,32.1488128 C45.449726,32.670274 45.8721005,33.093105 46.3935616,33.093105 C46.9154795,33.093105 47.3378539,32.670274 47.3378539,32.1488128 L47.3378539,30.2606849 C47.3378539,29.7392237 46.9154795,29.3163927 46.3935616,29.3163927" id="Fill-13" fill="#737373"></path>
                <path d="M66.2855251,31.2046119 C65.7640639,31.2046119 65.3416895,31.6274429 65.3416895,32.1484475 L65.3416895,34.037032 C65.3416895,34.5584932 65.7640639,34.9813242 66.2855251,34.9813242 C66.8074429,34.9813242 67.2298174,34.5584932 67.2298174,34.037032 L67.2298174,32.1484475 C67.2298174,31.6274429 66.8074429,31.2046119 66.2855251,31.2046119" id="Fill-15" fill="#737373"></path>
                <path d="M31.5908219,42.533653 C31.0689041,42.533653 30.6465297,42.956484 30.6465297,43.4779452 L30.6465297,45.3660731 C30.6465297,45.8875342 31.0689041,46.3103653 31.5908219,46.3103653 C32.1122831,46.3103653 32.5346575,45.8875342 32.5346575,45.3660731 L32.5346575,43.4779452 C32.5346575,42.956484 32.1122831,42.533653 31.5908219,42.533653" id="Fill-17" fill="#737373"></path>
            </g>
        </g>
    </g>
</svg>