<?xml version="1.0" encoding="UTF-8"?>
<svg width="34px" height="34px" viewBox="0 0 34 34" version="1.1" xmlns="http://www.w3.org/2000/svg" xmlns:xlink="http://www.w3.org/1999/xlink">
    <!-- Generator: Sketch 42 (36781) - http://www.bohemiancoding.com/sketch -->
    <title>hidrive</title>
    <desc>Created with Sketch.</desc>
    <defs>
        <polygon id="path-1" points="29.9984373 6.97750448 29.9984373 0 4.82041011e-06 0 4.82041011e-06 6.97750448 29.9984373 6.97750448"></polygon>
    </defs>
    <g id="Page-1" stroke="none" stroke-width="1" fill="none" fill-rule="evenodd">
        <g id="hidrive">
            <g id="Page-1" transform="translate(2.000000, 13.000000)">
                <mask id="mask-2" fill="white">
                    <use xlink:href="#path-1"></use>
                </mask>
                <g id="Clip-2"></g>
                <path d="M22.329322,6.86978372 L23.5842549,6.86978372 C24.1836393,5.22599302 24.8392826,3.6373186 25.4548153,2.0093186 L24.1288485,2.0093186 C23.7555178,3.23959767 23.3393299,4.42766744 22.9923054,5.68373721 C22.6795193,4.39406279 22.2319582,3.23678372 21.8557624,2.0093186 L20.5061413,2.0093186 C21.0950363,3.64801628 21.7280671,5.24329535 22.329322,6.86978372 M18.7539708,2.0791093 L18.7539708,6.86980698 L20.0325817,6.86980698 C20.0168358,5.25736512 20.0640971,3.58303953 20.0089037,2.00934186 L18.8013268,2.00934186 C18.7715635,2.01887674 18.752929,2.0393186 18.7539708,2.0791093 M6.51247908,2.0791093 L6.51247908,6.86980698 L7.767412,6.86980698 L7.767412,2.00934186 L6.53615706,2.00934186 C6.50857222,2.01324884 6.51044278,2.0461093 6.51247908,2.0791093 M28.8170884,3.9163186 L26.6623923,3.9163186 C26.7110742,3.2161093 27.281453,2.64501628 28.0120371,2.75352791 C28.5186985,2.82876047 28.8045391,3.28429535 28.8170884,3.9163186 M27.7515793,1.89306279 C26.3811215,1.99003953 25.5424475,3.00450465 25.4548153,4.28841163 C25.3563623,5.73113256 26.2279961,6.86059767 27.6805454,6.96280698 C28.5003717,7.0204814 29.1305375,6.9076907 29.7405296,6.63722558 C29.6537024,6.38915581 29.6203402,6.08859767 29.5511058,5.82327209 C28.4211215,6.22127209 26.6438761,6.1443186 26.6623923,4.80003953 L29.9536314,4.80003953 C30.2055888,3.19338837 29.3849811,1.77745814 27.7515793,1.89306279 M16.5519187,2.9163186 C16.5410505,2.60915581 16.5154309,2.31650465 16.5045627,2.00934186 L15.4153757,2.00934186 C15.5046417,3.5573186 15.4458256,5.25076047 15.4627316,6.86980698 L16.7176646,6.86980698 C16.8486511,5.64941163 16.3949811,3.93494651 17.0965122,3.31166744 C17.3353994,3.09943488 17.7929053,3.00399302 18.2330552,3.0791093 L18.2330552,1.93957442 C17.3444207,1.76557442 16.82682,2.3349 16.5519187,2.9163186 M0.0010347277,0.218644186 L0.0010347277,6.86978372 L1.25596764,6.86978372 C1.27176085,5.89303953 1.22440489,4.85429535 1.27964562,3.9163186 C2.2267648,3.93180698 3.23700947,3.88529535 4.14468114,3.93957442 L4.14468114,6.86978372 L5.39961405,6.86978372 L5.39961405,0.148876744 L4.14468114,0.148876744 C4.12900631,1.04045814 4.17610182,1.9936907 4.12100316,2.84655116 C3.17388398,2.83103953 2.16363931,2.87755116 1.25596764,2.82329535 L1.25596764,0.148876744 L0.0247127072,0.148876744 C-0.00287213891,0.152783721 -0.000977900552,0.185644186 0.0010347277,0.218644186 M10.111532,5.93955116 L10.111532,1.12562093 C11.128146,0.936155814 12.2319187,1.15292326 12.763442,1.66050465 C13.609835,2.46878372 13.5508532,4.35924884 12.8107979,5.21864419 C12.2347127,5.88766744 11.2840655,6.03406279 10.111532,5.93955116 M13.3080355,6.28838837 C14.4865122,5.51438837 15.13285,3.58578372 14.4445785,1.93955116 C13.858146,0.537016279 12.3588327,0.00245813953 10.2062439,0.10234186 C9.75245541,0.123388372 9.31670955,0.180969767 8.85659905,0.241876744 L8.85659905,6.84650465 C10.5356756,7.06629535 12.3094641,6.94422558 13.3080355,6.28838837 M18.6829369,0.683760465 C18.7029211,1.38020233 19.7326054,1.54073721 20.0325817,0.986086047 C20.33888,0.419760465 19.8074988,-0.0722395349 19.2748863,0.00934186047 C18.8998272,0.0668069767 18.6721397,0.308016279 18.6829369,0.683760465 M7.03339463,0.00934186047 C7.48756196,-0.0534488372 7.87346567,0.203318605 7.86212391,0.683760465 C7.84254223,1.5136907 6.52727782,1.52715581 6.44144515,0.753527907 C6.39122415,0.300690698 6.66650434,0.0601093023 7.03339463,0.00934186047" id="Fill-1" fill="#000000" mask="url(#mask-2)"></path>
            </g>
        </g>
    </g>
</svg>