<?xml version="1.0" encoding="UTF-8"?>
<svg width="22px" height="22px" viewBox="0 0 22 22" version="1.1" xmlns="http://www.w3.org/2000/svg" xmlns:xlink="http://www.w3.org/1999/xlink">
    <!-- Generator: Sketch 42 (36781) - http://www.bohemiancoding.com/sketch -->
    <title>home</title>
    <desc>Created with Sketch.</desc>
    <defs></defs>
    <g id="Page-1" stroke="none" stroke-width="1" fill="none" fill-rule="evenodd">
        <g id="home" fill="#FFBA01">
            <g id="building-home-2" transform="translate(0.000000, 1.000000)">
                <g id="icons">
                    <path d="M1.83333333,10.0833333 L1.83333333,18.7916667 C1.83333333,19.0446667 2.03866667,19.25 2.29166667,19.25 L8.70833333,19.25 C8.96133333,19.25 9.16666667,19.0446667 9.16666667,18.7916667 L9.16666667,13.75 L12.8333333,13.75 L12.8333333,18.7916667 C12.8333333,19.0446667 13.0386667,19.25 13.2916667,19.25 L19.7083333,19.25 C19.9613333,19.25 20.1666667,19.0446667 20.1666667,18.7916667 L20.1666667,10.0833333 L21.5416667,10.0833333 C21.73325,10.0833333 21.9046667,9.96508333 21.9715833,9.78541667 C22.0375833,9.60666667 21.9871667,9.40408333 21.8423333,9.2785 L18.3333333,6.22783333 L14.6905,3.06075 L11.3006667,0.11275 C11.1283333,-0.0366666667 10.87075,-0.0366666667 10.6993333,0.11275 L0.157666667,9.27941667 C0.01375,9.405 -0.0375833333,9.60666667 0.0284166667,9.78633333 C0.0953333333,9.96508333 0.26675,10.0833333 0.458333333,10.0833333 L1.83333333,10.0833333 Z" id="Shape"></path>
                </g>
            </g>
        </g>
    </g>
</svg>