<?xml version="1.0" encoding="UTF-8"?>
<svg width="90px" height="44px" viewBox="0 0 90 44" version="1.1" xmlns="http://www.w3.org/2000/svg" xmlns:xlink="http://www.w3.org/1999/xlink">
    <!-- Generator: Sketch 42 (36781) - http://www.bohemiancoding.com/sketch -->
    <title>logo_text</title>
    <desc>Created with Sketch.</desc>
    <defs>
        <polygon id="path-1" points="14.1223026 23.0629949 14.1223026 0.223194435 0.228493421 0.223194435 0.228493421 23.0629949 14.1223026 23.0629949"></polygon>
    </defs>
    <g id="Page-1" stroke="none" stroke-width="1" fill="none" fill-rule="evenodd">
        <g id="logo_text">
            <g id="Page-1" transform="translate(3.000000, 9.000000)">
                <path d="M63.7552246,20.0456173 L63.7552246,4.67525683 C63.7552246,4.39548732 64.0068694,4.16684562 64.3143553,4.16684562 L65.4654502,4.16684562 C65.7731758,4.16684562 66.0245808,4.39620406 66.0245808,4.67525683 L66.0245808,20.0456173 C66.0245808,20.3246701 65.7724568,20.5540285 65.4654502,20.5540285 L64.3143553,20.5540285 C64.0073487,20.5540285 63.7552246,20.3253868 63.7552246,20.0456173 L63.7552246,20.0456173 Z M62.73139,2.88888905 C61.586766,2.88888905 60.6496889,3.69618298 60.6496889,4.68170754 L60.6496889,19.9318938 C60.6496889,20.9174183 61.5862867,21.7244733 62.73139,21.7244733 L67.0486551,21.7244733 C68.1937585,21.7244733 69.1303562,20.9178961 69.1303562,19.9318938 L69.1303562,4.68170754 C69.1303562,3.69546624 68.1930395,2.88888905 67.0486551,2.88888905 L62.73139,2.88888905 Z" id="Fill-1" fill="#7C0E93"></path>
                <g id="Group-5" transform="translate(70.220865, 1.895791)">
                    <mask id="mask-2" fill="white">
                        <use xlink:href="#path-1"></use>
                    </mask>
                    <g id="Clip-4"></g>
                    <path d="M3.39466353,10.9576474 L3.39466353,2.00932331 C3.39466353,1.72979271 3.65134117,1.50115101 3.96481861,1.50115101 L9.81591823,1.50115101 C10.1296353,1.50115101 10.3860733,1.73027054 10.3860733,2.00932331 L10.3860733,6.68847446 L10.3860733,10.4492362 C10.3860733,10.7282889 10.1289164,10.9576474 9.81591823,10.9576474 L8.29262876,10.9576474 L3.39466353,10.9576474 Z M13.5522434,10.3355126 L13.5522434,6.68847446 L13.5522434,2.01577401 C13.5522434,1.02977163 12.5967124,0.223194435 11.4297998,0.223194435 L2.35093703,0.223194435 C1.18402444,0.223194435 0.228493421,1.03024946 0.228493421,2.01577401 L0.228493421,21.2704153 C0.228493421,22.255462 1.18330545,23.0629949 2.35093703,23.0629949 L11.0995461,23.0629949 C11.0995461,23.0629949 14.1144897,23.009239 14.1223985,18.3480065 C14.1267124,17.5970965 13.5232444,16.9766341 12.7651945,16.9766341 C12.0160122,16.9766341 11.4082303,17.5825227 11.4082303,18.32961 C11.4082303,21.9001953 9.60357801,21.8925501 9.60357801,21.8925501 L3.96481861,21.8925501 C3.65229981,21.8925501 3.39466353,21.6639084 3.39466353,21.3841389 L3.39466353,12.1278533 L8.29262876,12.1278533 L8.29262876,12.1280922 L11.4297998,12.1280922 L11.438907,12.1278533 L11.8664633,12.1278533 C12.0361438,12.1278533 12.1904859,12.066691 12.3048045,11.9675413 C13.0388882,11.6849048 13.5522434,11.0584695 13.5522434,10.3355126 L13.5522434,10.3355126 Z" id="Fill-3" fill="#7C0E93" mask="url(#mask-2)"></path>
                </g>
                <path d="M8.02545395,3.786684 C8.79021429,3.786684 9.41381391,3.16478814 9.41381391,2.40264915 C9.41381391,1.64051015 8.79021429,1.01861429 8.02545395,1.01861429 C7.26093327,1.01861429 6.63709398,1.64051015 6.63709398,2.40264915 C6.63709398,3.16478814 7.26093327,3.786684 8.02545395,3.786684" id="Fill-6" fill="#7C0E93"></path>
                <polygon id="Fill-8" fill="#7C0E93" points="3.07037735 6.06791652 3.61464897 6.06815544 3.61464897 5.02122971 3.07037735 5.02122971"></polygon>
                <g id="Group-12" transform="translate(0.000000, 0.940131)" fill="#7C0E93">
                    <path d="M0.105043703,22.8597498 C0.0985728383,22.8702621 0.0916226504,22.8802965 0.0849121241,22.890331 C0.0312279135,22.9777739 -0.000167763158,23.0809852 -0.000167763158,23.191125 C-0.000167763158,23.5091209 0.259146147,23.7673881 0.57837547,23.7673881 C0.773699718,23.7673881 0.946495771,23.6708664 1.05122791,23.5227391 C3.26618092,21.0430398 4.06017998,16.1744291 4.32955968,13.68589 L14.2208755,13.68589 C14.5729384,13.68589 14.8586151,13.4013421 14.8586151,13.050137 C14.8586151,12.6991708 14.5729384,12.414623 14.2208755,12.414623 L4.44244032,12.414623 C4.45418374,12.2383037 4.45873731,12.1410653 4.45873731,12.1410653 L4.45873731,5.46506219 C4.45873731,5.34871056 4.44411795,5.23618158 4.41703618,5.12819198 L6.641336,5.12819198 C6.64277397,5.88722507 6.64493092,6.64578034 6.64588957,7.40457452 L5.24602585,7.53717237 C4.89659915,7.56990373 4.64016118,7.87929871 4.67323449,8.22739793 C4.7063078,8.57573607 5.01642998,8.83137517 5.36585667,8.79864381 L6.64780686,8.67703605 L6.64804652,9.87495608 C6.64804652,10.6590753 7.26158036,11.3005622 8.0356875,11.3483452 C8.06660385,11.3502565 8.09752021,11.3512121 8.12891588,11.3512121 L9.41374201,11.3512121 L12.5847054,11.3512121 C12.7184366,11.3512121 12.8480935,11.3335324 12.9715193,11.3003232 C13.3935634,11.1865997 13.7410728,10.8913007 13.924414,10.5040194 C13.9359178,10.4796501 13.9469422,10.4550418 13.957008,10.4299557 C14.0015851,10.3162322 14.0262702,10.1922353 14.0262702,10.0629822 C14.0262702,9.50583234 13.57307,9.05404399 13.014179,9.05404399 C12.6868012,9.05404399 12.395852,9.20933877 12.2108332,9.4496873 C12.172727,9.52614012 12.1312655,9.59542548 12.0871678,9.65802122 C11.711618,10.1910407 11.151289,10.2471857 11.151289,10.2471857 L9.41374201,10.2471857 L9.41374201,8.41518516 L11.8745879,8.18224299 C12.2237749,8.14927271 12.4804525,7.84011665 12.4473792,7.49201743 C12.4143059,7.14391821 12.1041837,6.88804019 11.754757,6.92101047 L9.41374201,7.14272363 L9.41374201,5.12771415 L12.2563689,5.12771415 L12.3862655,5.12819198 C12.3862655,5.62489635 12.3750014,6.12160073 12.3750014,6.61854402 C12.3750014,6.61854402 12.3750014,6.26064929 12.3750014,6.61854402 C12.3750014,7.38259434 12.9966837,8.00257888 13.7633614,8.00257888 C14.530039,8.00257888 15.151961,7.38259434 15.151961,6.61854402 L15.151242,6.61854402 L15.151242,5.46506219 C15.151242,4.70077296 14.52932,4.08102733 13.762882,4.08102733 L13.6401753,4.08102733 L9.41374201,4.08102733 L9.41374201,2.98177921 L13.2440146,2.98177921 C13.5960775,2.98177921 13.8815146,2.69699248 13.8815146,2.3462652 C13.8815146,1.995299 13.5960775,1.71075118 13.2440146,1.71075118 L9.41374201,1.71075118 L9.41374201,1.46275736 C9.41374201,0.698468133 8.79205968,0.0787225072 8.02538205,0.0787225072 C7.25894408,0.0787225072 6.63702209,0.698468133 6.63702209,1.46275736 C6.63702209,2.3352751 6.63822039,3.20827068 6.63965836,4.08102733 L3.07037735,4.08102733 C2.30369972,4.08102733 1.68201739,4.70077296 1.68201739,5.46506219 L1.68249671,5.50902256 L1.68249671,5.51212845 L1.68249671,5.51260628 L1.68249671,5.51547326 L1.68249671,5.51834024 L1.68249671,5.51881807 C1.69495912,6.4656384 1.84115273,20.1674162 0.105043703,22.8597498 L0.105043703,22.8597498 Z" id="Fill-10"></path>
                </g>
                <path d="M6.31424577,20.3236189 C6.24426457,20.2873038 6.16493656,20.2667571 6.080336,20.2667571 C5.80184915,20.2667571 5.57536889,20.4922929 5.57536889,20.7701511 C5.57536889,20.8360916 5.58807096,20.8989263 5.61107848,20.9565048 C5.61107848,20.9565048 5.634086,20.9880416 5.68010103,21.076918 C5.77644502,21.2630328 5.97464521,21.7002473 6.27733788,22.6231762 C6.32958412,22.7820547 6.38662359,22.9144136 6.44821664,23.0221643 L4.46573543,23.2238086 C3.97610667,23.2735029 3.59360667,23.6858703 3.59360667,24.187114 C3.59360667,24.7222837 4.02883224,25.1561535 4.56519502,25.1561535 C4.62487077,25.1561535 4.68334821,25.1506584 4.73990836,25.1403851 L4.75548637,25.1375181 L13.8952232,23.4092067 L13.8964215,23.4089677 L13.903132,23.4075343 C14.1681978,23.357601 14.3687946,23.1251367 14.3687946,22.8470396 C14.3687946,22.5316717 14.112117,22.2757937 13.7957636,22.2757937 L11.7737383,22.4812606 C12.2259798,22.1298166 12.6437101,21.7167325 12.8481414,21.4446082 C13.2423849,20.9197119 12.8304065,20.4953988 12.4805005,20.1434769 C12.4198661,20.0820758 12.3606696,20.0230637 12.3081837,19.965963 C11.9534845,19.5810709 11.2555898,19.5810709 11.0897439,19.8890324 C11.0897439,19.8890324 11.0425305,19.9879432 10.9684751,20.1508833 C10.7225822,20.6946539 10.1826245,21.9534973 10.1253454,22.6485012 L7.79175987,22.8857438 C7.94178806,22.7127693 8.09133694,22.50563 8.23633224,22.2765104 C8.93806156,21.1679446 6.31424577,20.3236189 6.31424577,20.3236189 L6.31424577,20.3236189 Z" id="Fill-13" fill="#7C0E93"></path>
                <path d="M4.70412688,18.3582798 C4.70412688,19.3442822 5.51322462,20.1508594 6.50230827,20.1508594 L12.3145827,20.1508594 C13.3036664,20.1508594 14.1130038,19.3442822 14.1130038,18.3582798 L14.1130038,17.4618706 C14.1130038,16.4758682 13.3036664,15.669291 12.3145827,15.669291 L6.50230827,15.669291 C5.51322462,15.669291 4.70412688,16.4758682 4.70412688,17.4618706 L4.70412688,18.3582798 Z M7.87005733,16.9470086 L10.9470733,16.9470086 C11.2128581,16.9470086 11.4299915,17.1756503 11.4299915,17.4551809 L11.4299915,18.4720034 C11.4299915,18.751534 11.2128581,18.9804146 10.9470733,18.9804146 L7.87005733,18.9804146 C7.60427256,18.9804146 7.38689944,18.751534 7.38689944,18.4720034 L7.38689944,17.4551809 C7.38689944,17.1756503 7.60427256,16.9470086 7.87005733,16.9470086 L7.87005733,16.9470086 Z" id="Fill-15" fill="#7C0E93"></path>
                <g id="Group-19" transform="translate(13.181391, 0.940131)" fill="#7C0E93">
                    <path d="M7.21858506,19.0688609 C9.48099107,16.090546 10.4803802,13.2374225 10.7871471,12.2258562 C10.7785193,12.2447305 10.9105728,11.8447867 10.9105728,11.6311967 C10.9105728,10.8067009 10.2409582,10.1394111 9.41436513,10.1394111 C8.58777209,10.1394111 8.04925235,10.8067009 7.91791776,11.6309578 C7.91791776,11.6309578 7.53757472,13.2770824 6.48905498,15.5032928 L6.47036137,15.364961 C6.22806344,13.5014237 6.07731626,11.3757965 5.9845672,9.34358513 L10.5438905,8.91186565 C10.8930775,8.87913428 11.1495155,8.56997822 11.1166819,8.22164008 C11.0836086,7.87354086 10.7734864,7.61790176 10.4240597,7.65063312 L5.93327961,8.0759019 C5.85059633,5.73405664 5.85275329,3.40415712 5.85275329,1.06278968 C5.85275329,1.05418874 5.85275329,1.07139063 5.85275329,1.06278968 C5.85275329,0.490110323 5.21046006,0.0256594758 4.41813863,0.0256594758 C3.62629652,0.0256594758 2.98376363,0.490110323 2.98376363,1.06278968 L2.98376363,6.84333919 C2.98376363,6.84333919 2.9801687,7.41769096 2.99982096,8.35352119 L1.53500893,8.49209191 C1.18558224,8.52482327 0.929144267,8.83421826 0.962217575,9.18231748 C0.995051222,9.53065561 1.3051734,9.78629471 1.65460009,9.75356335 L3.03600987,9.6226379 C3.13211419,12.2863017 3.40149389,16.3411679 4.15618844,19.3913962 C3.17621194,20.7696971 1.9714328,22.1334242 0.503025846,23.3139035 C0.270793703,23.422132 0.109261748,23.6574633 0.109261748,23.9291097 C0.109261748,24.3037285 0.414590695,24.6083452 0.789900846,24.6083452 C0.908533365,24.6083452 1.02045536,24.578003 1.11751833,24.524486 C1.12998073,24.5173185 1.14220348,24.5099122 1.15442622,24.5029836 C1.15490555,24.5025058 1.15538487,24.5022669 1.15586419,24.502028 C2.60102397,23.6481456 3.84486795,22.6791062 4.91232096,21.667062 C5.18505592,22.2636329 5.49637641,22.747197 5.85179464,23.076183 C8.8132937,25.8177331 11.3733595,23.6617638 11.7129601,19.9344501 C12.0214046,18.0553833 9.83113675,17.2394884 9.4301828,19.5959075 C9.02898919,21.9523266 7.82612735,20.3656918 7.82612735,20.3656918 C7.6020437,20.0622697 7.40312453,19.6284 7.22649389,19.0929914 L7.21858506,19.0688609 Z" id="Fill-17"></path>
                </g>
                <path d="M44.1524352,23.9892446 C44.1524352,24.7532949 43.4030132,25.3730405 42.4791175,25.3730405 C41.5554615,25.3730405 40.8060395,24.7532949 40.8060395,23.9892446 L40.8060395,19.0045211 C37.9351325,22.7218003 33.0496297,24.2549181 31.7707951,24.603973 C31.5687603,24.6591624 31.4565987,24.6844874 31.4565987,24.6844874 C31.0990235,24.6847263 30.8087932,24.3956391 30.8087932,24.0389389 C30.8087932,23.6822388 31.0990235,23.3929127 31.4568383,23.3929127 C31.4568383,23.3929127 36.2356917,21.0422275 38.181984,17.6563235 L31.0796109,17.6563235 L31.0633139,17.6563235 L31.0633139,17.6563235 L31.0470169,17.6556068 L31.0307199,17.6546511 L31.0146626,17.6532176 L31.0144229,17.6532176 L30.9986053,17.6515452 L30.9827876,17.6491561 L30.9825479,17.6491561 L30.9672096,17.6467669 L30.9669699,17.6467669 L30.9513919,17.643661 L30.9511523,17.643661 L30.9360536,17.6403162 L30.9358139,17.6403162 L30.9207152,17.6364936 L30.9204756,17.6364936 L30.9056165,17.6326709 L30.9053769,17.6326709 L30.8902782,17.6281315 L30.8902782,17.6281315 L30.8756588,17.6233532 L30.8754192,17.6233532 L30.8605602,17.6180971 L30.8461805,17.6126021 L30.8318008,17.6066292 L30.8315611,17.6066292 L30.8176607,17.6004174 L30.8174211,17.6004174 L30.8035207,17.5939667 L30.78986,17.5872771 L30.7896203,17.5872771 L30.7759596,17.5798707 L30.7759596,17.5798707 L30.7625385,17.5727033 L30.7493571,17.5645801 L30.7491175,17.5645801 L30.7364154,17.556457 L30.7361758,17.556457 L30.723234,17.548095 L30.7110113,17.5394941 L30.7107716,17.5394941 L30.6985489,17.5304153 L30.6983092,17.5304153 L30.6863261,17.5210976 L30.6863261,17.5210976 L30.674343,17.511541 L30.6741034,17.511541 L30.6628393,17.5017455 L30.6513355,17.4914721 L30.6510959,17.4914721 L30.6398318,17.4811988 L30.6288073,17.4702087 L30.6285677,17.4702087 L30.6182622,17.4594575 L30.6079568,17.4484674 L30.597891,17.4369995 L30.5878252,17.4252927 L30.5875855,17.4252927 L30.5784784,17.4135858 L30.5782387,17.4135858 L30.5688919,17.4014012 L30.5597848,17.3889776 L30.551157,17.3763151 L30.5509173,17.3763151 L30.5427688,17.3636526 L30.5425291,17.3636526 L30.5346203,17.3505123 L30.5343806,17.3505123 L30.5267115,17.3373719 L30.5267115,17.3373719 L30.519282,17.3239927 L30.5190423,17.3239927 L30.5120921,17.3103745 L30.5118524,17.3103745 L30.5051419,17.2965175 L30.5049023,17.2965175 L30.4984314,17.2826604 L30.4922002,17.2683255 L30.4922002,17.2683255 L30.486688,17.2539906 L30.4864483,17.2539906 L30.4809361,17.2396557 L30.4806964,17.2396557 L30.4756635,17.2248429 L30.4756635,17.2248429 L30.4708703,17.2100302 L30.4706306,17.2100302 L30.4665564,17.1949786 L30.4663167,17.1949786 L30.4622425,17.1799269 L30.4586476,17.1646364 L30.4584079,17.1646364 L30.4550526,17.1491069 L30.454813,17.1491069 L30.4521767,17.1335774 L30.4495404,17.1180479 L30.4473835,17.1020406 L30.4471438,17.1020406 L30.4454662,17.0857944 L30.4452265,17.0857944 L30.4440282,17.070026 L30.4437885,17.070026 L30.4430695,17.0537798 L30.4428299,17.0537798 L30.4423506,17.0372946 L30.4421109,17.0208095 L30.4423506,17.0048022 L30.4428299,16.9880781 L30.4430695,16.9880781 L30.4437885,16.9720708 L30.4440282,16.9720708 L30.4452265,16.9558246 L30.4454662,16.9558246 L30.4471438,16.9400562 L30.4473835,16.9400562 L30.4495404,16.9240489 L30.4521767,16.9087583 L30.454813,16.892751 L30.4550526,16.892751 L30.4584079,16.8776994 L30.4586476,16.8776994 L30.4622425,16.8621699 L30.4663167,16.8471183 L30.4665564,16.8471183 L30.4706306,16.8318277 L30.4708703,16.8318277 L30.4756635,16.8172539 L30.4756635,16.8172539 L30.4806964,16.8024411 L30.4809361,16.8024411 L30.4864483,16.7881062 L30.486688,16.7881062 L30.4922002,16.7735324 L30.4922002,16.7735324 L30.4984314,16.7596754 L30.5049023,16.7455794 L30.5051419,16.7455794 L30.5118524,16.7319612 L30.5120921,16.7319612 L30.5190423,16.7178652 L30.519282,16.7178652 L30.5267115,16.7047249 L30.5267115,16.7047249 L30.5343806,16.6915846 L30.5346203,16.6915846 L30.5425291,16.6784442 L30.5427688,16.6784442 L30.5509173,16.6655428 L30.551157,16.6655428 L30.5597848,16.6531192 L30.5688919,16.6406957 L30.5782387,16.6287499 L30.5784784,16.6287499 L30.5875855,16.6168042 L30.5878252,16.6168042 L30.597891,16.6050973 L30.6079568,16.5933905 L30.6182622,16.5824004 L30.6285677,16.5714103 L30.6288073,16.5714103 L30.6398318,16.560898 L30.6510959,16.5503858 L30.6513355,16.5503858 L30.6628393,16.5403513 L30.6741034,16.5305558 L30.674343,16.5305558 L30.6863261,16.5209992 L30.6863261,16.5209992 L30.6983092,16.5116815 L30.6985489,16.5116815 L30.7107716,16.5026028 L30.7110113,16.5026028 L30.723234,16.4937629 L30.7361758,16.4854009 L30.7364154,16.4854009 L30.7491175,16.4772778 L30.7493571,16.4772778 L30.7625385,16.4696325 L30.7759596,16.4619872 L30.7759596,16.4619872 L30.7896203,16.4548198 L30.78986,16.4548198 L30.8035207,16.4481301 L30.8174211,16.4414405 L30.8176607,16.4414405 L30.8315611,16.4349898 L30.8318008,16.4349898 L30.8461805,16.4294948 L30.8605602,16.4237608 L30.8754192,16.4187436 L30.8756588,16.4187436 L30.8902782,16.4137264 L30.8902782,16.4137264 L30.9053769,16.4094259 L30.9056165,16.4094259 L30.9204756,16.4053643 L30.9207152,16.4053643 L30.9358139,16.4015417 L30.9360536,16.4015417 L30.9511523,16.3981969 L30.9513919,16.3981969 L30.9669699,16.395091 L30.9672096,16.395091 L30.9825479,16.3927018 L30.9827876,16.3927018 L30.9986053,16.3905516 L31.0144229,16.3886403 L31.0146626,16.3886403 L31.0307199,16.3872068 L31.0470169,16.3862511 L31.0633139,16.3855344 L31.0633139,16.3855344 L31.0796109,16.3850566 L40.8060395,16.3850566 L40.8060395,15.3438648 C40.8060395,14.5795756 41.5554615,13.9598299 42.4791175,13.9598299 C43.4030132,13.9598299 44.1524352,14.5795756 44.1524352,15.3438648 L44.1524352,16.3850566 L53.8769464,16.3850566 L53.8930038,16.3855344 L53.8932434,16.3855344 L53.9097801,16.3862511 L53.9255977,16.3872068 L53.9258374,16.3872068 L53.9416551,16.3886403 L53.9418947,16.3886403 L53.9579521,16.3905516 L53.9581917,16.3905516 L53.9737697,16.3927018 L53.9895874,16.395091 L54.0051654,16.3981969 L54.0054051,16.3981969 L54.0205038,16.4015417 L54.0360818,16.4053643 L54.0509408,16.4094259 L54.0511805,16.4094259 L54.0662791,16.4137264 L54.0811382,16.4187436 L54.0959972,16.4237608 L54.0962368,16.4237608 L54.1101372,16.4294948 L54.1103769,16.4294948 L54.1249962,16.4349898 L54.1388966,16.4414405 L54.1391363,16.4414405 L54.1530367,16.4481301 L54.1666974,16.4548198 L54.166937,16.4548198 L54.1805977,16.4619872 L54.1940188,16.4696325 L54.2072002,16.4772778 L54.2074398,16.4772778 L54.2201419,16.4854009 L54.2330836,16.4937629 L54.2455461,16.5026028 L54.2457857,16.5026028 L54.2582481,16.5116815 L54.2699915,16.5209992 L54.2702312,16.5209992 L54.2822143,16.5305558 L54.293718,16.5403513 L54.3054615,16.5503858 L54.3167256,16.560898 L54.3169652,16.560898 L54.32775,16.5714103 L54.3382951,16.5824004 L54.3385348,16.5824004 L54.3488402,16.5933905 L54.358906,16.6050973 L54.3687321,16.6168042 L54.3689718,16.6168042 L54.3783186,16.6287499 L54.3876654,16.6406957 L54.3879051,16.6406957 L54.3967726,16.6531192 L54.4054004,16.6655428 L54.40564,16.6655428 L54.4140282,16.6784442 L54.4221767,16.6915846 L54.4296062,16.7047249 L54.4298459,16.7047249 L54.437515,16.7178652 L54.4447049,16.7319612 L54.4511758,16.7455794 L54.4514154,16.7455794 L54.4581259,16.7596754 L54.4583656,16.7596754 L54.4643571,16.7735324 L54.470109,16.7881062 L54.4756212,16.8024411 L54.4758609,16.8024411 L54.4806541,16.8172539 L54.4808938,16.8172539 L54.485687,16.8318277 L54.4859267,16.8318277 L54.4897613,16.8471183 L54.4900009,16.8471183 L54.4943148,16.8621699 L54.4981494,16.8776994 L54.4983891,16.8776994 L54.5015047,16.892751 L54.5043806,16.9087583 L54.5070169,16.9240489 L54.5072566,16.9240489 L54.5091739,16.9400562 L54.5094135,16.9400562 L54.5108515,16.9558246 L54.5110912,16.9558246 L54.5122895,16.9720708 L54.5125291,16.9720708 L54.5134878,16.9880781 L54.5137274,16.9880781 L54.5142068,17.0048022 L54.5144464,17.0048022 L54.5144464,17.0208095 L54.5144464,17.0372946 L54.5142068,17.0372946 L54.5137274,17.0537798 L54.5134878,17.0537798 L54.5125291,17.070026 L54.5122895,17.070026 L54.5110912,17.0857944 L54.5108515,17.0857944 L54.5094135,17.1020406 L54.5091739,17.1020406 L54.5072566,17.1180479 L54.5070169,17.1180479 L54.5043806,17.1335774 L54.5015047,17.1491069 L54.4983891,17.1646364 L54.4981494,17.1646364 L54.4943148,17.1799269 L54.4900009,17.1949786 L54.4897613,17.1949786 L54.4859267,17.2100302 L54.485687,17.2100302 L54.4808938,17.2248429 L54.4806541,17.2248429 L54.4758609,17.2396557 L54.4756212,17.2396557 L54.470109,17.2539906 L54.4643571,17.2683255 L54.4583656,17.2826604 L54.4581259,17.2826604 L54.4514154,17.2965175 L54.4511758,17.2965175 L54.4447049,17.3103745 L54.437515,17.3239927 L54.4298459,17.3373719 L54.4296062,17.3373719 L54.4221767,17.3505123 L54.4140282,17.3636526 L54.40564,17.3763151 L54.4054004,17.3763151 L54.3967726,17.3889776 L54.3879051,17.4014012 L54.3876654,17.4014012 L54.3783186,17.4135858 L54.3689718,17.4252927 L54.3687321,17.4252927 L54.358906,17.4369995 L54.3488402,17.4484674 L54.3385348,17.4594575 L54.3382951,17.4594575 L54.32775,17.4702087 L54.3169652,17.4811988 L54.3167256,17.4811988 L54.3054615,17.4914721 L54.293718,17.5017455 L54.2822143,17.511541 L54.2702312,17.5210976 L54.2699915,17.5210976 L54.2582481,17.5304153 L54.2457857,17.5394941 L54.2455461,17.5394941 L54.2330836,17.548095 L54.2201419,17.556457 L54.2074398,17.5645801 L54.2072002,17.5645801 L54.1940188,17.5727033 L54.1805977,17.5798707 L54.166937,17.5872771 L54.1666974,17.5872771 L54.1530367,17.5939667 L54.1391363,17.6004174 L54.1388966,17.6004174 L54.1249962,17.6066292 L54.1103769,17.6126021 L54.1101372,17.6126021 L54.0962368,17.6180971 L54.0959972,17.6180971 L54.0811382,17.6233532 L54.0662791,17.6281315 L54.0511805,17.6326709 L54.0509408,17.6326709 L54.0360818,17.6364936 L54.0205038,17.6403162 L54.0054051,17.643661 L54.0051654,17.643661 L53.9895874,17.6467669 L53.9737697,17.6491561 L53.9581917,17.6515452 L53.9579521,17.6515452 L53.9418947,17.6532176 L53.9416551,17.6532176 L53.9258374,17.6546511 L53.9255977,17.6546511 L53.9097801,17.6556068 L53.8932434,17.6563235 L53.8930038,17.6563235 L53.8769464,17.6563235 L46.7745733,17.6563235 C48.7206259,21.0422275 53.4999586,23.3931516 53.4999586,23.3931516 C53.8577735,23.3929127 54.1477641,23.6822388 54.1477641,24.0389389 C54.1477641,24.3956391 53.8577735,24.6847263 53.4999586,24.6844874 C53.4999586,24.6844874 53.387797,24.6591624 53.1857622,24.603973 C51.9071673,24.2549181 47.0233421,22.7222781 44.1524352,19.0066714 L44.1524352,23.9892446 Z" id="Fill-20" fill="#7C0E93"></path>
                <path d="M32.8859168,2.10424426 C32.700898,3.24386902 31.6864102,5.26317898 31.6864102,5.26317898 C31.4232617,5.11529056 31.1732946,4.99893894 30.9573595,4.93705994 C30.867726,4.87709226 30.7598783,4.84221067 30.643882,4.84221067 C30.3332805,4.84221067 30.0811565,5.09354929 30.0811565,5.40342211 C30.0811565,5.56731783 30.1513773,5.71472841 30.2640183,5.81722296 C32.4348736,8.67130209 31.6152307,7.64157824 32.4348736,8.67130209 C32.5700428,8.84905488 32.7545822,8.98738669 32.9683604,9.06551191 C32.1415277,10.3530251 31.3501649,11.5550067 31.2308134,11.7361043 C31.220508,11.7513948 31.2152354,11.7597569 31.2152354,11.7597569 C31.1572373,11.7504392 31.0978012,11.745422 31.0371668,11.745422 L31.0347702,11.745422 C30.4130879,11.745422 29.9090794,12.2480992 29.9090794,12.8678448 C29.9090794,13.4873516 30.4130879,13.9900288 31.0347702,13.9900288 C31.0347702,13.9900288 32.5082101,14.1995573 36.1050522,12.7032324 C36.160414,12.9531375 36.2066687,13.1891856 36.2354281,13.3917855 C36.2524441,13.5131544 36.2637082,13.6232942 36.2665841,13.7169489 C36.31907,13.933167 36.4326696,14.1340946 36.5963586,14.2915396 C36.6941405,14.3844775 36.8096574,14.4623639 36.9400334,14.5194645 C37.5365512,14.7805987 38.232289,14.5089523 38.4937599,13.9145317 C38.6265324,13.6120652 38.6212599,13.2842738 38.505743,13.0004427 C38.2771057,12.4196402 37.9188116,11.8187689 37.6046151,11.2871829 C37.4603388,11.0379945 36.9534544,10.2954466 36.9534544,10.2954466 C36.7720305,10.055098 36.589648,9.8481976 36.4163727,9.70484857 C36.3588539,9.61429977 36.2747326,9.53880261 36.1678435,9.49269201 C35.8836048,9.36845619 35.5511941,9.49770923 35.42657,9.7815403 C35.3604234,9.93181786 35.3659356,10.0949968 35.4268097,10.2340454 C35.4268097,10.2340454 35.6094319,10.8115031 35.8047561,11.5179748 L33.0946621,11.6472279 C33.9540888,11.0580634 36.7799394,7.60024594 37.2201978,7.26361464 C37.6829845,6.90930363 38.1301931,5.49253742 37.1430268,4.81473544 C36.1558604,4.13693346 35.2458651,5.03047572 34.9836753,5.73885883 C34.9129751,5.92951303 34.6066875,6.45440939 34.1973454,7.11930996 C34.1786518,7.10115241 34.1589995,7.08371162 34.1391076,7.06674865 C34.1391076,7.06674865 33.4675757,6.47638957 32.6819648,5.91063875 C33.6034638,5.15686178 34.5726555,3.98068302 35.3381349,2.98201813 C36.2946245,1.73464268 35.1377777,1.27258099 34.5671433,1.04131122 C33.9965089,0.810280374 33.0709356,0.964380578 32.8859168,2.10424426" id="Fill-22" fill="#7C0E93"></path>
                <path d="M49.342524,2.10424426 C49.1575052,3.24386902 48.1430174,5.26317898 48.1430174,5.26317898 C47.8798689,5.11529056 47.6299018,4.99893894 47.413727,4.93705994 C47.3243332,4.87709226 47.2167251,4.84221067 47.1007289,4.84221067 C46.789648,4.84221067 46.5377636,5.09354929 46.5377636,5.40342211 C46.5377636,5.56731783 46.6082242,5.71472841 46.7203858,5.81722296 C48.8912411,8.67130209 48.0715982,7.64157824 48.8912411,8.67130209 C49.0266499,8.84905488 49.2109497,8.98738669 49.4252072,9.06551191 C48.5981349,10.3530251 47.8070117,11.5550067 47.6874206,11.7361043 C47.6773548,11.7513948 47.6718426,11.7597569 47.6718426,11.7597569 C47.6138445,11.7504392 47.5541687,11.745422 47.4935343,11.745422 L47.4913773,11.745422 C46.8699347,11.745422 46.3656866,12.2480992 46.3656866,12.8678448 C46.3656866,13.4873516 46.8699347,13.9900288 47.4913773,13.9900288 C47.4913773,13.9900288 48.9648172,14.1995573 52.561899,12.7032324 C52.6172608,12.9531375 52.6630362,13.1891856 52.6920352,13.3917855 C52.7090512,13.5131544 52.7203153,13.6232942 52.7231913,13.7169489 C52.7756772,13.933167 52.8890371,14.1340946 53.0532054,14.2915396 C53.1507477,14.3844775 53.2660249,14.4623639 53.3966405,14.5194645 C53.9931584,14.7805987 54.6886565,14.5089523 54.950367,13.9145317 C55.0831396,13.6120652 55.077867,13.2842738 54.9623501,13.0004427 C54.7339525,12.4196402 54.3754187,11.8187689 54.0609826,11.2871829 C53.916946,11.0379945 53.4100616,10.2954466 53.4100616,10.2954466 C53.2286377,10.055098 53.0462552,9.8481976 52.8727401,9.70484857 C52.8157007,9.61429977 52.7311001,9.53880261 52.6246903,9.49269201 C52.3402119,9.36845619 52.0078012,9.49770923 51.8834168,9.7815403 C51.8167909,9.93181786 51.8227824,10.0949968 51.8834168,10.2340454 C51.8834168,10.2340454 52.066039,10.8115031 52.2616029,11.5179748 L49.5515089,11.6472279 C50.410696,11.0580634 53.2365465,7.60024594 53.676805,7.26361464 C54.1395916,6.90930363 54.5865606,5.49253742 53.5996339,4.81473544 C52.6127072,4.13693346 51.7024723,5.03047572 51.4402824,5.73885883 C51.3695822,5.92951303 51.0635343,6.45440939 50.6539525,7.11930996 C50.6350193,7.10115241 50.6158463,7.08371162 50.5957148,7.06674865 C50.5957148,7.06674865 49.9244225,6.47638957 49.1383322,5.91063875 C50.0598313,5.15686178 51.0292627,3.98068302 51.794742,2.98201813 C52.7512317,1.73464268 51.5943849,1.27258099 51.0239901,1.04131122 C50.4531161,0.810280374 49.5275428,0.964380578 49.342524,2.10424426" id="Fill-24" fill="#7C0E93"></path>
                <polygon id="Fill-26" fill="#F13232" points="44.10086 2.00404329 42.359718 3.00605298 40.6188158 4.00806268 40.6188158 2.00404329 40.6188158 2.38915045e-05 42.359718 1.00203359"></polygon>
                <polygon id="Fill-28" fill="#F13232" points="79.1857923 8.17371372 77.44489 9.17572342 75.7039878 10.177972 75.7039878 8.17371372 75.7039878 6.16969433 77.44489 7.17170403"></polygon>
                <polygon id="Fill-30" fill="#F13232" points="24.6250672 3.94475019 22.8839253 4.94675989 21.143023 5.9490085 21.143023 3.94475019 21.143023 1.9407308 22.8839253 2.94297941"></polygon>
                <path d="M41.0690442,9.73215656 L43.8893825,9.73215656 L43.8893825,11.9232464 C43.8893825,12.2022992 43.6645799,12.4316576 43.3920846,12.4316576 L41.5661024,12.4316576 C41.2936071,12.4316576 41.0690442,12.202777 41.0690442,11.9232464 L41.0690442,9.73215656 Z M46.1513092,9.14729253 C46.4683816,8.83096901 46.6510038,8.37535802 46.6510038,7.85643454 L46.6510038,6.48506219 C46.6510038,5.49882088 45.8169812,4.69224369 44.7996175,4.69224369 L40.1585695,4.69224369 C39.1412058,4.69224369 38.3074229,5.49977654 38.3074229,6.48506219 L38.3074229,7.85643454 C38.3074229,8.37535802 38.4898055,8.83096901 38.8068778,9.14729253 C38.4898055,9.46385496 38.3074229,9.91898812 38.3074229,10.4379116 L38.3074229,11.8095229 C38.3074229,12.7945696 39.1402472,13.6021025 40.1585695,13.6021025 L44.7996175,13.6021025 C45.460844,13.6021025 46.0437011,13.2621263 46.3713186,12.7537151 C46.3938468,12.532002 46.4813233,12.3289242 46.6143355,12.1643117 C46.638062,12.0496325 46.6510038,11.9308917 46.6510038,11.8095229 L46.6510038,10.4379116 C46.6510038,9.91898812 46.4683816,9.46385496 46.1513092,9.14729253 L46.1513092,9.14729253 Z M41.0690442,8.23439814 L41.0690442,6.47837257 C41.0690442,6.19908088 41.2928882,5.97020027 41.5661024,5.97020027 L43.3920846,5.97020027 C43.6652989,5.97020027 43.8893825,6.19979762 43.8893825,6.47837257 L43.8893825,8.23439814 L43.8893825,8.45419999 L41.0690442,8.45419999 L41.0690442,8.23439814 Z" id="Fill-32" fill="#7C0E93"></path>
            </g>
        </g>
    </g>
</svg>