<?xml version="1.0" encoding="UTF-8"?>
<svg width="21px" height="21px" viewBox="0 0 21 21" version="1.1" xmlns="http://www.w3.org/2000/svg" xmlns:xlink="http://www.w3.org/1999/xlink">
    <!-- Generator: Sketch 42 (36781) - http://www.bohemiancoding.com/sketch -->
    <title>medialibrary</title>
    <desc>Created with Sketch.</desc>
    <defs></defs>
    <g id="Page-1" stroke="none" stroke-width="1" fill="none" fill-rule="evenodd">
        <g id="medialibrary" fill="#FFFFFF">
            <g id="medialibrary_20" transform="translate(2.000000, 3.000000)">
                <path d="M12.74,12.072 C15.1419616,9.77145774 15.5741009,6.09026651 13.7702251,3.29599619 C11.9663494,0.501725864 8.433673,-0.619929615 5.34828256,0.621956142 C2.26289211,1.8638419 0.492338767,5.12007501 1.12726226,8.38485472 C1.76218575,11.6496344 4.62405807,14.0049688 7.95,14 L8.19,14 C9.44942748,14.0267542 10.7041621,13.8380367 11.9,13.442 C13.3697709,12.8490585 15.0128324,12.852646 16.48,13.452 L16.74,12.963 L17,12.474 C15.6625096,11.8764535 14.165661,11.7352016 12.74,12.072 L12.74,12.072 Z M11.24,2.994 C11.3341513,2.93918429 11.446315,2.92430028 11.5515041,2.95266376 C11.6566931,2.98102723 11.7461694,3.05028205 11.8,3.145 L13.19,5.57 C13.2983584,5.76761278 13.2323151,6.01549562 13.04,6.133 C12.6258392,6.37163431 12.1337695,6.43573853 11.6722935,6.31117754 C11.2108176,6.18661655 10.8178352,5.88362022 10.58,5.469 C10.08742,4.60216616 10.3812063,3.5004675 11.24,2.994 L11.24,2.994 Z M4.66,11.005 C4.56591299,11.0600919 4.45365565,11.0751304 4.3483857,11.0467451 C4.24311575,11.0183598 4.15363617,10.9489244 4.1,10.854 L2.71,8.429 C2.60174481,8.23168688 2.66781984,7.98412575 2.86,7.867 C3.27403947,7.62828307 3.76601771,7.56402677 4.22747918,7.68839626 C4.68894064,7.81276575 5.08199707,8.11554969 5.32,8.53 C5.81258005,9.39683384 5.51879374,10.4985325 4.66,11.005 Z M5.32,5.469 C5.0821648,5.88362022 4.68918243,6.18661655 4.22770646,6.31117754 C3.76623049,6.43573853 3.27416081,6.37163431 2.86,6.133 C2.66768495,6.01549562 2.60164156,5.76761278 2.71,5.57 L4.1,3.145 C4.15383057,3.05028205 4.2433069,2.98102723 4.34849594,2.95266376 C4.45368498,2.92430028 4.56584874,2.93918429 4.66,2.994 C5.51879374,3.5004675 5.81258005,4.60216616 5.32,5.469 L5.32,5.469 Z M9.34,12.284 L6.56,12.284 C6.45074878,12.2845408 6.34584472,12.2412427 6.26877969,12.1638018 C6.19171465,12.0863608 6.14892756,11.9812473 6.15,11.872 C6.14999969,11.2289217 6.49307769,10.6346928 7.04999975,10.3131536 C7.60692182,9.99161434 8.29307818,9.99161434 8.85000025,10.3131536 C9.40692231,10.6346928 9.75000031,11.2289217 9.75,11.872 C9.75107244,11.9812473 9.70828535,12.0863608 9.63122031,12.1638018 C9.55415528,12.2412427 9.44925122,12.2845408 9.34,12.284 L9.34,12.284 Z M6.64,7 C6.64496249,6.27769935 7.23364866,5.69571104 7.9559588,5.69901369 C8.67826895,5.70231635 9.26160851,6.28966358 9.2599657,7.01197941 C9.25832289,7.73429524 8.67231769,8.31898295 7.95,8.319 C7.22459523,8.31514519 6.63888814,7.72541416 6.64,7 L6.64,7 Z M7.95,3.939 C6.95349138,3.93349497 6.14888366,3.1235232 6.15,2.127 C6.14919892,2.01783405 6.19207349,1.91287825 6.26907951,1.8354966 C6.34608552,1.75811494 6.45083145,1.71473014 6.56,1.715 L9.34,1.715 C9.44916855,1.71473014 9.55391448,1.75811494 9.63092049,1.8354966 C9.70792651,1.91287825 9.75080108,2.01783405 9.75,2.127 C9.75111634,3.1235232 8.94650862,3.93349497 7.95,3.939 Z M11.8,10.854 C11.7463638,10.9489244 11.6568842,11.0183598 11.5516143,11.0467451 C11.4463443,11.0751304 11.334087,11.0600919 11.24,11.005 C10.3812063,10.4985325 10.08742,9.39683384 10.58,8.53 C10.8180029,8.11554969 11.2110594,7.81276575 11.6725208,7.68839626 C12.1339823,7.56402677 12.6259605,7.62828307 13.04,7.867 C13.2321802,7.98412575 13.2982552,8.23168688 13.19,8.429 L11.8,10.854 Z" id="medialibrary_20.svg"></path>
            </g>
        </g>
    </g>
</svg>