<?xml version="1.0" encoding="UTF-8"?>
<svg width="34px" height="34px" viewBox="0 0 34 34" version="1.1" xmlns="http://www.w3.org/2000/svg" xmlns:xlink="http://www.w3.org/1999/xlink">
    <!-- Generator: Sketch 42 (36781) - http://www.bohemiancoding.com/sketch -->
    <title>onedrive_business</title>
    <desc>Created with Sketch.</desc>
    <defs>
        <polygon id="path-1" points="23.1366667 13.1727149 23.1366667 0.0693679117 0.0327920511 0.0693679117 0.0327920511 13.1727149 23.1366667 13.1727149"></polygon>
    </defs>
    <g id="Page-1" stroke="none" stroke-width="1" fill="none" fill-rule="evenodd">
        <g id="onedrive_business">
            <g id="Page-1" transform="translate(-788.000000, -389.000000)" fill="#272525">
                <path d="M2045.5422,293.7977 L1980.4512,293.7977 C1973.1832,293.7977 1969.4692,297.6037 1967.6012,302.5457 C1953.2422,340.2817 1938.9382,378.0397 1924.6902,415.8187 C1916.6472,437.2597 1894.9852,498.6487 1894.9852,498.6487 L1892.4652,498.6307 C1892.3722,498.4097 1876.5242,453.9687 1867.9352,431.7127 C1860.9912,413.6657 1824.7212,318.1597 1820.1412,306.3917 C1817.6852,300.0657 1814.9432,293.7977 1805.6322,293.7977 L1734.3842,293.7977 C1726.5502,293.7977 1722.1212,302.3937 1724.6412,307.7247 C1727.1902,313.0737 1840.7082,571.6597 1840.7082,571.6597 C1840.7082,571.6597 1718.7982,861.2137 1715.2252,867.7087 C1711.6622,874.2097 1716.1322,883.8357 1724.8042,883.8357 L1787.2462,883.8357 C1797.8672,883.8357 1802.0632,878.2667 1805.2532,869.2977 C1814.2282,844.1547 1827.5902,809.1947 1846.5172,755.1567 C1859.0472,719.3527 1878.8812,656.5027 1878.8812,656.5027 L1881.0632,656.5027 C1881.0632,656.5027 1902.7722,720.5577 1910.8552,741.4967 C1931.2552,794.4587 1957.3462,863.6287 1960.1222,870.9337 C1963.0032,878.5687 1967.0362,883.8417 1974.3342,883.8417 L2045.1462,883.8417 C2052.1522,883.8417 2055.4002,875.8457 2052.0952,868.8847 C2044.2142,852.2747 1976.9652,688.8787 1930.2662,581.4547 C1930.2662,581.4547 2051.4482,314.0217 2053.8172,307.4047 C2056.2272,300.7757 2055.5282,293.7977 2045.5412,293.7977 L2045.5422,293.7977 Z M243.9822,791.1357 C223.0592,811.3427 198.0102,821.9237 175.4642,821.9237 C152.9232,821.9237 135.5042,811.5117 121.5302,792.2187 C104.5242,768.7577 96.5922,732.6277 96.5922,692.5867 C96.5922,629.2657 119.9712,564.2917 169.5162,564.2917 C194.0412,564.2917 220.9812,572.2767 243.9762,590.5687 L243.9822,791.1357 Z M308.9852,356.1817 C281.9802,302.9757 233.8902,279.7247 178.7992,279.7247 C143.4082,279.7247 88.1762,293.2567 51.2842,309.8437 C44.0672,313.0907 39.5102,315.9427 39.5102,321.6167 C39.5102,324.9927 41.1922,328.8687 43.0372,332.2147 L67.8932,385.4327 C70.4542,391.4397 74.5632,392.8187 77.9562,392.8187 C81.6352,392.8187 84.6262,391.0787 87.9202,388.9657 C123.9052,365.9767 150.2572,353.3297 171.1222,353.3297 C198.7262,353.3297 217.4722,371.6397 229.0312,399.1797 C239.8032,424.8397 243.9642,460.2947 243.9642,501.2617 C243.9642,506.4827 243.9942,513.2967 243.9942,513.2967 C221.3192,499.1087 182.0352,491.2917 162.4212,491.2917 C56.9232,491.2917 0.0392,591.5287 0.0392,698.7207 C0.0392,814.2177 66.5322,898.9207 146.4332,898.9207 C190.9332,898.9207 231.2192,872.8077 258.2002,839.8717 C258.2002,839.8717 272.5702,874.1217 274.4442,878.2317 C276.3352,882.3287 278.3262,883.8477 283.7322,883.8477 L326.4332,883.8887 C331.1362,883.8887 334.6682,880.3557 334.6682,874.4477 L334.6682,542.4487 C334.6512,460.8597 330.5302,398.6267 308.9852,356.1817 L308.9852,356.1817 Z M1497.0282,535.6517 C1470.1352,535.6517 1421.1882,542.3037 1421.1882,542.3037 C1421.1882,542.3037 1421.8412,522.7837 1424.1922,504.0837 C1434.7262,404.6617 1458.4362,354.3657 1499.3682,354.3657 C1534.9572,354.3657 1559.3492,405.8197 1565.2032,495.8837 C1566.3612,514.6007 1566.3612,535.6517 1566.3612,535.6517 L1497.0282,535.6517 Z M1502.8782,281.8377 C1381.2752,281.8377 1321.2612,440.9087 1321.2612,614.0117 C1321.2612,795.2097 1406.8602,896.7617 1516.9162,896.7617 C1565.2912,896.7617 1613.4512,877.7247 1645.0302,860.1777 C1649.8662,857.4837 1650.7392,853.6937 1649.5812,849.0097 L1640.3452,810.7317 C1639.1922,806.0467 1636.8362,803.7187 1630.9982,803.7187 C1628.4322,803.7187 1588.5302,815.3877 1549.7172,815.3877 C1459.6472,815.3877 1418.3492,735.3217 1418.3492,628.9917 L1418.3492,603.1517 C1418.3492,603.1517 1463.1102,609.3377 1490.0052,609.3377 L1659.9242,609.3377 L1659.9242,560.2297 C1659.9302,378.9257 1596.4392,281.8377 1502.8782,281.8377 L1502.8782,281.8377 Z M963.1242,592.7277 C963.1242,472.6047 998.2822,353.6677 1070.0712,353.6677 C1094.3922,353.6677 1117.7432,361.6707 1140.7552,379.9447 L1140.7552,803.1247 C1122.7662,812.9137 1100.1382,821.9237 1075.6872,821.9237 C997.6192,821.9237 963.1242,729.3397 963.1242,592.7287 L963.1242,592.7277 Z M1223.1832,0.1177 L1150.1602,0.1177 C1144.2642,0.1177 1140.7432,3.6447 1140.7432,8.3637 L1140.7432,297.0867 C1112.7082,286.3367 1087.1882,280.6567 1066.5622,280.6567 C947.9742,280.6567 866.5652,394.0237 866.5652,612.0157 C866.5652,798.7717 945.7582,898.9267 1049.1082,898.9267 C1092.6652,898.9267 1128.6322,873.9657 1154.9612,850.5517 L1170.9022,877.5797 C1173.5912,882.2527 1175.7912,883.8537 1181.1972,883.8537 L1223.1942,883.8947 C1227.9022,883.8947 1231.4412,880.3607 1231.4412,874.4537 L1231.4412,8.3637 C1231.4302,2.4687 1229.0602,0.1177 1223.1832,0.1177 L1223.1832,0.1177 Z M655.1962,287.1977 C597.9862,287.1977 538.3382,328.9567 538.3382,328.9567 L538.3382,302.1207 C538.3382,296.2357 535.9862,293.8797 530.1022,293.8797 L457.0792,293.8797 C451.1902,293.8797 447.6572,297.4117 447.6572,302.1207 L447.6572,874.4427 C447.6572,880.3497 450.0142,883.8827 455.9042,883.8827 L530.0972,883.8827 C534.7992,883.8827 538.3322,880.3497 538.3322,874.4427 L538.3322,384.5427 C538.3322,384.5427 572.7682,362.7237 614.5972,362.7237 C654.4162,362.7237 685.8562,382.4877 685.8562,423.0127 L685.8562,874.4187 C685.8562,880.3257 689.3772,883.8597 695.2782,883.8597 L768.2842,883.8597 C774.1742,883.8597 776.5252,879.1337 776.5252,874.4187 L776.5252,397.3577 C776.5192,325.5107 732.3462,287.1977 655.1972,287.1977 L655.1962,287.1977 Z" id="Fill-1"></path>
            </g>
            <g id="Page-1" transform="translate(2.000000, 8.000000)">
                <path d="M14.7464472,0.237092727 C16.2456341,-0.214543636 17.8911626,0.00472909091 19.2911626,0.677274545 C21.2952276,1.60182 22.6846585,3.64482 22.9570163,5.82936545 C22.226935,5.82200182 21.4846585,5.92754727 20.8244959,6.25563818 C20.1903496,5.28036545 19.1903496,4.57836545 18.0960407,4.22000182 C16.4919756,3.70372909 14.6944146,3.92136545 13.2098618,4.69863818 C11.5749024,5.57491091 10.4936016,7.28000182 10.1399431,9.08327455 C8.74563415,9.34018364 7.37652846,10.0577291 6.56839837,11.2604564 C5.7513252,12.5065473 5.69604065,14.1347291 6.14726016,15.5256382 C6.26758537,15.9290018 6.5106748,16.2767291 6.65539024,16.6694564 C5.89441463,16.6719109 5.13343902,16.6694564 4.37246341,16.6710109 C3.91880488,16.65882 3.45782927,16.6465473 3.01880488,16.5171927 C1.48709756,16.0795473 0.256203252,14.69682 0.031,13.1054564 C-0.0722520325,12.1244564 0.0740894309,11.0837291 0.596853659,10.2352745 C1.23425203,9.18800182 2.40904878,8.56618364 3.59847967,8.41563818 C3.47246341,7.05418364 3.87815447,5.65836545 4.71880488,4.58491091 C5.49441463,3.56627455 6.69929268,2.91336545 7.95864228,2.75709273 C8.99034959,2.60736545 10.0391301,2.87082 10.9610813,3.33391091 C11.7749024,1.87427455 13.134252,0.697729091 14.7464472,0.237092727" id="Fill-1" fill="#1351B5"></path>
                <g id="Group-5" transform="translate(6.829268, 4.757564)">
                    <mask id="mask-2" fill="white">
                        <use xlink:href="#path-1"></use>
                    </mask>
                    <g id="Clip-4"></g>
                    <path d="M5.88057724,1.32050455 C6.82773171,0.441777273 8.14236585,0.0735954545 9.40903252,0.0711409091 C10.5366748,0.04005 11.6716341,0.418868182 12.552935,1.12823182 C13.0358618,1.49641364 13.4269187,1.96768636 13.7789512,2.46023182 C15.0309837,1.82614091 16.5716341,1.74514091 17.859439,2.32114091 C18.7033415,2.68768636 19.4212276,3.34223182 19.8513089,4.16123182 C20.2366748,4.88041364 20.3708211,5.71414091 20.3391138,6.52495909 C21.2748862,6.69023182 22.1797642,7.21305 22.6732602,8.04841364 C23.1147236,8.78314091 23.1976504,9.67659545 23.1000894,10.5144136 C23.0033415,11.1992318 22.7342358,11.8758682 22.258626,12.3839591 C21.7838293,12.8977773 21.0846423,13.1759591 20.3911463,13.1726864 C14.9399268,13.17105 9.48952033,13.1735045 4.03830081,13.17195 C2.98626829,13.1522318 1.88301626,12.8167773 1.14968293,12.0239591 C0.361065041,11.21805 0.057,10.0554136 0.0334227642,8.95168636 C0.0187886179,8.07050455 0.257813008,7.15250455 0.855373984,6.48732273 C1.66350407,5.57014091 2.89602439,5.15286818 4.08139024,5.05959545 C4.28057724,3.67195909 4.84155285,2.28514091 5.88057724,1.32050455" id="Fill-3" fill="#1351B5" mask="url(#mask-2)"></path>
                </g>
            </g>
        </g>
    </g>
</svg>