<?xml version="1.0" encoding="UTF-8"?>
<svg width="34px" height="34px" viewBox="0 0 34 34" version="1.1" xmlns="http://www.w3.org/2000/svg" xmlns:xlink="http://www.w3.org/1999/xlink">
    <!-- Generator: Sketch 42 (36781) - http://www.bohemiancoding.com/sketch -->
    <title>onedrive </title>
    <desc>Created with Sketch.</desc>
    <defs>
        <polygon id="path-1" points="23.1366667 13.1727149 23.1366667 0.0693679117 0.0327920511 0.0693679117 0.0327920511 13.1727149 23.1366667 13.1727149"></polygon>
    </defs>
    <g id="Page-1" stroke="none" stroke-width="1" fill="none" fill-rule="evenodd">
        <g id="onedrive-">
            <g id="Page-1" transform="translate(2.000000, 8.000000)">
                <path d="M14.7464472,0.237092727 C16.2456341,-0.214543636 17.8911626,0.00472909091 19.2911626,0.677274545 C21.2952276,1.60182 22.6846585,3.64482 22.9570163,5.82936545 C22.226935,5.82200182 21.4846585,5.92754727 20.8244959,6.25563818 C20.1903496,5.28036545 19.1903496,4.57836545 18.0960407,4.22000182 C16.4919756,3.70372909 14.6944146,3.92136545 13.2098618,4.69863818 C11.5749024,5.57491091 10.4936016,7.28000182 10.1399431,9.08327455 C8.74563415,9.34018364 7.37652846,10.0577291 6.56839837,11.2604564 C5.7513252,12.5065473 5.69604065,14.1347291 6.14726016,15.5256382 C6.26758537,15.9290018 6.5106748,16.2767291 6.65539024,16.6694564 C5.89441463,16.6719109 5.13343902,16.6694564 4.37246341,16.6710109 C3.91880488,16.65882 3.45782927,16.6465473 3.01880488,16.5171927 C1.48709756,16.0795473 0.256203252,14.69682 0.031,13.1054564 C-0.0722520325,12.1244564 0.0740894309,11.0837291 0.596853659,10.2352745 C1.23425203,9.18800182 2.40904878,8.56618364 3.59847967,8.41563818 C3.47246341,7.05418364 3.87815447,5.65836545 4.71880488,4.58491091 C5.49441463,3.56627455 6.69929268,2.91336545 7.95864228,2.75709273 C8.99034959,2.60736545 10.0391301,2.87082 10.9610813,3.33391091 C11.7749024,1.87427455 13.134252,0.697729091 14.7464472,0.237092727" id="Fill-1" fill="#1351B5"></path>
                <g id="Group-5" transform="translate(6.829268, 4.757564)">
                    <mask id="mask-2" fill="white">
                        <use xlink:href="#path-1"></use>
                    </mask>
                    <g id="Clip-4"></g>
                    <path d="M5.88057724,1.32050455 C6.82773171,0.441777273 8.14236585,0.0735954545 9.40903252,0.0711409091 C10.5366748,0.04005 11.6716341,0.418868182 12.552935,1.12823182 C13.0358618,1.49641364 13.4269187,1.96768636 13.7789512,2.46023182 C15.0309837,1.82614091 16.5716341,1.74514091 17.859439,2.32114091 C18.7033415,2.68768636 19.4212276,3.34223182 19.8513089,4.16123182 C20.2366748,4.88041364 20.3708211,5.71414091 20.3391138,6.52495909 C21.2748862,6.69023182 22.1797642,7.21305 22.6732602,8.04841364 C23.1147236,8.78314091 23.1976504,9.67659545 23.1000894,10.5144136 C23.0033415,11.1992318 22.7342358,11.8758682 22.258626,12.3839591 C21.7838293,12.8977773 21.0846423,13.1759591 20.3911463,13.1726864 C14.9399268,13.17105 9.48952033,13.1735045 4.03830081,13.17195 C2.98626829,13.1522318 1.88301626,12.8167773 1.14968293,12.0239591 C0.361065041,11.21805 0.057,10.0554136 0.0334227642,8.95168636 C0.0187886179,8.07050455 0.257813008,7.15250455 0.855373984,6.48732273 C1.66350407,5.57014091 2.89602439,5.15286818 4.08139024,5.05959545 C4.28057724,3.67195909 4.84155285,2.28514091 5.88057724,1.32050455" id="Fill-3" fill="#1351B5" mask="url(#mask-2)"></path>
                </g>
            </g>
        </g>
    </g>
</svg>