<?xml version="1.0" encoding="UTF-8"?>
<svg width="27px" height="27px" viewBox="0 0 27 27" version="1.1" xmlns="http://www.w3.org/2000/svg" xmlns:xlink="http://www.w3.org/1999/xlink">
    <!-- Generator: Sketch 42 (36781) - http://www.bohemiancoding.com/sketch -->
    <title>qsirch</title>
    <desc>Created with Sketch.</desc>
    <defs>
        <polygon id="path-1" points="24.8532654 25 0.000253623188 25 0.000253623188 0.11076087 24.8532654 0.11076087 24.8532654 25"></polygon>
    </defs>
    <g id="Page-1" stroke="none" stroke-width="1" fill="none" fill-rule="evenodd">
        <g id="qsirch">
            <g id="Page-1" transform="translate(1.000000, 1.000000)">
                <path id="Fill-1" fill="#2E396B"></path>
                <g id="Group-5" transform="translate(0.000000, 0.070471)">
                    <mask id="mask-2" fill="white">
                        <use xlink:href="#path-1"></use>
                    </mask>
                    <g id="Clip-4"></g>
                    <path d="M11.0176449,19.9015217 C6.18014493,19.9015217 2.24445652,15.9658333 2.24445652,11.1281522 C2.24445652,6.29083333 6.18014493,2.35514493 11.0176449,2.35514493 C15.8551449,2.35514493 19.7908333,6.29083333 19.7908333,11.1281522 C19.7908333,15.9658333 15.8551449,19.9015217 11.0176449,19.9015217 M24.3930072,22.3178261 L19.5596739,18.0788768 C21.1062319,16.181413 22.0353986,13.7613043 22.0353986,11.1281522 C22.0353986,5.05315217 17.0928261,0.11076087 11.0176449,0.11076087 C4.94246377,0.11076087 0.000253623188,5.05315217 0.000253623188,11.1281522 C0.000253623188,17.2035145 4.94246377,22.1464493 11.0176449,22.1464493 C13.6328623,22.1464493 16.0377536,21.2297826 17.9292391,19.7018841 L22.1712681,24.5397464 C22.477971,24.8464493 22.8797826,25.0000725 23.2821377,25.0000725 C23.6843116,25.0000725 24.0864855,24.8464493 24.3930072,24.5397464 C25.0065942,23.9259783 25.0067754,22.931413 24.3930072,22.3178261" id="Fill-3" fill="#051FA0" mask="url(#mask-2)"></path>
                </g>
                <path d="M13.8146377,16.9269746 L11.9669928,16.5382065 C11.9144565,16.5070471 12.7173551,15.9903804 13.8269565,15.3059601 L13.6148188,14.9389312 L12.4448913,13.3365761 L11.0505072,13.727337 L10.8582971,10.5499819 L10.6557609,9.92461957 L10.303587,10.0786051 L7.76735507,11.1755254 C7.75721014,11.1802355 7.74724638,11.1840399 7.73692029,11.1874819 C7.65050725,11.2153804 9.61826087,7.28548913 9.61826087,7.28548913 C9.61826087,7.28548913 9.67532609,3.86211957 9.8351087,3.81030797 C5.75376812,4.46356884 2.97478261,8.30161232 3.62786232,12.3827717 C4.28112319,16.4639312 8.11916667,19.2429167 12.2001449,18.5900181 C12.4776812,18.5456341 12.7485145,18.4851268 13.0131884,18.4121196 L13.8146377,16.9269746 Z" id="Fill-6" fill="#8FC31F"></path>
                <path d="M13.827029,15.3059058 C12.7174275,15.9903261 11.9143478,16.5069928 11.9668841,16.5383333 L13.8147101,16.9269203 L13.0132609,18.4122464 C15.5138043,17.7236594 17.4165217,15.805 18.1601812,13.4339855 C18.2496739,13.1490217 18.3225,12.8573551 18.3773913,12.5604348 C17.100942,13.3205797 15.2219565,14.4455797 13.827029,15.3059058" id="Fill-8" fill="#051FA0"></path>
                <path d="M9.61826087,7.2854529 C9.61826087,7.2854529 7.65032609,11.2153442 7.73673913,11.1872645 C7.74706522,11.1840036 7.75757246,11.1801993 7.76753623,11.1756703 L10.303587,10.0785688 L10.6557609,9.92440217 L17.2403623,7.04269928 C15.665,4.68817029 12.8157246,3.33327899 9.8351087,3.81027174 C9.67514493,3.86190217 9.61826087,7.2854529 9.61826087,7.2854529" id="Fill-10" fill="#051FA0"></path>
            </g>
        </g>
    </g>
</svg>