<?xml version="1.0" encoding="UTF-8"?>
<svg width="34px" height="34px" viewBox="0 0 34 34" version="1.1" xmlns="http://www.w3.org/2000/svg" xmlns:xlink="http://www.w3.org/1999/xlink">
    <!-- Generator: Sketch 42 (36781) - http://www.bohemiancoding.com/sketch -->
    <title>yandex_disk</title>
    <desc>Created with Sketch.</desc>
    <defs>
        <polygon id="path-1" points="24.671718 10.9629531 24.671718 0.018854321 0.0356401945 0.018854321 0.0356401945 10.9629531"></polygon>
    </defs>
    <g id="Page-1" stroke="none" stroke-width="1" fill="none" fill-rule="evenodd">
        <g id="yandex_disk">
            <g id="Page-1" transform="translate(2.000000, 11.000000)">
                <g id="Group-3" transform="translate(5.299838, 1.029728)">
                    <mask id="mask-2" fill="white">
                        <use xlink:href="#path-1"></use>
                    </mask>
                    <g id="Clip-2"></g>
                    <path d="M24.5585737,3.59480494 L23.7782334,3.59480494 C23.6911021,3.59480494 23.646564,3.64112593 23.6241491,3.70127407 C23.4520259,4.16078025 23.2805835,4.62053333 23.1097245,5.08053333 C23.0133063,5.34161975 22.7536143,6.08907654 22.7536143,6.08907654 L22.7234198,6.08887901 C22.7222528,6.08616296 22.5322853,5.54502716 22.4293031,5.2740642 C22.3460616,5.05436049 21.9112318,3.89144691 21.8563371,3.74813827 C21.826872,3.67110123 21.7940519,3.59480494 21.6824149,3.59480494 L20.8281686,3.59480494 C20.7343274,3.59480494 20.6811831,3.69944691 20.7114263,3.76438519 C20.7419611,3.8294716 22.1029011,6.97811358 22.1029011,6.97811358 C22.1029011,6.97811358 20.6413614,10.5037432 20.5985251,10.5828543 C20.5558347,10.6619654 20.6093679,10.7792 20.7133712,10.7792 L21.4619125,10.7792 C21.5893031,10.7792 21.6396272,10.7113975 21.6778444,10.602163 C21.7854457,10.2960395 21.9456564,9.87036049 22.1725284,9.21238519 C22.3227715,8.77643457 22.5605348,8.01115062 22.5605348,8.01115062 L22.5866937,8.01115062 C22.5866937,8.01115062 22.8469692,8.79110123 22.9438736,9.0460642 C23.1884441,9.6909037 23.5012318,10.5331753 23.5344895,10.6221136 C23.5690113,10.7151012 23.6174392,10.7792494 23.7049109,10.7792494 L24.5538088,10.7792494 C24.6378768,10.7792494 24.6768233,10.681916 24.6371475,10.5971753 C24.5426742,10.3949037 23.7364668,8.40537284 23.1765802,7.09737284 C23.1765802,7.09737284 24.6294165,3.84102716 24.657812,3.76043457 C24.6866937,3.67974321 24.6783306,3.59480494 24.5585737,3.59480494 L24.5585737,3.59480494 Z M2.96017828,9.65045926 C2.70933549,9.89648395 2.40904376,10.0253728 2.1387034,10.0253728 C1.86850891,10.0253728 1.65967585,9.89855802 1.4921718,9.66369383 C1.28824959,9.37796543 1.19314425,8.9380642 1.19314425,8.45050864 C1.19314425,7.6794963 1.47345219,6.8883358 2.06747164,6.8883358 C2.36144246,6.8883358 2.68444084,6.98561975 2.96012966,7.2083358 L2.96017828,9.65045926 Z M3.73949757,4.35440988 C3.41572123,3.70655802 2.83920583,3.42339753 2.17871961,3.42339753 C1.75444084,3.42339753 1.09225284,3.58818765 0.649983793,3.79016296 C0.563435981,3.82971852 0.508833063,3.86443457 0.508833063,3.93352099 C0.508833063,3.97460741 0.528962723,4.02181728 0.5510859,4.06255802 L0.849092382,4.71055802 C0.879821718,4.78369383 0.929076175,4.80048395 0.969724473,4.80048395 C1.01387358,4.80048395 1.04970827,4.77929877 1.08918963,4.75357037 C1.52061588,4.47366914 1.83656402,4.31969383 2.08667747,4.31969383 C2.41764992,4.31969383 2.6423825,4.54260741 2.78090762,4.87791605 C2.91009724,5.19040988 2.95998379,5.62211358 2.95998379,6.12087901 C2.95998379,6.18443457 2.96032415,6.26744691 2.96032415,6.26744691 C2.6884765,6.09470617 2.21752026,5.9994963 1.9823825,5.9994963 C0.717568882,5.9994963 0.0356401945,7.21999012 0.0356401945,8.52522469 C0.0356401945,9.9314963 0.832755267,10.9629037 1.79071313,10.9629037 C2.32419773,10.9629037 2.8071637,10.6449284 3.1306483,10.2439407 C3.1306483,10.2439407 3.30291734,10.6609284 3.32538088,10.7110025 C3.34808752,10.7608296 3.37191248,10.7793481 3.43677472,10.7793481 L3.94867099,10.779842 C4.00502431,10.779842 4.04737439,10.7368296 4.04737439,10.6649284 L4.04737439,6.62245926 C4.0471799,5.6289284 3.99777958,4.8712 3.73944895,4.35440988 L3.73949757,4.35440988 Z M17.9826418,6.53964444 C17.6601783,6.53964444 17.0734036,6.6206321 17.0734036,6.6206321 C17.0734036,6.6206321 17.0812318,6.38295309 17.1093841,6.15529877 C17.235705,4.94468148 17.5199514,4.33228642 18.0106483,4.33228642 C18.4373096,4.33228642 18.7297731,4.95880494 18.7999352,6.05539753 C18.8138412,6.28329877 18.8138412,6.53964444 18.8138412,6.53964444 L17.9826418,6.53964444 Z M18.0527553,3.44917531 C16.5949109,3.44917531 15.8753971,5.38601481 15.8753971,7.4937679 C15.8753971,9.70008889 16.9015721,10.9366321 18.2210373,10.9366321 C18.8010049,10.9366321 19.3783955,10.7048296 19.7569692,10.4911506 C19.8149271,10.4583111 19.8253809,10.412237 19.8115235,10.3551506 L19.7008104,9.88907654 C19.6870016,9.83203951 19.658752,9.80364444 19.5887358,9.80364444 C19.5579579,9.80364444 19.079611,9.9457679 18.614295,9.9457679 C17.5344408,9.9457679 17.0393193,8.97085432 17.0393193,7.67613827 L17.0393193,7.36152099 C17.0393193,7.36152099 17.576013,7.43687901 17.8983793,7.43687901 L19.9355105,7.43687901 L19.9355105,6.8389037 C19.9356078,4.63129877 19.1744733,3.44917531 18.0527553,3.44917531 L18.0527553,3.44917531 Z M11.5817504,7.23460741 C11.5817504,5.77199012 12.0032577,4.32379259 12.8639222,4.32379259 C13.1555592,4.32379259 13.4354295,4.42117531 13.7113614,4.64369383 L13.7113614,9.79643457 C13.4956726,9.91564444 13.2244084,10.0253728 12.9312642,10.0253728 C11.9953323,10.0253728 11.5817504,8.8980642 11.5817504,7.23460741 L11.5817504,7.23460741 Z M14.6995138,0.018854321 L13.8241167,0.018854321 C13.7534198,0.018854321 13.7112156,0.061817284 13.7112156,0.119298765 L13.7112156,3.63485432 C13.3750891,3.50394074 13.0691572,3.43480494 12.8218639,3.43480494 C11.4001459,3.43480494 10.4241977,4.81515062 10.4241977,7.4694716 C10.4241977,9.74344691 11.3735494,10.9629531 12.6126418,10.9629531 C13.1347974,10.9629531 13.5660292,10.6590519 13.8816856,10.373916 L14.0727715,10.7030025 C14.1050081,10.7599407 14.13141,10.7793975 14.1962237,10.7793975 L14.6996596,10.7799407 C14.7561102,10.7799407 14.7986062,10.7369284 14.7986062,10.6649778 L14.7986062,0.119298765 C14.7984603,0.0474962963 14.7700648,0.018854321 14.6995138,0.018854321 L14.6995138,0.018854321 Z M7.89014587,3.51440988 C7.20423015,3.51440988 6.489141,4.0229037 6.489141,4.0229037 L6.489141,3.69613827 C6.489141,3.62448395 6.46094003,3.59579259 6.3904376,3.59579259 L5.51494327,3.59579259 C5.4443436,3.59579259 5.40199352,3.63880494 5.40199352,3.69613827 L5.40199352,10.6648296 C5.40199352,10.7367802 5.43024311,10.7797926 5.50084279,10.7797926 L6.39034036,10.7797926 C6.44669368,10.7797926 6.48904376,10.7367802 6.48904376,10.6648296 L6.48904376,4.69969383 C6.48904376,4.69969383 6.90189627,4.43401481 7.40338736,4.43401481 C7.88076175,4.43401481 8.25768233,4.67470617 8.25768233,5.16808889 L8.25768233,10.6645333 C8.25768233,10.736484 8.29988655,10.7794963 8.37063209,10.7794963 L9.24588331,10.7794963 C9.31648298,10.7794963 9.34473258,10.7219654 9.34473258,10.6645333 L9.34473258,4.85574321 C9.34463533,3.9809284 8.81504052,3.51440988 7.89014587,3.51440988 L7.89014587,3.51440988 Z" id="Fill-1" fill="#272525" mask="url(#mask-2)"></path>
                </g>
                <path d="M6.21948622,1.48148148e-05 L5.23527229,1.48148148e-05 C5.14809238,1.48148148e-05 5.0937812,0.0433728395 5.08113938,0.106434568 C5.06864344,0.169792593 3.6053047,4.70129877 3.49891896,5.07882963 C3.42350567,5.3463358 3.17767099,6.28984198 3.11869206,6.51640988 L2.60976175,5.1052 C2.4861637,4.71685432 1.30079903,1.35374321 1.26608266,1.21937284 C1.24697407,1.14554568 1.21347326,1.05369383 1.08603404,1.05369383 L0.1253047,1.05369383 C0.0312690438,1.05369383 -0.0216807131,1.15843457 0.00851377634,1.22332346 C0.0327763371,1.27522469 1.76820583,5.96440988 2.46934036,7.75591605 L2.46934036,11.6945333 C2.46934036,11.766484 2.49758995,11.8095457 2.56818963,11.8095457 L3.47820583,11.8095457 C3.5346564,11.8095457 3.57700648,11.766484 3.57700648,11.6945333 L3.57700648,7.78687901 C4.16130146,6.12895309 6.2961637,0.231718519 6.31940519,0.165693827 C6.34765478,0.0849037037 6.33929173,1.48148148e-05 6.21948622,1.48148148e-05" id="Fill-4" fill="#FF0000"></path>
            </g>
        </g>
    </g>
</svg>